<svg width="24" height="24" viewBox="0 0 24 24" fill="none" xmlns="http://www.w3.org/2000/svg">
<g clip-path="url(#clip0_158_3317)">
<path d="M23.5473 10.9306L13.0686 0.452667C12.4655 -0.150889 11.4867 -0.150889 10.8829 0.452667L8.707 2.62858L11.4672 5.38882C12.1087 5.1721 12.8442 5.31746 13.3556 5.82885C13.8694 6.3434 14.0137 7.08521 13.7917 7.72879L16.4519 10.389C17.0954 10.1672 17.838 10.3108 18.3521 10.8256C19.0704 11.5437 19.0704 12.7076 18.3521 13.4262C17.6334 14.1449 16.4695 14.1449 15.7506 13.4262C15.2102 12.8854 15.0767 12.0917 15.3503 11.426L12.8695 8.94512L12.8692 15.4736C13.0443 15.5605 13.2097 15.6761 13.3556 15.8215C14.074 16.5396 14.074 17.7035 13.3556 18.4227C12.637 19.1411 11.4725 19.1411 10.7549 18.4227C10.0366 17.7035 10.0366 16.5396 10.7549 15.8215C10.9324 15.6443 11.1378 15.5102 11.3569 15.4202V8.83083C11.1378 8.7413 10.9327 8.60806 10.7549 8.42952C10.2106 7.886 10.0798 7.08731 10.3586 6.41898L7.63787 3.69771L0.452865 10.8822C-0.150955 11.4863 -0.150955 12.4651 0.452865 13.0686L10.9316 23.5469C11.5349 24.1504 12.5135 24.1504 13.1175 23.5469L23.5473 13.1173C24.1509 12.5135 24.1509 11.5342 23.5473 10.9306Z" fill="#DE4C36"/>
</g>
<defs>
<clipPath id="clip0_158_3317">
<rect width="24" height="24" fill="white"/>
</clipPath>
</defs>
</svg>
