<svg width="24" height="24" viewBox="0 0 24 24" fill="none" xmlns="http://www.w3.org/2000/svg">
<g clip-path="url(#clip0_158_3284)">
<path d="M-0.000244141 0.00335693H23.9995V24.0031H-0.000244141V0.00335693Z" fill="#0051CD"/>
<path d="M14.454 0.383057L17.136 1.92538L6.57388 7.99939L3.89185 6.45704L14.454 0.383057Z" fill="white"/>
<path d="M17.2444 2.24924L6.74865 8.2823L6.74829 11.3345L17.244 5.30146L17.2444 2.24924Z" fill="white"/>
<path d="M13.0234 8.20618L6.77035 11.8004L6.77002 14.8529L13.023 11.2587L13.0234 8.20618Z" fill="white"/>
<path d="M10.6266 13.0316L6.75597 15.2566L6.75562 18.3091L10.6265 16.0841L10.6266 13.0316Z" fill="white"/>
<path d="M3.70123 6.75116L6.39904 8.30181L6.398 11.3549L3.7002 9.80424L3.70123 6.75116Z" fill="white"/>
<path d="M3.72687 10.2483L6.39195 11.7801L6.39091 14.8331L3.72583 13.3013L3.72687 10.2483Z" fill="white"/>
<path d="M3.72572 13.7244L6.39168 15.2567L6.39057 18.5112L3.72461 16.9788L3.72572 13.7244Z" fill="white"/>
<path d="M9.66641 23.6233L6.98438 22.081L17.4267 16.0762L20.1087 17.6185L9.66641 23.6233Z" fill="white"/>
<path d="M6.77173 21.8169L17.2517 15.793L17.252 12.7408L6.77206 18.7647L6.77173 21.8169Z" fill="white"/>
<path d="M10.9766 15.8694L17.2296 12.2752L17.2299 9.22266L10.9769 12.8169L10.9766 15.8694Z" fill="white"/>
<path d="M13.3738 11.0437L17.2444 8.8187L17.2447 5.7662L13.3741 7.99121L13.3738 11.0437Z" fill="white"/>
<path d="M20.2993 17.3446L17.6016 15.794L17.6026 12.7409L20.3004 14.2915L20.2993 17.3446Z" fill="white"/>
<path d="M20.2737 13.8278L17.6086 12.296L17.6097 9.24295L20.2747 10.7748L20.2737 13.8278Z" fill="white"/>
<path d="M20.2749 10.3517L17.6089 8.81938L17.61 5.62329L20.276 7.15563L20.2749 10.3517Z" fill="white"/>
</g>
<defs>
<clipPath id="clip0_158_3284">
<rect width="24" height="24" fill="white"/>
</clipPath>
</defs>
</svg>
