<svg width="20" height="20" viewBox="0 0 20 20" fill="none" xmlns="http://www.w3.org/2000/svg">
<path d="M18.3357 15.3281L10.3592 19.8438V16.3266L15.3217 13.5938L18.3357 15.3281ZM18.8826 14.8344V5.39844L15.9639 7.08594V13.15L18.8811 14.8328L18.8826 14.8344ZM1.68262 15.3281L9.65137 19.8406V16.3266L4.6873 13.5938L1.68262 15.3281ZM1.13574 14.8344V5.39844L4.05449 7.08594V13.15L1.13574 14.8344ZM1.47793 4.7875L9.65918 0.15625V3.55625L4.41699 6.43906L4.3748 6.4625L1.47793 4.7875ZM18.5373 4.7875L10.3592 0.15625V3.55625L15.6014 6.4375L15.6436 6.46094L18.5404 4.7875H18.5373Z" fill="#8ED6FB"/>
<path d="M9.65933 15.5266L4.75464 12.8281V7.48749L9.65933 10.3125V15.5266ZM10.3593 15.5266L15.264 12.8312V7.48749L10.3593 10.3125V15.5266ZM5.08745 6.87499L10.0093 4.16562L14.9312 6.87499L10.0093 9.71249L5.08745 6.87499Z" fill="#1C78C0"/>
</svg>
