<svg width="170" height="59" viewBox="0 0 170 59" fill="none" xmlns="http://www.w3.org/2000/svg">
<mask id="path-1-outside-1_249_804" maskUnits="userSpaceOnUse" x="0.29019" y="10.2092" width="46.3382" height="46.3382" fill="black">
<rect fill="white" x="0.29019" y="10.2092" width="46.3382" height="46.3382"/>
<path d="M41.8773 19.8673L36.0622 52.8466L38.7547 53.3782L38.4144 55.3085L23.855 52.7412L24.1953 50.811L26.9074 51.2324L29.6107 35.9009L17.2573 33.7226L14.554 49.0541L17.2465 49.5858L16.9062 51.516L2.34679 48.9488L2.68714 47.0185L5.39918 47.4399L11.2143 14.4606L8.52172 13.929L8.86207 11.9988L23.4215 14.566L23.0811 16.4962L20.3691 16.0749L17.6171 31.6821L29.9705 33.8603L32.7225 18.2531L30.0299 17.7215L30.3703 15.7912L44.9297 18.3585L44.5893 20.2887L41.8773 19.8673Z"/>
</mask>
<path d="M41.8773 19.8673L36.0622 52.8466L38.7547 53.3782L38.4144 55.3085L23.855 52.7412L24.1953 50.811L26.9074 51.2324L29.6107 35.9009L17.2573 33.7226L14.554 49.0541L17.2465 49.5858L16.9062 51.516L2.34679 48.9488L2.68714 47.0185L5.39918 47.4399L11.2143 14.4606L8.52172 13.929L8.86207 11.9988L23.4215 14.566L23.0811 16.4962L20.3691 16.0749L17.6171 31.6821L29.9705 33.8603L32.7225 18.2531L30.0299 17.7215L30.3703 15.7912L44.9297 18.3585L44.5893 20.2887L41.8773 19.8673Z" fill="#FF0000"/>
<path d="M41.8773 19.8673L42.0308 18.8792L41.0626 18.7288L40.8925 19.6937L41.8773 19.8673ZM36.0622 52.8466L35.0773 52.6729L34.9072 53.6379L35.8684 53.8276L36.0622 52.8466ZM38.7547 53.3782L39.7396 53.5519L39.9097 52.587L38.9484 52.3972L38.7547 53.3782ZM38.4144 55.3085L38.2407 56.2933L39.2256 56.4669L39.3992 55.4821L38.4144 55.3085ZM23.855 52.7412L22.8702 52.5676L22.6965 53.5524L23.6813 53.726L23.855 52.7412ZM24.1953 50.811L24.3489 49.8229L23.3807 49.6725L23.2105 50.6374L24.1953 50.811ZM26.9074 51.2324L26.7539 52.2205L27.722 52.3709L27.8922 51.406L26.9074 51.2324ZM29.6107 35.9009L30.5955 36.0745L30.7692 35.0897L29.7844 34.9161L29.6107 35.9009ZM17.2573 33.7226L17.431 32.7378L16.4461 32.5642L16.2725 33.549L17.2573 33.7226ZM14.554 49.0541L13.5691 48.8805L13.399 49.8454L14.3602 50.0352L14.554 49.0541ZM17.2465 49.5858L18.2313 49.7594L18.4015 48.7945L17.4402 48.6047L17.2465 49.5858ZM16.9062 51.516L16.7325 52.5008L17.7174 52.6744L17.891 51.6896L16.9062 51.516ZM2.34679 48.9488L1.36198 48.7751L1.18834 49.7599L2.17314 49.9336L2.34679 48.9488ZM2.68714 47.0185L2.84066 46.0304L1.87247 45.88L1.70233 46.8449L2.68714 47.0185ZM5.39918 47.4399L5.24566 48.428L6.21385 48.5784L6.38399 47.6135L5.39918 47.4399ZM11.2143 14.4606L12.1991 14.6343L12.3693 13.6694L11.408 13.4796L11.2143 14.4606ZM8.52172 13.929L7.53691 13.7553L7.36677 14.7203L8.32801 14.9101L8.52172 13.929ZM8.86207 11.9988L9.03572 11.014L8.05091 10.8403L7.87726 11.8251L8.86207 11.9988ZM23.4215 14.566L24.4063 14.7396L24.5799 13.7548L23.5951 13.5812L23.4215 14.566ZM23.0811 16.4962L22.9276 17.4844L23.8958 17.6348L24.0659 16.6699L23.0811 16.4962ZM20.3691 16.0749L20.5226 15.0867L19.5544 14.9363L19.3843 15.9012L20.3691 16.0749ZM17.6171 31.6821L16.6323 31.5085L16.4587 32.4933L17.4435 32.6669L17.6171 31.6821ZM29.9705 33.8603L29.7969 34.8452L30.7817 35.0188L30.9553 34.034L29.9705 33.8603ZM32.7225 18.2531L33.7073 18.4268L33.8775 17.4618L32.9162 17.2721L32.7225 18.2531ZM30.0299 17.7215L29.0451 17.5478L28.875 18.5127L29.8362 18.7025L30.0299 17.7215ZM30.3703 15.7912L30.5439 14.8064L29.5591 14.6328L29.3855 15.6176L30.3703 15.7912ZM44.9297 18.3585L45.9145 18.5321L46.0881 17.5473L45.1033 17.3737L44.9297 18.3585ZM44.5893 20.2887L44.4358 21.2768L45.404 21.4272L45.5741 20.4623L44.5893 20.2887ZM40.8925 19.6937L35.0773 52.6729L37.047 53.0202L42.8621 20.041L40.8925 19.6937ZM35.8684 53.8276L38.561 54.3593L38.9484 52.3972L36.2559 51.8655L35.8684 53.8276ZM37.7699 53.2046L37.4296 55.1348L39.3992 55.4821L39.7396 53.5519L37.7699 53.2046ZM38.588 54.3236L24.0286 51.7564L23.6813 53.726L38.2407 56.2933L38.588 54.3236ZM24.8398 52.9149L25.1802 50.9847L23.2105 50.6374L22.8702 52.5676L24.8398 52.9149ZM24.0418 51.7992L26.7539 52.2205L27.0609 50.2442L24.3489 49.8229L24.0418 51.7992ZM27.8922 51.406L30.5955 36.0745L28.6259 35.7272L25.9226 51.0587L27.8922 51.406ZM29.7844 34.9161L17.431 32.7378L17.0837 34.7074L29.4371 36.8857L29.7844 34.9161ZM16.2725 33.549L13.5691 48.8805L15.5388 49.2278L18.2421 33.8963L16.2725 33.549ZM14.3602 50.0352L17.0528 50.5668L17.4402 48.6047L14.7477 48.0731L14.3602 50.0352ZM16.2617 49.4121L15.9214 51.3423L17.891 51.6896L18.2313 49.7594L16.2617 49.4121ZM17.0798 50.5312L2.52044 47.964L2.17314 49.9336L16.7325 52.5008L17.0798 50.5312ZM3.3316 49.1224L3.67195 47.1922L1.70233 46.8449L1.36198 48.7751L3.3316 49.1224ZM2.53362 48.0067L5.24566 48.428L5.5527 46.4517L2.84066 46.0304L2.53362 48.0067ZM6.38399 47.6135L12.1991 14.6343L10.2295 14.287L4.41437 47.2662L6.38399 47.6135ZM11.408 13.4796L8.71543 12.9479L8.32801 14.9101L11.0206 15.4417L11.408 13.4796ZM9.50653 14.1026L9.84688 12.1724L7.87726 11.8251L7.53691 13.7553L9.50653 14.1026ZM8.68842 12.9836L23.2478 15.5508L23.5951 13.5812L9.03572 11.014L8.68842 12.9836ZM22.4367 14.3923L22.0963 16.3226L24.0659 16.6699L24.4063 14.7396L22.4367 14.3923ZM23.2346 15.5081L20.5226 15.0867L20.2156 17.063L22.9276 17.4844L23.2346 15.5081ZM19.3843 15.9012L16.6323 31.5085L18.6019 31.8558L21.3539 16.2485L19.3843 15.9012ZM17.4435 32.6669L29.7969 34.8452L30.1442 32.8755L17.7908 30.6973L17.4435 32.6669ZM30.9553 34.034L33.7073 18.4268L31.7377 18.0795L28.9857 33.6867L30.9553 34.034ZM32.9162 17.2721L30.2236 16.7404L29.8362 18.7025L32.5288 19.2342L32.9162 17.2721ZM31.0147 17.8951L31.3551 15.9649L29.3855 15.6176L29.0451 17.5478L31.0147 17.8951ZM30.1966 16.7761L44.756 19.3433L45.1033 17.3737L30.5439 14.8064L30.1966 16.7761ZM43.9449 18.1848L43.6045 20.115L45.5741 20.4623L45.9145 18.5321L43.9449 18.1848ZM44.7428 19.3005L42.0308 18.8792L41.7238 20.8555L44.4358 21.2768L44.7428 19.3005Z" fill="black" mask="url(#path-1-outside-1_249_804)"/>
<mask id="path-3-outside-2_249_804" maskUnits="userSpaceOnUse" x="41.9614" y="23.7086" width="33.1289" height="35.9016" fill="black">
<rect fill="white" x="41.9614" y="23.7086" width="33.1289" height="35.9016"/>
<path d="M56.1329 28.7878C59.2965 27.9015 62.0992 28.357 64.5413 30.1542C67.0091 31.9054 68.769 34.7273 69.8207 38.6199L55.0736 43.2746C55.9195 45.3251 57.1096 46.7364 58.6441 47.5084C60.1786 48.2804 61.9524 48.3844 63.9656 47.8204C66.7696 47.0349 68.8359 45.6225 70.1643 43.5832L71.3767 44.174C70.7932 46.9351 69.6143 49.3008 67.8401 51.2712C66.0917 53.1955 64.0132 54.495 61.6046 55.1698C58.3332 56.0863 55.4248 55.7379 52.8792 54.1248C50.3596 52.4657 48.5811 49.7847 47.5438 46.0819C46.9294 43.889 46.7515 41.5932 47.0101 39.1946C47.3045 36.7858 47.9334 34.6711 48.8966 32.8505C49.6802 32.0494 50.7586 31.2626 52.1319 30.4902C53.5051 29.7178 54.8388 29.1503 56.1329 28.7878ZM61.3414 39.0762C60.6005 36.5698 59.6821 34.6753 58.5861 33.3927C57.4902 32.1102 56.2728 31.5013 54.934 31.5662C54.2971 32.7527 53.9277 34.2713 53.8259 36.122C53.7499 37.9268 53.9587 39.7099 54.4522 41.4714L54.4975 41.6332L61.3414 39.0762Z"/>
</mask>
<path d="M56.1329 28.7878C59.2965 27.9015 62.0992 28.357 64.5413 30.1542C67.0091 31.9054 68.769 34.7273 69.8207 38.6199L55.0736 43.2746C55.9195 45.3251 57.1096 46.7364 58.6441 47.5084C60.1786 48.2804 61.9524 48.3844 63.9656 47.8204C66.7696 47.0349 68.8359 45.6225 70.1643 43.5832L71.3767 44.174C70.7932 46.9351 69.6143 49.3008 67.8401 51.2712C66.0917 53.1955 64.0132 54.495 61.6046 55.1698C58.3332 56.0863 55.4248 55.7379 52.8792 54.1248C50.3596 52.4657 48.5811 49.7847 47.5438 46.0819C46.9294 43.889 46.7515 41.5932 47.0101 39.1946C47.3045 36.7858 47.9334 34.6711 48.8966 32.8505C49.6802 32.0494 50.7586 31.2626 52.1319 30.4902C53.5051 29.7178 54.8388 29.1503 56.1329 28.7878ZM61.3414 39.0762C60.6005 36.5698 59.6821 34.6753 58.5861 33.3927C57.4902 32.1102 56.2728 31.5013 54.934 31.5662C54.2971 32.7527 53.9277 34.2713 53.8259 36.122C53.7499 37.9268 53.9587 39.7099 54.4522 41.4714L54.4975 41.6332L61.3414 39.0762Z" fill="#FF0000"/>
<path d="M64.5413 30.1542L63.9485 30.9596L63.9555 30.9647L63.9626 30.9697L64.5413 30.1542ZM69.8207 38.6199L70.1217 39.5735L71.0362 39.2848L70.7861 38.359L69.8207 38.6199ZM55.0736 43.2746L54.7726 42.321L53.7338 42.6489L54.1492 43.6559L55.0736 43.2746ZM58.6441 47.5084L59.0935 46.6151L59.0935 46.6151L58.6441 47.5084ZM70.1643 43.5832L70.6024 42.6843L69.8085 42.2973L69.3264 43.0373L70.1643 43.5832ZM71.3767 44.174L72.355 44.3808L72.5164 43.6171L71.8148 43.2751L71.3767 44.174ZM67.8401 51.2712L68.5802 51.9436L68.5832 51.9403L67.8401 51.2712ZM52.8792 54.1248L52.3293 54.96L52.3366 54.9648L52.3439 54.9695L52.8792 54.1248ZM47.0101 39.1946L46.0174 39.0732L46.0166 39.0803L46.0158 39.0874L47.0101 39.1946ZM48.8966 32.8505L48.1818 32.1512L48.0804 32.2548L48.0127 32.3828L48.8966 32.8505ZM52.1319 30.4902L52.6221 31.3618L52.6221 31.3618L52.1319 30.4902ZM61.3414 39.0762L61.6914 40.0129L62.5647 39.6866L62.3004 38.7927L61.3414 39.0762ZM58.5861 33.3927L57.8259 34.0424L57.8259 34.0424L58.5861 33.3927ZM54.934 31.5662L54.8856 30.5674L54.3205 30.5948L54.0529 31.0932L54.934 31.5662ZM53.8259 36.122L52.8273 36.0671L52.8268 36.08L53.8259 36.122ZM54.4975 41.6332L53.5345 41.9029L53.8281 42.9508L54.8475 42.5699L54.4975 41.6332ZM56.4027 29.7507C59.2983 28.9395 61.7773 29.3617 63.9485 30.9596L65.134 29.3488C62.4212 27.3523 59.2946 26.8635 55.8632 27.8249L56.4027 29.7507ZM63.9626 30.9697C66.1862 32.5476 67.8439 35.1374 68.8553 38.8807L70.7861 38.359C69.694 34.3172 67.8321 31.2632 65.12 29.3387L63.9626 30.9697ZM69.5197 37.6662L54.7726 42.321L55.3746 44.2282L70.1217 39.5735L69.5197 37.6662ZM54.1492 43.6559C55.0594 45.8624 56.3891 47.4933 58.1947 48.4017L59.0935 46.6151C57.8301 45.9794 56.7796 44.7878 55.9981 42.8933L54.1492 43.6559ZM58.1947 48.4017C59.9979 49.3089 62.0369 49.3992 64.2353 48.7834L63.6958 46.8575C61.8679 47.3696 60.3593 47.2519 59.0935 46.6151L58.1947 48.4017ZM64.2353 48.7834C67.2248 47.9459 69.5163 46.4101 71.0022 44.129L69.3264 43.0373C68.1555 44.8349 66.3144 46.1239 63.6958 46.8575L64.2353 48.7834ZM69.7262 44.4821L70.9385 45.073L71.8148 43.2751L70.6024 42.6843L69.7262 44.4821ZM70.3983 43.9673C69.8487 46.5677 68.7459 48.7709 67.097 50.602L68.5832 51.9403C70.4828 49.8308 71.7376 47.3025 72.355 44.3808L70.3983 43.9673ZM67.0999 50.5987C65.4727 52.3897 63.5551 53.5849 61.3348 54.2069L61.8744 56.1327C64.4713 55.4052 66.7107 54.0013 68.5802 51.9436L67.0999 50.5987ZM61.3348 54.2069C58.2979 55.0577 55.6887 54.7213 53.4145 53.2801L52.3439 54.9695C55.1608 56.7545 58.3686 57.1148 61.8744 56.1327L61.3348 54.2069ZM53.4292 53.2896C51.1612 51.7962 49.4974 49.3484 48.5067 45.8122L46.5809 46.3517C47.6648 50.221 49.558 53.1351 52.3293 54.96L53.4292 53.2896ZM48.5067 45.8122C47.9287 43.7489 47.7586 41.5815 48.0043 39.3017L46.0158 39.0874C45.7445 41.605 45.9302 44.0291 46.5809 46.3517L48.5067 45.8122ZM48.0027 39.3159C48.2849 37.0071 48.8835 35.0136 49.7805 33.3181L48.0127 32.3828C46.9832 34.3287 46.3241 36.5645 46.0174 39.0732L48.0027 39.3159ZM49.6115 33.5497C50.308 32.8377 51.3008 32.105 52.6221 31.3618L51.6416 29.6186C50.2164 30.4203 49.0525 31.261 48.1818 32.1512L49.6115 33.5497ZM52.6221 31.3618C53.9373 30.622 55.1972 30.0884 56.4027 29.7507L55.8632 27.8249C54.4803 28.2123 53.0728 28.8136 51.6416 29.6186L52.6221 31.3618ZM62.3004 38.7927C61.5393 36.218 60.5697 34.1748 59.3464 32.7431L57.8259 34.0424C58.7944 35.1758 59.6617 36.9215 60.3824 39.3596L62.3004 38.7927ZM59.3464 32.7431C58.1066 31.2922 56.6119 30.4837 54.8856 30.5674L54.9824 32.565C55.9337 32.5189 56.8737 32.9281 57.8259 34.0424L59.3464 32.7431ZM54.0529 31.0932C53.3258 32.4478 52.9344 34.1219 52.8274 36.0671L54.8244 36.177C54.921 34.4207 55.2684 33.0576 55.8151 32.0392L54.0529 31.0932ZM52.8268 36.08C52.7463 37.9912 52.9677 39.8796 53.4892 41.7412L55.4151 41.2016C54.9496 39.5402 54.7535 37.8623 54.825 36.1641L52.8268 36.08ZM53.4892 41.7412L53.5345 41.9029L55.4604 41.3634L55.4151 41.2016L53.4892 41.7412ZM54.8475 42.5699L61.6914 40.0129L60.9914 38.1394L54.1475 40.6964L54.8475 42.5699Z" fill="black" mask="url(#path-3-outside-2_249_804)"/>
<mask id="path-5-outside-3_249_804" maskUnits="userSpaceOnUse" x="65.8067" y="-1.4414" width="27.8068" height="44.8611" fill="black">
<rect fill="white" x="65.8067" y="-1.4414" width="27.8068" height="44.8611"/>
<path d="M79.6898 40.2491L81.6173 39.4704L71.3378 7.53899L69.4406 8.60174L68.4214 7.21891L77.3731 1.13362L78.5225 2.18235L89.1533 37.1136L91.181 36.6555L91.6657 38.2054L80.1746 41.7991L79.6898 40.2491Z"/>
</mask>
<path d="M79.6898 40.2491L81.6173 39.4704L71.3378 7.53899L69.4406 8.60174L68.4214 7.21891L77.3731 1.13362L78.5225 2.18235L89.1533 37.1136L91.181 36.6555L91.6657 38.2054L80.1746 41.7991L79.6898 40.2491Z" fill="#FF0000"/>
<path d="M79.6898 40.2491L79.3152 39.322L78.4602 39.6675L78.7354 40.5476L79.6898 40.2491ZM81.6173 39.4704L81.9919 40.3975L82.8541 40.0491L82.5691 39.1639L81.6173 39.4704ZM71.3378 7.53899L72.2897 7.23256L71.9153 6.06936L70.8491 6.66654L71.3378 7.53899ZM69.4406 8.60174L68.6356 9.19504L69.1592 9.90551L69.9293 9.47419L69.4406 8.60174ZM68.4214 7.21891L67.8592 6.39191L67 6.97595L67.6164 7.81222L68.4214 7.21891ZM77.3731 1.13362L78.0471 0.394898L77.4638 -0.137257L76.8109 0.306613L77.3731 1.13362ZM78.5225 2.18235L79.4792 1.8912L79.3993 1.62862L79.1965 1.44363L78.5225 2.18235ZM89.1533 37.1136L88.1966 37.4047L88.4672 38.2938L89.3737 38.089L89.1533 37.1136ZM91.181 36.6555L92.1354 36.357L91.8602 35.4768L90.9606 35.68L91.181 36.6555ZM91.6657 38.2054L91.9642 39.1598L92.9186 38.8614L92.6202 37.907L91.6657 38.2054ZM80.1746 41.7991L79.2202 42.0976L79.5186 43.052L80.4731 42.7535L80.1746 41.7991ZM80.0645 41.1763L81.9919 40.3975L81.2426 38.5432L79.3152 39.322L80.0645 41.1763ZM82.5691 39.1639L72.2897 7.23256L70.3859 7.84543L80.6654 39.7768L82.5691 39.1639ZM70.8491 6.66654L68.9519 7.72928L69.9293 9.47419L71.8265 8.41145L70.8491 6.66654ZM70.2455 8.00843L69.2263 6.62561L67.6164 7.81222L68.6356 9.19504L70.2455 8.00843ZM68.9835 8.04592L77.9353 1.96063L76.8109 0.306613L67.8592 6.39191L68.9835 8.04592ZM76.6991 1.87234L77.8485 2.92107L79.1965 1.44363L78.0471 0.394898L76.6991 1.87234ZM77.5658 2.4735L88.1966 37.4047L90.11 36.8224L79.4792 1.8912L77.5658 2.4735ZM89.3737 38.089L91.4014 37.6309L90.9606 35.68L88.933 36.1381L89.3737 38.089ZM90.2266 36.9539L90.7113 38.5039L92.6202 37.907L92.1354 36.357L90.2266 36.9539ZM91.3673 37.251L79.8761 40.8447L80.4731 42.7535L91.9642 39.1598L91.3673 37.251ZM81.129 41.5006L80.6443 39.9507L78.7354 40.5476L79.2202 42.0976L81.129 41.5006Z" fill="black" mask="url(#path-5-outside-3_249_804)"/>
<mask id="path-7-outside-4_249_804" maskUnits="userSpaceOnUse" x="90.6716" y="11.9712" width="22.6568" height="44.052" fill="black">
<rect fill="white" x="90.6716" y="11.9712" width="22.6568" height="44.052"/>
<path d="M93.3029 51.1817L95.3744 51.355L100.587 18.2173L98.4144 18.311L98.1277 16.6173L108.861 15.2187L109.415 16.6729L103.164 52.647L105.181 53.1518L104.915 54.7539L93.0371 52.7838L93.3029 51.1817Z"/>
</mask>
<path d="M93.3029 51.1817L95.3744 51.355L100.587 18.2173L98.4144 18.311L98.1277 16.6173L108.861 15.2187L109.415 16.6729L103.164 52.647L105.181 53.1518L104.915 54.7539L93.0371 52.7838L93.3029 51.1817Z" fill="#FF0000"/>
<path d="M93.3029 51.1817L93.3862 50.1851L92.4673 50.1083L92.3164 51.018L93.3029 51.1817ZM95.3744 51.355L95.2911 52.3515L96.2178 52.429L96.3623 51.5104L95.3744 51.355ZM100.587 18.2173L101.575 18.3726L101.765 17.1655L100.544 17.2182L100.587 18.2173ZM98.4144 18.311L97.4284 18.4779L97.5757 19.3481L98.4575 19.3101L98.4144 18.311ZM98.1277 16.6173L97.9985 15.6257L96.9683 15.7599L97.1417 16.7842L98.1277 16.6173ZM108.861 15.2187L109.796 14.863L109.515 14.1251L108.732 14.2271L108.861 15.2187ZM109.415 16.6729L110.4 16.8441L110.447 16.5737L110.349 16.3172L109.415 16.6729ZM103.164 52.647L102.179 52.4758L102.02 53.3914L102.921 53.6171L103.164 52.647ZM105.181 53.1518L106.167 53.3154L106.318 52.4056L105.423 52.1817L105.181 53.1518ZM104.915 54.7539L104.751 55.7404L105.738 55.904L105.901 54.9175L104.915 54.7539ZM93.0371 52.7838L92.0506 52.6201L91.887 53.6067L92.8735 53.7703L93.0371 52.7838ZM93.2195 52.1782L95.2911 52.3515L95.4578 50.3584L93.3862 50.1851L93.2195 52.1782ZM96.3623 51.5104L101.575 18.3726L99.5992 18.0619L94.3866 51.1996L96.3623 51.5104ZM100.544 17.2182L98.3713 17.3119L98.4575 19.3101L100.63 19.2163L100.544 17.2182ZM99.4004 18.1441L99.1137 16.4504L97.1417 16.7842L97.4284 18.4779L99.4004 18.1441ZM98.2569 17.6089L108.99 16.2104L108.732 14.2271L97.9985 15.6257L98.2569 17.6089ZM107.927 15.5745L108.48 17.0287L110.349 16.3172L109.796 14.863L107.927 15.5745ZM108.429 16.5017L102.179 52.4758L104.149 52.8182L110.4 16.8441L108.429 16.5017ZM102.921 53.6171L104.938 54.1218L105.423 52.1817L103.407 51.6769L102.921 53.6171ZM104.194 52.9881L103.928 54.5902L105.901 54.9175L106.167 53.3154L104.194 52.9881ZM105.078 53.7674L93.2008 51.7972L92.8735 53.7703L104.751 55.7404L105.078 53.7674ZM94.0237 52.9474L94.2894 51.3453L92.3164 51.018L92.0506 52.6201L94.0237 52.9474Z" fill="black" mask="url(#path-7-outside-4_249_804)"/>
<mask id="path-9-outside-5_249_804" maskUnits="userSpaceOnUse" x="113.149" y="29" width="28" height="30" fill="black">
<rect fill="white" x="113.149" y="29" width="28" height="30"/>
<path d="M127.205 30.96C130.938 30.96 133.944 32.0613 136.221 34.264C138.498 36.4667 139.637 39.6027 139.637 43.672C139.637 45.4267 139.32 47.2373 138.685 49.104C138.088 50.9707 137.192 52.6133 135.997 54.032C134.802 55.1893 133.402 56.1227 131.797 56.832C130.229 57.504 128.568 57.84 126.813 57.84C123.08 57.84 120.074 56.7387 117.797 54.536C115.52 52.3333 114.381 49.1973 114.381 45.128C114.381 43.4107 114.698 41.6187 115.333 39.752C115.968 37.8853 116.882 36.2427 118.077 34.824C119.272 33.6667 120.653 32.7333 122.221 32.024C123.826 31.3147 125.488 30.96 127.205 30.96ZM122.445 42.44C122.445 45.9867 123.136 48.6373 124.517 50.392C125.936 52.1467 128.008 53.192 130.733 53.528C130.994 52.408 131.2 51.1573 131.349 49.776C131.498 48.3947 131.573 47.256 131.573 46.36C131.573 42.776 130.864 40.1253 129.445 38.408C128.064 36.6533 126.029 35.608 123.341 35.272C123.08 36.4293 122.856 37.6987 122.669 39.08C122.52 40.4613 122.445 41.5813 122.445 42.44Z"/>
</mask>
<path d="M127.205 30.96C130.938 30.96 133.944 32.0613 136.221 34.264C138.498 36.4667 139.637 39.6027 139.637 43.672C139.637 45.4267 139.32 47.2373 138.685 49.104C138.088 50.9707 137.192 52.6133 135.997 54.032C134.802 55.1893 133.402 56.1227 131.797 56.832C130.229 57.504 128.568 57.84 126.813 57.84C123.08 57.84 120.074 56.7387 117.797 54.536C115.52 52.3333 114.381 49.1973 114.381 45.128C114.381 43.4107 114.698 41.6187 115.333 39.752C115.968 37.8853 116.882 36.2427 118.077 34.824C119.272 33.6667 120.653 32.7333 122.221 32.024C123.826 31.3147 125.488 30.96 127.205 30.96ZM122.445 42.44C122.445 45.9867 123.136 48.6373 124.517 50.392C125.936 52.1467 128.008 53.192 130.733 53.528C130.994 52.408 131.2 51.1573 131.349 49.776C131.498 48.3947 131.573 47.256 131.573 46.36C131.573 42.776 130.864 40.1253 129.445 38.408C128.064 36.6533 126.029 35.608 123.341 35.272C123.08 36.4293 122.856 37.6987 122.669 39.08C122.52 40.4613 122.445 41.5813 122.445 42.44Z" fill="#FF0000"/>
<path d="M136.221 34.264L136.916 33.5452L136.221 34.264ZM138.685 49.104L137.738 48.7821L137.735 48.7906L137.733 48.7992L138.685 49.104ZM135.997 54.032L136.693 54.7502L136.729 54.7149L136.762 54.6761L135.997 54.032ZM131.797 56.832L132.191 57.7512L132.201 57.7467L131.797 56.832ZM117.797 54.536L117.102 55.2548H117.102L117.797 54.536ZM115.333 39.752L114.386 39.4301L115.333 39.752ZM118.077 34.824L117.381 34.1058L117.345 34.1411L117.312 34.1799L118.077 34.824ZM122.221 32.024L121.817 31.1093L121.809 31.1129L122.221 32.024ZM124.517 50.392L123.731 51.0106L123.739 51.0207L124.517 50.392ZM130.733 53.528L130.611 54.5205L131.503 54.6305L131.707 53.7552L130.733 53.528ZM129.445 38.408L128.659 39.0266L128.666 39.0358L128.674 39.0449L129.445 38.408ZM123.341 35.272L123.465 34.2797L122.565 34.1673L122.365 35.0517L123.341 35.272ZM122.669 39.08L121.678 38.9461L121.676 38.9593L121.675 38.9725L122.669 39.08ZM127.205 31.96C130.728 31.96 133.468 32.9922 135.526 34.9828L136.916 33.5452C134.42 31.1304 131.148 29.96 127.205 29.96V31.96ZM135.526 34.9828C137.557 36.9473 138.637 39.7926 138.637 43.672H140.637C140.637 39.4128 139.44 35.9861 136.916 33.5452L135.526 34.9828ZM138.637 43.672C138.637 45.3045 138.342 47.0064 137.738 48.7821L139.632 49.4259C140.297 47.4682 140.637 45.5488 140.637 43.672H138.637ZM137.733 48.7992C137.173 50.5488 136.338 52.0746 135.232 53.3879L136.762 54.6761C138.045 53.1521 139.003 51.3926 139.637 49.4088L137.733 48.7992ZM135.301 53.3138C134.196 54.3844 132.896 55.2531 131.393 55.9173L132.201 57.7467C133.908 56.9923 135.409 55.9942 136.693 54.7502L135.301 53.3138ZM131.403 55.9129C129.963 56.53 128.436 56.84 126.813 56.84V58.84C128.699 58.84 130.495 58.478 132.191 57.7511L131.403 55.9129ZM126.813 56.84C123.289 56.84 120.55 55.8078 118.492 53.8172L117.102 55.2548C119.598 57.6696 122.87 58.84 126.813 58.84V56.84ZM118.492 53.8172C116.461 51.8527 115.381 49.0074 115.381 45.128H113.381C113.381 49.3872 114.578 52.8139 117.102 55.2548L118.492 53.8172ZM115.381 45.128C115.381 43.535 115.675 41.852 116.28 40.0739L114.386 39.4301C113.721 41.3853 113.381 43.2863 113.381 45.128H115.381ZM116.28 40.0739C116.877 38.3175 117.732 36.7858 118.842 35.4681L117.312 34.1799C116.032 35.6996 115.058 37.4531 114.386 39.4301L116.28 40.0739ZM118.773 35.5422C119.882 34.4678 121.166 33.5986 122.633 32.9351L121.809 31.1129C120.14 31.868 118.661 32.8655 117.381 34.1058L118.773 35.5422ZM122.625 32.9387C124.106 32.2843 125.63 31.96 127.205 31.96V29.96C125.345 29.96 123.547 30.345 121.817 31.1093L122.625 32.9387ZM121.445 42.44C121.445 46.0878 122.15 49.0024 123.731 51.0106L125.303 49.7734C124.121 48.2722 123.445 45.8856 123.445 42.44H121.445ZM123.739 51.0207C125.355 53.019 127.687 54.1601 130.611 54.5205L130.855 52.5355C128.328 52.2239 126.516 51.2743 125.295 49.7633L123.739 51.0207ZM131.707 53.7552C131.979 52.5887 132.19 51.2971 132.343 49.8835L130.355 49.6685C130.209 51.0175 130.01 52.2273 129.759 53.3008L131.707 53.7552ZM132.343 49.8835C132.494 48.4836 132.573 47.3058 132.573 46.36H130.573C130.573 47.2062 130.502 48.3058 130.355 49.6685L132.343 49.8835ZM132.573 46.36C132.573 42.6759 131.849 39.7484 130.216 37.7711L128.674 39.0449C129.878 40.5023 130.573 42.8761 130.573 46.36H132.573ZM130.231 37.7894C128.653 35.7854 126.355 34.641 123.465 34.2797L123.217 36.2643C125.703 36.575 127.474 37.5213 128.659 39.0266L130.231 37.7894ZM122.365 35.0517C122.097 36.242 121.868 37.5406 121.678 38.9461L123.66 39.2139C123.843 37.8567 124.062 36.6166 124.316 35.4923L122.365 35.0517ZM121.675 38.9725C121.524 40.3707 121.445 41.5304 121.445 42.44H123.445C123.445 41.6322 123.516 40.552 123.663 39.1875L121.675 38.9725Z" fill="black" mask="url(#path-9-outside-5_249_804)"/>
<mask id="path-11-outside-6_249_804" maskUnits="userSpaceOnUse" x="150.149" y="15" width="21" height="35" fill="black">
<rect fill="white" x="150.149" y="15" width="21" height="35"/>
<path d="M155.569 40.63C155.336 40.63 155.219 40.35 155.219 39.79C155.219 38.2033 156.689 33.8867 159.629 26.84C162.569 19.7467 164.529 16.2 165.509 16.2C166.209 16.2 167.002 16.34 167.889 16.62C168.822 16.8533 169.266 17.0867 169.219 17.32C169.172 17.5067 169.172 17.5767 169.219 17.53C168.332 18.7433 167.306 20.2833 166.139 22.15C164.972 24.0167 163.572 26.42 161.939 29.36L160.259 32.44C158.812 35.1467 157.716 37.2 156.969 38.6C156.222 39.9533 155.756 40.63 155.569 40.63ZM152.209 48.75C151.742 48.75 151.509 48.5167 151.509 48.05C151.509 46.79 151.812 45.7167 152.419 44.83C153.072 43.8967 153.959 43.43 155.079 43.43C156.292 43.43 156.899 43.71 156.899 44.27C156.899 44.13 155.336 45.6233 152.209 48.75Z"/>
</mask>
<path d="M155.569 40.63C155.336 40.63 155.219 40.35 155.219 39.79C155.219 38.2033 156.689 33.8867 159.629 26.84C162.569 19.7467 164.529 16.2 165.509 16.2C166.209 16.2 167.002 16.34 167.889 16.62C168.822 16.8533 169.266 17.0867 169.219 17.32C169.172 17.5067 169.172 17.5767 169.219 17.53C168.332 18.7433 167.306 20.2833 166.139 22.15C164.972 24.0167 163.572 26.42 161.939 29.36L160.259 32.44C158.812 35.1467 157.716 37.2 156.969 38.6C156.222 39.9533 155.756 40.63 155.569 40.63ZM152.209 48.75C151.742 48.75 151.509 48.5167 151.509 48.05C151.509 46.79 151.812 45.7167 152.419 44.83C153.072 43.8967 153.959 43.43 155.079 43.43C156.292 43.43 156.899 43.71 156.899 44.27C156.899 44.13 155.336 45.6233 152.209 48.75Z" fill="#FF0000"/>
<path d="M159.629 26.84L160.552 27.225L160.553 27.2229L159.629 26.84ZM167.889 16.62L167.588 17.5736L167.617 17.5828L167.646 17.5901L167.889 16.62ZM169.219 17.32L170.189 17.5625L170.195 17.5394L170.2 17.5161L169.219 17.32ZM169.219 17.53L170.026 18.12L168.512 16.8229L169.219 17.53ZM166.139 22.15L165.291 21.62V21.62L166.139 22.15ZM161.939 29.36L161.065 28.8743L161.061 28.8811L161.939 29.36ZM160.259 32.44L159.381 31.9611L159.377 31.9686L160.259 32.44ZM156.969 38.6L157.845 39.0831L157.848 39.0769L157.851 39.0706L156.969 38.6ZM152.209 48.75V49.75H152.623L152.916 49.4571L152.209 48.75ZM152.419 44.83L151.6 44.2565L151.594 44.2653L152.419 44.83ZM155.569 39.63C155.728 39.63 155.899 39.6836 156.04 39.7966C156.166 39.8971 156.216 40.0028 156.23 40.0354C156.243 40.0689 156.238 40.0709 156.231 40.0199C156.225 39.9723 156.219 39.8976 156.219 39.79H154.219C154.219 40.1093 154.248 40.4793 154.383 40.8046C154.455 40.9772 154.578 41.1879 154.791 41.3584C155.02 41.5414 155.294 41.63 155.569 41.63V39.63ZM156.219 39.79C156.219 39.5184 156.286 39.0467 156.465 38.3298C156.639 37.6289 156.906 36.7491 157.268 35.6849C157.993 33.557 159.086 30.7395 160.552 27.225L158.706 26.4549C157.232 29.9872 156.12 32.8513 155.375 35.0401C155.002 36.1342 154.717 37.0715 154.524 37.8465C154.335 38.6053 154.219 39.2683 154.219 39.79H156.219ZM160.553 27.2229C162.019 23.686 163.227 21.0672 164.179 19.3437C164.658 18.4773 165.051 17.8755 165.36 17.5032C165.515 17.3163 165.623 17.2193 165.682 17.1763C165.751 17.1262 165.683 17.2 165.509 17.2V15.2C165.089 15.2 164.746 15.3846 164.509 15.5562C164.262 15.7349 164.033 15.9704 163.82 16.2268C163.394 16.7412 162.93 17.4694 162.429 18.3763C161.421 20.1994 160.179 22.9006 158.705 26.4571L160.553 27.2229ZM165.509 17.2C166.08 17.2 166.769 17.3149 167.588 17.5736L168.19 15.6664C167.236 15.3651 166.338 15.2 165.509 15.2V17.2ZM167.646 17.5901C168.093 17.7017 168.343 17.7954 168.456 17.8549C168.516 17.8868 168.469 17.874 168.4 17.7926C168.361 17.7462 168.302 17.6632 168.262 17.5416C168.221 17.413 168.209 17.2682 168.238 17.1239L170.2 17.5161C170.288 17.0753 170.11 16.716 169.924 16.4973C169.756 16.2994 169.548 16.1699 169.387 16.0851C169.057 15.9112 168.619 15.7716 168.131 15.6499L167.646 17.5901ZM168.249 17.0775C168.229 17.158 168.184 17.3367 168.184 17.5125C168.184 17.5624 168.186 17.6746 168.225 17.808C168.256 17.9188 168.372 18.2508 168.745 18.4376C169.149 18.6395 169.511 18.5064 169.651 18.4365C169.795 18.3644 169.889 18.2743 169.926 18.2371L168.512 16.8229C168.537 16.7974 168.621 16.7153 168.756 16.6476C168.888 16.582 169.242 16.4497 169.64 16.6487C170.008 16.8326 170.119 17.158 170.148 17.2586C170.183 17.3817 170.184 17.4801 170.184 17.5125C170.184 17.6183 170.163 17.6687 170.189 17.5625L168.249 17.0775ZM168.412 16.94C167.506 18.1795 166.465 19.7413 165.291 21.62L166.987 22.68C168.146 20.8254 169.159 19.3072 170.026 18.12L168.412 16.94ZM165.291 21.62C164.112 23.5067 162.703 25.9263 161.065 28.8744L162.813 29.8456C164.442 26.9137 165.833 24.5267 166.987 22.68L165.291 21.62ZM161.061 28.8811L159.381 31.9611L161.137 32.9189L162.817 29.8389L161.061 28.8811ZM159.377 31.9686C157.93 34.6754 156.833 36.729 156.087 38.1294L157.851 39.0706C158.598 37.671 159.694 35.618 161.141 32.9114L159.377 31.9686ZM156.093 38.1169C155.725 38.785 155.44 39.2579 155.236 39.5548C155.131 39.7069 155.068 39.7819 155.042 39.8085C155.028 39.8226 155.049 39.7979 155.102 39.7633C155.138 39.7396 155.307 39.63 155.569 39.63V41.63C155.877 41.63 156.102 41.4992 156.202 41.4332C156.319 41.3564 156.413 41.2682 156.481 41.1977C156.618 41.0552 156.754 40.8765 156.882 40.6902C157.144 40.3104 157.466 39.7683 157.845 39.0831L156.093 38.1169ZM152.209 47.75C152.13 47.75 152.254 47.7309 152.391 47.8679C152.528 48.0049 152.509 48.1292 152.509 48.05H150.509C150.509 48.4375 150.606 48.9118 150.977 49.2821C151.347 49.6525 151.821 49.75 152.209 49.75V47.75ZM152.509 48.05C152.509 46.9558 152.77 46.0878 153.244 45.3947L151.594 44.2653C150.855 45.3455 150.509 46.6242 150.509 48.05H152.509ZM153.238 45.4035C153.708 44.732 154.292 44.43 155.079 44.43V42.43C153.626 42.43 152.436 43.0614 151.6 44.2565L153.238 45.4035ZM155.079 44.43C155.346 44.43 155.559 44.4456 155.723 44.4709C155.89 44.4966 155.983 44.5287 156.025 44.548C156.065 44.5663 156.024 44.5571 155.974 44.488C155.917 44.4086 155.899 44.3223 155.899 44.27H157.899C157.899 43.9377 157.805 43.6064 157.596 43.317C157.394 43.0379 157.127 42.8537 156.863 42.732C156.361 42.5003 155.731 42.43 155.079 42.43V44.43ZM157.899 44.27C157.899 44.1603 157.881 43.9775 157.774 43.7833C157.656 43.5685 157.469 43.412 157.256 43.3294C156.91 43.1949 156.614 43.2979 156.569 43.3128C156.408 43.3655 156.287 43.4507 156.26 43.4697C156.161 43.5371 156.052 43.6277 155.951 43.7152C155.736 43.9013 155.429 44.1866 155.036 44.5619C154.245 45.3168 153.066 46.4785 151.502 48.0429L152.916 49.4571C154.478 47.8948 155.644 46.7465 156.417 46.0081C156.806 45.6367 157.084 45.3796 157.26 45.2273C157.355 45.1456 157.392 45.1181 157.392 45.1185C157.389 45.1203 157.374 45.1303 157.351 45.1435C157.334 45.1532 157.276 45.1855 157.193 45.213C157.159 45.2239 156.873 45.3261 156.533 45.1939C156.323 45.1125 156.138 44.958 156.021 44.746C155.916 44.5545 155.899 44.3754 155.899 44.27H157.899Z" fill="black" mask="url(#path-11-outside-6_249_804)"/>
</svg>
