<svg width="20" height="20" viewBox="0 0 20 20" fill="none" xmlns="http://www.w3.org/2000/svg">
<g clip-path="url(#clip0_158_3279)">
<path d="M13.8579 13.7672C12.4516 16.6422 9.98912 18.5766 6.73131 19.2125C6.2318 19.3349 5.71901 19.3947 5.20475 19.3906C3.32975 19.3906 1.611 18.6094 0.776621 17.3297C-0.343691 15.625 -0.724941 12.0109 2.96881 9.33751C3.04381 9.74532 3.19693 10.3047 3.2985 10.6359C2.57339 11.1746 1.97987 11.8707 1.56256 12.6719C0.875059 14.0219 0.951621 15.3703 1.76568 16.6172C2.32818 17.4578 3.21881 17.9688 4.36412 18.125C5.79465 18.3061 7.24589 18.0328 8.51256 17.3438C10.4985 16.3 11.8219 15.0531 12.6876 13.3484C12.4428 13.0955 12.2979 12.7625 12.2797 12.4109C12.2667 12.0337 12.4038 11.6667 12.661 11.3905C12.9182 11.1143 13.2744 10.9514 13.6516 10.9375H13.7047C14.0716 10.9357 14.4252 11.0749 14.6922 11.3265C14.9593 11.578 15.1194 11.9226 15.1395 12.289C15.1595 12.6553 15.038 13.0153 14.8 13.2945C14.5621 13.5738 14.2259 13.7508 13.861 13.7891L13.8579 13.7672ZM18.3376 10.6109C20.2454 12.7734 20.2969 15.3188 19.5594 16.7953C18.8719 18.1438 17.0594 19.4938 14.6219 19.4938C13.4841 19.4705 12.3647 19.2014 11.3407 18.7047C11.6985 18.45 12.2063 18.0422 12.486 17.7875C13.2757 18.1296 14.1255 18.3113 14.986 18.3219C16.5641 18.3219 17.7594 17.5844 18.4719 16.2359C18.9297 15.3453 18.9563 14.3016 18.5235 13.2328C17.9924 11.8881 17.0474 10.7472 15.8251 9.97501C14.2214 8.89398 12.3309 8.31769 10.3969 8.32032H9.93912C9.83237 8.56692 9.6587 8.77871 9.43778 8.93169C9.21686 9.08468 8.95752 9.17276 8.68912 9.18594H8.64068C8.26946 9.18138 7.91464 9.03228 7.65158 8.77031C7.38852 8.50834 7.23795 8.15414 7.23185 7.78294C7.22575 7.41173 7.36459 7.05277 7.6189 6.7823C7.87321 6.51182 8.22293 6.35114 8.59381 6.33438H8.64537C8.90382 6.33457 9.15721 6.40599 9.37773 6.54078C9.59824 6.67557 9.77735 6.86852 9.89537 7.09844H10.3032C13.5532 7.09844 16.4063 8.34532 18.3376 10.6109ZM5.40787 14.2047C5.38111 13.9452 5.44397 13.6844 5.586 13.4656C4.161 10.9969 3.3985 7.86719 4.56881 4.60938C5.40787 2.16094 7.52037 0.506256 9.811 0.506256C12.2547 0.506256 14.8001 2.64532 15.1047 6.76719C14.7235 6.64063 14.1672 6.45469 13.8329 6.38594C13.7501 5.03751 12.611 1.67813 9.91256 1.72813C8.94537 1.75469 7.52037 2.21251 6.78756 3.15313C5.88109 4.27598 5.35377 5.65719 5.28131 7.09844C5.10954 9.07465 5.5732 11.0541 6.60475 12.7484C6.66169 12.7276 6.7224 12.7191 6.78287 12.7234H6.83287C7.2108 12.7166 7.57598 12.8602 7.84805 13.1226C8.12012 13.385 8.27681 13.7447 8.28365 14.1227C8.29049 14.5006 8.14691 14.8658 7.88451 15.1378C7.62211 15.4099 7.26237 15.5666 6.88443 15.5734H6.83287C6.46417 15.5721 6.11019 15.4286 5.84472 15.1727C5.57925 14.9169 5.42276 14.5684 5.40787 14.2V14.2047Z" fill="#764ABC"/>
</g>
<defs>
<clipPath id="clip0_158_3279">
<rect width="20" height="20" fill="white"/>
</clipPath>
</defs>
</svg>
