<svg width="24" height="24" viewBox="0 0 24 24" fill="none" xmlns="http://www.w3.org/2000/svg">
<rect width="24" height="24" transform="translate(0.00927734)" fill="#66DBFB"/>
<path d="M22.2842 12C22.2842 10.575 20.6342 9.375 18.0092 8.625C18.6842 6 18.4592 3.975 17.2592 3.225C16.9592 3.075 16.6592 3 16.2842 3C15.1592 3 13.6592 3.825 12.1592 5.25C10.6592 3.825 9.23418 3 8.03418 3C7.65918 3 7.35918 3.075 7.05918 3.225C5.93418 3.975 5.70918 6 6.30918 8.625C3.75918 9.375 2.03418 10.65 2.03418 12C2.03418 13.425 3.68418 14.625 6.30918 15.375C5.70918 18 5.93418 20.1 7.13418 20.775C7.43418 20.925 7.73418 21 8.10918 21C9.23418 21 10.7342 20.175 12.2342 18.75C13.7342 20.175 15.1592 21 16.3592 21C16.7342 21 17.0342 20.925 17.3342 20.775C18.5342 20.1 18.7592 18 18.1592 15.375C20.6342 14.625 22.2842 13.35 22.2842 12ZM16.2842 3.975C16.5092 3.975 16.6592 3.975 16.7342 4.125C17.3342 4.425 17.5592 5.625 17.3342 7.2C17.2592 7.575 17.1842 8.025 17.1092 8.4C16.2842 8.175 15.4592 8.1 14.4842 7.95C13.9592 7.2 13.4342 6.525 12.8342 5.925C14.1842 4.65 15.4592 3.975 16.2842 3.975ZM14.9342 13.575C14.6342 14.1 14.3342 14.625 13.9592 15.075C13.3592 15.15 12.7592 15.15 12.1592 15.15C11.5592 15.15 10.9592 15.15 10.3592 15.075C10.0592 14.625 9.75918 14.1 9.38418 13.575C9.08418 13.05 8.78418 12.525 8.55918 12C8.78418 11.475 9.08418 10.95 9.38418 10.425C9.68418 9.9 10.0592 9.375 10.3592 8.85C10.9592 8.775 11.5592 8.775 12.1592 8.775C12.7592 8.775 13.3592 8.775 13.9592 8.85C14.2592 9.3 14.6342 9.825 14.9342 10.425C15.2342 10.95 15.5342 11.475 15.7592 12C15.5342 12.525 15.2342 13.05 14.9342 13.575ZM16.2842 13.125C16.5092 13.65 16.6592 14.175 16.8092 14.625C16.2842 14.775 15.7592 14.85 15.2342 14.925C15.3842 14.625 15.6092 14.325 15.7592 14.025C15.9842 13.8 16.1342 13.425 16.2842 13.125ZM12.1592 17.4C11.7842 17.025 11.4092 16.575 11.1092 16.125C11.4842 16.125 11.8592 16.125 12.1592 16.125C12.5342 16.125 12.9092 16.125 13.2092 16.125C12.9092 16.575 12.5342 17.025 12.1592 17.4ZM9.08418 15C8.55918 14.925 8.03418 14.85 7.50918 14.7C7.65918 14.175 7.88418 13.65 8.03418 13.2C8.18418 13.5 8.33418 13.8 8.55918 14.1C8.78418 14.4 8.93418 14.7 9.08418 15ZM8.03418 10.875C7.80918 10.35 7.65918 9.825 7.43418 9.3C7.95918 9.15 8.48418 9.075 9.08418 9C8.85918 9.3 8.70918 9.6 8.48418 9.9C8.40918 10.275 8.25918 10.575 8.03418 10.875ZM12.1592 6.6C12.5342 6.975 12.8342 7.425 13.2092 7.8C12.8342 7.8 12.5342 7.8 12.1592 7.8C11.7842 7.8 11.4842 7.8 11.1092 7.8C11.4842 7.425 11.8592 6.975 12.1592 6.6ZM15.7592 9.9C15.5342 9.6 15.3842 9.3 15.1592 9C15.7592 9.075 16.2842 9.15 16.8092 9.3C16.6592 9.825 16.4342 10.35 16.2092 10.875C16.1342 10.575 15.9842 10.275 15.7592 9.9ZM7.05918 7.125C6.83418 5.55 7.05918 4.425 7.65918 4.05C7.80918 3.975 7.95918 3.9 8.10918 3.9C8.93418 3.9 10.1342 4.575 11.4842 5.85C10.9592 6.45 10.3592 7.125 9.83418 7.875C8.93418 7.95 8.03418 8.1 7.20918 8.325C7.13418 7.95 7.05918 7.5 7.05918 7.125ZM5.40918 14.025C3.98418 13.425 3.00918 12.6 3.00918 12C3.00918 11.325 3.90918 10.575 5.33418 9.975C5.70918 9.825 6.08418 9.675 6.53418 9.6C6.75918 10.425 7.05918 11.25 7.50918 12.075C7.13418 12.9 6.83418 13.725 6.60918 14.475C6.15918 14.325 5.78418 14.175 5.40918 14.025ZM7.58418 19.95C6.98418 19.65 6.75918 18.45 6.98418 16.875C7.05918 16.5 7.13418 16.05 7.20918 15.6C8.03418 15.75 8.85918 15.9 9.75918 15.975C10.2842 16.725 10.8842 17.4 11.4092 18C10.0592 19.275 8.85918 19.95 8.03418 19.95C7.88418 20.025 7.73418 19.95 7.58418 19.95ZM17.3342 16.875C17.5592 18.45 17.3342 19.575 16.7342 19.95C16.5842 20.025 16.4342 20.1 16.2842 20.1C15.4592 20.1 14.2592 19.425 12.9092 18.15C13.5092 17.55 14.0342 16.875 14.5592 16.125C15.4592 16.05 16.3592 15.9 17.1092 15.75C17.1842 16.05 17.2592 16.425 17.3342 16.875ZM18.9842 14.025C18.6092 14.175 18.2342 14.325 17.7842 14.4C17.5592 13.65 17.2592 12.825 16.8842 12C17.2592 11.175 17.5592 10.35 17.8592 9.525C18.2342 9.675 18.6842 9.75 19.0592 9.9C20.4842 10.5 21.3842 11.25 21.3842 11.925C21.3092 12.6 20.4092 13.425 18.9842 14.025Z" fill="black"/>
<path d="M12.2341 13.875C13.2841 13.875 14.1091 13.05 14.1091 12C14.1091 10.95 13.2841 10.125 12.2341 10.125C11.1841 10.125 10.3591 10.95 10.3591 12C10.3591 13.05 11.1841 13.875 12.2341 13.875Z" fill="black"/>
</svg>
