<svg width="22" height="21" viewBox="0 0 22 21" fill="none" xmlns="http://www.w3.org/2000/svg">
<path fill-rule="evenodd" clip-rule="evenodd" d="M15.1408 7.02386C15.4167 7.78561 15.6154 8.56326 15.6807 9.3693C15.7618 10.3693 15.7247 11.3622 15.5038 12.3457C15.4978 12.3728 15.4851 12.3982 15.4756 12.4245C15.4064 12.4246 15.3357 12.4164 15.268 12.4264C14.6958 12.5122 14.1242 12.6012 13.5525 12.6896C12.9616 12.781 12.3699 12.8688 11.78 12.9664C11.571 13.0008 11.3123 12.9596 11.2279 13.2356C11.2255 13.2431 11.2015 13.2445 11.1875 13.2487L11.2161 11.5997C11.2063 10.2735 11.1966 8.94717 11.187 7.62089L11.4624 7.57577C11.9127 7.50539 12.363 7.43402 12.8136 7.36561C13.3514 7.28407 13.8897 7.20483 14.4279 7.12526C14.6652 7.08998 14.903 7.05766 15.1408 7.02386Z" fill="#439934"/>
<path fill-rule="evenodd" clip-rule="evenodd" d="M10.619 18.0557C10.3285 17.8174 10.0279 17.5895 9.74949 17.3388C8.25125 15.9899 7.15538 14.4022 6.61569 12.4881C6.46702 11.9613 6.36785 11.426 6.33605 10.8816C6.3137 10.5007 6.28139 10.1163 6.30958 9.73728C6.38469 8.72928 6.53731 7.73096 6.84703 6.76004L6.86405 6.7374C6.89413 6.77562 6.93744 6.80942 6.95274 6.85257C7.25506 7.70241 7.55516 8.55291 7.8537 9.4039C8.7918 12.0781 9.72869 14.753 10.6683 17.4266C10.6867 17.4787 10.7343 17.5216 10.7685 17.5686L10.619 18.0557Z" fill="#45A538"/>
<path fill-rule="evenodd" clip-rule="evenodd" d="M15.1409 7.02385C14.903 7.05764 14.6651 7.08996 14.4278 7.12491C13.8896 7.20448 13.3513 7.28372 12.8135 7.36526C12.3629 7.43367 11.9126 7.50504 11.4622 7.57542L11.1869 7.62054L11.1848 7.4491C11.1757 7.30817 11.1601 7.1674 11.1584 7.02647C11.1465 6.12774 11.1391 5.229 11.1274 4.33027C11.1202 3.7677 11.1094 3.20529 11.0974 2.64288C11.09 2.29343 11.0821 1.94381 11.0656 1.59485C11.0566 1.40733 11.025 1.22079 11.0121 1.03327C11.0049 0.925478 11.0149 0.816869 11.0171 0.708588C11.1575 0.968299 11.2948 1.22998 11.4392 1.48772C11.6673 1.89525 12.0306 2.19549 12.3577 2.52312C13.6507 3.8179 14.5687 5.32334 15.1409 7.02385Z" fill="#46A037"/>
<path fill-rule="evenodd" clip-rule="evenodd" d="M11.1874 13.2486C11.2013 13.2443 11.2256 13.243 11.2278 13.2354C11.3122 12.9595 11.5709 13.0007 11.7799 12.9662C12.3697 12.8688 12.9615 12.7808 13.5524 12.6894C14.1241 12.601 14.6957 12.5121 15.2679 12.4263C15.3356 12.4161 15.4062 12.4245 15.4755 12.4243C15.3686 12.7885 15.2844 13.1606 15.1488 13.5148C14.9948 13.9166 14.8085 14.3087 14.6106 14.6931C14.315 15.2678 13.9467 15.8038 13.5187 16.2949C13.1889 16.6735 12.8212 17.0235 12.4527 17.3692C12.2491 17.5603 12.009 17.716 11.7855 17.8878L11.7276 17.85L11.5189 17.6797L11.3031 17.2281C11.1544 16.6993 11.0764 16.161 11.0635 15.614L11.0674 15.522L11.0968 15.124C11.1066 14.9881 11.1197 14.8524 11.1257 14.7163C11.1479 14.227 11.1671 13.7378 11.1874 13.2486Z" fill="#409433"/>
<path fill-rule="evenodd" clip-rule="evenodd" d="M11.1875 13.2486C11.1672 13.7378 11.148 14.227 11.1261 14.7164C11.1201 14.8526 11.107 14.9883 11.0972 15.1241L10.9658 15.1715C10.6737 14.3509 10.3816 13.539 10.0957 12.7249C9.62308 11.3781 9.15609 10.0292 8.68412 8.68205C8.30308 7.59464 7.91894 6.50838 7.53256 5.42262C7.51451 5.37176 7.46261 5.33206 7.42651 5.2871L8.26801 3.81021C8.29689 3.85812 8.33505 3.90291 8.35326 3.95442C8.74256 5.05413 9.13117 6.15401 9.51651 7.25503C10.0177 8.6873 10.5158 10.1207 11.0166 11.5531C11.0366 11.6104 11.0696 11.6632 11.101 11.7274L11.2162 11.5994C11.2066 12.1492 11.1969 12.6988 11.1875 13.2486Z" fill="#4FAA41"/>
<path fill-rule="evenodd" clip-rule="evenodd" d="M7.42663 5.28726C7.46273 5.33222 7.51446 5.37192 7.53268 5.42278C7.91905 6.50854 8.3032 7.5948 8.68424 8.68221C9.15621 10.0293 9.6232 11.3782 10.0959 12.725C10.3815 13.5389 10.6737 14.3511 10.9659 15.1717L11.0974 15.1243L11.068 15.5223L11.0413 15.614C10.9956 16.0498 10.9571 16.4865 10.9014 16.9213C10.8734 17.1391 10.8139 17.3531 10.7687 17.5688C10.7347 17.5217 10.6869 17.4789 10.6685 17.4267C9.7289 14.753 8.79201 12.0783 7.85391 9.40408C7.55537 8.55309 7.25527 7.70259 6.95295 6.85275C6.93765 6.8096 6.89451 6.7758 6.86426 6.73757C7.0516 6.25408 7.23912 5.77059 7.42663 5.28726Z" fill="#4AA73C"/>
<path fill-rule="evenodd" clip-rule="evenodd" d="M11.216 11.5996L11.1008 11.7275C11.0694 11.6634 11.0364 11.6104 11.0164 11.5533C10.5158 10.1209 10.0175 8.68744 9.51632 7.25518C9.13098 6.15416 8.74237 5.05428 8.35307 3.95457C8.33503 3.90305 8.29687 3.8581 8.26782 3.81036L9.30853 2.5036C9.34135 2.54544 9.3881 2.58268 9.40512 2.62976C9.69404 3.43712 9.98038 4.24545 10.265 5.05428C10.5309 5.80962 10.7928 6.56612 11.0618 7.32048C11.0799 7.37101 11.1426 7.40677 11.1845 7.44943L11.1866 7.62087C11.1966 8.94683 11.2064 10.2733 11.216 11.5996Z" fill="#57AE47"/>
<path fill-rule="evenodd" clip-rule="evenodd" d="M11.1849 7.44911C11.1429 7.40645 11.0802 7.37069 11.0621 7.32016C10.7932 6.5658 10.5312 5.8093 10.2653 5.05396C9.9807 4.24513 9.69435 3.43696 9.40543 2.62944C9.38842 2.58236 9.34167 2.54512 9.30884 2.50328C9.64726 2.18697 9.9752 1.85934 10.3272 1.55762C10.6402 1.28955 10.8918 1.00211 10.9033 0.578499C10.9038 0.560945 10.9135 0.54339 10.9282 0.494171L11.0174 0.708437C11.0152 0.816882 11.0051 0.925327 11.0125 1.03312C11.0254 1.22064 11.057 1.40718 11.0659 1.5947C11.0824 1.94366 11.0903 2.29328 11.0977 2.64273C11.1096 3.20514 11.1204 3.76755 11.1278 4.33012C11.1393 5.22885 11.1469 6.12758 11.1587 7.02632C11.1601 7.16758 11.1756 7.30818 11.1849 7.44911Z" fill="#60B24F"/>
<path fill-rule="evenodd" clip-rule="evenodd" d="M10.7684 17.5687C10.8136 17.3529 10.8731 17.1388 10.9011 16.9211C10.957 16.4865 10.9953 16.0496 11.041 15.6139L11.0524 15.6122L11.0637 15.614C11.0766 16.161 11.1546 16.6993 11.3033 17.2281C11.2731 17.2661 11.2303 17.3001 11.2143 17.3431C11.0893 17.6794 10.9716 18.0184 10.8459 18.3547C10.8288 18.4006 10.781 18.4364 10.7473 18.4767L10.6189 18.0558L10.7684 17.5687Z" fill="#A9AA88"/>
<path fill-rule="evenodd" clip-rule="evenodd" d="M10.7473 18.4769C10.781 18.4365 10.829 18.4008 10.846 18.3548C10.9716 18.0185 11.0895 17.6797 11.2143 17.3432C11.2303 17.3002 11.2729 17.2663 11.3033 17.2282L11.519 17.68C11.4764 17.7378 11.4176 17.7898 11.3939 17.8541L10.9807 19.0122C10.9637 19.0587 10.9056 19.0915 10.8668 19.1307L10.7473 18.4769Z" fill="#B6B598"/>
<path fill-rule="evenodd" clip-rule="evenodd" d="M10.8669 19.1305C10.906 19.0915 10.9639 19.0585 10.9809 19.0121L11.3941 17.8539C11.4176 17.7898 11.4766 17.7376 11.5192 17.6799L11.728 17.85C11.6271 17.9452 11.5711 18.0551 11.6048 18.194L11.5414 18.3922C11.5125 18.4262 11.4707 18.4557 11.4565 18.4946C11.3123 18.8888 11.1746 19.2852 11.0294 19.6795C11.011 19.7295 10.9599 19.7687 10.9238 19.8127C10.9051 19.5851 10.886 19.3581 10.8669 19.1305Z" fill="#C2C1A7"/>
<path fill-rule="evenodd" clip-rule="evenodd" d="M10.9239 19.8127C10.9598 19.7686 11.0108 19.7294 11.0294 19.6795C11.1746 19.2854 11.3123 18.889 11.4565 18.4946C11.4708 18.4559 11.5124 18.4262 11.5414 18.3922L11.4539 19.302C11.4306 19.3277 11.3967 19.3502 11.3855 19.3802C11.2867 19.645 11.1936 19.9118 11.0944 20.1766C11.0739 20.2312 11.0347 20.2795 11.0041 20.3305C10.977 20.2965 10.9283 20.2637 10.9261 20.2283C10.9173 20.0903 10.9234 19.9513 10.9239 19.8127Z" fill="#CECDB7"/>
<path fill-rule="evenodd" clip-rule="evenodd" d="M11.0039 20.3305C11.0345 20.2793 11.0737 20.2311 11.0941 20.1766C11.1935 19.912 11.2865 19.6452 11.3853 19.3802C11.3965 19.3502 11.4305 19.3279 11.4537 19.302L11.4558 19.8992L11.2464 20.4117L11.0039 20.3305Z" fill="#DBDAC7"/>
<path fill-rule="evenodd" clip-rule="evenodd" d="M11.2466 20.4119L11.4559 19.8993L11.4991 20.5057L11.2466 20.4119Z" fill="#EBE9DC"/>
<path fill-rule="evenodd" clip-rule="evenodd" d="M11.6048 18.1942C11.5711 18.0553 11.627 17.9452 11.728 17.8502L11.7859 17.8879L11.6048 18.1942Z" fill="#CECDB7"/>
<path fill-rule="evenodd" clip-rule="evenodd" d="M11.0637 15.6142L11.0524 15.6124L11.041 15.614L11.0677 15.5223L11.0637 15.6142Z" fill="#4FAA41"/>
</svg>
