<svg width="32" height="32" viewBox="0 0 32 32" fill="none" xmlns="http://www.w3.org/2000/svg">
<path d="M8.255 24.635C8.255 24.635 7.655 19.28 8.38 16.175C9.105 13.07 9.84 11.615 11.09 10.675C11.8913 10.092 12.7857 9.64909 13.735 9.36499C13.735 9.36499 12.925 6.69999 12.55 6.59499C12.175 6.48999 10.78 6.92499 10.195 6.50999C9.61 6.09499 8.695 5.00999 8.59 5.09499C8.485 5.17999 8.36 5.59499 8.215 5.67499C7.77725 5.75137 7.32658 5.69023 6.925 5.49999C6.63 5.30999 6.34 5.03999 6.78 4.72999C7.3921 4.39974 8.08676 4.25386 8.78 4.30999C9.155 4.41499 10.59 5.83499 10.82 5.80999C11.05 5.78499 12.78 5.30999 13.32 6.05999C13.86 6.80999 14.61 9.05999 14.61 9.05999C15.0322 8.94902 15.4719 8.92017 15.905 8.97499C16.3535 8.99463 16.799 9.05826 17.235 9.16499C17.235 9.16499 17.405 7.43499 16.76 7.16499C16.115 6.89499 15.385 7.10499 15.3 6.35499C15.215 5.60499 14.925 4.85499 14.715 4.85499C14.505 4.85499 14.34 5.01999 13.945 5.05999C13.71 5.05355 13.4787 5.00076 13.2641 4.90466C13.0496 4.80856 12.8562 4.67104 12.695 4.49999C12.63 4.28999 12.905 3.62499 13.905 3.49999C14.905 3.37499 16.13 4.49999 16.195 5.12499C16.26 5.74999 16.195 6.12499 16.255 6.16499C16.315 6.20499 18.11 6.66499 18.255 7.66499C18.2956 8.24762 18.2956 8.83237 18.255 9.41499C18.32 9.41499 21.38 9.68499 22.86 14.415C23.7487 17.2999 23.9978 20.3439 23.59 23.335C24.122 23.5078 24.5876 23.8407 24.9232 24.2882C25.2589 24.7357 25.4481 25.2759 25.465 25.835C25.465 27.77 23.55 28.605 22.005 28.335C20.46 28.065 18.925 27.73 17.775 27.895C16.625 28.06 15.86 28.625 14.86 28.52C13.86 28.415 12 27.425 10.465 27.8C8.93 28.175 7.55 28.45 6.965 27.425C6.83919 27.16 6.77319 26.8706 6.77169 26.5773C6.77019 26.284 6.83322 25.994 6.95632 25.7278C7.07941 25.4615 7.25956 25.2256 7.48399 25.0368C7.70842 24.8479 7.97165 24.7108 8.255 24.635Z" fill="#1D1D1B"/>
<path d="M8.00001 25.55C8.40501 25.235 9.44001 25.24 9.46001 25.095C9.02749 22.8371 8.90804 20.5305 9.10501 18.24C9.48001 14.55 10.145 12.425 11.98 11.095C13.815 9.765 15.98 9.885 17.815 10.175C19.65 10.465 21.5 12.425 22.215 15.3C22.93 18.175 22.425 23.905 22.505 23.97C22.585 24.035 24.195 24.24 24.255 25.655C24.315 27.07 23.53 27.905 22.03 27.55C20.6556 27.2018 19.233 27.0835 17.82 27.2C15.945 27.28 15.61 27.7 14.55 27.595C13.49 27.49 12.945 26.595 11.005 26.885C9.06501 27.175 8.25501 27.51 8.00501 27.2C7.75501 26.89 7.32001 26.075 8.00001 25.55Z" fill="#C8DB89"/>
<path d="M8.46498 26.345C8.60808 26.214 8.77618 26.1132 8.95919 26.0488C9.14221 25.9843 9.33636 25.9575 9.52998 25.97C9.90498 26.01 10.465 26.095 10.425 26.28C10.385 26.465 10.425 26.55 10.215 26.55C10.005 26.55 9.67498 26.28 9.29998 26.47C8.92498 26.66 8.71498 26.825 8.60998 26.8C8.53671 26.7528 8.48215 26.6816 8.45569 26.5986C8.42923 26.5155 8.43252 26.4259 8.46498 26.345Z" fill="#1D1D1B"/>
<path d="M13.9251 26.05C14.0701 26.08 14.4251 26.55 14.8601 26.55C15.2951 26.55 15.9251 26.405 15.9651 26.55C16.0051 26.695 16.0901 27.01 15.9651 27.05C15.486 27.1145 14.999 27.0874 14.5301 26.97C14.2351 26.825 13.6751 26.615 13.6551 26.47C13.6351 26.325 13.8201 26.03 13.9251 26.05Z" fill="#1D1D1B"/>
<path d="M20.965 26.345C21.4445 26.2901 21.9293 26.3036 22.405 26.385C23.03 26.49 23.09 26.51 23.09 26.615C23.09 26.72 23 27 22.925 27C22.5401 26.904 22.1492 26.8339 21.755 26.79C21.38 26.79 21.3 26.855 21.09 26.79C20.88 26.725 20.905 26.385 20.965 26.345Z" fill="#1D1D1B"/>
<path d="M17.6551 24.3C17.8101 24.3 18.755 25.615 18.63 25.675C18.4679 25.7253 18.2997 25.7539 18.13 25.76C18.13 25.76 17.3 24.47 17.3 24.385C17.3 24.3 17.5001 24.325 17.6551 24.3Z" fill="#1D1D1B"/>
<path d="M18.715 24.22C18.675 24.055 19.005 24.22 19.13 24.28C19.4174 24.7087 19.6366 25.1792 19.78 25.675C19.695 25.675 19.425 25.74 19.34 25.675C19.1038 25.2024 18.8951 24.7166 18.715 24.22Z" fill="#1D1D1B"/>
<path d="M19.84 24.155C19.775 23.955 20.215 24.03 20.255 24.075C20.5007 24.4389 20.7037 24.8298 20.86 25.24C20.8116 25.2877 20.7509 25.3209 20.6846 25.3359C20.6184 25.3509 20.5493 25.3471 20.485 25.325C20.2498 24.9465 20.0345 24.556 19.84 24.155Z" fill="#1D1D1B"/>
<path d="M20.6951 23.72C20.6951 23.72 20.8801 23.51 21.0051 23.595C21.4125 23.9736 21.7643 24.4079 22.0501 24.885C22.0051 25.01 21.7551 25.095 21.7551 25.095C21.368 24.6637 21.0137 24.2041 20.6951 23.72Z" fill="#1D1D1B"/>
<path d="M21.1749 22.72C21.0999 22.72 21.2999 22.345 21.4049 22.45C21.71 22.7481 21.9756 23.0842 22.1949 23.45C22.1949 23.6 22.2349 23.805 22.1949 23.805C22.1549 23.805 21.2549 22.74 21.1749 22.72Z" fill="#1D1D1B"/>
<path d="M10.59 14.655C10.53 14.595 10.695 14.095 11.03 13.26C11.365 12.425 11.57 12.135 11.735 12.075C11.9 12.015 12.13 12.075 12.11 12.155C12.09 12.235 11.485 13.24 11.3 13.655C11.1962 13.9815 11.1193 14.316 11.07 14.655C11 14.72 10.63 14.7 10.59 14.655Z" fill="#1D1D1B"/>
<path d="M13.0651 15.885C13.7151 15.05 14.6901 14.925 16.4151 14.885C18.1401 14.845 19.6501 15.72 19.8751 18.155C20.1001 20.59 18.4351 21.95 15.7201 21.72C13.0051 21.49 12.3001 19.53 12.1351 18.615C11.9701 17.7 12.5001 16.615 13.0651 15.885Z" fill="#1D1D1B"/>
<path d="M16.3499 15.78C16.6819 15.7598 17.0147 15.806 17.3286 15.916C17.6426 16.026 17.9314 16.1976 18.1782 16.4206C18.425 16.6437 18.6248 16.9137 18.7659 17.215C18.907 17.5162 18.9865 17.8426 18.9999 18.175C19.0899 20.075 17.3499 21.05 15.5849 20.865C14.9276 20.7742 14.3247 20.4509 13.8853 19.9538C13.4459 19.4566 13.1992 18.8184 13.1899 18.155C13.1649 17.325 13.8049 15.845 16.3499 15.78Z" fill="#CBE7F5"/>
<path d="M15.61 17.45C15.7831 17.3589 15.9757 17.311 16.1713 17.3103C16.3669 17.3096 16.5598 17.3562 16.7336 17.446C16.9073 17.5358 17.0568 17.6663 17.1694 17.8263C17.2819 17.9863 17.3542 18.1711 17.38 18.365C17.505 19.365 15.985 19.865 15.32 19.175C15.1804 19.0638 15.0731 18.9172 15.0093 18.7505C14.9454 18.5839 14.9274 18.4031 14.957 18.2271C14.9865 18.0511 15.0627 17.8862 15.1775 17.7495C15.2924 17.6129 15.4417 17.5095 15.61 17.45Z" fill="#1D1D1B"/>
</svg>
