<svg width="26" height="24" viewBox="0 0 26 24" fill="none" xmlns="http://www.w3.org/2000/svg">
<g clip-path="url(#clip0_158_3247)">
<path d="M0.00927734 12V24H13.0093H26.0093V12V0H13.0093H0.00927734V12Z" fill="#007ACC"/>
<path d="M5.7587 12.0796L5.75045 13.0625H7.44251H9.13458V17.5006V21.9387H10.3314H11.5282V17.5006V13.0625H13.2203H14.9124V12.0987C14.9124 11.5653 14.9 11.1196 14.8835 11.1082C14.8711 11.0929 12.8117 11.0853 10.3149 11.0891L5.77108 11.1006L5.7587 12.0796Z" fill="white"/>
<path d="M20.9886 11.0727C21.649 11.225 22.1524 11.4955 22.6147 11.9374C22.854 12.1736 23.209 12.6041 23.2378 12.7069C23.2461 12.7374 22.1153 13.4384 21.4302 13.8308C21.4055 13.846 21.3064 13.7469 21.195 13.5946C20.8607 13.145 20.5099 12.9508 19.9734 12.9165C19.1851 12.8669 18.6775 13.2479 18.6817 13.8841C18.6817 14.0708 18.7105 14.1812 18.7931 14.3336C18.9664 14.665 19.2883 14.8631 20.2994 15.2669C22.1607 16.006 22.9572 16.4936 23.4524 17.1869C24.0055 17.9603 24.1293 19.1946 23.7537 20.1127C23.341 21.1108 22.3175 21.7888 20.8772 22.0136C20.4315 22.086 19.375 22.0746 18.8963 21.9946C17.8521 21.8231 16.8617 21.3469 16.2509 20.7222C16.0115 20.4784 15.5451 19.8422 15.574 19.7965C15.5864 19.7812 15.6937 19.7203 15.8134 19.6555C15.929 19.5946 16.3664 19.3622 16.7791 19.1412L17.5261 18.7412L17.6829 18.9546C17.9017 19.2631 18.3804 19.686 18.6693 19.8269C19.4988 20.2308 20.6378 20.1736 21.1991 19.7088C21.4385 19.5069 21.5375 19.2974 21.5375 18.9888C21.5375 18.7108 21.5004 18.5888 21.3436 18.3793C21.1413 18.1127 20.7286 17.8879 19.5566 17.4193C18.2153 16.886 17.6375 16.5546 17.1093 16.0288C16.8039 15.7241 16.515 15.2365 16.3953 14.8288C16.2963 14.4898 16.2715 13.6403 16.3499 13.2974C16.6264 12.1012 17.6045 11.2669 19.0159 11.0193C19.474 10.9393 20.5388 10.9698 20.9886 11.0727Z" fill="white"/>
</g>
<defs>
<clipPath id="clip0_158_3247">
<rect width="26" height="24" fill="white" transform="translate(0.00927734)"/>
</clipPath>
</defs>
</svg>
