<svg width="19" height="19" viewBox="0 0 19 19" fill="none" xmlns="http://www.w3.org/2000/svg">
<g clip-path="url(#clip0_158_3260)">
<path d="M18.8119 14.6122C18.135 14.7844 17.7164 14.6196 17.3409 14.0555C16.4977 12.7923 15.567 11.587 14.669 10.3595C14.5532 10.2006 14.433 10.0448 14.283 9.84735C13.2202 11.2813 12.1589 12.6469 11.1629 14.0674C10.8066 14.5751 10.4326 14.7963 9.76758 14.6166L13.7635 9.2536L10.0437 4.41008C10.6834 4.28539 11.1258 4.34922 11.5177 4.92219C12.383 6.18688 13.3375 7.39071 14.289 8.6643C15.2464 7.39516 16.189 6.18985 17.0796 4.93703C17.4373 4.42938 17.8218 4.23641 18.4645 4.42344C17.9777 5.06914 17.5012 5.70446 17.0217 6.33532C16.3745 7.18586 15.7392 8.0468 15.0683 8.87953C14.8293 9.17641 14.8679 9.36938 15.0816 9.64993C16.3226 11.2813 17.5487 12.9289 18.8119 14.6122Z" fill="black"/>
<path d="M0.206602 9.16454C0.313477 8.62868 0.384727 8.08243 0.533164 7.55696C1.42379 4.37594 5.07535 3.05336 7.58395 5.02461C9.05348 6.18094 9.41863 7.81079 9.3459 9.64844H1.06309C0.938398 12.9452 3.31191 14.9358 6.33707 13.9205C7.3984 13.5642 8.02332 12.733 8.33652 11.6939C8.49535 11.1729 8.75809 11.0913 9.24793 11.2397C8.99707 12.54 8.42855 13.6266 7.24106 14.3064C5.45981 15.3247 2.91707 14.9952 1.57965 13.5806C0.789961 12.7493 0.454492 11.7147 0.306055 10.597C0.283789 10.4188 0.237773 10.2437 0.202148 10.067C0.205117 9.7662 0.206602 9.46537 0.206602 9.16454ZM1.07793 8.94336H8.56363C8.51465 6.55946 7.03027 4.86579 5.00113 4.85094C2.77457 4.83313 1.17441 6.48672 1.07793 8.94336Z" fill="black"/>
</g>
<defs>
<clipPath id="clip0_158_3260">
<rect width="19" height="19" fill="white" transform="translate(0.00927734)"/>
</clipPath>
</defs>
</svg>
