<svg data-v-3b353d4a="" version="1.1" id="fire-colored" xmlns="http://www.w3.org/2000/svg" x="0" y="0" viewBox="0 0 362.6 57" xml:space="preserve"><style>.rt0{fill:#e9c848}.rt1{fill:#270e78}.rt2{fill:#e48ff7}</style><path d="M36.6 56.7l-1.2-.4L47 13.2 33.5 23.7 37 4 19.6 23.6l-1.7-10.3L1.5 38.8l-1-.6 18.1-28.1L20.4 21 38.9 0l-3.7 20.9L49 10.1z"></path><path d="M48.3 11.5L36.6 56.7.5 39.2 18.2 9.9l2.1 10.9L37.9 1.6l-3.7 20.8 14.1-10.9z" class="rt0"></path><path d="M36.9 57.4L-.2 39.5 18.4 8.6l2.2 11.2L38.7 0l-3.8 21.2 14.2-11-12.2 47.2zM1.2 39l35.1 16.9 11.2-43.2-14 10.9 3.6-20.4-17.2 18.7-2-10.6L1.2 39z" class="rt1"></path><path d="M40.6 24.2L33.2 55 4.8 41.3 16 19.5l1.8 9.1 13-12.6v14.9l9.8-6.7z" class="rt2"></path><path d="M33.5 55.8L4.1 41.5 16.2 18l1.9 9.6 13.1-12.8v15.1l10.2-6.8-7.9 32.7zM5.4 41.1l27.4 13.2 6.9-29-9.6 6.4V17.2L17.4 29.6 15.8 21 5.4 41.1z" class="rt1"></path><path d="M110.8 21L96.7 56.7 62.4 39.2l11.9-27.5 6 9.1L99.2 3l-2 18.6 13.6-.6z" class="rt0"></path><path d="M96.9 57.3L61.7 39.5l12.5-28.8 6.2 9.4L99.8 1.7l-2.1 19.4 13.8-.6-14.6 36.8zM63 39l33.4 17 13.7-34.4-13.4.6 1.9-17.9-18.4 17.3-5.8-8.8L63 39z" class="rt1"></path><path d="M103.8 25L93.3 55 64.8 41.3 74.7 22l4.3 9.1 14.1-14.3-2.3 14 13-5.8z" class="rt2"></path><path d="M93.6 55.7L64.2 41.5l10.6-20.6 4.4 9.3 14.7-14.9L91.4 30l13.3-5.9-11.1 31.6zM65.5 41.1L93 54.3l10-28.4-12.8 5.8 2.2-13.4L78.8 32l-4.1-8.8-9.2 17.9z" class="rt1"></path><path d="M172.2 3.3l-13.4 53.3-34.6-18.5 17-25.9 2.4 11.7 9-22.4 6 21 13.6-19.2z" class="rt0"></path><path d="M159.1 57.4l-35.7-19 18-27.3 2.3 11.3 9-22.4 6.1 21.4 13-18.4.9.4-13.6 54zM124.9 38l33.6 17.9 12.6-50.1-12.6 17.9-5.9-20.6-9.1 22.6-2.5-12.1L124.9 38z" class="rt1"></path><path d="M163.8 23.3L155.4 55 127 41.3l12.3-19.7 4.1 11.7 9.9-17.4 3.1 16.7 7.4-9.3z" class="rt2"></path><path d="M155.8 55.7l-29.5-14.2 13.1-21.1 4.1 11.7 10.1-17.7 3.1 17 6.7-8.3.9.4-8.5 32.2zm-28.1-14.6l27.4 13.2 7.6-28.8-6.6 8.2-3-16.4-9.8 17.2-4.1-11.8-11.5 18.4z" class="rt1"></path><g><path d="M234.2 21.5l-11.4 35.2-35.3-18.6L198 11.4l8.7 11.4 20-21.2-4.1 21 11.6-1.1z" class="rt0"></path><path d="M223.1 57.4l-36.2-19.1 11-28 8.9 11.6 20.8-22-4.3 22.1 11.6-1.1-11.8 36.5zm-34.9-19.6l34.4 18.1 11-33.9-11.5 1.1 3.9-20-19.3 20.4-8.5-11.2-10 25.5z" class="rt1"></path></g><g><path d="M228.8 27.6L219.5 55 191 41.3l8.3-20.6 6.8 9.6L219 15.8l-.1 14.2 9.9-2.4z" class="rt2"></path><path d="M219.8 55.7l-29.4-14.2 8.8-21.9 7 9.8 13.3-15-.1 14.9 10.2-2.4-9.8 28.8zm-28.1-14.6l27.5 13.3 8.9-26-9.7 2.3.1-13.5L206 31.1l-6.6-9.4-7.7 19.4z" class="rt1"></path></g><g><path d="M296.6 11.5L285 57.4l-36.2-13.2 1-32.7 17.1 11.2 12.5-21.2 3.5 21 13.7-11z" class="rt0"></path><path d="M285.4 58.1l-37.1-13.5 1-34 17.4 11.5L279.6.2l3.6 21.5 14.2-11.5-12 47.9zm-36-14.2l35.3 12.8 11-43.9-13.2 10.7L279.1 3l-12 20.5-16.8-11-.9 31.4z" class="rt1"></path></g><g><path d="M289.1 27.6L279.7 55l-22.8-7.9-2.3-24.7 14.1 7.6 8.8-16 1.6 16 10-2.4z" class="rt2"></path><path d="M280 55.7l-23.6-8.2-2.4-25.9 14.5 7.8 9.4-17 1.7 17 10.3-2.5-9.9 28.8zm-22.7-8.9l22 7.6 8.9-26.1-9.6 2.3-1.5-14.9-8.3 15.1-13.7-7.4 2.2 23.4z" class="rt1"></path></g><g><path d="M361.3 9.3L347.6 57 311 50l12.8-35.5 7 17.2 13.8-29.4 4.4 20.2 12.3-13.2z" class="rt0"></path><path d="M348 57.6l-37.7-7.3 13.4-37.2 7.1 17.4 14-29.7 4.5 20.8L361 9l.8.5L348 57.6zm-36.3-8l35.6 6.9 13-45.3-11.6 12.5L344.4 4l-13.7 29-6.9-17.1-12.1 33.7z" class="rt1"></path></g><g><path d="M354.2 24.8l-9.9 31.6-23.6-4.9 2.1-25.3 7.7 17.2 12-26.8 3.1 16.7 8.6-8.5z" class="rt2"></path><path d="M344.6 57l-24.5-5.1 2.1-25.7 1-.2 7.3 16.2L342.6 15l3.2 17.4 8-8 .8.5-10 32.1zm-23.5-5.9l22.8 4.7 9.2-29.3-7.9 7.9-3-16.1-11.8 26.3-7.4-16.4-1.9 22.9z" class="rt1"></path></g></svg>