<svg width="24" height="24" viewBox="0 0 24 24" fill="none" xmlns="http://www.w3.org/2000/svg">
<g clip-path="url(#clip0_158_3270)">
<path d="M12.0103 4.79999C8.81025 4.79999 6.81025 6.39999 6.01025 9.59999C7.21025 7.99999 8.61025 7.39999 10.2103 7.79999C11.1233 8.02799 11.7753 8.68999 12.4983 9.42399C13.6753 10.618 15.0363 12 18.0103 12C21.2103 12 23.2103 10.4 24.0103 7.19999C22.8103 8.79999 21.4103 9.39999 19.8103 8.99999C18.8973 8.77199 18.2453 8.10999 17.5223 7.37599C16.3463 6.18199 14.9853 4.79999 12.0103 4.79999ZM6.01025 12C2.81025 12 0.810254 13.6 0.0102539 16.8C1.21025 15.2 2.61025 14.6 4.21025 15C5.12325 15.228 5.77525 15.89 6.49825 16.624C7.67525 17.818 9.03625 19.2 12.0103 19.2C15.2103 19.2 17.2103 17.6 18.0103 14.4C16.8103 16 15.4103 16.6 13.8103 16.2C12.8973 15.972 12.2453 15.31 11.5223 14.576C10.3463 13.382 8.98525 12 6.01025 12Z" fill="#36B7F0"/>
</g>
<defs>
<clipPath id="clip0_158_3270">
<rect width="24" height="24" fill="white" transform="translate(0.00927734)"/>
</clipPath>
</defs>
</svg>
