<svg width="17" height="18" viewBox="0 0 17 18" fill="none" xmlns="http://www.w3.org/2000/svg">
<path d="M10.0915 6.8625C8.64348 6.258 7.85414 5.793 7.85414 5.05575C7.85414 4.4325 8.30948 4.077 9.12148 4.077C10.6061 4.077 12.1315 4.7205 13.1815 5.30025L13.7748 1.17975C12.9421 0.73125 11.2388 0 8.88414 0C7.21881 0 5.83348 0.4905 4.84348 1.404C3.81414 2.36025 3.27881 3.744 3.27881 5.4135C3.27881 8.44275 4.92348 9.7335 7.59614 10.8278C9.31948 11.5177 9.89281 12.0083 9.89281 12.765C9.89281 13.5 9.33281 13.9237 8.32348 13.9237C7.07348 13.9237 5.01348 13.233 3.66348 12.342L3.06348 16.5082C4.22414 17.2425 6.36414 18 8.58348 18C10.3441 18 11.8121 17.532 12.8021 16.6403C13.9115 15.6615 14.4855 14.2133 14.4855 12.3412C14.4855 9.24525 12.8028 7.953 10.0895 6.8625H10.0915Z" fill="black"/>
</svg>
