<svg width="24" height="24" viewBox="0 0 24 24" fill="none" xmlns="http://www.w3.org/2000/svg">
<g clip-path="url(#clip0_158_3184)">
<path d="M2.51953 11.9669V11.9668C2.51959 10.7264 2.76477 9.498 3.2411 8.35189C3.71744 7.20578 4.41563 6.1643 5.2959 5.28697C6.17617 4.40963 7.22127 3.71361 8.37157 3.23875C9.52188 2.76388 10.7548 2.51947 12 2.51953H12C13.2452 2.51947 14.4781 2.76388 15.6284 3.23875C16.7787 3.71361 17.8238 4.40963 18.7041 5.28697C19.5844 6.1643 20.2826 7.20578 20.7589 8.35189C21.2352 9.498 21.4804 10.7264 21.4805 11.9668V11.9669C21.4807 13.2075 21.2357 14.436 20.7594 15.5824C20.2832 16.7287 19.5851 17.7704 18.7048 18.6479C17.8245 19.5255 16.7793 20.2216 15.6289 20.6966C14.4784 21.1716 13.2453 21.4161 12 21.416H12C10.7547 21.4161 9.52158 21.1716 8.37114 20.6966C7.26098 20.2383 6.24882 19.5739 5.38827 18.7394L6.69764 17.8192L15.8832 11.3642L17.1768 10.4551H15.5957H12.866L17.8774 6.93249L19.1706 6.02344H17.5898H11.3105H10.9872L10.8546 6.31826L8.8605 10.7498L8.86044 10.7499L7.94839 12.7752L7.94837 12.7752L5.95423 17.2049L5.30171 18.6544C5.29955 18.6522 5.2974 18.6501 5.29524 18.6479C4.41495 17.7704 3.7168 16.7287 3.24057 15.5824C2.76434 14.436 2.51934 13.2075 2.51953 11.9669Z" fill="white" fill-opacity="0.980392" stroke="black"/>
</g>
<defs>
<clipPath id="clip0_158_3184">
<rect width="24" height="24" fill="white"/>
</clipPath>
</defs>
</svg>
