<svg width="32" height="32" viewBox="0 0 32 32" fill="none" xmlns="http://www.w3.org/2000/svg">
<path d="M15.5 3.57999C15.71 3.44499 16.155 4.01499 16.09 4.18999C16.025 4.36499 9.38997 10.58 7.43497 12.36C5.83605 13.9028 4.61736 15.7958 3.87497 17.89C3.49997 19.065 3.10997 21.815 4.60997 24.17C6.10997 26.525 8.15497 27.735 9.82497 28.03C11.495 28.325 13.06 28.28 15.64 26.08C18.8852 23.1635 21.9825 20.0863 24.92 16.86C26.56 14.97 28.825 12.83 29.015 12.86C29.205 12.89 29.515 13.405 29.42 13.485C29.325 13.565 19.825 23.205 17.875 25.095C15.925 26.985 13.295 29.045 11.34 29.03C9.38497 29.015 6.93497 28.595 5.24997 26.735C3.56497 24.875 2.44997 22.97 2.57497 20.36C2.71251 18.0893 3.48138 15.9022 4.79497 14.045C5.79497 12.67 14.09 4.46999 15.5 3.57999Z" fill="#1D1D1B"/>
<path d="M13.95 11.5C13.89 11.23 22.86 3 23.09 3C23.32 3 23.59 3.5 23.56 3.61C23.53 3.72 14.56 11.95 14.39 11.985C14.22 12.02 14 11.625 13.95 11.5Z" fill="#1D1D1B"/>
<path d="M18.0302 12.33C18.0302 12.175 27.1252 3.82999 27.3102 3.77999C27.4952 3.72999 27.8102 4.24999 27.7802 4.35999C27.7502 4.46999 18.6552 12.89 18.5002 12.845C18.3452 12.8 18.0002 12.44 18.0302 12.33Z" fill="#1D1D1B"/>
<path d="M18.1101 17.47C18.1101 17.26 25.9651 9.79499 26.0751 9.82999C26.1851 9.86499 26.6401 10.33 26.5301 10.5C26.4201 10.67 18.6851 18.065 18.5901 18.065C18.4951 18.065 18.0901 17.625 18.1101 17.47Z" fill="#1D1D1B"/>
<path d="M5.54501 17.375C5.63001 17.315 6.36001 17.315 6.31001 17.485C5.94152 18.3733 5.86104 19.3549 6.07991 20.2914C6.29878 21.2278 6.80597 22.072 7.53001 22.705C10.03 24.92 12.28 25.125 12.795 25.17C13.31 25.215 13.655 25.295 13.715 25.39C13.775 25.485 13.81 26.095 13.61 26.14C13.41 26.185 9.32501 26 7.32501 24.095C5.32501 22.19 5.00001 19.97 5.12501 19.065C5.25001 18.16 5.40501 17.47 5.54501 17.375Z" fill="#1D1D1B"/>
<path d="M7.18482 18.045C7.31982 17.835 10.0598 15.67 10.1398 15.5C10.2198 15.33 10.8098 12.045 11.1698 11.815C11.5298 11.585 13.8748 14.045 14.0748 14.065C14.2748 14.085 17.9498 14.19 18.2798 14.53C18.6098 14.87 16.7498 17.69 16.7798 17.795C16.8098 17.9 18.4498 21.765 18.2798 22.03C18.1098 22.295 14.2298 21.065 14.0748 21.19C13.9198 21.315 11.6548 23.19 11.5298 23.25C11.4048 23.31 10.9048 23.42 10.8398 22.61C10.7748 21.8 10.4998 19 10.3598 18.92C10.2198 18.84 8.24982 18.78 7.85982 18.72C7.46982 18.66 6.85982 18.565 7.18482 18.045Z" fill="#1D1D1B"/>
<path d="M8.57479 17.815C8.51479 17.68 11.0148 15.89 11.0298 15.815C11.0448 15.74 11.4348 12.96 11.6698 12.94C11.9048 12.92 13.6398 14.955 13.9498 15C14.2598 15.045 17.3598 15 17.2948 15.19C17.2298 15.38 15.9198 17.625 15.8748 17.83C15.8298 18.035 17.0598 21.015 16.9648 21.08C16.8698 21.145 14.1098 20.235 13.8248 20.315C13.5398 20.395 11.9048 22.08 11.7798 22C11.6548 21.92 11.4048 18.685 11.2798 18.5C11.2027 18.3907 11.0999 18.3021 10.9804 18.2419C10.861 18.1817 10.7285 18.1519 10.5948 18.155C10.2798 18.095 8.65479 18 8.57479 17.815Z" fill="#FAB900"/>
<path d="M11.8398 14.155C11.9448 14.02 12.2498 14.08 12.2498 14.235C12.2498 14.39 12.1098 16.205 11.9648 16.235C11.8198 16.265 11.5598 16.315 11.5298 16.17C11.5733 15.4905 11.677 14.8162 11.8398 14.155Z" fill="#1D1D1B"/>
<path d="M14.1851 17C14.2901 16.95 15.0601 17.205 15.0751 17.345C15.0901 17.485 15.0751 17.735 15.0151 17.735C14.7187 17.6819 14.4299 17.5929 14.1551 17.47C14.1101 17.39 14.1251 17.03 14.1851 17Z" fill="#1D1D1B"/>
<path d="M14.1251 18.11C14.4726 18.1513 14.8107 18.2511 15.1251 18.405C15.2501 18.545 15.3901 18.83 15.2651 18.875C14.8512 18.8354 14.4454 18.736 14.0601 18.58C14.0001 18.5 14.0001 18.125 14.1251 18.11Z" fill="#1D1D1B"/>
<path d="M14.0448 19.065C14.5518 19.1886 15.0408 19.3768 15.4998 19.625C15.5598 19.72 15.7148 20.045 15.5748 20.045C15.0668 19.9289 14.566 19.7837 14.0748 19.61C13.9998 19.565 13.9498 19.08 14.0448 19.065Z" fill="#1D1D1B"/>
</svg>
