<svg width="24" height="24" viewBox="0 0 24 24" fill="none" xmlns="http://www.w3.org/2000/svg">
<g clip-path="url(#clip0_158_3274)">
<path d="M20.4093 0H3.60928C1.62105 0 0.00927734 1.61177 0.00927734 3.6V20.4C0.00927734 22.3882 1.62105 24 3.60928 24H20.4093C22.3975 24 24.0093 22.3882 24.0093 20.4V3.6C24.0093 1.61177 22.3975 0 20.4093 0Z" fill="#CC6699"/>
<path d="M12.103 4.12499C7.60298 5.67187 4.69673 8.81249 4.97798 10.6875C5.25923 12.5625 8.07173 14.0625 9.33735 15.0469C7.69673 15.8906 5.63423 17.1562 5.6811 18.7969C5.77485 21.0469 8.21235 20.3437 9.2436 19.6875C10.2749 19.0312 11.3061 17.2031 10.6499 15.2812C12.103 14.9062 13.3686 15.375 13.7436 15.6562C15.1967 16.6875 14.4467 17.8594 13.9311 18.0469C13.4155 18.2344 13.7436 18.3281 14.0717 18.2344C14.3999 18.1406 15.103 17.6719 15.103 16.875C15.103 14.8594 12.9467 13.9219 10.2749 14.625C8.72798 12.9844 6.6186 12.2344 6.71235 10.4531C6.75923 9.79687 6.9936 8.10937 11.1655 5.99999C15.3374 3.89062 18.2905 4.73437 17.9155 6.65624C17.353 9.56249 12.2905 11.5312 10.5092 9.84374C10.4155 9.65624 10.0874 9.51562 10.2749 10.0312C11.2124 12.375 18.8061 11.2969 19.1342 6.32812C19.228 3.70312 15.4311 2.99999 12.103 4.12499ZM8.07173 19.125C6.89985 19.5 6.94673 18.75 6.9936 18.4687C7.13423 17.6719 7.79048 16.6875 9.75923 15.7031C10.3217 17.4844 9.0561 18.8437 8.07173 19.125Z" fill="white"/>
</g>
<defs>
<clipPath id="clip0_158_3274">
<rect width="24" height="24" fill="white" transform="translate(0.00927734)"/>
</clipPath>
</defs>
</svg>
