<svg width="26" height="24" viewBox="0 0 26 24" fill="none" xmlns="http://www.w3.org/2000/svg">
<g clip-path="url(#clip0_158_3254)">
<path d="M0.00927734 0H26.0093V24H0.00927734V0Z" fill="#F7DF1E"/>
<path d="M6.84574 20.0561L8.83545 18.9446C9.2193 19.5729 9.56848 20.1044 10.4061 20.1044C11.2089 20.1044 11.7151 19.8145 11.7151 18.6869V11.0183H14.1584V18.7188C14.1584 21.0548 12.675 22.118 10.5108 22.118C8.55621 22.118 7.42162 21.1836 6.8457 20.0559" fill="black"/>
<path d="M15.4854 19.8145L17.4748 18.7512C17.9985 19.5407 18.6792 20.1206 19.8834 20.1206C20.8957 20.1206 21.5413 19.6534 21.5413 19.009C21.5413 18.2357 20.8782 17.9618 19.7612 17.5108L19.1505 17.269C17.3876 16.5764 16.2183 15.7064 16.2183 13.8698C16.2183 12.1782 17.6145 10.8894 19.7962 10.8894C21.3495 10.8894 22.4664 11.3888 23.2692 12.6938L21.3668 13.8214C20.9479 13.1288 20.4943 12.8549 19.7962 12.8549C19.0806 12.8549 18.6268 13.2738 18.6268 13.8214C18.6268 14.4981 19.0806 14.772 20.1277 15.1909L20.7385 15.4326C22.8154 16.2542 23.9848 17.0919 23.9848 18.9767C23.9848 21.0067 22.2569 22.1182 19.9358 22.1182C17.6669 22.1182 16.2008 21.1195 15.4854 19.8145Z" fill="black"/>
</g>
<defs>
<clipPath id="clip0_158_3254">
<rect width="26" height="24" fill="white" transform="translate(0.00927734)"/>
</clipPath>
</defs>
</svg>
