<svg width="24" height="24" viewBox="0 0 24 24" fill="none" xmlns="http://www.w3.org/2000/svg">
<path d="M15.8781 1.90641L15.5743 1.66718L15.2664 1.90095L14.7524 2.29109L14.8184 0.700299L16.1742 0.616086L16.2292 2.18298L15.8781 1.90641ZM13.2478 5.90995C13.8934 6.55407 14.2877 7.5194 14.3441 8.85507C14.256 8.87668 14.15 8.89822 14.0287 8.91869C13.6957 8.97491 13.281 9.01745 12.8759 9.03603C12.4671 9.05478 12.0916 9.04799 11.8302 9.01369C11.8076 9.01073 11.7869 9.00767 11.7678 9.00459C11.7576 8.21277 11.571 7.66297 11.2169 7.31508C10.8176 6.92279 10.324 6.9088 10.0835 6.9088C9.83823 6.9088 9.43594 6.94256 9.08291 7.17455C8.692 7.43143 8.4483 7.87202 8.4483 8.496C8.4483 9.19375 8.83088 9.70395 9.30358 10.0943C9.7564 10.4682 10.3602 10.7881 10.9474 11.0993L10.9785 11.1158C12.7503 12.0549 14.5527 13.0435 14.5527 15.5124C14.5527 16.7059 14.0748 17.6033 13.3026 18.2138C12.5176 18.8344 11.3938 19.1836 10.0847 19.1836C8.69897 19.1836 7.4917 18.9005 6.66998 18.2145C5.90964 17.5798 5.39479 16.5272 5.46711 14.7746C5.52504 14.7611 5.59816 14.7476 5.68726 14.7351C6.01051 14.6897 6.44966 14.6708 6.89935 14.6776C7.34829 14.6845 7.78386 14.7165 8.09801 14.7656C8.15325 14.7743 8.20195 14.783 8.24428 14.7916C8.24774 15.4851 8.33694 16.0496 8.59466 16.4573C8.93281 16.9922 9.47387 17.1428 10.0391 17.1428C10.4971 17.1428 10.9157 17.0146 11.2139 16.6972C11.5069 16.3855 11.6083 15.9708 11.6083 15.5556C11.6083 14.8358 11.2208 14.2991 10.7366 13.8808C10.27 13.4777 9.6484 13.129 9.04571 12.791L9.01906 12.776C9.01902 12.776 9.01898 12.776 9.01893 12.7759C7.28439 11.8022 5.5939 10.8151 5.5939 8.5812C5.5939 7.42196 5.98868 6.49942 6.69998 5.86168C7.41727 5.21858 8.51141 4.8164 9.9947 4.8164C11.48 4.8164 12.5488 5.21246 13.2478 5.90995ZM11.5902 8.95938C11.5904 8.95934 11.5937 8.96079 11.5992 8.9639C11.5926 8.96099 11.5899 8.95943 11.5902 8.95938Z" fill="white" stroke="black"/>
</svg>
