<svg width="54" height="52" viewBox="0 0 54 52" fill="none" xmlns="http://www.w3.org/2000/svg">
<path d="M2.40672 45.5359C2.14382 45.1982 1.70565 44.945 1.35512 44.6076C1.00458 44.2702 0.741679 43.7639 0.478778 43.3418C0.30351 43.0886 -0.134658 43.2576 0.0406091 43.5107C0.391144 44.3545 1.00458 45.8734 2.05619 45.958C2.40672 46.0422 2.58199 45.7891 2.40672 45.5359Z" fill="black"/>
<path d="M9.15433 49.3332C8.62853 48.9958 8.01509 48.9114 7.40165 48.7426C6.70058 48.4895 5.99951 48.2363 5.47371 47.8144C5.29844 47.7301 5.12318 47.8989 5.21081 48.0675C6.08715 48.9958 7.57692 50.0085 8.97906 50.0929C9.3296 50.0083 9.41723 49.5021 9.15433 49.3332Z" fill="black"/>
<path d="M14.5875 45.8733C14.1493 46.2954 13.7988 46.8016 13.273 47.1391C12.7472 47.4768 12.2214 47.5612 11.6079 47.6455C11.2574 47.73 11.4327 48.0675 11.6956 48.1521C13.1853 48.3207 14.5875 47.6455 15.2009 46.3796C15.2885 45.9578 14.8504 45.5359 14.5875 45.8733Z" fill="black"/>
<path d="M15.9024 40.7257C15.8148 40.6414 15.6395 40.6414 15.4643 40.7257C15.1137 41.0634 15.2014 41.4852 15.2014 41.8228C15.2014 42.4134 15.1137 42.9198 14.8508 43.4261C14.7632 43.7638 15.2014 43.9324 15.3766 43.6792C15.6395 43.1729 15.8148 42.6666 15.9024 42.1603C16.1653 41.7383 16.3406 41.0634 15.9024 40.7257Z" fill="black"/>
<path d="M14.062 38.4473C13.5362 38.1941 13.098 37.7722 12.6599 37.4346C12.2217 37.0126 11.8712 36.5906 11.3454 36.2532C10.9948 36.0843 10.6443 36.4221 10.8196 36.7595C11.1701 37.2659 11.6959 37.6878 12.2217 38.1099C12.6599 38.4473 13.1857 38.7849 13.7115 39.0379C14.1495 39.2067 14.5002 38.7005 14.062 38.4473Z" fill="black"/>
<path d="M8.01547 35.7469C7.40204 35.7469 6.87624 35.8311 6.35043 36.0843C5.91226 36.3375 5.29883 36.8438 5.29883 37.3504C5.29883 37.6036 5.64936 37.8567 5.91226 37.6878C6.2628 37.4347 6.5257 37.097 6.7886 36.8438C7.13914 36.5906 7.57731 36.422 7.92784 36.422C8.45364 36.422 8.54113 35.8311 8.01547 35.7469Z" fill="black"/>
<path d="M8.01525 41.8228C7.66471 41.3165 7.66471 40.6414 7.83998 40.1351C7.92761 39.8819 7.48945 39.713 7.40181 39.9662C7.13891 40.6413 6.96364 41.232 7.13891 41.9071C7.31418 42.4977 7.75235 43.3417 8.36578 43.5106C8.62868 43.5949 8.89158 43.3417 8.80395 43.0885C8.71632 42.5823 8.27815 42.2446 8.01525 41.8228Z" fill="black"/>
<path d="M14.0619 44.9451C13.7114 44.7764 13.2732 44.8608 12.835 44.6919C12.3092 44.5233 11.8711 44.1856 11.4329 43.8482C11.17 43.595 10.8195 43.9324 11.0824 44.1856C11.6958 44.8607 13.0103 46.0423 14.0619 45.7048C14.4123 45.5359 14.4123 45.0296 14.0619 44.9451Z" fill="black"/>
<path d="M22.2993 43.1729C21.16 43.848 20.0208 44.5233 18.7939 44.9451C18.4434 45.114 18.531 45.6202 18.9692 45.5359C20.3713 45.1982 21.9487 44.9451 22.8251 43.6793C23.0881 43.4261 22.65 43.0043 22.2993 43.1729Z" fill="black"/>
<path d="M25.6297 37.7721C25.5421 37.4346 25.1039 37.4346 24.9286 37.6034C24.4905 37.9408 24.3152 38.7003 23.9647 39.2067C23.6141 39.713 23.176 40.2193 22.7378 40.7256C22.4749 40.9788 22.9131 41.4007 23.176 41.1477C23.7894 40.6414 24.3152 40.1351 24.841 39.6287C25.2792 39.1224 25.8048 38.4473 25.6297 37.7721Z" fill="black"/>
<path d="M26.4181 30.768C26.2429 30.5148 25.7171 30.5991 25.8047 30.9366C25.8923 32.287 26.4181 33.5528 26.4181 34.8185C26.4181 35.0717 26.7687 35.0717 26.7687 34.8185C26.8563 33.4684 27.2067 31.9493 26.4181 30.768Z" fill="black"/>
<path d="M25.0162 27.7299C24.7533 27.2236 24.4904 26.7172 24.0523 26.2953C23.6141 25.7891 23.1759 25.114 22.5625 24.9452C22.2996 24.8608 21.9491 25.114 22.1243 25.3672C22.2996 25.8735 22.8254 26.2111 23.1759 26.5485C23.6141 26.9705 24.1399 27.4767 24.4904 27.9831C24.7533 28.3208 25.1915 28.0676 25.0162 27.7299Z" fill="black"/>
<path d="M19.1449 22.8354C18.6191 22.3291 18.0056 22.0759 17.3046 21.8227C16.5159 21.654 15.4643 21.4852 14.7632 21.7384C14.325 21.9071 14.325 22.4135 14.7632 22.5822C16.0777 23.0886 17.5675 22.4135 18.7943 23.3417C19.0571 23.5105 19.3202 23.0886 19.1449 22.8354Z" fill="black"/>
<path d="M13.7114 24.6075C12.4845 25.6202 10.3813 27.8987 11.7835 29.5022C12.0464 29.7554 12.4845 29.5864 12.5722 29.3333C12.7474 28.6582 12.5722 27.9829 12.7474 27.3924C13.0103 26.5483 13.6238 25.789 14.1496 25.1139C14.4125 24.6921 13.9745 24.3545 13.7114 24.6075Z" fill="black"/>
<path d="M15.9898 33.2997C15.464 32.8776 14.9382 32.5402 14.4124 32.1182C13.8866 31.6119 13.5361 31.0213 13.1855 30.4305C13.0979 30.1773 12.6597 30.3462 12.7474 30.5994C13.0979 31.9494 13.9742 33.9749 15.7269 33.8904C15.9898 33.8902 16.2527 33.4684 15.9898 33.2997Z" fill="black"/>
<path d="M21.6862 35.4093C20.6346 35.1562 19.4954 35.3248 18.619 34.6496C18.4438 34.4809 18.1809 34.7341 18.3561 34.903C19.2325 35.831 20.547 36.1688 21.7739 35.9157C21.9491 35.9157 21.9491 35.4937 21.6862 35.4093Z" fill="black"/>
<path d="M29.4857 36.6752C28.3464 36.0001 26.506 36.1689 25.1916 36.3375C24.8411 36.3375 24.8411 36.8438 25.1916 36.9283C25.8927 37.0126 26.6814 37.0126 27.3825 37.1815C27.9959 37.2658 28.6093 37.5189 29.2228 37.5189C29.7486 37.4347 29.8361 36.8438 29.4857 36.6752Z" fill="black"/>
<path d="M36.4086 33.5528C35.7076 33.806 35.2694 34.2279 34.656 34.6497C34.0425 35.1563 33.4292 35.4937 32.728 35.8311C32.3775 36.0001 32.6404 36.5906 32.9909 36.5063C33.692 36.3373 34.2178 35.9999 34.8312 35.6625C35.5323 35.2404 36.2335 34.8185 36.8468 34.2279C37.1096 33.9747 36.8467 33.3839 36.4086 33.5528Z" fill="black"/>
<path d="M40.0894 27.3081C40.0018 26.9704 39.476 26.9704 39.3884 27.3081C39.1255 28.2361 38.8626 29.0803 38.2491 29.8396C38.0739 30.0928 38.3368 30.3459 38.5997 30.177C39.476 29.4177 40.2646 28.5739 40.0894 27.3081Z" fill="black"/>
<path d="M40.0013 20.2195C39.7384 19.8819 39.2126 20.1351 39.3003 20.4727C39.6507 21.5697 39.7384 22.7511 39.8261 23.8482C39.8261 24.1857 40.4395 24.1857 40.4395 23.8482C40.6149 22.6667 40.79 21.3165 40.0013 20.2195Z" fill="black"/>
<path d="M37.2848 13.2153C37.0219 12.8777 36.5837 13.2997 36.759 13.6372C37.2848 14.8187 38.0735 15.9157 38.6869 17.0971C38.7746 17.3503 39.2127 17.1815 39.1251 16.9284C38.7746 15.5782 38.2486 14.2279 37.2848 13.2153Z" fill="black"/>
<path d="M33.1661 11.1056C32.3774 10.3461 30.8877 9.24904 29.6609 9.67098C29.3103 9.75537 29.3103 10.2617 29.6609 10.3461C30.1867 10.5149 30.7125 10.4305 31.2383 10.5992C31.7641 10.768 32.2899 11.1056 32.728 11.5275C32.9909 11.6963 33.3415 11.3586 33.1661 11.1056Z" fill="black"/>
<path d="M27.0316 10.6835C26.2429 10.6835 25.5419 10.8523 25.0161 11.443C24.5779 11.9493 23.8768 13.0464 24.315 13.7215C24.4903 14.059 24.9284 13.9746 25.1913 13.7215C25.3666 13.4683 25.3666 13.2995 25.3666 13.0464C25.3666 12.7932 25.4542 12.4557 25.6295 12.2025C25.8924 11.6962 26.4182 11.1054 27.0316 11.0211C27.2944 11.0212 27.2944 10.6835 27.0316 10.6835Z" fill="black"/>
<path d="M28.7844 19.3756C28.3463 18.7849 27.6452 18.363 27.2069 17.8566C26.6812 17.2659 26.3307 16.5908 25.9801 15.9157C25.8049 15.5782 25.2791 15.8313 25.3667 16.1689C25.7172 17.5191 26.7688 19.5444 28.2586 19.9663C28.6092 20.0507 28.9596 19.6288 28.7844 19.3756Z" fill="black"/>
<path d="M35.883 23.1731C35.1819 22.8355 34.4809 22.7511 33.6922 22.498C32.6404 22.2448 31.7641 21.7385 30.9754 21.0634C30.625 20.7258 30.099 21.2322 30.4496 21.5697C31.6764 22.8355 33.8673 23.9326 35.7076 23.9326C36.0581 23.9324 36.2335 23.3419 35.883 23.1731Z" fill="black"/>
<path d="M43.0685 17.5191C42.6304 17.941 42.5427 18.5317 42.3675 19.0381C42.1046 19.7132 41.754 20.4727 41.3157 21.0634C40.9653 21.4009 41.4911 21.9073 41.8417 21.5697C42.3675 21.0634 42.8055 20.4727 43.1562 19.8819C43.5068 19.2912 43.9449 18.5317 43.8572 17.8566C43.7697 17.5191 43.3314 17.2659 43.0685 17.5191Z" fill="black"/>
<path d="M45.3471 11.4431C44.2078 12.3714 43.8573 14.3123 43.9449 15.6625C43.9449 16.0845 44.5584 16.0845 44.646 15.6625C44.7335 15.0718 44.9089 14.3967 45.0842 13.806C45.3471 13.1309 45.8729 12.5402 46.0482 11.8651C46.0482 11.4431 45.6098 11.1898 45.3471 11.4431Z" fill="black"/>
<path d="M48.8525 6.97057C48.3267 6.88618 47.8885 7.30812 47.5379 7.56129C47.0997 7.89884 46.8368 8.40517 46.6615 8.82711C46.4863 9.24905 47.0998 9.5866 47.275 9.16466C47.5379 8.82711 47.7133 8.48956 48.0637 8.152C48.4142 7.89884 48.94 7.81445 49.1154 7.39251C49.2029 7.30812 49.1154 7.05496 48.8525 6.97057Z" fill="black"/>
<path d="M53.7598 5.02965C53.5845 4.18576 53.3216 3.2575 52.9711 2.41362C52.8834 2.16045 52.6205 1.90729 52.3576 1.90729C50.605 1.99168 49.0276 2.498 47.5378 3.42627C47.012 3.76382 47.4503 4.52332 48.0636 4.27015C49.2905 3.59505 50.5175 3.2575 51.8318 3.2575C52.0071 3.84821 52.1824 4.43893 52.3576 5.02965C52.5331 5.70475 52.4453 6.37985 52.8834 6.88618C53.1463 7.22373 53.5845 7.05496 53.7598 6.80179C54.1981 6.29547 53.9351 5.53584 53.7598 5.02965Z" fill="black"/>
</svg>
