<svg width="21" height="20" viewBox="0 0 21 20" fill="none" xmlns="http://www.w3.org/2000/svg">
<g clip-path="url(#clip0_158_3157)">
<path d="M19.9906 15.3585C18.9233 16.0059 13.3942 18.6512 12.217 19.3652C11.04 20.0794 10.386 20.0725 9.45616 19.5552C8.52629 19.038 2.64235 16.2723 1.58248 15.6829C1.05269 15.3882 0.77417 15.1396 0.77417 14.9046V12.5523C0.77417 12.5523 8.43425 10.6118 9.67093 10.0956C10.9075 9.5793 11.3366 9.56066 12.389 10.0092C13.4414 10.4579 19.7341 11.779 20.7742 12.2223C20.7742 12.2223 20.7737 14.3233 20.7737 14.5414C20.7739 14.7739 20.5338 15.029 19.9906 15.3585Z" fill="#912626"/>
<path d="M19.9902 13.02C18.9229 13.6671 13.394 16.3125 12.2169 17.0265C11.0399 17.7408 10.386 17.7338 9.45613 17.2165C8.52621 16.6996 2.64254 13.9335 1.5827 13.3444C0.522854 12.7548 0.500589 12.3491 1.54176 11.8747C2.58285 11.4002 8.43425 8.72882 9.67105 8.21255C10.9076 7.69646 11.3366 7.67764 12.3889 8.12637C13.4414 8.57491 18.9373 11.1205 19.9773 11.5636C21.0175 12.0074 21.0574 12.3726 19.9902 13.02Z" fill="#C6302B"/>
<path d="M19.9906 11.5522C18.9233 12.1996 13.3942 14.8449 12.217 15.5592C11.04 16.2732 10.386 16.2663 9.45616 15.749C8.52621 15.232 2.64235 12.4661 1.58248 11.8766C1.05269 11.5819 0.77417 11.3336 0.77417 11.0986V8.74602C0.77417 8.74602 8.43425 6.8056 9.67093 6.28931C10.9075 5.77311 11.3366 5.75439 12.389 6.20294C13.4414 6.6516 19.7341 7.97246 20.7742 8.41583C20.7742 8.41583 20.7737 10.5168 20.7737 10.7352C20.7739 10.9676 20.5338 11.2227 19.9906 11.5522Z" fill="#912626"/>
<path d="M19.9902 9.21374C18.9229 9.86101 13.394 12.5063 12.2169 13.2206C11.0399 13.9346 10.386 13.9276 9.45613 13.4103C8.52621 12.8934 2.64254 10.1274 1.5827 9.5381C0.522854 8.94874 0.500589 8.54292 1.54176 8.06838C2.58285 7.59411 8.43425 4.92256 9.67105 4.40638C10.9076 3.8902 11.3366 3.87147 12.3889 4.32011C13.4414 4.76865 18.9373 7.31401 19.9773 7.75738C21.0175 8.20092 21.0574 8.56647 19.9902 9.21374Z" fill="#C6302B"/>
<path d="M19.9906 7.60479C18.9233 8.25217 13.3942 10.8976 12.217 11.6119C11.04 12.3259 10.386 12.3189 9.45616 11.8016C8.52621 11.2846 2.64235 8.51863 1.58248 7.92934C1.05269 7.63461 0.77417 7.38615 0.77417 7.15141V4.7987C0.77417 4.7987 8.43425 2.85837 9.67093 2.34217C10.9075 1.82588 11.3366 1.80724 12.389 2.2558C13.4414 2.70445 19.7341 4.02531 20.7742 4.46869C20.7742 4.46869 20.7737 6.56966 20.7737 6.78794C20.7739 7.02022 20.5338 7.27532 19.9906 7.60479Z" fill="#912626"/>
<path d="M19.9902 5.2663C18.9229 5.91358 13.394 8.55903 12.2169 9.27312C11.0399 9.98712 10.386 9.98012 9.45613 9.46303C8.52628 8.94594 2.64254 6.18012 1.5827 5.59076C0.522854 5.0014 0.500589 4.59549 1.54176 4.12103C2.58285 3.64667 8.43425 0.9754 9.67105 0.459037C10.9076 -0.057235 11.3366 -0.0757804 12.3889 0.372855C13.4414 0.821491 18.9373 3.36685 19.9773 3.81022C21.0175 4.25349 21.0574 4.61903 19.9902 5.2663Z" fill="#C6302B"/>
<path d="M13.2183 2.97793L11.4988 3.18567L11.1139 4.26343L10.4921 3.06074L8.50659 2.85309L9.98814 2.2314L9.54365 1.27704L10.9307 1.90829L12.2384 1.41009L11.885 2.39693L13.2183 2.97793Z" fill="white"/>
<path d="M11.0111 8.20682L7.802 6.65801L12.4005 5.8367L11.0111 8.20682Z" fill="white"/>
<path d="M6.56183 3.57697C7.91928 3.57697 9.01966 4.07336 9.01966 4.68558C9.01966 5.29788 7.91928 5.79419 6.56183 5.79419C5.20447 5.79419 4.104 5.29788 4.104 4.68558C4.104 4.07336 5.20447 3.57697 6.56183 3.57697Z" fill="white"/>
<path d="M15.2502 3.27252L17.9718 4.52402L15.2526 5.77425L15.2502 3.27252Z" fill="#621B1C"/>
<path d="M12.2395 4.65842L15.2504 3.27252L15.2528 5.77425L14.9576 5.90865L12.2395 4.65842Z" fill="#9A2928"/>
</g>
<defs>
<clipPath id="clip0_158_3157">
<rect width="20" height="20" fill="white" transform="translate(0.77417)"/>
</clipPath>
</defs>
</svg>
