<svg width="21" height="18" viewBox="0 0 21 18" fill="none" xmlns="http://www.w3.org/2000/svg">
<g clip-path="url(#clip0_158_3180)">
<mask id="path-1-inside-1_158_3180" fill="white">
<path d="M14.445 4.25701C14.3492 4.25701 14.2842 4.26751 14.2167 4.28176V4.29151H14.2283C14.2733 4.36951 14.35 4.42651 14.4067 4.49626C14.4517 4.57651 14.49 4.65676 14.535 4.73626L14.5467 4.72501C14.625 4.67551 14.6633 4.59601 14.6633 4.47526C14.63 4.44001 14.625 4.40476 14.5967 4.37026C14.5633 4.32001 14.4917 4.29526 14.4467 4.25551L14.445 4.25701ZM5.5825 14.1525H4.81C4.785 12.981 4.7075 11.88 4.585 10.845H4.57834L3.40334 14.1525H2.81584L1.64917 10.845H1.64084C1.555 11.8373 1.50084 12.9398 1.47834 14.1525H0.77417C0.820003 12.678 0.93417 11.295 1.11584 10.005H2.07417L3.18667 13.053H3.19334L4.31584 10.005H5.22834C5.43 11.5163 5.54834 12.9 5.585 14.1525H5.5825ZM8.93 11.0925C8.615 12.6263 8.2 13.7423 7.68667 14.4375C7.285 14.9745 6.845 15.2423 6.3675 15.2423C6.24 15.2423 6.08417 15.2078 5.89584 15.1388V14.7683C5.9875 14.781 6.09584 14.7878 6.2175 14.7878C6.44084 14.7878 6.62 14.7315 6.75667 14.6213C6.92084 14.4863 7.0025 14.3348 7.0025 14.1675C7.0025 14.0513 6.93834 13.815 6.81084 13.4595L5.96584 11.0925H6.72417L7.33 12.8625C7.46667 13.2645 7.52417 13.545 7.50084 13.7048C7.83417 12.9068 8.06584 12.0345 8.19667 11.0925H8.93ZM19.2008 14.1525H17.0092V10.005H17.7467V13.6425H19.2008V14.1525ZM16.4342 14.2538L15.5875 13.8788C15.6625 13.8218 15.735 13.7603 15.8 13.6913C16.1608 13.3118 16.34 12.7478 16.34 12.0015C16.34 10.629 15.7417 9.94201 14.5442 9.94201C13.9575 9.94201 13.4992 10.116 13.1692 10.4648C12.8108 10.8458 12.6308 11.4068 12.6308 12.1485C12.6308 12.8775 12.7892 13.413 13.1092 13.7535C13.4008 14.061 13.84 14.2148 14.4283 14.2148C14.6483 14.2148 14.85 14.19 15.0325 14.1413L16.1367 14.7203L16.4367 14.2538H16.4342ZM13.6908 13.3223C13.5033 13.0523 13.41 12.6173 13.41 12.0203C13.41 10.9755 13.7633 10.4528 14.4683 10.4528C14.8375 10.4528 15.11 10.578 15.2825 10.8278C15.4692 11.0993 15.5625 11.5298 15.5625 12.12C15.5625 13.173 15.2092 13.701 14.5042 13.701C14.1333 13.701 13.8625 13.5758 13.6892 13.326L13.6908 13.3223ZM12.3092 13.0035C12.3092 13.356 12.1658 13.6455 11.8792 13.8705C11.5925 14.0955 11.21 14.208 10.7258 14.208C10.2733 14.208 9.83917 14.079 9.415 13.8218L9.6125 13.4648C9.9775 13.6298 10.3067 13.7108 10.6042 13.7108C10.8808 13.7108 11.0983 13.656 11.2567 13.5458C11.4133 13.4355 11.5067 13.2803 11.5067 13.0845C11.5067 12.837 11.315 12.627 10.9667 12.4508C10.6433 12.291 9.9975 11.958 9.9975 11.958C9.64584 11.7278 9.47084 11.481 9.47084 11.0753C9.47084 10.7378 9.60167 10.4678 9.8625 10.2615C10.125 10.053 10.4625 9.95026 10.8792 9.95026C11.3058 9.95026 11.6958 10.0523 12.0458 10.2578L11.8683 10.6148C11.5683 10.5008 11.2725 10.4423 10.9817 10.4423C10.7458 10.4423 10.5633 10.4933 10.4367 10.5968C10.3092 10.6988 10.23 10.8293 10.23 10.9898C10.23 11.2358 10.425 11.4473 10.785 11.6273C11.1125 11.7885 11.7742 12.1298 11.7742 12.1298C12.135 12.3585 12.3142 12.6023 12.3142 13.0058L12.3092 13.0035ZM20.1275 8.61451C19.6817 8.60401 19.3358 8.64451 19.0467 8.75551C18.9633 8.78551 18.83 8.78551 18.8183 8.88076C18.8642 8.92051 18.8708 8.98576 18.91 9.04126C18.9767 9.14176 19.0917 9.27601 19.1983 9.34651C19.315 9.42901 19.4317 9.50851 19.5542 9.57901C19.7708 9.69901 20.0167 9.77026 20.2292 9.89101C20.35 9.96151 20.4733 10.0508 20.5958 10.1258C20.6567 10.1633 20.6958 10.2308 20.7742 10.2548V10.2398C20.7358 10.1948 20.7242 10.1295 20.6867 10.0793C20.6308 10.029 20.575 9.98401 20.52 9.93451C20.3583 9.73951 20.1575 9.56926 19.9408 9.42826C19.7625 9.31876 19.3725 9.16576 19.2992 8.98201L19.2883 8.97151C19.41 8.96176 19.555 8.92201 19.6717 8.89201C19.8608 8.84701 20.0342 8.85676 20.23 8.81251C20.3183 8.79226 20.4075 8.76751 20.4967 8.74201V8.69701C20.3967 8.60701 20.3217 8.48476 20.2183 8.40076C19.935 8.17951 19.6208 7.96426 19.2983 7.78351C19.1233 7.68301 18.9017 7.61851 18.7175 7.53301C18.6508 7.50301 18.5392 7.48801 18.5008 7.43776C18.4008 7.32826 18.3425 7.18276 18.2717 7.05226C18.1117 6.77626 17.955 6.47101 17.8158 6.18001C17.7158 5.98351 17.655 5.78776 17.5325 5.60776C16.9575 4.75501 16.335 4.23826 15.3775 3.73276C15.1717 3.62776 14.925 3.58276 14.6642 3.52726C14.525 3.52126 14.3858 3.51226 14.2475 3.50701C14.1558 3.47176 14.0675 3.37651 13.9892 3.33076C13.6725 3.15076 12.8525 2.76076 12.6192 3.27676C12.4692 3.60226 12.8417 3.92326 12.9708 4.08826C13.0667 4.20301 13.1875 4.33426 13.2542 4.46326C13.2933 4.55026 13.3042 4.63951 13.3433 4.73026C13.4317 4.95076 13.5158 5.19676 13.6325 5.40301C13.6933 5.50801 13.76 5.61826 13.8383 5.71276C13.8833 5.76751 13.96 5.79301 13.9775 5.88301C13.8992 5.98501 13.8942 6.13351 13.8492 6.25801C13.6492 6.82576 13.7275 7.52776 14.0108 7.94551C14.1 8.07001 14.3125 8.34601 14.5967 8.24026C14.8467 8.15026 14.7917 7.86526 14.8633 7.61401C14.88 7.55401 14.8692 7.51426 14.9033 7.47376V7.48501C14.9817 7.62601 15.06 7.76026 15.1317 7.90126C15.3033 8.14726 15.6033 8.40226 15.8542 8.57251C15.9875 8.66251 16.0933 8.81851 16.26 8.87401V8.85901H16.2475C16.2117 8.81551 16.1642 8.79451 16.1192 8.75926C16.0192 8.66926 15.9067 8.55901 15.8275 8.45926C15.5942 8.17651 15.3883 7.86676 15.205 7.54576C15.1133 7.38826 15.0367 7.21876 14.9633 7.06351C14.93 7.00351 14.93 6.91351 14.8742 6.88351C14.7908 6.99301 14.6683 7.08826 14.6075 7.22326C14.5017 7.43926 14.4908 7.70476 14.4508 7.98076C14.4283 7.98601 14.4392 7.98076 14.4283 7.99126C14.25 7.95226 14.1892 7.78576 14.1225 7.64626C13.9558 7.29001 13.9283 6.71776 14.0725 6.30751C14.1117 6.20251 14.2783 5.87101 14.2117 5.77051C14.1767 5.67526 14.0667 5.62051 14.0058 5.54326C13.9333 5.45026 13.8558 5.32951 13.8058 5.22301C13.6725 4.94251 13.6058 4.63201 13.4608 4.35151C13.3942 4.22176 13.2775 4.08601 13.1825 3.96676C13.0767 3.83176 12.96 3.73651 12.8758 3.57676C12.8483 3.52201 12.8092 3.43126 12.8533 3.37126C12.865 3.33076 12.8883 3.31501 12.9317 3.30376C13.005 3.24976 13.2108 3.32026 13.2833 3.35026C13.4892 3.42526 13.6625 3.49576 13.835 3.60076C13.9133 3.65026 13.9975 3.74551 14.0975 3.77026H14.2142C14.3925 3.80551 14.5933 3.78076 14.76 3.82501C15.0558 3.91051 15.3225 4.03501 15.5617 4.17001C16.2917 4.58701 16.8917 5.17876 17.2992 5.88451C17.3658 6.00001 17.395 6.10576 17.4558 6.22576C17.5725 6.47326 17.7167 6.72301 17.835 6.96226C17.9517 7.19851 18.0642 7.43926 18.2317 7.63501C18.315 7.74001 18.65 7.79476 18.8 7.84951C18.9108 7.89451 19.0833 7.93576 19.1833 7.99051C19.375 8.09551 19.5617 8.21551 19.7417 8.33101C19.8333 8.38801 20.1108 8.51326 20.1275 8.61451Z"/>
</mask>
<path d="M14.445 4.25701C14.3492 4.25701 14.2842 4.26751 14.2167 4.28176V4.29151H14.2283C14.2733 4.36951 14.35 4.42651 14.4067 4.49626C14.4517 4.57651 14.49 4.65676 14.535 4.73626L14.5467 4.72501C14.625 4.67551 14.6633 4.59601 14.6633 4.47526C14.63 4.44001 14.625 4.40476 14.5967 4.37026C14.5633 4.32001 14.4917 4.29526 14.4467 4.25551L14.445 4.25701ZM5.5825 14.1525H4.81C4.785 12.981 4.7075 11.88 4.585 10.845H4.57834L3.40334 14.1525H2.81584L1.64917 10.845H1.64084C1.555 11.8373 1.50084 12.9398 1.47834 14.1525H0.77417C0.820003 12.678 0.93417 11.295 1.11584 10.005H2.07417L3.18667 13.053H3.19334L4.31584 10.005H5.22834C5.43 11.5163 5.54834 12.9 5.585 14.1525H5.5825ZM8.93 11.0925C8.615 12.6263 8.2 13.7423 7.68667 14.4375C7.285 14.9745 6.845 15.2423 6.3675 15.2423C6.24 15.2423 6.08417 15.2078 5.89584 15.1388V14.7683C5.9875 14.781 6.09584 14.7878 6.2175 14.7878C6.44084 14.7878 6.62 14.7315 6.75667 14.6213C6.92084 14.4863 7.0025 14.3348 7.0025 14.1675C7.0025 14.0513 6.93834 13.815 6.81084 13.4595L5.96584 11.0925H6.72417L7.33 12.8625C7.46667 13.2645 7.52417 13.545 7.50084 13.7048C7.83417 12.9068 8.06584 12.0345 8.19667 11.0925H8.93ZM19.2008 14.1525H17.0092V10.005H17.7467V13.6425H19.2008V14.1525ZM16.4342 14.2538L15.5875 13.8788C15.6625 13.8218 15.735 13.7603 15.8 13.6913C16.1608 13.3118 16.34 12.7478 16.34 12.0015C16.34 10.629 15.7417 9.94201 14.5442 9.94201C13.9575 9.94201 13.4992 10.116 13.1692 10.4648C12.8108 10.8458 12.6308 11.4068 12.6308 12.1485C12.6308 12.8775 12.7892 13.413 13.1092 13.7535C13.4008 14.061 13.84 14.2148 14.4283 14.2148C14.6483 14.2148 14.85 14.19 15.0325 14.1413L16.1367 14.7203L16.4367 14.2538H16.4342ZM13.6908 13.3223C13.5033 13.0523 13.41 12.6173 13.41 12.0203C13.41 10.9755 13.7633 10.4528 14.4683 10.4528C14.8375 10.4528 15.11 10.578 15.2825 10.8278C15.4692 11.0993 15.5625 11.5298 15.5625 12.12C15.5625 13.173 15.2092 13.701 14.5042 13.701C14.1333 13.701 13.8625 13.5758 13.6892 13.326L13.6908 13.3223ZM12.3092 13.0035C12.3092 13.356 12.1658 13.6455 11.8792 13.8705C11.5925 14.0955 11.21 14.208 10.7258 14.208C10.2733 14.208 9.83917 14.079 9.415 13.8218L9.6125 13.4648C9.9775 13.6298 10.3067 13.7108 10.6042 13.7108C10.8808 13.7108 11.0983 13.656 11.2567 13.5458C11.4133 13.4355 11.5067 13.2803 11.5067 13.0845C11.5067 12.837 11.315 12.627 10.9667 12.4508C10.6433 12.291 9.9975 11.958 9.9975 11.958C9.64584 11.7278 9.47084 11.481 9.47084 11.0753C9.47084 10.7378 9.60167 10.4678 9.8625 10.2615C10.125 10.053 10.4625 9.95026 10.8792 9.95026C11.3058 9.95026 11.6958 10.0523 12.0458 10.2578L11.8683 10.6148C11.5683 10.5008 11.2725 10.4423 10.9817 10.4423C10.7458 10.4423 10.5633 10.4933 10.4367 10.5968C10.3092 10.6988 10.23 10.8293 10.23 10.9898C10.23 11.2358 10.425 11.4473 10.785 11.6273C11.1125 11.7885 11.7742 12.1298 11.7742 12.1298C12.135 12.3585 12.3142 12.6023 12.3142 13.0058L12.3092 13.0035ZM20.1275 8.61451C19.6817 8.60401 19.3358 8.64451 19.0467 8.75551C18.9633 8.78551 18.83 8.78551 18.8183 8.88076C18.8642 8.92051 18.8708 8.98576 18.91 9.04126C18.9767 9.14176 19.0917 9.27601 19.1983 9.34651C19.315 9.42901 19.4317 9.50851 19.5542 9.57901C19.7708 9.69901 20.0167 9.77026 20.2292 9.89101C20.35 9.96151 20.4733 10.0508 20.5958 10.1258C20.6567 10.1633 20.6958 10.2308 20.7742 10.2548V10.2398C20.7358 10.1948 20.7242 10.1295 20.6867 10.0793C20.6308 10.029 20.575 9.98401 20.52 9.93451C20.3583 9.73951 20.1575 9.56926 19.9408 9.42826C19.7625 9.31876 19.3725 9.16576 19.2992 8.98201L19.2883 8.97151C19.41 8.96176 19.555 8.92201 19.6717 8.89201C19.8608 8.84701 20.0342 8.85676 20.23 8.81251C20.3183 8.79226 20.4075 8.76751 20.4967 8.74201V8.69701C20.3967 8.60701 20.3217 8.48476 20.2183 8.40076C19.935 8.17951 19.6208 7.96426 19.2983 7.78351C19.1233 7.68301 18.9017 7.61851 18.7175 7.53301C18.6508 7.50301 18.5392 7.48801 18.5008 7.43776C18.4008 7.32826 18.3425 7.18276 18.2717 7.05226C18.1117 6.77626 17.955 6.47101 17.8158 6.18001C17.7158 5.98351 17.655 5.78776 17.5325 5.60776C16.9575 4.75501 16.335 4.23826 15.3775 3.73276C15.1717 3.62776 14.925 3.58276 14.6642 3.52726C14.525 3.52126 14.3858 3.51226 14.2475 3.50701C14.1558 3.47176 14.0675 3.37651 13.9892 3.33076C13.6725 3.15076 12.8525 2.76076 12.6192 3.27676C12.4692 3.60226 12.8417 3.92326 12.9708 4.08826C13.0667 4.20301 13.1875 4.33426 13.2542 4.46326C13.2933 4.55026 13.3042 4.63951 13.3433 4.73026C13.4317 4.95076 13.5158 5.19676 13.6325 5.40301C13.6933 5.50801 13.76 5.61826 13.8383 5.71276C13.8833 5.76751 13.96 5.79301 13.9775 5.88301C13.8992 5.98501 13.8942 6.13351 13.8492 6.25801C13.6492 6.82576 13.7275 7.52776 14.0108 7.94551C14.1 8.07001 14.3125 8.34601 14.5967 8.24026C14.8467 8.15026 14.7917 7.86526 14.8633 7.61401C14.88 7.55401 14.8692 7.51426 14.9033 7.47376V7.48501C14.9817 7.62601 15.06 7.76026 15.1317 7.90126C15.3033 8.14726 15.6033 8.40226 15.8542 8.57251C15.9875 8.66251 16.0933 8.81851 16.26 8.87401V8.85901H16.2475C16.2117 8.81551 16.1642 8.79451 16.1192 8.75926C16.0192 8.66926 15.9067 8.55901 15.8275 8.45926C15.5942 8.17651 15.3883 7.86676 15.205 7.54576C15.1133 7.38826 15.0367 7.21876 14.9633 7.06351C14.93 7.00351 14.93 6.91351 14.8742 6.88351C14.7908 6.99301 14.6683 7.08826 14.6075 7.22326C14.5017 7.43926 14.4908 7.70476 14.4508 7.98076C14.4283 7.98601 14.4392 7.98076 14.4283 7.99126C14.25 7.95226 14.1892 7.78576 14.1225 7.64626C13.9558 7.29001 13.9283 6.71776 14.0725 6.30751C14.1117 6.20251 14.2783 5.87101 14.2117 5.77051C14.1767 5.67526 14.0667 5.62051 14.0058 5.54326C13.9333 5.45026 13.8558 5.32951 13.8058 5.22301C13.6725 4.94251 13.6058 4.63201 13.4608 4.35151C13.3942 4.22176 13.2775 4.08601 13.1825 3.96676C13.0767 3.83176 12.96 3.73651 12.8758 3.57676C12.8483 3.52201 12.8092 3.43126 12.8533 3.37126C12.865 3.33076 12.8883 3.31501 12.9317 3.30376C13.005 3.24976 13.2108 3.32026 13.2833 3.35026C13.4892 3.42526 13.6625 3.49576 13.835 3.60076C13.9133 3.65026 13.9975 3.74551 14.0975 3.77026H14.2142C14.3925 3.80551 14.5933 3.78076 14.76 3.82501C15.0558 3.91051 15.3225 4.03501 15.5617 4.17001C16.2917 4.58701 16.8917 5.17876 17.2992 5.88451C17.3658 6.00001 17.395 6.10576 17.4558 6.22576C17.5725 6.47326 17.7167 6.72301 17.835 6.96226C17.9517 7.19851 18.0642 7.43926 18.2317 7.63501C18.315 7.74001 18.65 7.79476 18.8 7.84951C18.9108 7.89451 19.0833 7.93576 19.1833 7.99051C19.375 8.09551 19.5617 8.21551 19.7417 8.33101C19.8333 8.38801 20.1108 8.51326 20.1275 8.61451Z" fill="white" stroke="black" stroke-width="2" mask="url(#path-1-inside-1_158_3180)"/>
</g>
<defs>
<clipPath id="clip0_158_3180">
<rect width="20" height="18" fill="white" transform="translate(0.77417)"/>
</clipPath>
</defs>
</svg>
