<svg width="25" height="24" viewBox="0 0 25 24" fill="none" xmlns="http://www.w3.org/2000/svg">
<path d="M5.12427 18.45L5.25177 18.2722L11.2668 6.86174L11.2795 6.74099L8.62827 1.76099C8.57973 1.66992 8.50379 1.59642 8.41118 1.55088C8.31858 1.50535 8.214 1.49009 8.11224 1.50725C8.01048 1.52442 7.9167 1.57315 7.84416 1.64654C7.77162 1.71994 7.72399 1.81429 7.70802 1.91624L5.12427 18.45Z" fill="#FFC24A"/>
<path d="M5.19922 18.315L5.29522 18.1275L11.248 6.83552L8.60347 1.83602C8.55986 1.74907 8.48925 1.6786 8.40222 1.63515C8.3152 1.5917 8.21643 1.57763 8.12073 1.59503C8.02503 1.61243 7.93755 1.66037 7.87138 1.73167C7.80521 1.80297 7.76393 1.89378 7.75372 1.99052L5.19922 18.315Z" fill="#FFA712"/>
<path d="M13.2123 10.5075L15.1863 8.4825L13.2115 4.71675C13.168 4.63571 13.1034 4.56797 13.0245 4.52074C12.9456 4.47352 12.8553 4.44858 12.7634 4.44858C12.6714 4.44858 12.5812 4.47352 12.5023 4.52074C12.4234 4.56797 12.3587 4.63571 12.3153 4.71675L11.26 6.72825V6.9L13.2123 10.5075Z" fill="#F4BD62"/>
<path d="M13.177 10.425L15.0963 8.46001L13.177 4.80001C13.1456 4.72079 13.092 4.65234 13.0225 4.60293C12.9531 4.55351 12.8709 4.52524 12.7857 4.52151C12.7006 4.51778 12.6162 4.53877 12.5427 4.58193C12.4692 4.62509 12.4098 4.68859 12.3715 4.76476L11.311 6.81151L11.2795 6.91576L13.177 10.425Z" fill="#FFA50E"/>
<path d="M5.12573 18.4508L5.18348 18.3923L5.39273 18.3075L13.0877 10.641L13.1852 10.3755L11.266 6.71701L5.12573 18.4508Z" fill="#F6820C"/>
<path d="M13.4583 22.317L20.4243 18.4327L18.4338 6.18449C18.4195 6.09815 18.3817 6.01741 18.3246 5.95113C18.2674 5.88485 18.1931 5.8356 18.1098 5.80879C18.0265 5.78198 17.9374 5.77864 17.8523 5.79914C17.7673 5.81964 17.6895 5.86318 17.6275 5.92499L5.12427 18.45L12.049 22.3162C12.2643 22.4364 12.5067 22.4994 12.7533 22.4994C12.9998 22.4994 13.2422 22.4364 13.4575 22.3162" fill="#FDE068"/>
<path d="M20.3605 18.4005L18.3865 6.2445C18.383 6.16191 18.3551 6.08221 18.3063 6.0155C18.2575 5.94878 18.19 5.89803 18.1123 5.86969C18.0347 5.84134 17.9504 5.83667 17.8701 5.85626C17.7898 5.87585 17.7171 5.91883 17.6612 5.97975L5.19922 18.4267L12.0475 22.2517C12.261 22.3709 12.5015 22.4334 12.7461 22.4334C12.9907 22.4334 13.2311 22.3709 13.4447 22.2517L20.3605 18.4005Z" fill="#FCCA3F"/>
<path d="M13.4583 22.2C13.243 22.3201 13.0005 22.3832 12.754 22.3832C12.5075 22.3832 12.2651 22.3201 12.0498 22.2L5.18127 18.3915L5.12427 18.45L12.049 22.3163C12.2643 22.4364 12.5067 22.4995 12.7533 22.4995C12.9998 22.4995 13.2422 22.4364 13.4575 22.3163L20.4243 18.4328L20.407 18.3278L13.4583 22.2Z" fill="#EEAB37"/>
</svg>
