<svg width="16" height="18" viewBox="0 0 16 18" fill="none" xmlns="http://www.w3.org/2000/svg">
<g clip-path="url(#clip0_158_3217)">
<path d="M8.00918 17.8594C7.76989 17.8594 7.52704 17.7961 7.31632 17.6766L5.11275 16.3934C4.78418 16.2106 4.94489 16.1473 5.05204 16.1121C5.49132 15.9609 5.58061 15.9293 6.04847 15.6656C6.09847 15.6375 6.16275 15.6481 6.21275 15.6797L7.90561 16.6676C7.96632 16.7027 8.05204 16.7027 8.10918 16.6676L14.7056 12.9199C14.7663 12.8848 14.8056 12.8145 14.8056 12.7442V5.24884C14.8056 5.17501 14.7663 5.10822 14.702 5.06954L8.10918 1.3254C8.04847 1.29025 7.96632 1.29025 7.90561 1.3254L1.31632 5.07306C1.25204 5.10822 1.21275 5.17853 1.21275 5.25236V12.7442C1.21275 12.8145 1.25204 12.8848 1.31632 12.9164L3.12347 13.943C4.10561 14.4246 4.70561 13.8586 4.70561 13.2856V5.88868C4.70561 5.78322 4.79132 5.70236 4.89847 5.70236H5.73418C5.83775 5.70236 5.92704 5.78322 5.92704 5.88868V13.2891C5.92704 14.5758 5.21275 15.3141 3.97347 15.3141C3.59132 15.3141 3.29132 15.3141 2.45561 14.9063L0.727037 13.9254C0.298465 13.6828 0.0341797 13.2293 0.0341797 12.7406V5.24884C0.0341797 4.76368 0.298465 4.30665 0.727037 4.06407L7.31632 0.316418C7.73418 0.0843872 8.28775 0.0843872 8.70204 0.316418L15.2985 4.06759C15.727 4.31017 15.9913 4.76368 15.9913 5.25236V12.7442C15.9913 13.2293 15.727 13.6828 15.2985 13.9289L8.70204 17.6766C8.49132 17.7961 8.25204 17.8594 8.00918 17.8594ZM13.3342 10.4731C13.3342 9.07032 12.3699 8.69767 10.3449 8.434C8.29489 8.16681 8.08775 8.0297 8.08775 7.55861C8.08775 7.16837 8.26275 6.64806 9.78061 6.64806C11.1342 6.64806 11.6342 6.93634 11.8413 7.83634C11.8592 7.92071 11.9378 7.984 12.027 7.984H12.8842C12.9378 7.984 12.9878 7.9629 13.0235 7.92423C13.0592 7.88556 13.077 7.83282 13.0735 7.78009C12.9413 6.2297 11.8949 5.509 9.78061 5.509C7.89847 5.509 6.77704 6.28946 6.77704 7.60079C6.77704 9.02111 7.89489 9.41486 9.69847 9.59064C11.8592 9.79806 12.027 10.111 12.027 10.5293C12.027 11.2535 11.4342 11.5629 10.0449 11.5629C8.29847 11.5629 7.91632 11.1305 7.78775 10.2762C7.77347 10.1848 7.69489 10.118 7.59847 10.118H6.74489C6.63775 10.118 6.55561 10.2024 6.55561 10.3043C6.55561 11.3977 7.15918 12.702 10.0485 12.702C12.1342 12.6985 13.3342 11.8863 13.3342 10.4731Z" fill="#46473D"/>
</g>
<defs>
<clipPath id="clip0_158_3217">
<rect width="16" height="18" fill="white" transform="translate(0.00927734)"/>
</clipPath>
</defs>
</svg>
