<svg width="21" height="20" viewBox="0 0 21 20" fill="none" xmlns="http://www.w3.org/2000/svg">
<g clip-path="url(#clip0_158_3134)">
<path d="M10.6894 0.00567627C5.62439 0.00567663 5.94068 2.21079 5.94068 2.21079L5.94633 4.49526H10.7798V5.18117H4.02651C4.02651 5.18117 0.7854 4.81216 0.7854 9.94286C0.7854 15.0736 3.61431 14.8916 3.61431 14.8916H5.30262V12.5108C5.30262 12.5108 5.21162 9.67076 8.08636 9.67076H12.8803C12.8803 9.67076 15.5737 9.71447 15.5737 7.0575V2.66428C15.5737 2.66428 15.9826 0.00567627 10.6894 0.00567627ZM8.02425 1.54189C8.50514 1.54189 8.89381 1.93208 8.89381 2.41486C8.89381 2.89764 8.50514 3.28784 8.02425 3.28784C7.54336 3.28784 7.15468 2.89764 7.15468 2.41486C7.15468 1.93208 7.54336 1.54189 8.02425 1.54189Z" fill="url(#paint0_linear_158_3134)"/>
<path d="M10.8332 19.9315C15.8982 19.9315 15.582 17.7264 15.582 17.7264L15.5763 15.4419H10.7429V14.756H17.4961C17.4961 14.756 20.7372 15.125 20.7372 9.99429C20.7372 4.86359 17.9083 5.04554 17.9083 5.04554H16.22V7.42638C16.22 7.42638 16.311 10.2664 13.4363 10.2664H8.64237C8.64237 10.2664 5.94897 10.2227 5.94897 12.8796V17.2729C5.94897 17.2729 5.54004 19.9315 10.8332 19.9315ZM13.4984 18.3953C13.0175 18.3953 12.6288 18.0051 12.6288 17.5223C12.6288 17.0395 13.0175 16.6493 13.4984 16.6493C13.9793 16.6493 14.3679 17.0395 14.3679 17.5223C14.368 18.0051 13.9793 18.3953 13.4984 18.3953Z" fill="url(#paint1_linear_158_3134)"/>
</g>
<defs>
<linearGradient id="paint0_linear_158_3134" x1="491.643" y1="457.035" x2="3032.57" y2="2953" gradientUnits="userSpaceOnUse">
<stop stop-color="#387EB8"/>
<stop offset="1" stop-color="#366994"/>
</linearGradient>
<linearGradient id="paint1_linear_158_3134" x1="730.429" y1="786.254" x2="3458.62" y2="3345.19" gradientUnits="userSpaceOnUse">
<stop stop-color="#FFE052"/>
<stop offset="1" stop-color="#FFC331"/>
</linearGradient>
<clipPath id="clip0_158_3134">
<rect width="20" height="20" fill="white" transform="translate(0.77417)"/>
</clipPath>
</defs>
</svg>
