<svg width="14" height="20" viewBox="0 0 14 20" fill="none" xmlns="http://www.w3.org/2000/svg">
<g clip-path="url(#clip0_158_3201)">
<path d="M0.510498 3.74219C0.510498 1.67578 2.07456 0 4.00321 0H9.99696C11.9256 0 13.4897 1.67578 13.4897 3.74219C13.4897 5.05078 12.8626 6.20312 11.911 6.87109C12.8626 7.53906 13.4897 8.69141 13.4897 10C13.4897 12.0664 11.9256 13.7422 9.99696 13.7422H9.92039C9.01623 13.7422 8.19227 13.375 7.57248 12.7695V16.2188C7.57248 18.3125 5.96831 20 4.02144 20C2.09644 20 0.510498 18.3281 0.510498 16.2578C0.510498 14.9492 1.13758 13.7969 2.0855 13.1289C1.13758 12.4609 0.510498 11.3086 0.510498 10C0.510498 8.69141 1.13758 7.53906 2.0855 6.87109C1.13758 6.20312 0.510498 5.05078 0.510498 3.74219ZM6.42768 7.48438H4.00321C2.70529 7.48438 1.65529 8.60938 1.65529 10C1.65529 11.3828 2.698 12.5078 3.98862 12.5156C3.99227 12.5156 3.99956 12.5156 4.00321 12.5156H6.42768V7.48438ZM7.57248 10C7.57248 11.3906 8.62248 12.5156 9.92039 12.5156H9.99696C11.2912 12.5156 12.3449 11.3906 12.3449 10C12.3449 8.60938 11.2912 7.48438 9.99696 7.48438H9.92039C8.62248 7.48438 7.57248 8.60938 7.57248 10ZM4.00321 13.7422C3.99956 13.7422 3.99227 13.7422 3.98862 13.7422C2.698 13.75 1.65529 14.875 1.65529 16.2578C1.65529 17.6445 2.71987 18.7734 4.02144 18.7734C5.34487 18.7734 6.42768 17.625 6.42768 16.2188V13.7422H4.00321ZM4.00321 1.22656C2.70529 1.22656 1.65529 2.35156 1.65529 3.74219C1.65529 5.13281 2.70529 6.25781 4.00321 6.25781H6.42768V1.22656H4.00321ZM7.57248 6.25781H9.99696C11.2912 6.25781 12.3449 5.13281 12.3449 3.74219C12.3449 2.35156 11.2912 1.22656 9.99696 1.22656H7.57248V6.25781Z" fill="#121212"/>
</g>
<defs>
<clipPath id="clip0_158_3201">
<rect width="14" height="20" fill="white"/>
</clipPath>
</defs>
</svg>
