<svg width="20" height="20" viewBox="0 0 20 20" fill="none" xmlns="http://www.w3.org/2000/svg">
<g clip-path="url(#clip0_158_3321)">
<path d="M10.7723 7.33254L7.94518 0H19.9561L17.1193 7.35386C16.9963 7.37977 16.8764 7.41244 16.76 7.45174L13.9576 2.42706L11.147 7.42201C11.0255 7.38521 10.9005 7.35494 10.7723 7.33254ZM1.53557 19.3356C5.31338 21.6679 9.50371 17.155 15.2116 16.5865C18.4893 16.4159 20.7173 14.6522 19.4478 11.9221C17.0876 13.1998 14.8818 11.5255 14.8972 9.84541H13.1037C13.0448 11.3454 11.7612 12.5255 9.77133 12.3501C8.21382 14.3979 6.40867 15.5485 4.36041 16.1333C2.97602 15.5718 1.67318 14.204 2.26389 12.3771C2.00211 12.3515 1.75096 12.2949 1.51477 12.2119C-0.389346 15.3368 -0.624607 17.8065 1.53557 19.3356ZM4.34806 9.84565C4.34806 8.65876 2.87611 7.91292 1.7049 8.50637C0.533699 9.09982 0.533699 10.5915 1.7049 11.1849C2.87611 11.7784 4.34806 11.0325 4.34806 9.84565ZM11.9662 9.83095C11.9662 8.64405 10.4942 7.89821 9.32301 8.49166C8.1518 9.08511 8.1518 10.5768 9.32301 11.1702C10.4942 11.7637 11.9662 11.0178 11.9662 9.83095ZM19.5557 9.83095C19.5557 8.64405 18.0837 7.89821 16.9125 8.49166C15.7413 9.08511 15.7413 10.5768 16.9125 11.1702C18.0837 11.7637 19.5557 11.0178 19.5557 9.83095Z" fill="black"/>
</g>
<defs>
<clipPath id="clip0_158_3321">
<rect width="20" height="20" fill="white"/>
</clipPath>
</defs>
</svg>
