<svg width="13" height="17" viewBox="0 0 13 17" fill="none" xmlns="http://www.w3.org/2000/svg">
<mask id="path-1-outside-1_158_3189" maskUnits="userSpaceOnUse" x="-1.22583" y="-1" width="15" height="20" fill="black">
<rect fill="white" x="-1.22583" y="-1" width="15" height="20"/>
<path d="M7.84253 13H6.64722L6.43628 12.2441C5.46362 12.9004 4.63159 13.2285 3.94019 13.2285C2.8269 13.2285 1.94214 12.7188 1.28589 11.6992C0.723389 10.8203 0.442139 9.79492 0.442139 8.62305C0.442139 7.27539 0.740967 6.16797 1.33862 5.30078C2.03003 4.29297 3.02026 3.78906 4.30933 3.78906C5.15308 3.78906 5.86206 4.13477 6.43628 4.82617V0.449219H7.84253V13ZM6.43628 6.16211C6.09644 5.70508 5.78589 5.40039 5.50464 5.24805C5.22339 5.0957 4.80151 5.01953 4.23901 5.01953C3.43042 5.01953 2.84448 5.41211 2.4812 6.19727C2.18823 6.7832 2.04175 7.52734 2.04175 8.42969C2.04175 9.33203 2.21167 10.0938 2.55151 10.7148C2.96167 11.5117 3.5769 11.9102 4.39722 11.9102C5.12378 11.9102 5.80347 11.6348 6.43628 11.084V6.16211ZM11.3054 2.13672C11.5867 2.13672 11.8152 2.04297 11.991 1.85547C12.1785 1.66797 12.2722 1.43359 12.2722 1.15234C12.2722 0.882812 12.1785 0.654297 11.991 0.466797C11.8152 0.279297 11.5867 0.185547 11.3054 0.185547C11.0359 0.185547 10.8074 0.279297 10.6199 0.466797C10.4324 0.642578 10.3386 0.871094 10.3386 1.15234C10.3386 1.43359 10.4265 1.66797 10.6023 1.85547C10.7898 2.04297 11.0242 2.13672 11.3054 2.13672ZM10.0046 14.9688C10.321 14.7461 10.4792 14.2188 10.4792 13.3867V4.08789H11.9031V14.1777C11.8914 15.3496 11.0242 16.2637 9.30151 16.9199L8.73901 15.5664C9.21948 15.4375 9.64136 15.2383 10.0046 14.9688Z"/>
</mask>
<path d="M7.84253 13H6.64722L6.43628 12.2441C5.46362 12.9004 4.63159 13.2285 3.94019 13.2285C2.8269 13.2285 1.94214 12.7188 1.28589 11.6992C0.723389 10.8203 0.442139 9.79492 0.442139 8.62305C0.442139 7.27539 0.740967 6.16797 1.33862 5.30078C2.03003 4.29297 3.02026 3.78906 4.30933 3.78906C5.15308 3.78906 5.86206 4.13477 6.43628 4.82617V0.449219H7.84253V13ZM6.43628 6.16211C6.09644 5.70508 5.78589 5.40039 5.50464 5.24805C5.22339 5.0957 4.80151 5.01953 4.23901 5.01953C3.43042 5.01953 2.84448 5.41211 2.4812 6.19727C2.18823 6.7832 2.04175 7.52734 2.04175 8.42969C2.04175 9.33203 2.21167 10.0938 2.55151 10.7148C2.96167 11.5117 3.5769 11.9102 4.39722 11.9102C5.12378 11.9102 5.80347 11.6348 6.43628 11.084V6.16211ZM11.3054 2.13672C11.5867 2.13672 11.8152 2.04297 11.991 1.85547C12.1785 1.66797 12.2722 1.43359 12.2722 1.15234C12.2722 0.882812 12.1785 0.654297 11.991 0.466797C11.8152 0.279297 11.5867 0.185547 11.3054 0.185547C11.0359 0.185547 10.8074 0.279297 10.6199 0.466797C10.4324 0.642578 10.3386 0.871094 10.3386 1.15234C10.3386 1.43359 10.4265 1.66797 10.6023 1.85547C10.7898 2.04297 11.0242 2.13672 11.3054 2.13672ZM10.0046 14.9688C10.321 14.7461 10.4792 14.2188 10.4792 13.3867V4.08789H11.9031V14.1777C11.8914 15.3496 11.0242 16.2637 9.30151 16.9199L8.73901 15.5664C9.21948 15.4375 9.64136 15.2383 10.0046 14.9688Z" fill="white"/>
<path d="M7.84253 13V14H8.84253V13H7.84253ZM6.64722 13L5.68402 13.2688L5.88808 14H6.64722V13ZM6.43628 12.2441L7.39948 11.9753L7.02668 10.6395L5.87698 11.4152L6.43628 12.2441ZM1.28589 11.6992L0.443614 12.2383L0.445024 12.2405L1.28589 11.6992ZM1.33862 5.30078L2.16202 5.86826L2.16322 5.8665L1.33862 5.30078ZM6.43628 4.82617L5.66699 5.46507L7.43628 7.59544V4.82617H6.43628ZM6.43628 0.449219V-0.550781H5.43628V0.449219H6.43628ZM7.84253 0.449219H8.84253V-0.550781H7.84253V0.449219ZM6.43628 6.16211H7.43628V5.83106L7.23874 5.56541L6.43628 6.16211ZM2.4812 6.19727L3.37563 6.64448L3.3824 6.63093L3.38876 6.61718L2.4812 6.19727ZM2.55151 10.7148L3.44065 10.2572L3.43485 10.2459L3.42878 10.2348L2.55151 10.7148ZM6.43628 11.084L7.0928 11.8383L7.43628 11.5393V11.084H6.43628ZM7.84253 12H6.64722V14H7.84253V12ZM7.61041 12.7312L7.39948 11.9753L5.47308 12.5129L5.68402 13.2688L7.61041 12.7312ZM5.87698 11.4152C4.96673 12.0293 4.3366 12.2285 3.94019 12.2285V14.2285C4.92658 14.2285 5.96051 13.7715 6.99558 13.0731L5.87698 11.4152ZM3.94019 12.2285C3.20154 12.2285 2.61848 11.9219 2.12675 11.158L0.445024 12.2405C1.2658 13.5156 2.45227 14.2285 3.94019 14.2285V12.2285ZM2.12816 11.1602C1.68098 10.4614 1.44214 9.62809 1.44214 8.62305H-0.557861C-0.557861 9.96175 -0.234204 11.1792 0.443617 12.2383L2.12816 11.1602ZM1.44214 8.62305C1.44214 7.42155 1.70775 6.52738 2.16202 5.86825L0.515231 4.73331C-0.225816 5.80855 -0.557861 7.12924 -0.557861 8.62305H1.44214ZM2.16322 5.8665C2.65635 5.14771 3.32849 4.78906 4.30933 4.78906V2.78906C2.71203 2.78906 1.40371 3.43823 0.514022 4.73507L2.16322 5.8665ZM4.30933 4.78906C4.83423 4.78906 5.26859 4.98537 5.66699 5.46507L7.20557 4.18727C6.45553 3.28416 5.47192 2.78906 4.30933 2.78906V4.78906ZM7.43628 4.82617V0.449219H5.43628V4.82617H7.43628ZM6.43628 1.44922H7.84253V-0.550781H6.43628V1.44922ZM6.84253 0.449219V13H8.84253V0.449219H6.84253ZM7.23874 5.56541C6.86956 5.06892 6.45409 4.62505 5.98092 4.36875L5.02836 6.12734C5.11769 6.17573 5.32331 6.34123 5.63382 6.75881L7.23874 5.56541ZM5.98092 4.36875C5.48088 4.0979 4.85908 4.01953 4.23901 4.01953V6.01953C4.74395 6.01953 4.9659 6.09351 5.02836 6.12734L5.98092 4.36875ZM4.23901 4.01953C3.6664 4.01953 3.11733 4.16104 2.6365 4.48319C2.15989 4.80252 1.8149 5.25591 1.57364 5.77735L3.38876 6.61718C3.51078 6.35346 3.6404 6.21799 3.74973 6.14473C3.85484 6.07431 4.00304 6.01953 4.23901 6.01953V4.01953ZM1.58677 5.75005C1.20325 6.51709 1.04175 7.42747 1.04175 8.42969H3.04175C3.04175 7.62721 3.17321 7.04931 3.37563 6.64448L1.58677 5.75005ZM1.04175 8.42969C1.04175 9.45479 1.23473 10.3916 1.67425 11.1949L3.42878 10.2348C3.18861 9.79591 3.04175 9.20928 3.04175 8.42969H1.04175ZM1.66238 11.1725C1.92965 11.6918 2.29347 12.1376 2.77697 12.4507C3.26534 12.767 3.81791 12.9102 4.39722 12.9102V10.9102C4.15621 10.9102 3.99101 10.8541 3.86414 10.772C3.73241 10.6867 3.58353 10.5348 3.44065 10.2572L1.66238 11.1725ZM4.39722 12.9102C5.40196 12.9102 6.30784 12.5215 7.0928 11.8383L5.77975 10.3297C5.2991 10.748 4.8456 10.9102 4.39722 10.9102V12.9102ZM7.43628 11.084V6.16211H5.43628V11.084H7.43628ZM11.991 1.85547L11.2839 1.14836L11.2725 1.15976L11.2614 1.17153L11.991 1.85547ZM11.991 0.466797L11.2614 1.15074L11.2725 1.1625L11.2839 1.1739L11.991 0.466797ZM10.6199 0.466797L11.3038 1.19633L11.3156 1.18531L11.327 1.1739L10.6199 0.466797ZM10.6023 1.85547L9.87276 2.53941L9.88379 2.55117L9.89519 2.56258L10.6023 1.85547ZM10.0046 14.9688L9.42914 14.1509L9.41888 14.1582L9.40879 14.1657L10.0046 14.9688ZM10.4792 4.08789V3.08789H9.47925V4.08789H10.4792ZM11.9031 4.08789H12.9031V3.08789H11.9031V4.08789ZM11.9031 14.1777L12.9031 14.1877V14.1777H11.9031ZM9.30151 16.9199L8.37808 17.3037L8.75054 18.1999L9.65751 17.8544L9.30151 16.9199ZM8.73901 15.5664L8.47989 14.6006L7.37761 14.8963L7.81558 15.9502L8.73901 15.5664ZM11.3054 3.13672C11.8341 3.13672 12.3367 2.94877 12.7205 2.53941L11.2614 1.17153C11.2633 1.16955 11.2688 1.16414 11.2782 1.15761C11.2877 1.15101 11.2981 1.14539 11.3082 1.14124C11.3299 1.13232 11.3338 1.13672 11.3054 1.13672V3.13672ZM12.6981 2.56258C13.0854 2.17528 13.2722 1.68096 13.2722 1.15234H11.2722C11.2722 1.16701 11.271 1.1743 11.2708 1.17561C11.2706 1.1767 11.2711 1.17355 11.2734 1.16767C11.2758 1.16171 11.2789 1.15597 11.282 1.15135C11.285 1.14685 11.2863 1.14592 11.2839 1.14836L12.6981 2.56258ZM13.2722 1.15234C13.2722 0.622497 13.0765 0.138164 12.6981 -0.24031L11.2839 1.1739C11.2882 1.17825 11.288 1.17881 11.2856 1.17519C11.283 1.17143 11.2797 1.1656 11.2767 1.15836C11.2738 1.15115 11.2724 1.14553 11.2719 1.14287C11.2714 1.14041 11.2722 1.14311 11.2722 1.15234H13.2722ZM12.7205 -0.217144C12.3367 -0.626506 11.8341 -0.814453 11.3054 -0.814453V1.18555C11.3338 1.18555 11.3299 1.18994 11.3082 1.18103C11.2981 1.17688 11.2877 1.17126 11.2782 1.16466C11.2688 1.15812 11.2633 1.15271 11.2614 1.15074L12.7205 -0.217144ZM11.3054 -0.814453C10.7756 -0.814453 10.2912 -0.618784 9.91277 -0.24031L11.327 1.1739C11.3313 1.16956 11.3319 1.16975 11.3283 1.17219C11.3245 1.17474 11.3187 1.17806 11.3114 1.18103C11.3042 1.18399 11.2986 1.18537 11.2959 1.18587C11.2935 1.18633 11.2962 1.18555 11.3054 1.18555V-0.814453ZM9.93593 -0.26274C9.52657 0.121036 9.33862 0.623665 9.33862 1.15234H11.3386C11.3386 1.12397 11.343 1.12784 11.3341 1.14958C11.33 1.15969 11.3243 1.17009 11.3177 1.17958C11.3112 1.18897 11.3058 1.19448 11.3038 1.19633L9.93593 -0.26274ZM9.33862 1.15234C9.33862 1.66155 9.50615 2.14836 9.87276 2.53941L11.3318 1.17153C11.3308 1.17043 11.3324 1.17196 11.3349 1.17606C11.3375 1.18021 11.3396 1.18451 11.3409 1.18794C11.3421 1.19126 11.3417 1.19124 11.3409 1.18646C11.34 1.1815 11.3386 1.17053 11.3386 1.15234H9.33862ZM9.89519 2.56258C10.2825 2.94987 10.7768 3.13672 11.3054 3.13672V1.13672C11.2908 1.13672 11.2835 1.13551 11.2822 1.13527C11.2811 1.13507 11.2842 1.13558 11.2901 1.13793C11.2961 1.14031 11.3018 1.14339 11.3064 1.14647C11.3109 1.14947 11.3118 1.1508 11.3094 1.14836L9.89519 2.56258ZM10.5801 15.7866C10.9851 15.5016 11.2015 15.0834 11.3184 14.6936C11.4359 14.3021 11.4792 13.8557 11.4792 13.3867H9.47925C9.47925 13.7498 9.44352 13.9831 9.40277 14.1189C9.3615 14.2565 9.34057 14.2133 9.42914 14.1509L10.5801 15.7866ZM11.4792 13.3867V4.08789H9.47925V13.3867H11.4792ZM10.4792 5.08789H11.9031V3.08789H10.4792V5.08789ZM10.9031 4.08789V14.1777H12.9031V4.08789H10.9031ZM10.9031 14.1677C10.8977 14.7129 10.5353 15.3798 8.94552 15.9854L9.65751 17.8544C11.5131 17.1475 12.885 15.9863 12.903 14.1877L10.9031 14.1677ZM10.2249 16.5362L9.66245 15.1826L7.81558 15.9502L8.37808 17.3037L10.2249 16.5362ZM8.99814 16.5322C9.58795 16.374 10.1266 16.1235 10.6005 15.7718L9.40879 14.1657C9.15614 14.3531 8.85101 14.501 8.47989 14.6006L8.99814 16.5322Z" fill="black" mask="url(#path-1-outside-1_158_3189)"/>
</svg>
