<svg width="21" height="20" viewBox="0 0 21 20" fill="none" xmlns="http://www.w3.org/2000/svg">
<g clip-path="url(#clip0_158_3192)">
<path d="M20.6966 11.9762C20.5767 11.6241 20.2626 11.3787 19.8563 11.3198C19.6648 11.2921 19.4454 11.3039 19.1858 11.3559C18.7333 11.4464 18.3976 11.4808 18.1526 11.4875C19.0773 9.97352 19.8293 8.24696 20.2622 6.62172C20.9621 3.99382 20.5881 2.79664 20.151 2.25509C18.9942 0.821815 17.3065 0.0517909 15.2703 0.0281867C14.1842 0.0153321 13.2307 0.223291 12.7333 0.372799C12.2702 0.29361 11.7721 0.249358 11.2496 0.241162C10.2703 0.226023 9.40485 0.433041 8.6654 0.858543C8.25593 0.724353 7.59898 0.535117 6.84023 0.414319C5.05566 0.130218 3.61741 0.351613 2.5654 1.07228C1.2915 1.94487 0.700922 3.46091 0.81016 5.57835C0.844802 6.25064 1.23265 8.29605 1.84328 10.2359C2.19422 11.3509 2.56845 12.2768 2.95556 12.9882C3.50452 13.9969 4.09192 14.5909 4.75136 14.8042C5.12101 14.9237 5.79256 15.0073 6.49894 14.4369C6.58845 14.542 6.70785 14.6465 6.86642 14.7435C7.06771 14.8666 7.3139 14.9672 7.55972 15.0268C8.44577 15.2416 9.2757 15.1879 9.98374 14.8869C9.98808 15.009 9.99145 15.1256 9.99432 15.2264C9.99903 15.3898 10.0036 15.55 10.0098 15.6998C10.0518 16.7131 10.1229 17.5009 10.3335 18.0521C10.345 18.0824 10.3606 18.1286 10.377 18.1776C10.4821 18.4896 10.6578 19.0118 11.1048 19.4209C11.5678 19.8445 12.1277 19.9745 12.6405 19.9745C12.8976 19.9745 13.143 19.9418 13.3582 19.897C14.1255 19.7376 14.9968 19.4947 15.6271 18.6244C16.223 17.8017 16.5127 16.5625 16.5651 14.61C16.5719 14.5548 16.5782 14.5021 16.5842 14.4518C16.5883 14.4179 16.5925 14.3832 16.5967 14.3487L16.7371 14.3606L16.7733 14.363C17.5547 14.3975 18.5102 14.2368 19.097 13.9725C19.5606 13.7638 21.0465 13.0032 20.6966 11.9762Z" fill="black"/>
<path d="M19.3607 12.1759C17.0372 12.6407 16.8775 11.8779 16.8775 11.8779C19.3307 8.34807 20.3562 3.86754 19.4712 2.77095C17.0569 -0.22033 12.8776 1.19435 12.8078 1.23108L12.7854 1.23498C12.3263 1.14258 11.8126 1.08753 11.2353 1.07839C10.1839 1.06169 9.38648 1.34565 8.78135 1.79064C8.78135 1.79064 1.32588 -1.18765 1.67262 5.5364C1.74638 6.96689 3.78698 16.3601 6.22093 13.5229C7.11054 12.4855 7.97008 11.6083 7.97008 11.6083C8.39701 11.8833 8.90809 12.0236 9.44389 11.9732L9.48551 11.9389C9.47257 12.0677 9.47848 12.1937 9.50218 12.3429C8.87516 13.0222 9.05941 13.1415 7.80597 13.3917C6.53765 13.6451 7.28273 14.0964 7.7692 14.2143C8.35895 14.3573 9.72333 14.5599 10.6452 13.3085L10.6085 13.4513C10.8541 13.6421 11.0267 14.6924 10.9977 15.6446C10.9688 16.5968 10.9495 17.2505 11.1431 17.7611C11.3367 18.2717 11.5296 19.4205 13.1774 19.0782C14.5542 18.792 15.2677 18.0506 15.367 16.8138C15.4374 15.9346 15.5968 16.0645 15.6069 15.2784L15.7347 14.9063C15.8822 13.7144 15.7582 13.3299 16.6064 13.5087L16.8126 13.5263C17.4369 13.5538 18.254 13.4289 18.7336 13.2127C19.7663 12.748 20.3788 11.9721 19.3606 12.1759H19.3607Z" fill="#336791"/>
<path d="M9.21763 6.17614C9.0083 6.14788 8.81864 6.17404 8.72271 6.24445C8.66871 6.28408 8.65204 6.32999 8.64756 6.36161C8.6355 6.44533 8.69601 6.53786 8.73315 6.58561C8.83827 6.72074 8.9919 6.81363 9.14396 6.8341C9.16599 6.83706 9.18788 6.83849 9.20968 6.83849C9.46326 6.83849 9.69375 6.64706 9.71407 6.50575C9.73948 6.32878 9.47453 6.21081 9.21763 6.17614Z" fill="white"/>
<path d="M16.1538 6.18173C16.1339 6.04302 15.8792 6.00347 15.6377 6.03603C15.3965 6.06864 15.1625 6.17421 15.1821 6.31324C15.1978 6.42136 15.399 6.60594 15.6373 6.60589C15.6574 6.60589 15.6778 6.60459 15.6982 6.60182C15.8573 6.58045 15.974 6.4825 16.0294 6.42602C16.1139 6.34002 16.1627 6.24408 16.1538 6.18173Z" fill="white"/>
<path d="M20.1337 12.1231C20.0451 11.8633 19.76 11.7797 19.2862 11.8746C17.8796 12.1561 17.3758 11.9611 17.2104 11.843C18.3038 10.2278 19.2032 8.27547 19.6884 6.45383C19.9183 5.59096 20.0453 4.78962 20.0556 4.1365C20.0671 3.41951 19.9412 2.89273 19.6815 2.57092C18.6344 1.27354 17.0978 0.577645 15.2376 0.55852C13.9588 0.54459 12.8783 0.86197 12.6688 0.951191C12.2277 0.844815 11.7469 0.779512 11.2234 0.771181C10.2633 0.756132 9.43355 0.979005 8.74648 1.43326C8.44805 1.32559 7.67678 1.06885 6.73364 0.92154C5.10297 0.666911 3.80722 0.85982 2.88251 1.49507C1.77914 2.25309 1.26976 3.60807 1.36847 5.52229C1.40168 6.16637 1.78006 8.14755 2.37729 10.0449C3.16339 12.5422 4.01785 13.9559 4.91697 14.2467C5.02219 14.2807 5.14357 14.3046 5.27734 14.3046C5.60533 14.3046 6.00741 14.1612 6.42579 13.6735C7.12071 12.8628 7.76953 12.1835 8.0087 11.9366C8.36214 12.1206 8.75036 12.2233 9.14755 12.2336C9.14824 12.2437 9.1493 12.2538 9.15022 12.2638C9.07055 12.3555 9.00519 12.4358 8.94949 12.5043C8.67434 12.843 8.61706 12.9135 7.73133 13.0904C7.47942 13.1408 6.81018 13.2745 6.80043 13.7294C6.78976 14.2263 7.59138 14.435 7.68274 14.4572C8.00103 14.5344 8.30764 14.5725 8.60006 14.5725C9.31129 14.5725 9.93711 14.3459 10.4373 13.9073C10.4219 15.679 10.4981 17.4248 10.7174 17.9567C10.8971 18.3921 11.336 19.4563 12.7225 19.4562C12.9258 19.4562 13.1498 19.4333 13.3961 19.3821C14.8431 19.0812 15.4714 18.4611 15.7145 17.0939C15.8445 16.3633 16.0678 14.6185 16.1727 13.6826C16.3943 13.7496 16.6796 13.7803 16.9879 13.7802C17.6311 13.7802 18.3731 13.6477 18.8385 13.4382C19.3613 13.2028 20.3048 12.625 20.1337 12.1231ZM16.6879 5.79882C16.6831 6.07513 16.6439 6.32595 16.6023 6.58779C16.5576 6.86939 16.5113 7.16052 16.4997 7.51396C16.4882 7.8579 16.5325 8.2155 16.5754 8.56127C16.6619 9.25972 16.7507 9.97882 16.4069 10.6884C16.3534 10.5963 16.3018 10.4959 16.2545 10.3847C16.2118 10.2842 16.119 10.1229 15.9905 9.8995C15.4906 9.03013 14.3199 6.99426 14.9192 6.1635C15.0977 5.91617 15.5507 5.66199 16.6879 5.79882ZM15.3095 1.11803C16.9762 1.15373 18.2946 1.75835 19.2281 2.91499C19.944 3.80219 19.1556 7.83908 16.8734 11.3217C16.8508 11.2939 16.8279 11.2659 16.8041 11.2371C16.7947 11.2256 16.785 11.2139 16.7753 11.2021C17.365 10.2576 17.2497 9.32319 17.147 8.49467C17.1049 8.15467 17.0651 7.83353 17.0752 7.53192C17.0857 7.21212 17.1293 6.93796 17.1714 6.67281C17.2232 6.34602 17.276 6.00795 17.2614 5.60936C17.2723 5.56758 17.2766 5.51817 17.271 5.45954C17.2338 5.07731 16.7838 3.93351 15.8666 2.89811C15.365 2.33188 14.6333 1.69815 13.6343 1.27072C14.064 1.18437 14.6516 1.10383 15.3095 1.11803ZM5.98307 13.3165C5.52214 13.8539 5.2038 13.7509 5.09914 13.7171C4.41706 13.4965 3.6257 12.0986 2.92796 9.88194C2.32422 7.96391 1.97138 6.03522 1.94348 5.49439C1.85531 3.78396 2.28288 2.59188 3.21438 1.9513C4.73032 0.90882 7.2227 1.53278 8.22417 1.84927C8.20976 1.86302 8.1948 1.87592 8.18052 1.88989C6.53715 3.49932 6.57614 6.24905 6.58016 6.4171C6.58002 6.48196 6.58561 6.57378 6.59332 6.70008C6.62159 7.16254 6.6742 8.0233 6.53364 8.99811C6.40297 9.90393 6.69092 10.7905 7.32353 11.4306C7.38902 11.4968 7.45738 11.559 7.52801 11.6176C7.24639 11.91 6.63443 12.5566 5.98307 13.3165ZM7.73923 11.0443C7.22935 10.5284 6.9978 9.81086 7.10385 9.07541C7.2523 8.04565 7.19748 7.14883 7.16805 6.66703C7.16394 6.59962 7.16029 6.54054 7.15812 6.49392C7.39822 6.28752 8.51078 5.70942 9.30417 5.88572C9.6663 5.96616 9.88685 6.2052 9.97859 6.61646C10.4533 8.74545 10.0414 9.63282 9.7105 10.3459C9.64228 10.4928 9.57785 10.6316 9.52279 10.7753L9.48016 10.8864C9.37216 11.1671 9.2717 11.4282 9.20944 11.6761C8.66745 11.6745 8.14016 11.45 7.73923 11.0443ZM7.82242 13.9155C7.66417 13.8772 7.52182 13.8106 7.43831 13.7554C7.50805 13.7235 7.63221 13.6802 7.8475 13.6372C8.88949 13.4292 9.05036 13.2824 9.40177 12.8498C9.48237 12.7506 9.57369 12.6381 9.70016 12.5012C9.7002 12.5011 9.70025 12.501 9.70029 12.501C9.8887 12.2965 9.97484 12.3311 10.1311 12.394C10.2578 12.4448 10.3811 12.5987 10.4311 12.7681C10.4548 12.8481 10.4814 13 10.3944 13.1181C9.66029 14.1147 8.59064 14.1019 7.82242 13.9155ZM13.2754 18.8362C12.0008 19.101 11.5494 18.4703 11.252 17.7493C11.0601 17.2838 10.9657 15.1849 11.0327 12.867C11.0336 12.8361 11.029 12.8063 11.0202 12.7783C11.0126 12.7243 11.0009 12.6696 10.9846 12.6145C10.8851 12.2772 10.6425 11.9951 10.3515 11.8782C10.2359 11.8317 10.0237 11.7465 9.76865 11.8097C9.82307 11.5925 9.91738 11.3471 10.0196 11.0815L10.0625 10.9697C10.1108 10.8437 10.1714 10.7132 10.2355 10.575C10.5818 9.82891 11.0561 8.80703 10.5414 6.49844C10.3485 5.63377 9.70464 5.21154 8.72852 5.30959C8.1433 5.36831 7.60796 5.59727 7.34094 5.72855C7.28353 5.75677 7.23101 5.784 7.18196 5.81056C7.25646 4.93931 7.53808 3.31116 8.59138 2.28104C9.25452 1.63249 10.1378 1.3122 11.2139 1.32944C13.3342 1.36312 14.6939 2.41828 15.4612 3.29754C16.1224 4.05525 16.4805 4.81847 16.6234 5.23008C15.5488 5.12416 14.8179 5.32988 14.4474 5.84348C13.6414 6.96071 14.8884 9.12925 15.4877 10.1714C15.5976 10.3624 15.6924 10.5275 15.7223 10.5976C15.9174 11.0563 16.1701 11.3625 16.3546 11.586C16.4111 11.6545 16.466 11.7209 16.5077 11.7789C16.1822 11.8699 15.5976 12.0801 15.6509 13.1309C15.6079 13.6583 15.3023 16.1269 15.1471 16.9991C14.9422 18.1513 14.505 18.5805 13.2754 18.8362ZM18.5961 12.9319C18.2633 13.0817 17.7063 13.194 17.1772 13.2181C16.5929 13.2447 16.2954 13.1547 16.2254 13.0993C16.1925 12.4445 16.4439 12.3761 16.7099 12.3036C16.7517 12.2922 16.7925 12.2811 16.8319 12.2678C16.8564 12.2871 16.8832 12.3063 16.9125 12.325C17.3822 12.6257 18.22 12.6581 19.4026 12.4214C19.407 12.4205 19.4113 12.4197 19.4156 12.4188C19.2561 12.5635 18.9832 12.7576 18.5961 12.9319Z" fill="white"/>
</g>
<defs>
<clipPath id="clip0_158_3192">
<rect width="20" height="20" fill="white" transform="translate(0.77417)"/>
</clipPath>
</defs>
</svg>
