<svg width="32" height="32" viewBox="0 0 32 32" fill="none" xmlns="http://www.w3.org/2000/svg">
<path d="M23.5605 8.95702C23.2056 9.08203 23.0588 9.41526 22.7942 9.6943C22.3083 10.2541 21.8462 10.8331 21.3756 11.4057C18.9419 11.543 16.2795 10.8779 14.7627 8.90752C14.5583 8.40832 14.3189 7.98763 14.0578 7.82038C13.8641 7.56907 13.6132 7.38902 13.3427 7.67787C12.9685 8.24747 13.4178 8.95702 13.8965 9.54795C14.0757 9.94134 14.2101 10.3539 14.3347 10.7674C14.9568 13.0658 15.0063 15.5887 14.1606 17.8364C13.9631 18.3531 13.757 18.8979 13.405 19.3297C13.1277 19.5102 12.7104 19.3451 12.3836 19.3869C11.3071 19.3647 10.1662 19.4334 9.20747 19.9701C7.3647 21.0675 7.27382 24.0107 9.67339 24.4228C11.8255 24.8388 13.0739 22.4102 13.3304 20.6118C14.5169 20.0981 14.6569 18.5105 15.0362 17.4157C15.6322 15.4773 15.8076 13.4076 15.4581 11.4052C15.4479 11.3348 15.4274 11.2209 15.398 11.0771C16.8883 12.186 18.6697 12.4395 20.6059 12.32C19.5204 13.5275 18.5446 15.034 18.4768 16.7381C18.4273 17.3321 18.412 17.964 18.5199 18.5523C18.2477 18.5485 17.9972 18.5886 17.8074 18.6782C17.1388 18.9474 16.5154 19.3813 16.0742 19.9552C15.3476 20.8525 15.2555 22.6236 16.7211 22.7482C17.638 22.8339 18.5442 22.4713 19.2785 21.9409C19.7005 21.4908 20.9515 21.018 20.4288 20.2705C20.7757 19.6096 20.3217 19.0933 19.6719 18.8058C19.6698 18.8019 19.6672 18.7985 19.6655 18.7947C19.4436 17.2536 19.7935 15.5571 20.5504 14.1926C20.9801 13.4242 21.5949 12.7855 22.1918 12.1472C22.7089 11.9808 23.1834 11.6732 23.5093 11.2341C23.8857 10.6867 24.7228 9.05302 23.5614 8.95787L23.5605 8.95702ZM10.2938 22.871C8.98134 22.9368 8.07552 22.1402 9.50571 21.2578C10.4209 20.8661 11.4419 20.963 12.4088 20.8226C12.1865 21.8266 11.3502 22.7644 10.2938 22.871ZM17.4413 21.801C17.1008 21.8074 16.6972 21.7779 16.46 21.5023C16.5176 20.6554 17.3794 20.1408 18.1039 19.8822C18.467 19.7798 18.8309 19.834 19.1701 19.9672C19.3186 20.1318 19.4944 20.2808 19.703 20.4092C19.7201 20.4173 19.7372 20.4241 19.7538 20.4301C19.0558 20.9958 18.3821 21.7105 17.4417 21.8005L17.4413 21.801Z" fill="black"/>
</svg>
