<svg width="33" height="30" viewBox="0 0 33 30" fill="none" xmlns="http://www.w3.org/2000/svg">
<path d="M7.97316 5.20642C9.65802 3.53948 11.7678 2.33406 14.0885 1.71242C17.7156 0.838922 20.6184 1.17653 22.5868 2.38228C24.5552 3.58803 25.1469 4.72412 25.1469 4.72412L26.4462 3.78631C26.4462 3.78631 25.169 0.838921 27.8672 0.136906C30.5655 -0.565109 31.0797 1.57845 30.9746 3.25042C30.8696 4.9224 29.6753 5.26001 29.2108 5.32967C28.7057 5.32381 28.2043 5.24433 27.7235 5.09388L26.2416 7.23744C26.7491 8.27989 27.0278 9.41309 27.06 10.5653C27.1163 11.5621 27.096 12.5617 26.9991 13.5556C26.9991 13.5556 28.9841 14.3594 29.0505 14.3594C29.1168 14.3594 30.665 13.8235 31.2179 14.2683C31.7709 14.7131 31.6105 15.1204 31.6105 15.1204C31.6105 15.1204 32.7164 15.1204 32.462 16.0582C32.4183 16.3046 32.3106 16.5363 32.1491 16.7313C31.9876 16.9263 31.7775 17.0782 31.5386 17.1728C31.6866 17.2483 31.7983 17.3768 31.85 17.531C31.9016 17.6851 31.8891 17.8528 31.8151 17.9981C31.6394 18.2931 31.3598 18.5167 31.0277 18.6279C30.6955 18.7392 30.3331 18.7306 30.007 18.6037C29.404 18.1828 28.9531 17.5884 28.7187 16.9049C28.6375 16.6355 28.5838 16.3591 28.5584 16.0796L26.8056 15.5437C26.8056 15.5437 25.3791 20.1631 24.7543 22.0601C24.1295 23.9572 23.7646 25.1897 23.7646 25.1897C23.7646 25.1897 25.9044 25.1897 26.1587 26.2133C26.4131 27.2368 26.3909 28.8499 26.1587 29.0053C25.9265 29.1607 23.3941 29.3643 21.5086 29.3643C19.6232 29.3643 18.9984 28.941 19.0205 28.6516C19.0426 28.3622 19.0205 24.6056 18.8823 24.5413C18.1479 24.4529 17.405 24.4529 16.6706 24.5413C15.7472 24.6271 15.0782 24.8736 15.0561 25.0772C15.0339 25.2808 15.1943 28.9838 15.0561 29.2303C14.9178 29.4768 11.6003 29.7394 9.43287 29.7662C7.26542 29.793 6.90049 29.7662 6.90049 29.5412C6.90049 29.3161 6.53003 26.8617 7.24883 26.4812C8.08818 26.1967 8.9614 26.0167 9.84756 25.9453C9.84756 25.9453 8.26067 21.7493 7.47553 19.6486C6.69038 17.548 6.1651 15.9403 6.1651 15.9403L4.36811 16.4601C4.36811 16.4601 4.52846 17.3282 4.09165 17.6444C3.65485 17.9606 2.84758 18.1803 2.43289 17.6444C2.3182 17.4827 2.24186 17.2985 2.20936 17.1048C2.17686 16.9112 2.18899 16.713 2.2449 16.5244C2.01605 16.3907 1.82758 16.201 1.69848 15.9742C1.56938 15.7475 1.5042 15.4918 1.50951 15.2329C1.62563 14.4505 1.94632 14.1611 2.13431 14.07C2.29107 14.0298 2.45366 14.0154 2.61536 14.0272C2.61536 14.0272 3.0964 13.1537 3.77649 13.3305C3.95912 13.3614 4.12698 13.4476 4.25608 13.5765C4.38518 13.7055 4.4689 13.8707 4.49529 14.0486L5.73936 13.5984C5.43604 12.3678 5.41151 11.088 5.66748 9.84722C5.84026 8.82158 6.27559 7.85429 6.93366 7.0338L4.49529 4.55799C4.16764 4.78329 3.7969 4.94295 3.40478 5.02761C3.01266 5.11227 2.60706 5.12022 2.21172 5.05101C1.01189 4.75627 -0.0939555 3.59875 0.862597 1.83568C1.81915 0.0725998 4.88233 -0.088167 5.6343 0.919305C6.38627 1.92678 5.6343 3.23971 5.6343 3.23971L7.97316 5.20642Z" fill="#1D1D1B"/>
<path d="M3.40058 14.5148L3.09647 14.0486C3.09647 14.0486 3.21258 13.5127 3.67704 13.7109C4.14149 13.9092 4.22996 14.563 4.29631 14.5362C4.36266 14.5094 5.67861 14.0271 5.75049 14.1611C5.82237 14.2951 6.04906 15.4526 6.04906 15.4526C6.04906 15.4526 3.83738 15.9885 3.83738 16.1224C3.83738 16.2564 4.01985 16.9959 3.72127 17.2425C3.42269 17.489 2.98589 17.5104 2.89189 17.3282C2.79789 17.146 2.73154 16.7066 2.89189 16.6798C3.05224 16.653 3.21258 16.5726 3.21258 16.5029C3.21258 16.4333 3.16835 16.1224 3.16835 16.1224C3.16835 16.1224 2.61543 16.3047 2.33897 16.0099C2.06251 15.7152 1.83028 14.8953 2.1178 14.697C2.23864 14.6077 2.38424 14.5554 2.53595 14.5468C2.68765 14.5382 2.83855 14.5737 2.9693 14.6488C3.07435 14.7827 3.40058 14.5148 3.40058 14.5148Z" fill="#DDC07C"/>
<path d="M5.51818 14.5363C5.56242 14.6059 5.67853 14.9167 5.56242 14.9864C5.42167 15.0318 5.27393 15.0536 5.12561 15.0507C5.12561 15.0507 4.92103 14.7613 5.0095 14.697C5.1723 14.6251 5.34293 14.5712 5.51818 14.5363Z" fill="#1D1D1B"/>
<path d="M3.48895 0.919325C4.44551 0.747841 5.26383 1.13904 5.40206 1.9911C5.54029 2.84317 4.39021 4.13466 3.60507 4.44548C2.81992 4.75629 1.76384 4.69199 1.32703 4.04356C0.890227 3.39513 0.746468 1.40698 3.48895 0.919325Z" fill="#FAB900"/>
<path d="M5.43526 3.7113C6.22322 4.33446 6.96247 5.01332 7.64694 5.74232C7.54517 5.99156 7.40538 6.22459 7.23225 6.43362C7.23225 6.43362 4.88234 4.46691 4.96528 4.35437C5.04822 4.24183 5.43526 3.7113 5.43526 3.7113Z" fill="#DDC07C"/>
<path d="M28.0498 0.785346C28.8294 0.538837 30.1675 0.672809 30.4661 2.43588C30.7646 4.19896 29.6367 4.86882 28.5087 4.64911C28.0207 4.56372 27.5847 4.30098 27.2898 3.91455C26.9948 3.52812 26.8632 3.04715 26.9218 2.56986C26.9661 1.58918 27.4029 0.983625 28.0498 0.785346Z" fill="#FAB900"/>
<path d="M26.7335 4.2204C26.8054 4.3115 27.4025 4.75629 27.3362 4.84739C27.2698 4.93849 26.07 6.45506 26.07 6.45506C25.8609 6.07162 25.6762 5.6761 25.5171 5.27074C25.5392 5.20643 26.7335 4.2204 26.7335 4.2204Z" fill="#DDC07C"/>
<path d="M12.7727 2.90747C14.1219 2.30728 17.5666 1.87856 19.9607 2.23761C22.3548 2.59666 24.7877 5.38328 25.3406 7.34999C25.6944 8.68366 25.9421 10.0417 26.0815 11.412C26.0815 11.412 24.0744 10.2545 23.9804 10.3403C23.8864 10.426 23.8699 10.7422 23.9362 10.7904C24.0026 10.8386 26.0318 11.68 26.0815 11.8622C26.1313 12.0444 26.0815 13.2448 26.0815 13.2448C25.4302 12.9247 24.76 12.642 24.0744 12.3981C24.0302 12.4624 23.8201 12.7303 24.0744 12.8C24.7433 13.1023 25.3834 13.4609 25.9875 13.8718C25.9875 13.9575 25.8051 15.3187 25.8051 15.3187C25.8051 15.3187 24.2845 14.4934 24.2127 14.5148C24.1408 14.5363 24.0523 14.831 24.1463 14.8524C24.2403 14.8739 25.7332 15.7474 25.7111 15.8813C25.689 16.0153 23.6819 22.2209 23.6045 22.2424C23.1954 22.0998 22.7948 21.9352 22.4046 21.7493C22.4046 21.7493 22.2221 22.0655 22.3106 22.1084C22.3991 22.1513 23.4883 22.5746 23.4165 22.6871C23.3446 22.7997 23.2063 23.223 23.2063 23.223C22.7975 22.9896 22.366 22.7958 21.918 22.6443C21.8462 22.7086 21.7301 22.8693 21.8462 22.9551C22.2843 23.1272 22.7125 23.3222 23.1289 23.5392C23.1289 23.625 23.1289 23.984 23.0626 23.984C22.6103 23.7708 22.145 23.5847 21.6692 23.4267C21.5531 23.4695 21.4149 23.6946 21.5531 23.7804C21.6913 23.8661 22.9133 24.3645 22.8912 24.4984C22.8356 24.6596 22.7653 24.8156 22.6811 24.9647C22.2804 24.7113 21.865 24.4805 21.437 24.2734C21.3707 24.2734 21.2767 24.6056 21.343 24.6539C21.7319 24.8524 22.1019 25.0837 22.4488 25.3452C22.4488 25.4095 20.9781 25.5006 20.956 25.6774C20.9145 25.8393 20.9145 26.0085 20.956 26.1704C21.0002 26.2615 22.6147 26.1704 23.6266 26.3044C24.6384 26.4384 25.0807 26.4169 25.125 26.6634C25.1692 26.91 25.2853 28.4265 25.125 28.4694C24.9646 28.5123 21.9678 28.4694 21.2103 28.4265C20.4528 28.3836 20.0326 28.2497 20.0326 28.1157C20.0326 27.9817 19.9883 23.9626 19.8722 23.8286C19.7561 23.6946 18.0752 23.491 16.7151 23.5606C15.8683 23.6071 15.0352 23.7882 14.249 24.0965C14.0306 23.887 13.7918 23.6986 13.5358 23.5338C13.4418 23.5338 13.2151 23.6946 13.2814 23.8018C13.3478 23.909 13.9726 24.4073 13.9726 24.4717C13.9637 24.5618 13.9489 24.6513 13.9283 24.7396C13.4064 24.3596 12.8514 24.0244 12.2696 23.7375C12.1756 23.8018 12.065 24.0697 12.1756 24.1394C12.7805 24.5178 13.3587 24.9349 13.9062 25.388C13.9062 25.5006 13.9505 26.0365 13.9505 26.0365C13.9505 26.0365 12.5018 25.0986 12.4078 25.2326C12.3138 25.3666 12.2917 25.656 12.3636 25.7042C12.4355 25.7524 13.9062 26.3741 13.9283 26.5295C13.9862 27.1982 13.9862 27.8704 13.9283 28.5391C13.8399 28.6516 8.05633 29.0749 7.98445 28.8499C7.91257 28.6248 7.9181 26.9743 8.07844 26.8617C8.23879 26.7492 11.6503 26.3258 11.6945 26.2133C11.7388 26.1008 11.7388 25.8114 11.6282 25.7899C11.5176 25.7685 10.8652 25.7899 10.843 25.7471C10.8209 25.7042 7.77987 18.175 7.11083 15.4526C6.4418 12.7303 6.18745 9.11307 8.20008 6.54616C10.2127 3.97925 11.114 3.64164 12.7727 2.90747Z" fill="#8EC480"/>
<path d="M17.2237 3.93098C17.4062 3.93098 17.4062 4.46687 17.3343 4.46687C16.0033 4.39982 14.6858 4.75336 13.58 5.47434C11.7166 6.72296 11.5065 7.17311 11.3683 7.12488C11.23 7.07665 10.9812 6.99091 11.0255 6.87837C11.7503 5.95682 12.6846 5.20958 13.7557 4.6947C14.8268 4.17982 16.006 3.91115 17.2016 3.90955L17.2237 3.93098Z" fill="#1D1D1B"/>
<path d="M23.0733 5.69409C23.5225 5.81044 23.9349 6.03327 24.2731 6.34252C24.2731 6.45506 24.2731 6.65869 24.157 6.58903C23.7761 6.43528 23.4066 6.25622 23.0512 6.05314C23.0014 5.96204 22.9572 5.78519 23.0733 5.69409Z" fill="#1D1D1B"/>
<path d="M23.4441 7.19458C23.4441 7.19458 24.9867 7.79478 25.1028 8.10559C25.219 8.41641 25.2853 8.48607 25.1471 8.46464C24.5366 8.23664 23.9497 7.95314 23.3943 7.61793C23.3722 7.5054 23.3722 7.23745 23.4441 7.19458Z" fill="#1D1D1B"/>
<path d="M23.7203 8.86652C24.3157 9.12094 24.8857 9.42768 25.4233 9.78289C25.4675 9.9383 25.6279 10.1634 25.4233 10.0723C24.8146 9.83312 24.2218 9.5575 23.6484 9.247C23.6571 9.1179 23.6812 8.99021 23.7203 8.86652Z" fill="#1D1D1B"/>
<path d="M27.1042 14.0915C27.1982 14.1344 29.0837 14.9168 29.1555 14.9382C29.2274 14.9596 30.2614 14.472 30.8143 14.6274C31.3672 14.7828 31.229 15.0722 31.1792 15.2061C31.1295 15.3401 30.9746 15.6081 31.0908 15.6992C31.2069 15.7903 31.2069 15.8546 31.2732 15.8546C31.3396 15.8546 31.5718 15.5223 31.7598 15.6349C31.8735 15.7405 31.9431 15.883 31.9553 16.0352C31.9675 16.1874 31.9216 16.3387 31.8261 16.4601C31.5798 16.7278 31.2834 16.9478 30.9525 17.1085C30.8585 17.1085 30.8143 17.3765 30.9083 17.4408C31.0023 17.5051 31.5054 17.6659 31.3893 17.8642C31.3279 17.976 31.2414 18.073 31.1362 18.1482C31.0309 18.2233 30.9097 18.2746 30.7812 18.2982C30.6528 18.3219 30.5206 18.3173 30.3943 18.2848C30.2679 18.2524 30.1507 18.1929 30.0513 18.1107C29.3878 17.5748 29.1776 16.1439 29.1555 16.0368C29.1014 15.8549 29.0071 15.6867 28.8791 15.5438C28.2237 15.3741 27.5778 15.172 26.9438 14.9382C26.9438 14.8525 27.1042 14.0915 27.1042 14.0915Z" fill="#DDC07C"/>
<path d="M16.8089 18.6465C16.8973 18.6465 18.8326 18.8716 20.237 18.2017C21.6414 17.5319 22.4984 16.4601 22.6809 16.503C22.8634 16.5458 23.1177 16.8138 23.0735 16.9049C22.4875 17.895 21.5906 18.6779 20.5134 19.1395C18.7662 19.8951 17.0356 19.9648 16.8973 19.8308C16.7591 19.6969 16.5767 18.6894 16.8089 18.6465Z" fill="#1D1D1B"/>
<path d="M15.7694 7.4357C17.8207 6.99627 20.7899 7.54823 21.9455 9.91687C23.1011 12.2855 22.797 15.4526 20.1264 16.9263C17.4558 18.4 13.8784 18.3571 12.2196 16.8138C10.5609 15.2704 9.36657 8.82365 15.7694 7.4357Z" fill="#1D1D1B"/>
<path d="M15.9019 8.14844C17.6712 7.76796 20.2368 8.2449 21.232 10.292C22.2273 12.3391 21.9674 15.0721 19.6617 16.3422C17.3561 17.6122 14.2818 17.5747 12.8387 16.2457C11.3956 14.9167 10.3727 9.34348 15.9019 8.14844Z" fill="#E6E4DA"/>
<path d="M16.195 11.1012C16.5646 11.0291 16.9486 11.0812 17.2836 11.2489C17.6186 11.4166 17.8847 11.6899 18.0379 12.0238C18.1912 12.3577 18.2225 12.7322 18.1267 13.0857C18.0309 13.4391 17.8137 13.7504 17.5109 13.9682C16.7037 14.413 15.6255 14.4023 15.1223 13.9361C14.9228 13.7002 14.7903 13.418 14.7378 13.1174C14.6852 12.8167 14.7146 12.5079 14.823 12.2216C14.9313 11.9353 15.1148 11.6813 15.3555 11.4848C15.5961 11.2883 15.8855 11.1561 16.195 11.1012Z" fill="#1D1D1B"/>
<path d="M16.6209 11.6371C16.7767 11.5966 16.9409 11.5981 17.0959 11.6416C17.2509 11.685 17.3906 11.7687 17.5 11.8836C17.7267 12.1515 16.9471 12.7731 16.8531 12.7303C16.7591 12.6874 16.2062 11.8568 16.6209 11.6371Z" fill="#E6E4DA"/>
</svg>
