<svg width="27" height="35" viewBox="0 0 27 35" fill="none" xmlns="http://www.w3.org/2000/svg">
<path d="M26.0994 1.20593C26.0994 1.20584 26.1003 1.2071 26.1019 1.20998C26.1001 1.20746 26.0993 1.20602 26.0994 1.20593ZM26.1454 1.32913C26.1571 1.37025 26.1695 1.42113 26.1819 1.48302C26.2315 1.7305 26.2684 2.08791 26.2891 2.55239C26.3303 3.4771 26.3044 4.75927 26.2181 6.28986C26.0455 9.34732 25.6343 13.3511 25.0578 17.3727C24.481 21.396 23.7409 25.4217 22.9135 28.5272C22.4993 30.0821 22.0678 31.3888 21.6312 32.3443C21.4128 32.8224 21.1999 33.1974 20.9971 33.4674C20.789 33.7445 20.6222 33.8697 20.5103 33.914C20.1411 34.0603 19.5906 34.1186 18.8646 34.0623C18.1474 34.0066 17.3007 33.8426 16.3663 33.5827C14.498 33.0632 12.3233 32.1728 10.2109 31.0621C8.09836 29.9512 6.06626 28.6293 4.47659 27.2553C2.87132 25.8678 1.78105 24.4814 1.44629 23.2541C1.31197 22.7617 1.46383 22.0269 2.00471 21.0358C2.53394 20.066 3.38295 18.9461 4.471 17.7341C6.64443 15.3129 9.70996 12.5915 12.8841 10.0623C16.0559 7.53498 19.3196 5.21272 21.8799 3.58924C23.1617 2.77641 24.2568 2.14542 25.0706 1.75148C25.4798 1.55339 25.8006 1.42378 26.0296 1.35837C26.0745 1.34555 26.1129 1.33605 26.1454 1.32913ZM26.269 1.31249C26.2731 1.31256 26.2749 1.31279 26.2748 1.31288C26.2747 1.31298 26.2727 1.31295 26.269 1.31249Z" fill="#22E183" stroke="black"/>
</svg>
