<svg width="472" height="177" viewBox="0 0 472 177" fill="none" xmlns="http://www.w3.org/2000/svg">
<path d="M24.5 204.161C51.1278 122.229 150.074 73.8012 232.785 90.914C248.73 94.2128 269.348 104.592 282.883 113.963C286.382 116.385 286.016 110.808 286.357 108.596C287.536 100.932 290.803 93.9498 295.829 87.9671C315.179 64.9308 363.239 80.2625 385.5 88.1775C420.735 100.706 453.644 118.762 488.222 132.908C494.723 135.567 492.234 127.723 492.537 123.33C493.901 103.552 517.703 89.2003 534.531 83.3361C554.044 76.5361 575.65 71.3365 596.417 71.5484C603.515 71.6208 609.64 73.6899 616.203 76.1793C618.813 77.1691 624.829 81.3375 627.675 80.705C630.177 80.1489 623.688 66.8772 623.15 65.1283C620.142 55.3519 623.31 50.5494 630.727 43.1315C649.387 24.4717 668.57 24.1869 693.981 24.1869C710.281 24.1869 727.561 22.4003 742.501 29.8703" stroke="#FF8577" stroke-width="48" stroke-linecap="round" stroke-linejoin="round"/>
<path d="M24.5 204.161C51.1278 122.229 150.074 73.8012 232.785 90.914C248.73 94.2128 269.348 104.592 282.883 113.963C286.382 116.385 286.016 110.808 286.357 108.596C287.536 100.932 290.803 93.9498 295.829 87.9671C315.179 64.9308 363.239 80.2625 385.5 88.1775C420.735 100.706 453.644 118.762 488.222 132.908C494.723 135.567 492.234 127.723 492.537 123.33C493.901 103.552 517.703 89.2003 534.531 83.3361C554.044 76.5361 575.65 71.3365 596.417 71.5484C603.515 71.6208 609.64 73.6899 616.203 76.1793C618.813 77.1691 624.829 81.3375 627.675 80.705C630.177 80.1489 623.688 66.8772 623.15 65.1283C620.142 55.3519 623.31 50.5494 630.727 43.1315C649.387 24.4717 668.57 24.1869 693.981 24.1869C710.281 24.1869 727.561 22.4003 742.501 29.8703" stroke="black" stroke-width="4" stroke-linecap="round" stroke-linejoin="round"/>
<circle cx="143.5" cy="96.5" r="8" fill="white" stroke="black" stroke-width="4"/>
<circle cx="283.75" cy="114" r="8" fill="white" stroke="black" stroke-width="4"/>
<circle cx="382.75" cy="87.75" r="8" fill="white" stroke="black" stroke-width="4"/>
</svg>
