<svg xmlns="http://www.w3.org/2000/svg" xmlns:xlink="http://www.w3.org/1999/xlink" width="1920" zoomAndPan="magnify" viewBox="0 0 1440 809.999993" height="1080" preserveAspectRatio="xMidYMid meet" version="1.0"><defs><g/><clipPath id="d861720b73"><path d="M 330 474.558594 L 1109.910156 474.558594 L 1109.910156 810 L 330 810 Z M 330 474.558594 " clip-rule="nonzero"/></clipPath></defs><g fill="#ffffff" fill-opacity="1"><g transform="translate(218.101571, 175.658747)"><g><path d="M 75.203125 -37.203125 L 53.59375 -37.203125 L 53.59375 0 L 14 0 L 14 -140 L 78 -140 C 90.664062 -140 101.664062 -137.898438 111 -133.703125 C 120.332031 -129.503906 127.53125 -123.503906 132.59375 -115.703125 C 137.664062 -107.898438 140.203125 -98.734375 140.203125 -88.203125 C 140.203125 -78.066406 137.832031 -69.234375 133.09375 -61.703125 C 128.363281 -54.171875 121.597656 -48.269531 112.796875 -44 L 143 0 L 100.59375 0 Z M 100.203125 -88.203125 C 100.203125 -94.734375 98.132812 -99.796875 94 -103.390625 C 89.863281 -106.992188 83.726562 -108.796875 75.59375 -108.796875 L 53.59375 -108.796875 L 53.59375 -67.796875 L 75.59375 -67.796875 C 83.726562 -67.796875 89.863281 -69.5625 94 -73.09375 C 98.132812 -76.632812 100.203125 -81.671875 100.203125 -88.203125 Z M 100.203125 -88.203125 "/></g></g></g><g fill="#ffffff" fill-opacity="1"><g transform="translate(386.097662, 175.658747)"><g><path d="M 126.40625 -30.59375 L 126.40625 0 L 14 0 L 14 -140 L 123.796875 -140 L 123.796875 -109.40625 L 53.203125 -109.40625 L 53.203125 -85.796875 L 115.40625 -85.796875 L 115.40625 -56.203125 L 53.203125 -56.203125 L 53.203125 -30.59375 Z M 126.40625 -30.59375 "/></g></g></g><g fill="#ffffff" fill-opacity="1"><g transform="translate(540.494117, 175.658747)"><g><path d="M 140.40625 0 L 140 -74.203125 L 104 -13.796875 L 86.40625 -13.796875 L 50.59375 -72.203125 L 50.59375 0 L 14 0 L 14 -140 L 46.59375 -140 L 95.796875 -59.203125 L 143.796875 -140 L 176.40625 -140 L 176.796875 0 Z M 140.40625 0 "/></g></g></g><g fill="#ffffff" fill-opacity="1"><g transform="translate(751.289016, 175.658747)"><g><path d="M 84.59375 2.796875 C 69.800781 2.796875 56.503906 -0.332031 44.703125 -6.59375 C 32.898438 -12.863281 23.628906 -21.53125 16.890625 -32.59375 C 10.160156 -43.664062 6.796875 -56.132812 6.796875 -70 C 6.796875 -83.863281 10.160156 -96.328125 16.890625 -107.390625 C 23.628906 -118.460938 32.898438 -127.128906 44.703125 -133.390625 C 56.503906 -139.660156 69.800781 -142.796875 84.59375 -142.796875 C 99.394531 -142.796875 112.695312 -139.660156 124.5 -133.390625 C 136.300781 -127.128906 145.566406 -118.460938 152.296875 -107.390625 C 159.035156 -96.328125 162.40625 -83.863281 162.40625 -70 C 162.40625 -56.132812 159.035156 -43.664062 152.296875 -32.59375 C 145.566406 -21.53125 136.300781 -12.863281 124.5 -6.59375 C 112.695312 -0.332031 99.394531 2.796875 84.59375 2.796875 Z M 84.59375 -30 C 91.664062 -30 98.066406 -31.664062 103.796875 -35 C 109.535156 -38.332031 114.070312 -43.03125 117.40625 -49.09375 C 120.738281 -55.164062 122.40625 -62.132812 122.40625 -70 C 122.40625 -77.863281 120.738281 -84.828125 117.40625 -90.890625 C 114.070312 -96.960938 109.535156 -101.664062 103.796875 -105 C 98.066406 -108.332031 91.664062 -110 84.59375 -110 C 77.53125 -110 71.128906 -108.332031 65.390625 -105 C 59.660156 -101.664062 55.128906 -96.960938 51.796875 -90.890625 C 48.460938 -84.828125 46.796875 -77.863281 46.796875 -70 C 46.796875 -62.132812 48.460938 -55.164062 51.796875 -49.09375 C 55.128906 -43.03125 59.660156 -38.332031 65.390625 -35 C 71.128906 -31.664062 77.53125 -30 84.59375 -30 Z M 84.59375 -30 "/></g></g></g><g fill="#ffffff" fill-opacity="1"><g transform="translate(940.484517, 175.658747)"><g><path d="M 43.796875 -108.59375 L 0.796875 -108.59375 L 0.796875 -140 L 126.203125 -140 L 126.203125 -108.59375 L 83.40625 -108.59375 L 83.40625 0 L 43.796875 0 Z M 43.796875 -108.59375 "/></g></g></g><g fill="#ffffff" fill-opacity="1"><g transform="translate(1087.481164, 175.658747)"><g><path d="M 126.40625 -30.59375 L 126.40625 0 L 14 0 L 14 -140 L 123.796875 -140 L 123.796875 -109.40625 L 53.203125 -109.40625 L 53.203125 -85.796875 L 115.40625 -85.796875 L 115.40625 -56.203125 L 53.203125 -56.203125 L 53.203125 -30.59375 Z M 126.40625 -30.59375 "/></g></g></g><g fill="#ffffff" fill-opacity="1"><g transform="translate(191.300791, 415.658735)"><g><path d="M 63.203125 2.796875 C 51.867188 2.796875 40.867188 1.398438 30.203125 -1.390625 C 19.535156 -4.191406 10.867188 -7.925781 4.203125 -12.59375 L 17.203125 -41.796875 C 23.460938 -37.660156 30.726562 -34.328125 39 -31.796875 C 47.269531 -29.265625 55.40625 -28 63.40625 -28 C 78.601562 -28 86.203125 -31.800781 86.203125 -39.40625 C 86.203125 -43.40625 84.035156 -46.367188 79.703125 -48.296875 C 75.367188 -50.234375 68.398438 -52.269531 58.796875 -54.40625 C 48.265625 -56.664062 39.460938 -59.09375 32.390625 -61.6875 C 25.328125 -64.289062 19.257812 -68.457031 14.1875 -74.1875 C 9.125 -79.925781 6.59375 -87.664062 6.59375 -97.40625 C 6.59375 -105.9375 8.925781 -113.632812 13.59375 -120.5 C 18.257812 -127.363281 25.226562 -132.796875 34.5 -136.796875 C 43.769531 -140.796875 55.132812 -142.796875 68.59375 -142.796875 C 77.800781 -142.796875 86.867188 -141.757812 95.796875 -139.6875 C 104.734375 -137.625 112.601562 -134.59375 119.40625 -130.59375 L 107.203125 -101.203125 C 93.867188 -108.398438 80.9375 -112 68.40625 -112 C 60.53125 -112 54.789062 -110.832031 51.1875 -108.5 C 47.59375 -106.164062 45.796875 -103.132812 45.796875 -99.40625 C 45.796875 -95.664062 47.925781 -92.863281 52.1875 -91 C 56.457031 -89.132812 63.328125 -87.203125 72.796875 -85.203125 C 83.460938 -82.929688 92.296875 -80.492188 99.296875 -77.890625 C 106.296875 -75.296875 112.363281 -71.164062 117.5 -65.5 C 122.632812 -59.832031 125.203125 -52.132812 125.203125 -42.40625 C 125.203125 -34 122.867188 -26.394531 118.203125 -19.59375 C 113.535156 -12.800781 106.535156 -7.367188 97.203125 -3.296875 C 87.867188 0.765625 76.535156 2.796875 63.203125 2.796875 Z M 63.203125 2.796875 "/></g></g></g><g fill="#ffffff" fill-opacity="1"><g transform="translate(340.697348, 415.658735)"><g><path d="M 126.40625 -30.59375 L 126.40625 0 L 14 0 L 14 -140 L 123.796875 -140 L 123.796875 -109.40625 L 53.203125 -109.40625 L 53.203125 -85.796875 L 115.40625 -85.796875 L 115.40625 -56.203125 L 53.203125 -56.203125 L 53.203125 -30.59375 Z M 126.40625 -30.59375 "/></g></g></g><g fill="#ffffff" fill-opacity="1"><g transform="translate(495.093803, 415.658735)"><g><path d="M 147.203125 -140 L 147.203125 0 L 114.59375 0 L 52.796875 -74.59375 L 52.796875 0 L 14 0 L 14 -140 L 46.59375 -140 L 108.40625 -65.40625 L 108.40625 -140 Z M 147.203125 -140 "/></g></g></g><g fill="#ffffff" fill-opacity="1"><g transform="translate(676.289519, 415.658735)"><g><path d="M 63.203125 2.796875 C 51.867188 2.796875 40.867188 1.398438 30.203125 -1.390625 C 19.535156 -4.191406 10.867188 -7.925781 4.203125 -12.59375 L 17.203125 -41.796875 C 23.460938 -37.660156 30.726562 -34.328125 39 -31.796875 C 47.269531 -29.265625 55.40625 -28 63.40625 -28 C 78.601562 -28 86.203125 -31.800781 86.203125 -39.40625 C 86.203125 -43.40625 84.035156 -46.367188 79.703125 -48.296875 C 75.367188 -50.234375 68.398438 -52.269531 58.796875 -54.40625 C 48.265625 -56.664062 39.460938 -59.09375 32.390625 -61.6875 C 25.328125 -64.289062 19.257812 -68.457031 14.1875 -74.1875 C 9.125 -79.925781 6.59375 -87.664062 6.59375 -97.40625 C 6.59375 -105.9375 8.925781 -113.632812 13.59375 -120.5 C 18.257812 -127.363281 25.226562 -132.796875 34.5 -136.796875 C 43.769531 -140.796875 55.132812 -142.796875 68.59375 -142.796875 C 77.800781 -142.796875 86.867188 -141.757812 95.796875 -139.6875 C 104.734375 -137.625 112.601562 -134.59375 119.40625 -130.59375 L 107.203125 -101.203125 C 93.867188 -108.398438 80.9375 -112 68.40625 -112 C 60.53125 -112 54.789062 -110.832031 51.1875 -108.5 C 47.59375 -106.164062 45.796875 -103.132812 45.796875 -99.40625 C 45.796875 -95.664062 47.925781 -92.863281 52.1875 -91 C 56.457031 -89.132812 63.328125 -87.203125 72.796875 -85.203125 C 83.460938 -82.929688 92.296875 -80.492188 99.296875 -77.890625 C 106.296875 -75.296875 112.363281 -71.164062 117.5 -65.5 C 122.632812 -59.832031 125.203125 -52.132812 125.203125 -42.40625 C 125.203125 -34 122.867188 -26.394531 118.203125 -19.59375 C 113.535156 -12.800781 106.535156 -7.367188 97.203125 -3.296875 C 87.867188 0.765625 76.535156 2.796875 63.203125 2.796875 Z M 63.203125 2.796875 "/></g></g></g><g fill="#ffffff" fill-opacity="1"><g transform="translate(825.686084, 415.658735)"><g><path d="M 14 -140 L 53.59375 -140 L 53.59375 0 L 14 0 Z M 14 -140 "/></g></g></g><g fill="#ffffff" fill-opacity="1"><g transform="translate(913.484328, 415.658735)"><g><path d="M 147.203125 -140 L 147.203125 0 L 114.59375 0 L 52.796875 -74.59375 L 52.796875 0 L 14 0 L 14 -140 L 46.59375 -140 L 108.40625 -65.40625 L 108.40625 -140 Z M 147.203125 -140 "/></g></g></g><g fill="#ffffff" fill-opacity="1"><g transform="translate(1094.680043, 415.658735)"><g><path d="M 107.796875 -73 L 142.796875 -73 L 142.796875 -15 C 134.796875 -9.269531 125.59375 -4.867188 115.1875 -1.796875 C 104.789062 1.265625 94.394531 2.796875 84 2.796875 C 69.332031 2.796875 56.128906 -0.300781 44.390625 -6.5 C 32.660156 -12.695312 23.460938 -21.328125 16.796875 -32.390625 C 10.128906 -43.460938 6.796875 -56 6.796875 -70 C 6.796875 -84 10.128906 -96.53125 16.796875 -107.59375 C 23.460938 -118.664062 32.726562 -127.300781 44.59375 -133.5 C 56.46875 -139.695312 69.867188 -142.796875 84.796875 -142.796875 C 97.867188 -142.796875 109.601562 -140.59375 120 -136.1875 C 130.394531 -131.789062 139.0625 -125.460938 146 -117.203125 L 120.796875 -94.40625 C 111.328125 -104.800781 99.992188 -110 86.796875 -110 C 74.796875 -110 65.128906 -106.363281 57.796875 -99.09375 C 50.460938 -91.832031 46.796875 -82.132812 46.796875 -70 C 46.796875 -62.269531 48.460938 -55.367188 51.796875 -49.296875 C 55.128906 -43.234375 59.796875 -38.5 65.796875 -35.09375 C 71.796875 -31.695312 78.664062 -30 86.40625 -30 C 94 -30 101.128906 -31.53125 107.796875 -34.59375 Z M 107.796875 -73 "/></g></g></g><path fill="#dfe0df" d="M 385.046875 565.617188 C 326.582031 590.636719 258.375 591.59375 198.988281 569.039062 C 181.253906 580.179688 163.0625 590.539062 143.574219 598.082031 C 115.886719 608.824219 85.007812 613.632812 56.285156 606.058594 C 32.457031 599.773438 10.523438 583.890625 -0.710938 562.285156 C -8.210938 569.382812 -17.175781 574.890625 -27.175781 577.148438 C -40.792969 580.210938 -56.386719 576.339844 -65.164062 565.488281 C -71.578125 557.5625 -73.171875 545.882812 -69.394531 536.648438 C -77.234375 534.894531 -84.691406 531.609375 -91.140625 526.777344 C -111.402344 511.621094 -119.964844 482.601562 -111.160156 458.878906 C -101.691406 433.339844 -75.289062 417.191406 -48.503906 412.332031 C -23.335938 407.765625 2.449219 411.46875 27.746094 415.671875 C 38.296875 384.589844 62.113281 357.804688 92.890625 346.601562 C 127.929688 333.847656 170.902344 343.539062 194.636719 372.300781 C 211.273438 392.480469 216.410156 421.382812 209.15625 446.179688 C 221.484375 441.957031 235.261719 441.871094 247.386719 446.722656 C 258.78125 451.285156 268.203125 459.996094 274.308594 470.625 C 280.394531 470.050781 286.53125 470.359375 292.511719 471.71875 C 308.382812 475.355469 322.730469 487.453125 326.421875 503.324219 C 327.761719 509.089844 327.410156 515.195312 325.679688 520.875 C 342.71875 512.84375 362.027344 509.597656 380.707031 512.152344 C 394.640625 514.046875 410.5 521.863281 411.554688 535.894531 C 412.648438 550.0625 398.109375 560.019531 385.046875 565.617188 Z M 385.046875 565.617188 " fill-opacity="1" fill-rule="nonzero"/><path fill="#dfe0df" d="M 412.320312 528.394531 C 408.734375 520.511719 400.566406 515.589844 392.714844 512.78125 C 383.003906 509.3125 372.28125 508.664062 362.046875 509.332031 C 350.730469 510.078125 339.625 512.695312 329.144531 516.992188 C 331.371094 503.75 326.402344 490.898438 316.339844 481.632812 C 305.382812 471.550781 290.660156 467.410156 276 468.347656 C 269.726562 458.09375 260.492188 449.570312 249.300781 444.988281 C 237.578125 440.179688 224.75 439.839844 212.625 442.957031 C 216.996094 424.585938 215.207031 405.011719 207.347656 387.769531 C 199.410156 370.367188 184.976562 356.730469 167.820312 348.515625 C 151.054688 340.484375 132.054688 337.515625 113.621094 339.589844 C 94.558594 341.742188 76.539062 349.867188 61.773438 362.027344 C 45.5 375.429688 33.160156 393.351562 25.988281 413.140625 C -10.742188 407.148438 -50.34375 403.023438 -83.53125 423.382812 C -96.9375 431.605469 -108.339844 443.730469 -113.753906 458.65625 C -119.09375 473.378906 -118.0625 489.792969 -111.925781 504.109375 C -104.667969 521.054688 -90.246094 533.339844 -72.578125 538.128906 C -76.566406 550.894531 -71.90625 565.082031 -60.875 572.890625 C -49.367188 581.039062 -34.28125 582.113281 -21.15625 577.605469 C -13.933594 575.125 -7.378906 571.039062 -1.59375 566.09375 C 11.375 588.519531 34.851562 603.792969 59.945312 609.238281 C 91.199219 616.027344 123.8125 609.164062 152.714844 596.65625 C 168.894531 589.65625 184.199219 580.835938 199.136719 571.519531 C 245.757812 588.742188 297.234375 592.039062 345.664062 580.730469 C 359.515625 577.496094 373.078125 573.050781 386.164062 567.476562 C 400.863281 561.105469 420.789062 547.023438 412.320312 528.394531 Z M 405.800781 547.753906 C 400.789062 555.402344 392.097656 560.210938 383.929688 563.753906 C 333.828125 585.082031 276.800781 588.675781 224.21875 574.765625 C 217.75 573.050781 211.359375 571.082031 205.058594 568.847656 C 203.550781 568.316406 202.050781 567.636719 200.519531 567.179688 C 198.835938 566.679688 197.910156 567.148438 196.476562 568.042969 C 193.464844 569.902344 190.457031 571.773438 187.421875 573.605469 C 175.09375 581.019531 162.40625 587.871094 149.160156 593.507812 C 123.34375 604.496094 94.464844 610.824219 66.453125 605.996094 C 39.648438 601.378906 14.542969 585.613281 1.683594 561.203125 C 0.980469 559.871094 -1.402344 559.828125 -2.402344 560.765625 C -14.515625 572.105469 -30.8125 579.339844 -47.417969 574.347656 C -54.8125 572.125 -61.621094 567.339844 -65.386719 560.5 C -69.269531 553.445312 -69.851562 544.703125 -66.929688 537.222656 C -66.449219 536 -67.226562 534.863281 -68.46875 534.574219 C -84.394531 530.894531 -97.5 520.769531 -105.074219 506.300781 C -111.816406 493.417969 -113.882812 477.964844 -110.09375 463.859375 C -101.859375 433.160156 -69.511719 416.597656 -40.089844 413.246094 C -17.742188 410.703125 4.789062 414.097656 26.808594 417.753906 C 28 417.957031 29.753906 417.5625 30.214844 416.253906 C 41.957031 382.054688 70.0625 352.367188 106.335938 345.046875 C 140.820312 338.089844 180.425781 351.621094 198.796875 382.738281 C 209.816406 401.417969 212.675781 424.777344 206.699219 445.605469 C 206.027344 447.945312 208.476562 448.636719 210.285156 448.039062 C 222.390625 443.996094 236.027344 444.113281 247.75 449.378906 C 258.023438 453.996094 266.277344 462.027344 271.925781 471.707031 C 272.320312 472.390625 273.277344 472.847656 274.054688 472.773438 C 287.746094 471.589844 301.339844 474.953125 311.742188 484.207031 C 321.976562 493.300781 327.136719 506.855469 323.230469 520.300781 C 322.605469 522.46875 325.007812 523.578125 326.816406 522.734375 C 344.558594 514.472656 366.046875 510.578125 385.34375 515.28125 C 392.683594 517.066406 400.511719 520.523438 405.226562 526.691406 C 409.992188 532.9375 410.085938 541.203125 405.800781 547.753906 Z M 405.800781 547.753906 " fill-opacity="1" fill-rule="nonzero"/><g clip-path="url(#d861720b73)"><path fill="#32639b" d="M 1109.773438 864.605469 C 1109.773438 870.988281 1109.617188 877.367188 1109.304688 883.742188 C 1108.992188 890.121094 1108.523438 896.484375 1107.898438 902.835938 C 1107.273438 909.1875 1106.492188 915.523438 1105.554688 921.835938 C 1104.617188 928.152344 1103.527344 934.4375 1102.28125 940.699219 C 1101.039062 946.960938 1099.640625 953.1875 1098.089844 959.378906 C 1096.539062 965.570312 1094.839844 971.722656 1092.988281 977.828125 C 1091.136719 983.9375 1089.132812 989.996094 1086.984375 996.007812 C 1084.835938 1002.019531 1082.539062 1007.972656 1080.097656 1013.867188 C 1077.65625 1019.765625 1075.070312 1025.601562 1072.34375 1031.371094 C 1069.617188 1037.140625 1066.746094 1042.839844 1063.738281 1048.472656 C 1060.730469 1054.101562 1057.589844 1059.652344 1054.308594 1065.128906 C 1051.027344 1070.605469 1047.617188 1075.996094 1044.070312 1081.304688 C 1040.527344 1086.609375 1036.851562 1091.828125 1033.050781 1096.957031 C 1029.25 1102.082031 1025.328125 1107.113281 1021.28125 1112.046875 C 1017.230469 1116.980469 1013.066406 1121.8125 1008.78125 1126.542969 C 1004.496094 1131.273438 1000.097656 1135.894531 995.585938 1140.410156 C 991.074219 1144.921875 986.453125 1149.324219 981.726562 1153.609375 C 977 1157.898438 972.171875 1162.066406 967.238281 1166.113281 C 962.304688 1170.164062 957.277344 1174.089844 952.152344 1177.894531 C 947.027344 1181.695312 941.8125 1185.371094 936.507812 1188.917969 C 931.203125 1192.460938 925.8125 1195.875 920.339844 1199.160156 C 914.867188 1202.441406 909.320312 1205.585938 903.691406 1208.59375 C 898.066406 1211.605469 892.367188 1214.472656 886.597656 1217.203125 C 880.832031 1219.933594 875 1222.519531 869.105469 1224.960938 C 863.210938 1227.402344 857.261719 1229.699219 851.253906 1231.851562 C 845.246094 1234 839.1875 1236.003906 833.082031 1237.855469 C 826.976562 1239.707031 820.828125 1241.410156 814.640625 1242.960938 C 808.453125 1244.511719 802.226562 1245.910156 795.96875 1247.15625 C 789.710938 1248.402344 783.429688 1249.492188 777.117188 1250.429688 C 770.804688 1251.367188 764.476562 1252.148438 758.125 1252.773438 C 751.777344 1253.398438 745.414062 1253.867188 739.042969 1254.179688 C 732.667969 1254.496094 726.292969 1254.652344 719.910156 1254.652344 C 713.53125 1254.652344 707.15625 1254.496094 700.78125 1254.179688 C 694.410156 1253.867188 688.046875 1253.398438 681.699219 1252.773438 C 675.347656 1252.148438 669.019531 1251.367188 662.707031 1250.429688 C 656.394531 1249.492188 650.113281 1248.402344 643.855469 1247.15625 C 637.597656 1245.910156 631.371094 1244.511719 625.183594 1242.960938 C 618.992188 1241.410156 612.847656 1239.707031 606.742188 1237.855469 C 600.636719 1236.003906 594.578125 1234 588.570312 1231.851562 C 582.5625 1229.699219 576.613281 1227.402344 570.71875 1224.960938 C 564.824219 1222.519531 558.992188 1219.933594 553.222656 1217.203125 C 547.457031 1214.472656 541.757812 1211.605469 536.132812 1208.59375 C 530.503906 1205.585938 524.957031 1202.441406 519.484375 1199.160156 C 514.011719 1195.875 508.621094 1192.460938 503.316406 1188.917969 C 498.011719 1185.371094 492.796875 1181.695312 487.671875 1177.894531 C 482.546875 1174.089844 477.519531 1170.164062 472.585938 1166.113281 C 467.652344 1162.066406 462.824219 1157.898438 458.097656 1153.609375 C 453.367188 1149.324219 448.75 1144.921875 444.238281 1140.410156 C 439.726562 1135.894531 435.328125 1131.273438 431.042969 1126.542969 C 426.757812 1121.8125 422.59375 1116.980469 418.542969 1112.046875 C 414.496094 1107.113281 410.574219 1102.082031 406.773438 1096.957031 C 402.972656 1091.828125 399.296875 1086.609375 395.753906 1081.304688 C 392.207031 1075.996094 388.796875 1070.605469 385.515625 1065.128906 C 382.234375 1059.652344 379.09375 1054.101562 376.085938 1048.472656 C 373.078125 1042.839844 370.207031 1037.140625 367.480469 1031.371094 C 364.753906 1025.601562 362.167969 1019.765625 359.726562 1013.867188 C 357.285156 1007.972656 354.988281 1002.019531 352.839844 996.007812 C 350.691406 989.996094 348.6875 983.9375 346.835938 977.828125 C 344.984375 971.722656 343.285156 965.570312 341.734375 959.378906 C 340.183594 953.1875 338.785156 946.960938 337.539062 940.699219 C 336.296875 934.4375 335.207031 928.152344 334.269531 921.835938 C 333.332031 915.523438 332.550781 909.1875 331.925781 902.835938 C 331.300781 896.484375 330.832031 890.121094 330.519531 883.742188 C 330.207031 877.367188 330.050781 870.988281 330.050781 864.605469 C 330.050781 858.222656 330.207031 851.84375 330.519531 845.464844 C 330.832031 839.089844 331.300781 832.726562 331.925781 826.375 C 332.550781 820.019531 333.332031 813.6875 334.269531 807.375 C 335.207031 801.058594 336.296875 794.769531 337.539062 788.511719 C 338.785156 782.25 340.183594 776.023438 341.734375 769.832031 C 343.285156 763.640625 344.984375 757.488281 346.835938 751.378906 C 348.6875 745.273438 350.691406 739.210938 352.839844 733.203125 C 354.988281 727.191406 357.285156 721.238281 359.726562 715.339844 C 362.167969 709.441406 364.753906 703.609375 367.480469 697.839844 C 370.207031 692.066406 373.078125 686.367188 376.085938 680.738281 C 379.09375 675.109375 382.234375 669.554688 385.515625 664.082031 C 388.796875 658.605469 392.207031 653.214844 395.753906 647.90625 C 399.296875 642.597656 402.972656 637.382812 406.773438 632.253906 C 410.574219 627.128906 414.496094 622.097656 418.542969 617.164062 C 422.59375 612.226562 426.757812 607.394531 431.042969 602.664062 C 435.328125 597.9375 439.726562 593.3125 444.238281 588.800781 C 448.75 584.285156 453.367188 579.886719 458.097656 575.601562 C 462.824219 571.3125 467.652344 567.144531 472.585938 563.09375 C 477.519531 559.046875 482.546875 555.121094 487.671875 551.316406 C 492.796875 547.515625 498.011719 543.839844 503.316406 540.292969 C 508.621094 536.746094 514.011719 533.332031 519.484375 530.050781 C 524.957031 526.769531 530.503906 523.625 536.132812 520.613281 C 541.757812 517.605469 547.457031 514.738281 553.222656 512.007812 C 558.992188 509.277344 564.824219 506.691406 570.71875 504.25 C 576.613281 501.804688 582.5625 499.511719 588.570312 497.359375 C 594.578125 495.207031 600.636719 493.207031 606.742188 491.355469 C 612.847656 489.5 618.992188 487.800781 625.183594 486.246094 C 631.371094 484.695312 637.597656 483.296875 643.855469 482.054688 C 650.113281 480.808594 656.394531 479.71875 662.707031 478.78125 C 669.019531 477.84375 675.347656 477.0625 681.699219 476.4375 C 688.046875 475.8125 694.410156 475.34375 700.78125 475.027344 C 707.15625 474.714844 713.53125 474.558594 719.910156 474.558594 C 726.292969 474.558594 732.667969 474.714844 739.042969 475.027344 C 745.414062 475.34375 751.777344 475.8125 758.125 476.4375 C 764.476562 477.0625 770.804688 477.84375 777.117188 478.78125 C 783.429688 479.71875 789.710938 480.808594 795.96875 482.054688 C 802.226562 483.296875 808.453125 484.695312 814.640625 486.246094 C 820.828125 487.800781 826.976562 489.5 833.082031 491.355469 C 839.1875 493.207031 845.246094 495.207031 851.253906 497.359375 C 857.261719 499.511719 863.210938 501.804688 869.105469 504.25 C 875 506.691406 880.832031 509.277344 886.597656 512.007812 C 892.367188 514.738281 898.066406 517.605469 903.691406 520.613281 C 909.320312 523.625 914.867188 526.769531 920.339844 530.050781 C 925.8125 533.332031 931.203125 536.746094 936.507812 540.292969 C 941.8125 543.839844 947.027344 547.515625 952.152344 551.316406 C 957.277344 555.121094 962.304688 559.046875 967.238281 563.09375 C 972.171875 567.144531 977 571.3125 981.726562 575.601562 C 986.453125 579.886719 991.074219 584.285156 995.585938 588.800781 C 1000.097656 593.3125 1004.496094 597.9375 1008.78125 602.664062 C 1013.066406 607.394531 1017.230469 612.226562 1021.28125 617.164062 C 1025.328125 622.097656 1029.25 627.128906 1033.050781 632.253906 C 1036.851562 637.382812 1040.527344 642.597656 1044.070312 647.90625 C 1047.617188 653.214844 1051.027344 658.605469 1054.308594 664.082031 C 1057.589844 669.554688 1060.730469 675.109375 1063.738281 680.738281 C 1066.746094 686.367188 1069.617188 692.066406 1072.34375 697.839844 C 1075.070312 703.609375 1077.65625 709.441406 1080.097656 715.339844 C 1082.539062 721.238281 1084.835938 727.191406 1086.984375 733.203125 C 1089.132812 739.210938 1091.132812 745.273438 1092.988281 751.378906 C 1094.839844 757.488281 1096.539062 763.640625 1098.089844 769.832031 C 1099.640625 776.023438 1101.039062 782.25 1102.28125 788.511719 C 1103.527344 794.769531 1104.617188 801.058594 1105.554688 807.375 C 1106.492188 813.6875 1107.273438 820.019531 1107.898438 826.375 C 1108.523438 832.726562 1108.992188 839.089844 1109.304688 845.464844 C 1109.617188 851.84375 1109.773438 858.222656 1109.773438 864.605469 Z M 1109.773438 864.605469 " fill-opacity="1" fill-rule="nonzero"/></g><path fill="#53cb8f" d="M 992.265625 881.691406 C 989.234375 881.078125 986.175781 880.902344 983.09375 881.15625 C 969.699219 881.972656 956.535156 884.542969 943.230469 886.070312 C 938.320312 886.628906 933.769531 885.878906 930.101562 881.886719 C 926.53125 877.980469 923.324219 873.800781 920.480469 869.339844 C 905.621094 846.179688 892.578125 822.035156 879.292969 797.984375 C 874.710938 789.664062 870.980469 780.84375 865.417969 773.097656 C 859.257812 764.53125 852.769531 756.199219 846.453125 747.742188 C 845.65625 746.652344 844.761719 745.65625 843.769531 744.746094 C 842.777344 743.835938 841.703125 743.03125 840.550781 742.332031 C 839.398438 741.636719 838.191406 741.054688 836.925781 740.597656 C 835.660156 740.136719 834.359375 739.804688 833.027344 739.601562 C 826.335938 738.5 819.65625 738.578125 812.992188 739.847656 C 796.878906 742.792969 781.15625 747.414062 765.308594 751.488281 C 757.339844 753.539062 749.320312 754.703125 741.128906 754.015625 C 738.667969 753.851562 736.296875 753.308594 734.007812 752.394531 C 731.71875 751.480469 729.628906 750.234375 727.734375 748.65625 C 724.25 745.761719 721.09375 742.53125 717.824219 739.441406 C 711.765625 733.734375 704.738281 729.027344 699.710938 722.210938 C 697.777344 719.585938 695.148438 718.882812 692.035156 719.730469 C 685.933594 721.390625 679.78125 722.878906 673.820312 725.015625 C 664.609375 728.316406 655.585938 732.289062 646.167969 734.808594 C 631.582031 738.703125 616.839844 742.128906 601.96875 744.84375 C 591.128906 746.816406 582.054688 751.902344 575.269531 760.53125 C 567.191406 770.804688 559.699219 781.484375 552.796875 792.582031 C 546.421875 802.855469 542.914062 813.472656 546.203125 825.632812 C 546.753906 827.667969 546.308594 830.011719 545.398438 832.0625 C 542.789062 837.9375 540.078125 843.777344 537.511719 849.671875 C 533.773438 858.25 530.699219 867 531.023438 876.09375 C 531.023438 885.125 532.0625 889.644531 536.425781 893.566406 C 547.039062 903.105469 555.050781 914.742188 563.300781 926.171875 C 570.445312 936.046875 578.808594 944.144531 590.484375 948.433594 C 595.539062 950.292969 600.339844 950.640625 605.59375 948.980469 C 617.203125 945.304688 628.695312 941.273438 640.574219 938.550781 C 652.628906 935.789062 664.296875 936.53125 675 943.144531 C 683.8125 948.589844 693.289062 952.382812 703.429688 954.511719 C 710.628906 956.058594 717.839844 957.707031 724.578125 960.875 C 726.214844 961.644531 726.992188 962.765625 727.257812 964.601562 C 728.289062 971.949219 727.703125 979.34375 728.242188 986.738281 C 728.902344 995.386719 730.085938 1003.878906 732.734375 1012.128906 C 737.070312 1025.644531 744.277344 1037.664062 752.703125 1048.9375 C 754.890625 1051.863281 754.449219 1053.851562 752.863281 1056.566406 C 748.6875 1063.710938 744.449219 1070.789062 740.890625 1078.261719 C 738.339844 1083.621094 736.722656 1088.980469 737.484375 1095.136719 C 738.902344 1106.515625 741.195312 1117.707031 745.582031 1128.253906 C 754.160156 1148.867188 765.382812 1168.15625 776.292969 1187.585938 C 778.554688 1191.605469 782.324219 1192.945312 786.910156 1191.871094 C 789.800781 1191.195312 792.714844 1190.53125 795.5625 1189.808594 C 805.660156 1187.195312 815.789062 1184.699219 826.082031 1182.976562 C 833.671875 1181.707031 840.203125 1178.695312 845.648438 1172.964844 C 856.105469 1161.964844 866.917969 1151.316406 876.59375 1139.582031 C 885.730469 1128.5 894.265625 1117.027344 899.605469 1103.589844 C 902.691406 1095.820312 907.796875 1090.101562 914.710938 1085.65625 C 920.359375 1082.03125 925.789062 1078.0625 931.414062 1074.382812 C 936.324219 1071.171875 939.046875 1066.894531 938.355469 1060.902344 C 937.867188 1056.691406 937.945312 1052.464844 937.765625 1048.25 C 937.679688 1046.148438 937.378906 1044.054688 937.101562 1041.964844 C 935.988281 1033.503906 933.804688 1025.253906 932.230469 1016.886719 C 931.003906 1010.355469 931.785156 1004.421875 935.863281 998.660156 C 942.582031 989.289062 949.828125 980.34375 957.601562 971.832031 C 963.09375 965.8125 967.4375 959.054688 970.628906 951.5625 C 975.898438 939.195312 981.171875 926.832031 987.113281 914.765625 C 991.089844 906.679688 995.5625 898.792969 997.523438 889.859375 C 998.386719 885.902344 996.214844 882.570312 992.265625 881.691406 Z M 992.265625 881.691406 " fill-opacity="1" fill-rule="nonzero"/><path fill="#53cb8f" d="M 819.398438 487.382812 C 821.121094 498.550781 824.363281 509.378906 827.964844 520.082031 C 828.550781 521.820312 828.261719 522.632812 826.925781 523.574219 C 821.628906 527.277344 816.816406 531.53125 812.492188 536.335938 C 810.21875 538.863281 808.027344 539.191406 805.144531 537.832031 C 797.253906 534.113281 788.71875 533.410156 780.222656 533.023438 C 772.1875 532.65625 764.21875 534.453125 756.175781 534.808594 C 752.78125 534.96875 749.78125 536.46875 747.054688 538.664062 C 737.863281 546.066406 728.75 553.554688 719.863281 561.316406 C 716.761719 564.023438 713.316406 566.335938 710.160156 568.984375 C 706.472656 572.074219 703.910156 575.757812 704.734375 580.957031 C 705.242188 584.085938 705.765625 587.183594 706.210938 590.304688 C 706.925781 595.3125 709.300781 600.035156 708.765625 605.25 C 708.371094 609.039062 707.8125 612.765625 704.070312 614.902344 C 698.328125 618.195312 692.59375 621.515625 686.789062 624.707031 C 683.605469 626.460938 683.335938 626.257812 682.410156 622.738281 C 682.320312 622.367188 682.25 621.992188 682.199219 621.613281 C 681.054688 613.828125 680.46875 606 680.445312 598.132812 C 680.445312 594.183594 680.546875 590.238281 680.445312 586.296875 C 680.367188 582.847656 677.792969 580.441406 674.390625 580.214844 C 673.035156 580.101562 671.699219 580.222656 670.382812 580.578125 C 669.066406 580.9375 667.851562 581.507812 666.738281 582.292969 C 658.734375 588.054688 649.730469 591.910156 640.996094 596.3125 C 631.621094 601.046875 628.339844 609.242188 629.15625 619.3125 C 629.675781 625.730469 635.023438 629.304688 641.210938 627.617188 C 643.054688 627.039062 644.777344 626.210938 646.378906 625.128906 C 648.664062 623.710938 650.945312 622.289062 653.296875 620.992188 C 655.648438 619.695312 658.207031 619.320312 660.3125 621.207031 C 662.914062 623.558594 665.785156 626.039062 665.222656 630.117188 C 664.996094 631.636719 664.886719 633.160156 664.890625 634.695312 C 664.988281 642.910156 661.371094 649.121094 655.070312 654.222656 C 648.453125 659.515625 641.378906 664.101562 633.84375 667.980469 C 629.851562 670.074219 627.371094 673.203125 626.703125 677.808594 C 625.3125 687.535156 627.359375 696.726562 631.246094 705.5 C 634.03125 711.792969 639.285156 715.007812 646.214844 714.679688 C 650.359375 714.480469 654.253906 712.890625 657.914062 710.929688 C 666.601562 706.234375 673.261719 699.21875 679.746094 691.949219 C 684.722656 686.359375 689.28125 679.789062 698.375 681.230469 C 698.820312 681.296875 699.304688 680.941406 699.773438 680.9375 C 703.648438 680.890625 707.660156 679.742188 711.28125 682.082031 C 715.898438 685.070312 720.15625 688.449219 723.289062 693.09375 C 730.699219 704.085938 738.621094 714.679688 747.625 724.453125 C 750.835938 727.941406 755.660156 727.625 757.632812 723.484375 C 758.578125 721.523438 759.175781 719.460938 759.421875 717.296875 C 759.667969 715.132812 759.546875 712.992188 759.066406 710.867188 C 758.171875 706.6875 755.859375 703.277344 753.550781 699.882812 C 746.78125 690.046875 740.929688 679.691406 735.988281 668.820312 C 732.371094 660.757812 732.082031 660.457031 739.640625 655.710938 C 740.699219 655.050781 741.902344 654.570312 742.832031 653.761719 C 744.90625 651.976562 746.539062 652.773438 748.335938 654.242188 C 752.710938 657.816406 757.136719 661.339844 761.613281 664.816406 C 768.878906 670.449219 775.523438 676.617188 779.917969 684.855469 C 782.644531 689.929688 785.304688 695.035156 788.507812 699.851562 C 792.78125 706.265625 798.554688 710.269531 806.058594 711.910156 C 811.105469 713.007812 816.277344 713.777344 821.136719 715.453125 C 840.289062 722.058594 859.886719 722.058594 879.6875 720.070312 C 884.796875 719.554688 886.214844 720.757812 887.722656 725.726562 C 889.625 731.976562 888.769531 738.105469 887.277344 744.164062 C 884.351562 756.003906 884.535156 767.496094 890.078125 778.628906 C 893.28125 785.074219 896.328125 791.582031 899.519531 798.058594 C 905.324219 809.777344 912.1875 820.894531 918.714844 832.199219 C 923.332031 840.179688 927.226562 848.550781 932.203125 856.320312 C 939.980469 868.5 954.308594 869.8125 965.199219 864.046875 C 976.65625 857.984375 986.363281 849.5 996.003906 840.953125 C 1004.933594 833.035156 1011.679688 823.332031 1018.230469 813.480469 C 1020.957031 809.375 1022.515625 804.917969 1022.027344 799.898438 C 1021.855469 798.109375 1021.582031 796.285156 1021.503906 794.46875 C 1021.328125 789.40625 1019.519531 785.449219 1015.339844 782.160156 C 1006.820312 775.460938 997.929688 771.535156 986.691406 774.042969 C 981.921875 775.113281 976.773438 774.441406 971.917969 772.84375 C 963.105469 769.941406 956.292969 764.515625 951 756.960938 C 949.398438 754.769531 948.332031 752.339844 947.796875 749.679688 C 947.199219 746.601562 949.382812 743.871094 952.074219 744.320312 C 959.140625 745.5 966.152344 746.96875 973.25 748.019531 C 979.347656 748.910156 985.414062 749.472656 991.488281 748.707031 C 994.441406 748.332031 997.402344 748.46875 1000.355469 747.980469 C 1005.925781 747.0625 1011.515625 746.070312 1017.210938 746.601562 C 1020.542969 746.914062 1024.046875 747.390625 1026.585938 749.78125 C 1029.515625 752.5625 1032.226562 755.542969 1034.726562 758.714844 C 1044.632812 771.222656 1053.128906 784.71875 1062.570312 797.550781 C 1069.972656 807.605469 1073.625 819.4375 1078.644531 830.605469 C 1080.84375 835.492188 1082.75 840.574219 1086.679688 844.476562 C 1091.972656 849.726562 1098.84375 848.132812 1101.03125 840.976562 C 1102.480469 836.253906 1101.925781 831.40625 1100.710938 826.753906 C 1097.042969 812.460938 1093.875 798.140625 1092.800781 783.328125 C 1092.015625 772.527344 1091.332031 761.722656 1090.753906 750.910156 C 1090.585938 747.785156 1090.246094 744.660156 1089.863281 741.53125 C 1048.722656 617.375 946.816406 520.925781 819.398438 487.382812 Z M 819.398438 487.382812 " fill-opacity="1" fill-rule="nonzero"/><path fill="#53cb8f" d="M 649.167969 567.015625 C 653.757812 567.769531 659.144531 566.933594 664.296875 567.847656 C 670.90625 569.027344 673.347656 563.738281 672.566406 559.125 C 671.671875 553.886719 668.308594 550.660156 664.039062 548.183594 C 661.5625 546.742188 658.625 545.988281 656.382812 544.277344 C 650.371094 539.703125 644.132812 539.222656 637.480469 542.367188 C 633.738281 544.152344 630.335938 546.484375 626.949219 548.863281 C 623.660156 551.144531 620.992188 554.003906 618.949219 557.441406 C 616.234375 562.046875 617.71875 565.980469 622.703125 567.667969 C 623.902344 568.027344 625.132812 568.199219 626.386719 568.183594 C 633.792969 568.414062 641.128906 567.371094 649.167969 567.015625 Z M 649.167969 567.015625 " fill-opacity="1" fill-rule="nonzero"/><path fill="#53cb8f" d="M 724.050781 508.878906 C 727.175781 511.019531 730.664062 512.371094 734.109375 513.757812 C 741.078125 516.558594 748.671875 513.054688 751.46875 505.984375 C 753.109375 501.820312 752.664062 498.066406 749.234375 495.96875 C 745.082031 493.425781 740.882812 490.46875 735.789062 490.835938 C 732.523438 490.800781 729.355469 491.332031 726.28125 492.425781 C 722.582031 493.640625 719.699219 495.953125 719.285156 499.976562 C 718.90625 503.769531 720.878906 506.71875 724.050781 508.878906 Z M 724.050781 508.878906 " fill-opacity="1" fill-rule="nonzero"/><path fill="#53cb8f" d="M 395.417969 648.34375 C 396.238281 647.640625 397.046875 646.921875 397.84375 646.1875 C 403.128906 641.316406 407.707031 635.609375 413.992188 631.921875 C 423.027344 626.621094 432.71875 622.648438 442.460938 618.902344 C 449.332031 616.261719 456.339844 614.210938 464.015625 616.484375 C 468.007812 617.667969 471.878906 616.070312 475.046875 612.992188 C 478.5625 609.550781 481.570312 605.710938 484.074219 601.476562 C 490.40625 590.953125 496.464844 580.246094 503.167969 569.964844 C 514.433594 552.722656 530.058594 539.847656 546.480469 527.84375 C 552.464844 523.46875 559.550781 520.964844 565.917969 517.253906 C 579.269531 509.539062 592.144531 501.097656 604.539062 491.925781 C 518.132812 518.667969 444.578125 574.664062 395.417969 648.34375 Z M 395.417969 648.34375 " fill-opacity="1" fill-rule="nonzero"/><path fill="#53cb8f" d="M 626.25 494.042969 C 616.617188 500.5 607.445312 507.667969 597.679688 513.90625 C 581.8125 524.023438 565.84375 533.964844 552.074219 546.917969 C 549.140625 549.6875 546.332031 552.625 544.296875 556.128906 C 540.40625 562.828125 544.054688 569.082031 551.777344 569.300781 C 553.996094 569.289062 556.164062 568.976562 558.292969 568.359375 C 572.359375 564.785156 585.285156 558.53125 597.789062 551.3125 C 606.347656 546.398438 614.175781 540.191406 623.273438 536.195312 C 629.851562 533.304688 636.488281 530.320312 643.699219 529.550781 C 650.324219 528.839844 656.554688 527.230469 662.003906 523.417969 C 671.140625 517.050781 680.59375 511.179688 690.007812 505.246094 C 693.417969 503.089844 696.871094 501 699.804688 498.203125 C 702.617188 495.523438 702.8125 492.554688 700.003906 489.898438 C 694.800781 484.984375 688.96875 481.03125 681.878906 479.175781 C 678.132812 478.296875 674.332031 477.800781 670.484375 477.683594 C 660.945312 478.875 651.511719 480.417969 642.191406 482.3125 C 636.84375 486.171875 631.742188 490.355469 626.25 494.042969 Z M 626.25 494.042969 " fill-opacity="1" fill-rule="nonzero"/><path fill="#dfe0df" d="M 403.53125 789.804688 C 419.921875 791.34375 436.328125 791.558594 452.753906 790.449219 C 464.359375 789.6875 475.425781 786.878906 485.636719 781.105469 C 489.65625 778.828125 493.507812 776.296875 496.527344 772.695312 C 500.863281 767.527344 499.914062 761.976562 494.070312 758.71875 C 491.996094 757.554688 489.777344 756.800781 487.421875 756.457031 C 485.066406 756.117188 482.726562 756.207031 480.40625 756.738281 C 470.109375 758.90625 459.867188 761.308594 449.601562 763.574219 C 435.808594 766.617188 422.402344 765.945312 409.535156 759.523438 C 401.976562 755.753906 394.261719 752.332031 385.78125 751.140625 C 376.082031 749.777344 366.414062 750.90625 356.761719 751.527344 C 353.414062 751.769531 350.066406 751.777344 346.71875 751.554688 C 344.511719 758.867188 342.511719 766.265625 340.722656 773.75 C 360.554688 782.945312 381.660156 787.71875 403.53125 789.804688 Z M 403.53125 789.804688 " fill-opacity="1" fill-rule="nonzero"/><path fill="#dfe0df" d="M 391.007812 718.683594 C 396.8125 717.511719 402.460938 716.609375 408.320312 718.101562 C 419.929688 721.046875 431.535156 723.867188 443.117188 726.765625 C 454.277344 729.546875 465.398438 732.398438 477.046875 732.234375 C 484.257812 732.125 491.464844 731.925781 498.65625 731.472656 C 507.78125 730.898438 516.515625 728.875 524.125 723.484375 C 530.777344 718.769531 536.867188 713.304688 543.71875 708.851562 C 549.742188 704.933594 553.070312 699.085938 554.941406 692.324219 C 556.078125 688.210938 555.101562 686.371094 551.261719 684.488281 C 546.578125 682.191406 541.886719 682.929688 537.292969 684.523438 C 528.246094 687.652344 519.25 690.945312 510.25 694.21875 C 492.480469 700.671875 474.265625 700.277344 455.960938 697.613281 C 446.703125 696.273438 438.105469 692.476562 429.34375 689.371094 C 417.816406 685.273438 406.261719 684.945312 394.554688 688.148438 C 386.320312 690.378906 378.054688 692.367188 369.628906 693.160156 C 365.757812 701.027344 362.160156 709.042969 358.835938 717.203125 C 364.054688 718.773438 369.386719 719.683594 374.832031 719.933594 C 380.273438 720.183594 385.667969 719.769531 391.007812 718.683594 Z M 391.007812 718.683594 " fill-opacity="1" fill-rule="nonzero"/><path fill="#dfe0df" d="M 537.304688 754.734375 C 537.304688 751.164062 534.5625 748.4375 530.886719 748.371094 C 524.828125 748.257812 520.570312 751.902344 520.617188 757.164062 C 520.644531 760.878906 523.203125 763.320312 527.066406 763.339844 C 532.292969 763.355469 537.28125 759.148438 537.304688 754.734375 Z M 537.304688 754.734375 " fill-opacity="1" fill-rule="nonzero"/><path fill="#dfe0df" d="M 1650.507812 688.085938 C 1649.84375 715.25 1628.605469 739.425781 1602.742188 747.769531 C 1580.921875 754.824219 1556.867188 751.816406 1535.78125 742.476562 C 1532.46875 749.984375 1526.035156 756.175781 1518.136719 758.488281 C 1507.871094 761.5 1496.132812 757.683594 1489.058594 749.742188 C 1479.699219 759.71875 1467.722656 767.386719 1455.019531 772.601562 C 1435.777344 780.511719 1414.839844 783.308594 1394.085938 784.839844 C 1374.652344 786.25 1354.5625 786.511719 1336.34375 779.617188 C 1322.023438 774.191406 1309 763.453125 1302.910156 749.722656 C 1295.179688 758.769531 1281.996094 763.261719 1270.480469 759.816406 C 1259.371094 756.496094 1251.003906 746.121094 1249.074219 734.765625 C 1243.214844 739.265625 1236.964844 743.230469 1230.261719 746.351562 C 1215.324219 753.324219 1197.773438 755.8125 1182.203125 750.417969 C 1166.632812 745.023438 1153.71875 730.832031 1152.449219 714.394531 C 1151.394531 700.554688 1158.269531 687.289062 1166.804688 676.359375 C 1182.453125 656.351562 1204.484375 641.445312 1228.8125 634.1875 C 1222.582031 631.59375 1217.105469 626.882812 1213.726562 621.003906 C 1207.535156 610.246094 1207.777344 596.554688 1212.519531 585.09375 C 1217.257812 573.617188 1226.054688 564.207031 1236.039062 556.820312 C 1261.273438 538.160156 1295.171875 531.910156 1325.476562 539.910156 C 1324.429688 530.660156 1326.300781 521 1330.4375 512.605469 C 1336.6875 499.933594 1347.667969 490.019531 1360.039062 483.207031 C 1389.578125 466.941406 1428.105469 468.523438 1456.21875 487.152344 C 1480.101562 502.984375 1495.582031 530.542969 1497.574219 559.054688 C 1505.976562 556.929688 1515.207031 557.9375 1522.785156 562.175781 C 1533.464844 568.164062 1540.328125 580.300781 1540.148438 592.519531 C 1550.96875 582.414062 1569.226562 581.1875 1581.152344 590.066406 C 1590.875 597.300781 1595.375 610.457031 1593.160156 622.261719 C 1606.214844 625.058594 1618.601562 630.886719 1628.578125 639.722656 C 1642.234375 651.851562 1650.960938 669.828125 1650.507812 688.085938 Z M 1650.507812 688.085938 " fill-opacity="1" fill-rule="nonzero"/><path fill="#dfe0df" d="M 1636.628906 644.515625 C 1626.101562 632.347656 1611.386719 624.476562 1595.855469 620.742188 C 1597.65625 606.882812 1591.15625 592.167969 1578.402344 585.738281 C 1567.140625 580.050781 1552.820312 581.136719 1542.371094 588.132812 C 1541.316406 579.023438 1536.9375 570.429688 1529.890625 564.398438 C 1521.617188 557.304688 1510.457031 554.796875 1499.847656 556.570312 C 1496.707031 523.65625 1476.265625 492.929688 1446.042969 478.9375 C 1415.011719 464.566406 1376.070312 467.484375 1348.511719 488.179688 C 1332.964844 499.855469 1322.0625 517.4375 1322.789062 537.132812 C 1298.996094 531.828125 1273.511719 534.6875 1251.5 545.1875 C 1229.347656 555.765625 1206.507812 576.015625 1206.527344 602.503906 C 1206.539062 615.386719 1212.4375 627.335938 1223.335938 633.875 C 1209.808594 638.558594 1197.097656 645.402344 1185.835938 654.277344 C 1173.253906 664.183594 1161.519531 676.773438 1154.726562 691.417969 C 1148.042969 705.808594 1148.144531 721.984375 1157.703125 735.058594 C 1166.785156 747.46875 1181.105469 754.351562 1196.292969 755.277344 C 1214.832031 756.40625 1232.515625 749.179688 1247.414062 738.613281 C 1250.5625 749.601562 1259.097656 758.984375 1270.308594 761.992188 C 1281.492188 764.992188 1293.640625 761.308594 1302.09375 753.636719 C 1307.429688 763.601562 1316.035156 771.59375 1325.835938 777.128906 C 1337.863281 783.921875 1351.765625 786.660156 1365.433594 787.4375 C 1380.277344 788.28125 1395.335938 787.074219 1410.089844 785.363281 C 1424.582031 783.683594 1438.996094 780.851562 1452.675781 775.699219 C 1466.152344 770.628906 1478.671875 763.070312 1488.9375 752.964844 C 1495.851562 759.386719 1505.535156 762.535156 1514.925781 761.226562 C 1524.40625 759.910156 1532.386719 753.566406 1536.9375 745.335938 C 1556.964844 753.566406 1579.589844 756.535156 1600.636719 750.507812 C 1618.574219 745.375 1634.324219 733.589844 1644.035156 717.625 C 1649.453125 708.71875 1652.683594 698.535156 1653.003906 688.097656 C 1653.277344 672.03125 1647.097656 656.601562 1636.628906 644.515625 Z M 1625.335938 732.804688 C 1610.53125 745.324219 1591.519531 750.597656 1572.304688 749.472656 C 1560.195312 748.765625 1548.308594 745.578125 1537.230469 740.714844 C 1535.921875 740.140625 1534.089844 740.535156 1533.445312 741.933594 C 1529.863281 749.804688 1522.867188 756.125 1514.089844 757.292969 C 1505.445312 758.4375 1496.769531 754.613281 1490.980469 748.292969 C 1489.933594 747.144531 1487.921875 747.78125 1487.035156 748.714844 C 1468.132812 768.644531 1441.261719 777.097656 1414.730469 780.734375 C 1401.042969 782.605469 1387.082031 783.730469 1373.261719 783.601562 C 1359.535156 783.46875 1345.375 781.707031 1332.851562 775.742188 C 1320.957031 770.074219 1310.679688 760.804688 1305.183594 748.695312 C 1304.441406 747.046875 1301.8125 747.648438 1300.886719 748.707031 C 1293.699219 756.910156 1281.996094 761.046875 1271.367188 757.855469 C 1260.859375 754.703125 1253.453125 744.769531 1251.539062 734.242188 C 1251.207031 732.429688 1248.628906 732.453125 1247.472656 733.328125 C 1234.539062 743.179688 1219.332031 750.617188 1202.835938 751.253906 C 1188.273438 751.816406 1174.050781 746.753906 1164.347656 735.640625 C 1154.464844 724.328125 1152.582031 709.445312 1158.058594 695.613281 C 1163.601562 681.632812 1174.269531 669.546875 1185.632812 659.925781 C 1198.355469 649.15625 1213.261719 640.992188 1229.234375 636.171875 C 1230.765625 635.707031 1232.464844 633.394531 1230.261719 632.4375 C 1218.859375 627.503906 1212.207031 616.664062 1211.550781 604.417969 C 1210.898438 592.238281 1215.917969 580.632812 1223.578125 571.382812 C 1238.65625 553.175781 1262.117188 542.429688 1285.246094 539.398438 C 1298.378906 537.675781 1311.796875 538.554688 1324.609375 541.882812 C 1326.210938 542.296875 1328.132812 541.148438 1327.949219 539.398438 C 1324.21875 503.09375 1360.761719 478.917969 1392.679688 474.792969 C 1425.007812 470.605469 1457.828125 484.023438 1477.082031 510.460938 C 1487.527344 524.816406 1493.808594 541.894531 1495.128906 559.589844 C 1495.21875 560.847656 1497.050781 561.257812 1498.007812 561.039062 C 1508.082031 558.621094 1518.839844 560.777344 1526.640625 567.769531 C 1533.585938 574 1537.703125 583.179688 1537.671875 592.519531 C 1537.660156 594.511719 1540.378906 595.226562 1541.757812 593.980469 C 1550.945312 585.605469 1565.128906 583.671875 1576.148438 589.582031 C 1587.683594 595.769531 1592.886719 609.742188 1590.683594 622.253906 C 1590.511719 623.226562 1591.417969 624.042969 1592.285156 624.234375 C 1607.53125 627.578125 1621.84375 635.035156 1632.28125 646.800781 C 1642.253906 658.050781 1648.292969 672.957031 1648.03125 688.066406 C 1647.480469 705.527344 1638.542969 721.632812 1625.335938 732.804688 Z M 1625.335938 732.804688 " fill-opacity="1" fill-rule="nonzero"/></svg>