<svg width="250" height="285" viewBox="0 0 250 285" fill="none" xmlns="http://www.w3.org/2000/svg">
<circle cx="125" cy="125" r="125" fill="#F9B9FD"/>
<line y1="-2" x2="96.1583" y2="-2" transform="matrix(-0.101829 0.994802 -0.972474 -0.233013 135.86 186.342)" stroke="black" stroke-width="4"/>
<line y1="-2" x2="26.6955" y2="-2" transform="matrix(0.0368689 0.99932 -0.996291 0.086042 198.728 227.466)" stroke="black" stroke-width="4"/>
<line x1="219.899" y1="222.844" x2="201.332" y2="225.972" stroke="black" stroke-width="4"/>
<path d="M208.537 238.773L163.339 171.001" stroke="black" stroke-width="4"/>
<line x1="129.447" y1="259.38" x2="114.447" y2="275.11" stroke="black" stroke-width="4"/>
<line y1="-2" x2="23.5377" y2="-2" transform="matrix(-0.46399 -0.885841 0.63204 -0.774935 142.012 281.443)" stroke="black" stroke-width="4"/>
<path d="M16.5589 160.504L58.4258 122.099L73.2501 164.209L16.5589 160.504Z" fill="#24106F"/>
<ellipse cx="75.7174" cy="75.8064" rx="75.7174" ry="75.8064" transform="matrix(0.977347 -0.211645 0.211895 0.977292 37.5115 65.0508)" fill="#24106F"/>
<ellipse cx="37.8587" cy="37.9032" rx="37.8587" ry="37.9032" transform="matrix(0.977347 -0.211645 0.211895 0.977292 82.5447 94.082)" fill="white"/>
<ellipse cx="15.1435" cy="15.1613" rx="15.1435" ry="15.1613" transform="matrix(0.977347 -0.211645 0.211895 0.977292 109.564 111.499)" fill="#24106F"/>
</svg>
