<svg width="183" height="23" viewBox="0 0 183 23" fill="none" xmlns="http://www.w3.org/2000/svg">
<path d="M1.83284 22.6988C1.28689 22.6988 0.844925 22.5208 0.506955 22.1649C0.168985 21.8089 0 21.364 0 20.8232V3.10777C0 2.57042 0.168985 2.12206 0.506955 1.76611C0.844925 1.41015 1.26739 1.23218 1.78084 1.23218H11.244C11.7445 1.23218 12.1669 1.40331 12.5049 1.73872C12.8429 2.07756 13.0118 2.51223 13.0118 3.03932C13.0118 3.48768 12.8429 3.88812 12.5049 4.24408C12.1669 4.59318 11.7445 4.76431 11.244 4.76431H3.3797L3.63968 4.39467V10.5554L3.4317 10.1583H9.93112C10.4316 10.1583 10.854 10.3295 11.192 10.6649C11.53 11.0037 11.699 11.4384 11.699 11.9655C11.699 12.4138 11.53 12.8109 11.192 13.1566C10.854 13.5057 10.4316 13.6768 9.93112 13.6768H3.3797L3.63968 13.403V20.8232C3.63968 21.364 3.45769 21.8089 3.09373 22.1649C2.73626 22.5208 2.31704 22.6988 1.83284 22.6988Z" fill="black"/>
<path d="M27.6307 6.29761C28.1311 6.29761 28.5471 6.47558 28.8786 6.83153C29.2068 7.18749 29.3725 7.63243 29.3725 8.15951V15.9494C29.3725 18.1227 28.8006 19.8443 27.6567 21.1107C26.5128 22.3702 24.8619 23 22.7041 23C20.5528 23 18.9117 22.3702 17.7776 21.1107C16.6402 19.8443 16.0747 18.1227 16.0747 15.9494V8.15951C16.0747 7.63243 16.2372 7.18749 16.5687 6.83153C16.8969 6.47558 17.3128 6.29761 17.8166 6.29761C18.317 6.29761 18.733 6.47558 19.0644 6.83153C19.3927 7.18749 19.5584 7.63243 19.5584 8.15951V15.9494C19.5584 17.202 19.8184 18.1262 20.3383 18.7285C20.8648 19.3309 21.6545 19.6321 22.7041 19.6321C23.7765 19.6321 24.576 19.3309 25.0959 18.7285C25.6159 18.1262 25.8758 17.202 25.8758 15.9494V8.15951C25.8758 7.63243 26.0383 7.18749 26.3698 6.83153C26.7078 6.47558 27.127 6.29761 27.6307 6.29761Z" fill="black"/>
<path d="M33.3314 6.59895H40.2338C40.7017 6.59895 41.0852 6.76323 41.3907 7.0918C41.7027 7.42038 41.8586 7.82767 41.8586 8.31025C41.8586 8.786 41.7027 9.18302 41.3907 9.50132C41.0852 9.81278 40.7017 9.9668 40.2338 9.9668H33.3314C32.8634 9.9668 32.4735 9.80936 32.1615 9.48763C31.856 9.15906 31.7065 8.74835 31.7065 8.25549C31.7065 7.78317 31.856 7.38957 32.1615 7.07811C32.4735 6.75981 32.8634 6.59895 33.3314 6.59895ZM36.4511 2.76562C36.9516 2.76562 37.3643 2.9436 37.686 3.29955C38.0045 3.6555 38.167 4.10387 38.167 4.64122V18.2769C38.167 18.5712 38.219 18.8074 38.323 18.9888C38.4334 19.1736 38.5829 19.3037 38.7649 19.3858C38.9469 19.468 39.1451 19.509 39.3629 19.509C39.5968 19.509 39.8081 19.4645 39.9998 19.3721C40.1883 19.2831 40.4158 19.2352 40.6757 19.2352C40.9422 19.2352 41.186 19.3687 41.4037 19.6322C41.6279 19.8992 41.7417 20.2689 41.7417 20.7412C41.7417 21.3093 41.4459 21.7782 40.8577 22.1513C40.2663 22.5175 39.6293 22.6989 38.9469 22.6989C38.5374 22.6989 38.089 22.6647 37.595 22.5894C37.1011 22.5175 36.6331 22.343 36.1911 22.0691C35.7557 21.7953 35.3917 21.3709 35.0992 20.7959C34.8133 20.2209 34.6703 19.4372 34.6703 18.4412V4.64122C34.6703 4.10387 34.8393 3.6555 35.1772 3.29955C35.5152 2.9436 35.9377 2.76562 36.4511 2.76562Z" fill="black"/>
<path d="M56.6246 6.29761C57.125 6.29761 57.541 6.47558 57.8725 6.83153C58.2007 7.18749 58.3664 7.63243 58.3664 8.15951V15.9494C58.3664 18.1227 57.7945 19.8443 56.6506 21.1107C55.5067 22.3702 53.8558 23 51.698 23C49.5467 23 47.9056 22.3702 46.7715 21.1107C45.6341 19.8443 45.0686 18.1227 45.0686 15.9494V8.15951C45.0686 7.63243 45.2311 7.18749 45.5626 6.83153C45.8908 6.47558 46.3067 6.29761 46.8104 6.29761C47.3109 6.29761 47.7269 6.47558 48.0583 6.83153C48.3866 7.18749 48.5523 7.63243 48.5523 8.15951V15.9494C48.5523 17.202 48.8123 18.1262 49.3322 18.7285C49.8587 19.3309 50.6484 19.6321 51.698 19.6321C52.7704 19.6321 53.5698 19.3309 54.0898 18.7285C54.6098 18.1262 54.8697 17.202 54.8697 15.9494V8.15951C54.8697 7.63243 55.0322 7.18749 55.3637 6.83153C55.7017 6.47558 56.1209 6.29761 56.6246 6.29761Z" fill="black"/>
<path d="M63.8986 22.6987C63.3949 22.6987 62.9789 22.5207 62.6507 22.1648C62.3192 21.8088 62.1567 21.3639 62.1567 20.8231V8.15945C62.1567 7.63236 62.3192 7.18743 62.6507 6.83147C62.9789 6.47552 63.3949 6.29755 63.8986 6.29755C64.399 6.29755 64.815 6.47552 65.1465 6.83147C65.4747 7.18743 65.6404 7.63236 65.6404 8.15945V11.0481L65.4454 8.99456C65.6534 8.50171 65.9264 8.07046 66.2644 7.69397C66.6088 7.31064 66.9956 6.99234 67.4213 6.73564C67.8437 6.48237 68.2987 6.29412 68.7862 6.17433C69.2704 6.0477 69.7546 5.98267 70.242 5.98267C70.8302 5.98267 71.3209 6.15722 71.7109 6.5029C72.1074 6.85201 72.3088 7.26272 72.3088 7.73504C72.3088 8.41272 72.1431 8.89873 71.8149 9.19992C71.4834 9.49427 71.1259 9.63801 70.736 9.63801C70.372 9.63801 70.0373 9.56614 69.7351 9.41897C69.4296 9.27522 69.0884 9.19992 68.7082 9.19992C68.3507 9.19992 67.9932 9.28891 67.6293 9.46004C67.2718 9.63459 66.9436 9.9084 66.6413 10.2815C66.3456 10.6477 66.1019 11.1029 65.9134 11.6505C65.7314 12.1913 65.6404 12.8245 65.6404 13.5535V20.8231C65.6404 21.3639 65.4747 21.8088 65.1465 22.1648C64.815 22.5207 64.399 22.6987 63.8986 22.6987Z" fill="black"/>
<path d="M82.1223 22.9999C80.4747 22.9999 79.0448 22.6405 77.8327 21.9183C76.6173 21.1893 75.6878 20.2036 75.0379 18.9612C74.388 17.712 74.063 16.3018 74.063 14.7309C74.063 12.8895 74.414 11.3185 75.1159 10.0213C75.8243 8.7276 76.7537 7.73162 77.8976 7.03683C79.0415 6.3352 80.2537 5.98267 81.5373 5.98267C82.5317 5.98267 83.4677 6.19829 84.3451 6.62612C85.229 7.05737 86.0089 7.64605 86.6849 8.39218C87.3673 9.14174 87.91 10.0077 88.3097 10.9934C88.7062 11.9722 88.9077 13.0127 88.9077 14.1148C88.8882 14.6076 88.7029 15.0115 88.3487 15.3195C88.001 15.6207 87.5948 15.7713 87.1268 15.7713H76.0128L75.1289 12.7047H85.8269L85.177 13.3207V12.4856C85.1413 11.8935 84.943 11.363 84.5791 10.8975C84.2216 10.4252 83.7764 10.0487 83.2402 9.77492C82.7105 9.50111 82.1418 9.36421 81.5373 9.36421C80.9556 9.36421 80.4129 9.44635 79.9125 9.61063C79.4088 9.76807 78.9701 10.0419 78.5996 10.4321C78.2259 10.8257 77.9301 11.3493 77.7157 12.0065C77.5077 12.6568 77.4037 13.4816 77.4037 14.4844C77.4037 15.5899 77.6182 16.5243 78.0536 17.291C78.4956 18.0576 79.0578 18.6429 79.7435 19.0433C80.4357 19.4369 81.1734 19.632 81.9533 19.632C82.6715 19.632 83.2434 19.5739 83.6691 19.4541C84.0916 19.3274 84.4361 19.1768 84.696 19.0023C84.9625 18.8311 85.203 18.684 85.411 18.5642C85.7652 18.3725 86.0934 18.2767 86.3989 18.2767C86.8311 18.2767 87.1853 18.4341 87.4648 18.7422C87.7508 19.0536 87.8938 19.4096 87.8938 19.81C87.8938 20.3679 87.6208 20.871 87.0748 21.316C86.5711 21.7643 85.8594 22.1579 84.943 22.4933C84.0331 22.8288 83.0907 22.9999 82.1223 22.9999Z" fill="black"/>
<path d="M94.3453 22.6988C93.8058 22.6988 93.3216 22.5208 92.8894 22.1649C92.4637 21.8089 92.2524 21.364 92.2524 20.8232V3.10777C92.2524 2.57042 92.4214 2.12206 92.7594 1.76611C93.0974 1.41015 93.5198 1.23218 94.0333 1.23218H102.418C103.422 1.23218 104.367 1.51625 105.251 2.08099C106.135 2.63887 106.85 3.4158 107.396 4.40836C107.942 5.39407 108.215 6.53723 108.215 7.83097C108.215 8.60791 108.062 9.3643 107.76 10.1036C107.455 10.836 107.045 11.4966 106.525 12.0887C106.012 12.6842 105.437 13.1429 104.796 13.4714L104.835 12.7595C105.372 13.071 105.817 13.4372 106.174 13.8548C106.538 14.2758 106.818 14.7275 107.019 15.2101C107.227 15.6859 107.351 16.1958 107.396 16.7435C107.474 17.2568 107.526 17.7086 107.552 18.0988C107.578 18.4924 107.633 18.821 107.721 19.0845C107.815 19.3515 107.988 19.55 108.241 19.6869C108.663 19.9607 108.93 20.3509 109.034 20.8506C109.144 21.3434 109.037 21.7884 108.709 22.1786C108.491 22.4455 108.218 22.6132 107.89 22.6851C107.559 22.757 107.23 22.757 106.902 22.6851C106.571 22.6132 106.298 22.5174 106.083 22.3976C105.752 22.1888 105.424 21.8876 105.095 21.494C104.764 21.0936 104.497 20.5562 104.289 19.8786C104.088 19.2043 103.99 18.3384 103.99 17.2774C103.99 16.9214 103.929 16.5997 103.808 16.3054C103.695 16.0042 103.529 15.7509 103.314 15.5387C103.106 15.3196 102.834 15.1554 102.496 15.0458C102.164 14.9363 101.781 14.8816 101.339 14.8816H95.4502L95.8921 14.1696V20.8232C95.8921 21.364 95.7524 21.8089 95.4762 22.1649C95.2064 22.5208 94.8295 22.6988 94.3453 22.6988ZM95.4892 11.7191H102.275C102.619 11.7191 102.957 11.5514 103.288 11.2125C103.617 10.8771 103.886 10.415 104.094 9.82978C104.309 9.24793 104.419 8.60791 104.419 7.91312C104.419 7.01981 104.189 6.27026 103.73 5.66788C103.279 5.0655 102.795 4.76431 102.275 4.76431H95.5411L95.8921 3.7786V12.4583L95.4892 11.7191Z" fill="black"/>
<path d="M119.297 22.9999C117.649 22.9999 116.219 22.6405 115.007 21.9183C113.792 21.1893 112.862 20.2036 112.212 18.9612C111.563 17.712 111.238 16.3018 111.238 14.7309C111.238 12.8895 111.589 11.3185 112.29 10.0213C112.999 8.7276 113.928 7.73162 115.072 7.03683C116.216 6.3352 117.428 5.98267 118.712 5.98267C119.706 5.98267 120.642 6.19829 121.52 6.62612C122.404 7.05737 123.183 7.64605 123.859 8.39218C124.542 9.14174 125.085 10.0077 125.484 10.9934C125.881 11.9722 126.082 13.0127 126.082 14.1148C126.063 14.6076 125.878 15.0115 125.523 15.3195C125.176 15.6207 124.769 15.7713 124.301 15.7713H113.187L112.303 12.7047H123.002L122.352 13.3207V12.4856C122.316 11.8935 122.118 11.363 121.754 10.8975C121.396 10.4252 120.951 10.0487 120.415 9.77492C119.885 9.50111 119.316 9.36421 118.712 9.36421C118.13 9.36421 117.587 9.44635 117.087 9.61063C116.583 9.76807 116.145 10.0419 115.774 10.4321C115.4 10.8257 115.105 11.3493 114.89 12.0065C114.682 12.6568 114.578 13.4816 114.578 14.4844C114.578 15.5899 114.793 16.5243 115.228 17.291C115.67 18.0576 116.232 18.6429 116.918 19.0433C117.61 19.4369 118.348 19.632 119.128 19.632C119.846 19.632 120.418 19.5739 120.844 19.4541C121.266 19.3274 121.611 19.1768 121.871 19.0023C122.137 18.8311 122.378 18.684 122.586 18.5642C122.94 18.3725 123.268 18.2767 123.573 18.2767C124.006 18.2767 124.36 18.4341 124.639 18.7422C124.925 19.0536 125.068 19.4096 125.068 19.81C125.068 20.3679 124.795 20.871 124.249 21.316C123.746 21.7643 123.034 22.1579 122.118 22.4933C121.208 22.8288 120.265 22.9999 119.297 22.9999Z" fill="black"/>
<path d="M166.356 0C166.856 0 167.272 0.177976 167.604 0.533927C167.932 0.883033 168.098 1.32797 168.098 1.87559V20.8232C168.098 21.3639 167.932 21.8089 167.604 22.1648C167.272 22.5208 166.856 22.6988 166.356 22.6988C165.843 22.6988 165.423 22.5208 165.095 22.1648C164.764 21.8089 164.601 21.3639 164.601 20.8232V19.3309L165.251 19.6047C165.251 19.8717 165.111 20.1934 164.835 20.5767C164.565 20.9532 164.198 21.3229 163.73 21.6857C163.262 22.0519 162.71 22.3633 162.079 22.6166C161.455 22.8699 160.773 22.9999 160.039 22.9999C158.693 22.9999 157.478 22.6406 156.386 21.9184C155.301 21.1894 154.443 20.1866 153.812 18.9065C153.188 17.6299 152.876 16.165 152.876 14.5119C152.876 12.8348 153.188 11.3562 153.812 10.0762C154.443 8.79953 155.294 7.80013 156.36 7.07796C157.432 6.34894 158.622 5.98272 159.922 5.98272C160.754 5.98272 161.514 6.11621 162.209 6.37975C162.911 6.64671 163.516 6.98213 164.029 7.39284C164.549 7.80355 164.946 8.22111 165.225 8.63867C165.511 9.05965 165.654 9.41218 165.654 9.69283L164.601 10.0899V1.87559C164.601 1.34851 164.764 0.903569 165.095 0.547618C165.423 0.184821 165.843 0 166.356 0ZM160.468 19.6321C161.325 19.6321 162.073 19.4096 162.716 18.9613C163.357 18.5061 163.854 17.89 164.211 17.1131C164.575 16.3395 164.757 15.4702 164.757 14.5119C164.757 13.5262 164.575 12.6465 164.211 11.8696C163.854 11.0961 163.357 10.4835 162.716 10.0351C162.073 9.59016 161.325 9.36426 160.468 9.36426C159.636 9.36426 158.898 9.59016 158.258 10.0351C157.614 10.4835 157.114 11.0961 156.75 11.8696C156.392 12.6465 156.217 13.5262 156.217 14.5119C156.217 15.4702 156.392 16.3395 156.75 17.1131C157.114 17.89 157.614 18.5061 158.258 18.9613C158.898 19.4096 159.636 19.6321 160.468 19.6321Z" fill="black"/>
<path d="M170.976 20.1523C170.785 19.8716 170.697 19.5054 170.716 19.057C170.733 18.6018 170.983 18.2082 171.47 17.8797C171.782 17.6812 172.11 17.599 172.458 17.6332C172.812 17.6606 173.154 17.8489 173.485 18.1945C174.047 18.7901 174.635 19.2487 175.253 19.5773C175.877 19.899 176.657 20.0564 177.593 20.0564C177.879 20.0393 178.194 19.9948 178.542 19.9195C178.896 19.8477 179.205 19.6834 179.465 19.4267C179.724 19.1734 179.854 18.7798 179.854 18.2493C179.854 17.8044 179.705 17.4484 179.413 17.1814C179.127 16.9179 178.743 16.6954 178.269 16.5106C177.791 16.319 177.261 16.141 176.683 15.9767C176.085 15.7953 175.467 15.5934 174.837 15.3743C174.203 15.1484 173.622 14.8541 173.095 14.4981C172.575 14.1422 172.149 13.6698 171.821 13.0743C171.49 12.4822 171.327 11.7327 171.327 10.8291C171.327 9.80914 171.594 8.9398 172.133 8.2279C172.679 7.50915 173.384 6.95469 174.252 6.57136C175.116 6.18118 176.026 5.98267 176.982 5.98267C177.58 5.98267 178.207 6.06139 178.867 6.2154C179.523 6.37284 180.153 6.61927 180.751 6.95469C181.356 7.29353 181.863 7.73504 182.272 8.28266C182.487 8.59412 182.613 8.96376 182.649 9.39159C182.691 9.82284 182.509 10.2096 182.103 10.5553C181.808 10.8017 181.466 10.9112 181.076 10.8838C180.693 10.8496 180.378 10.7059 180.127 10.4594C179.789 10.0145 179.341 9.65855 178.789 9.39159C178.243 9.12805 177.609 8.99456 176.891 8.99456C176.595 8.99456 176.28 9.03221 175.942 9.10409C175.604 9.16912 175.308 9.31971 175.058 9.55587C174.804 9.79545 174.681 10.1685 174.681 10.6785C174.681 11.144 174.824 11.5205 175.11 11.8011C175.402 12.0749 175.799 12.3008 176.293 12.4719C176.787 12.6465 177.313 12.8142 177.879 12.9785C178.457 13.1428 179.049 13.3413 179.646 13.5672C180.251 13.7862 180.807 14.084 181.31 14.4571C181.821 14.8233 182.227 15.299 182.532 15.8809C182.844 16.4559 183 17.1951 183 18.0987C183 19.1392 182.708 20.0291 182.129 20.7683C181.548 21.5076 180.82 22.0655 179.945 22.4386C179.068 22.8116 178.178 22.9999 177.268 22.9999C176.124 22.9999 174.98 22.7945 173.836 22.3838C172.692 21.9663 171.737 21.2201 170.976 20.1523Z" fill="black"/>
<mask id="mask0_355_467" style="mask-type:luminance" maskUnits="userSpaceOnUse" x="128" y="1" width="24" height="22">
<path d="M128.35 1.76953H151.436V22.1409H128.35V1.76953Z" fill="white"/>
</mask>
<g mask="url(#mask0_355_467)">
<path d="M139.889 1.76953L131.576 16.9351H148.199L139.889 1.76953ZM128.401 22.4489H133.552L130.978 17.7634L128.401 22.4489ZM139.493 22.4489L136.919 17.7634L134.342 22.4489H139.493ZM145.433 22.4489L142.859 17.7634L140.282 22.4489H145.433ZM146.226 22.4489H151.374L148.8 17.7634L146.226 22.4489Z" fill="black"/>
</g>
</svg>
