<svg xmlns="http://www.w3.org/2000/svg" width="123" height="123" fill="none"><g fill-rule="evenodd" clip-path="url(#a)" clip-rule="evenodd"><path fill="#3D3D3D" d="m50.487 13.39.259.965-6.762 1.812-6.761 1.812.517 1.931.518 1.932-2.898.777-2.898.776.26.966.258.966-1.932.518-1.931.517.258.966.26.966.965-.259.966-.259.259.966.259.966-3.864 1.036-3.864 1.035.518 1.932.518 1.932.965-.26.966-.258.26.966.258.966.966-.259.966-.259.259.966.259.966.965-.259.966-.259.26.966.258.966-4.83 1.294-4.83 1.294.518 1.932.518 1.932.966-.259.966-.259.259.966.258.966 1.932-.517 1.932-.518.259.966.259.966 2.898-.777 2.897-.776.26.966.258.966-6.761 1.812-6.762 1.811.777 2.898.776 2.898-.966.259-.966.259.776 2.897.777 2.898-.966.259-.966.259.777 2.897.776 2.898-.966.26-.966.258.777 2.898.776 2.897-4.83 1.295-4.83 1.294.518 1.931.518 1.932.966-.258.966-.26.259.967.259.966.966-.26.965-.258.26.966.258.966.966-.259.966-.259.259.966.259.966.965-.259.966-.259.26.966.258.966.966-.259.966-.258.259.965.259.967 1.931-.518 1.932-.518.26.966.258.966.966-.259.966-.259.259.966.258.966.966-.259.966-.258.26.966.258.965.966-.258.966-.26.259.967.258.966.966-.26.966-.258.26.966.258.966 1.932-.518 1.932-.517.258.965.26.967.965-.26.966-.258.259.966.259.966 1.932-.518 1.931-.518.26.966.258.966.966-.259.966-.258.259.966.259.965.965-.258.966-.259.26.966.258.966.966-.259.966-.259.259.966.258.966.967-.259.965-.259.26.966.258.966.966-.259.966-.259.259.966.258.966 1.932-.517 1.932-.518.259.966.259.966.966-.259.966-.259.258.966.26.966 3.863-1.035 3.864-1.035-.26-.966-.258-.966 4.83-1.294 4.83-1.294-.26-.966-.258-.966 4.83-1.294 4.829-1.294-.259-.966-.259-.966 7.728-2.07 7.727-2.071-.517-1.932-.518-1.932.966-.259.966-.259-.518-1.932-.518-1.931.966-.26.966-.258-1.035-3.864-1.035-3.864.966-.258.966-.26-.777-2.897-.776-2.898.966-.259.966-.258-1.036-3.864-1.035-3.864-.966.259-.966.259-.259-.966-.258-.966-.966.259-.966.259-.259-.966-.259-.966-.966.259-.966.258-.259-.966-.258-.965-1.932.517-1.932.518-.259-.966-.259-.966-.966.259-.966.259-.776-2.898-.777-2.898 2.898-.776 2.898-.777-.518-1.932-.517-1.932-.966.26-.966.258-.518-1.932-.517-1.932-.966.26-.966.258-.777-2.898-.776-2.898-.966.26-.966.258-1.035-3.864-1.036-3.863-.966.258-.965.26-1.294-4.83-1.295-4.83-.966.259-.966.259-1.294-4.83-1.294-4.83-.966.26-.966.258-1.035-3.864-1.035-3.863L64.717 8.54l-14.489 3.882.259.966zm.518 1.931.258.966-5.795 1.553-5.796 1.553.777 2.898.776 2.897-.966.26-.966.258-.258-.966-.26-.966-2.897.777-2.898.776.518 1.932.518 1.932-.966.259-.966.258.258.966.26.966-2.898.777-2.898.776.258.966.26.966.965-.259.966-.259.259.966.259.966 1.932-.517 1.931-.518.26.966.258.966.966-.259.966-.259.259.966.259.966.966-.259.965-.259.518 1.932.518 1.932-.966.259-.966.259-.259-.966-.259-.966-5.795 1.553-5.796 1.553.259.966.259.965 1.932-.517 1.931-.518.26.966.258.966 2.898-.776 2.898-.777.258.966.26.966 1.931-.518 1.932-.517.259.966.259.966.966-.26.965-.258.26.966.258.966 1.932-.518 1.932-.517.259.965.259.966.965-.258.966-.26.26.967.258.966.966-.26.966-.258-.259-.966-.259-.966-.966.259-.966.259-.258-.966-.26-.966-.965.259-.966.259-.259-.966-.259-.966-.966.258-.966.26-.258-.967-.26-.965-.965.258-.966.26-.259-.967-.259-.966 1.932-.517 1.932-.518.259.966.259.966.965-.259.967-.259.258.966.26.966.965-.259.966-.259-.259-.965-.259-.966-.966.258-.965.26-.26-.967-.258-.966-.966.26-.966.258-.259-.966-.259-.966.966-.259.966-.258-.259-.966-.258-.966.965-.26.966-.258.518 1.932.518 1.932.966-.26.965-.258.777 2.898.776 2.898.966-.26.966-.258.518 1.932.518 1.932.965-.26.966-.258.777 2.898.776 2.898.966-.26.966-.258.777 2.898.776 2.897-.966.26-.966.258.26.966.258.966.966-.259.966-.259.517 1.932.518 1.932.966-.259.966-.258.259.965.258.966.966-.258.966-.26.26.967.258.966 1.932-.518 1.932-.518-.26-.966-.258-.966 8.693-2.329 8.694-2.33.258.967.26.966-6.762 1.811-6.762 1.812.518 1.932.518 1.932 14.489-3.883 14.488-3.882-.258-.966-.259-.966-.966.26-.966.258-.259-.966-.259-.966-2.897.776-2.898.777-.26-.966-.258-.966.966-.259.966-.258-.259-.967-.259-.965-.966.258-.965.26-.777-2.898-.776-2.898-4.83 1.294-4.83 1.294-.258-.966-.26-.966 7.728-2.07 7.727-2.071-.258-.966-.259-.966-.966.259-.966.259-.518-1.932-.517-1.932-.966.259-.966.259-.777-2.898-.776-2.898-.966.259-.966.259-1.035-3.864-1.035-3.864-.966.26-.966.258-1.294-4.83-1.294-4.83-.966.26-.966.258-1.294-4.83-1.294-4.829-.966.259-.966.259-.777-2.898-.776-2.898-13.523 3.624-13.523 3.623.259.966zm-2.311 6.83.259.967 4.83-1.294 4.829-1.294-.259-.966-.259-.966-4.83 1.294-4.829 1.294.259.966zm11.59-3.105.26.966.966-.259.966-.259-.26-.966-.258-.965-.966.258-.966.26.259.965zm-18.54 8.074.517 1.932.966-.259.966-.259.518 1.932.518 1.932.966-.259.965-.259.777 2.898.776 2.898.966-.259.966-.259.518 1.932.517 1.932.966-.259.966-.259.777 2.898.776 2.898.966-.259.966-.259.518 1.932.517 1.932.966-.259.966-.259.777 2.898.776 2.898.966-.259.966-.259 1.294 4.83 1.294 4.83 4.83-1.294 4.83-1.295-.26-.965-.258-.966 5.795-1.553 5.796-1.553-.259-.966-.259-.966-5.795 1.553-5.796 1.553.259.966.259.966-2.898.776-2.898.776-.258-.965-.26-.966-.965.258-.966.26-.777-2.899-.776-2.897-.966.258-.966.26-.776-2.898-.777-2.898-.966.259-.966.258-.517-1.931-.518-1.932-.966.258-.966.26-.776-2.898-.777-2.898-.966.259-.966.258-.517-1.931-.518-1.932-.966.259-.966.258-.776-2.897-.777-2.898-.966.259-.965.259-.518-1.932-.518-1.932-.966.259-.966.258-.517-1.931-.518-1.932-.966.259-.966.258.518 1.932zm-7.469 3.037.26.966 1.93-.518 1.933-.518.517 1.932.518 1.932.966-.259.966-.259.259.966.259.966.965-.259.966-.258.518 1.931.518 1.932.966-.258.966-.26-.518-1.931-.518-1.932-.966.259-.966.259-.258-.966-.26-.966-.965.259-.966.258-.518-1.931-.517-1.932-.966.258-.966.26-.259-.967-.259-.965-1.932.517-1.931.518.258.966zm19.319-5.177.259.966.966-.259.965-.258-.258-.966-.26-.966-.965.259-.966.258.259.966zm3.863-1.035.26.966 3.863-1.035 3.864-1.036-.26-.965-.258-.966-3.864 1.035-3.863 1.035.258.966zm19.458 3.069.258.966.966-.26.966-.258-.258-.966-.26-.966-.965.259-.966.259.259.966zm-14.938 6.073.26.966 1.931-.518 1.932-.518-.259-.966-.259-.966-1.931.518-1.932.518.258.966zm5.796-1.553.259.966 3.864-1.036 3.863-1.035-.258-.966-.26-.966-3.863 1.035-3.864 1.036.26.966zM39.83 43.162l.258.966.966-.259.966-.259-.259-.966-.258-.966-.966.26-.966.258.259.966zm27.046-7.247.258.966 7.728-2.07 7.727-2.071-.259-.966-.258-.966-7.728 2.07-7.727 2.071.258.966zm1.035 3.864.259.966 7.727-2.07 7.727-2.071-.258-.966-.26-.966-7.727 2.07-7.727 2.07.259.967zM26.963 56.962l.259.966-.966.26-.966.258.259.966.259.966.965-.26.966-.258.26.966.258.966-.966.259-.966.259.259.965.259.967-.966.258-.966.26.259.965.259.966.966-.259.965-.259.26.966.258.966-.966.259-.966.259.26.966.258.966-.966.258-.966.26.259.965.259.966.966-.259.966-.258.258.965.26.966-.967.26-.966.258.26.966.258.966-.966.259-.966.258.518 1.932.517 1.932.966-.259.966-.258.26.966.258.965.966-.258.966-.26.259.967.258.966.966-.26.966-.258.26.966.258.966.966-.259.966-.259-.26-.966-.258-.966-.966.26-.966.258-.259-.966-.258-.966-.966.259-.966.259-.26-.966-.258-.966-.966.259-.966.259-.517-1.932-.518-1.932.966-.259.966-.259.259.966.259.966.965-.259.966-.259.26.966.258.966.966-.258.966-.26.259.967.258.966.966-.26.966-.258.26.966.258.966.966-.26.966-.258.259.966.258.966-.965.259-.966.259.258.966.26.965.965-.258.966-.26.259.967.259.966.966-.26.966-.258.258.966.26.966.965-.259.966-.259-.259-.966-.259-.966.966-.258.966-.26.26.967.258.966.966-.26.966-.258.259.966.258.966.966-.259.966-.259.26.966.258.966.966-.259.966-.259.258.966.26.966.965-.259.966-.258.259.966.259.965.966-.258.966-.26.258.967.26.966.965-.26.966-.258.259.966.259.966.966-.259.966-.259.258.966.26.966.965-.259.966-.259.259.966.259.966.966-.258.966-.26.258.967.26.965 1.931-.517 1.932-.518.259.966.259.966 1.931-.518 1.932-.517-.258-.966-.26-.966-1.931.518-1.932.517-.518-1.932-.517-1.931.966-.26.966-.258-.26-.966-.258-.966.966-.259.966-.259-.259-.966-.259-.965-.966.258-.966.26-.258-.967-.26-.966.967-.258.965-.26-.258-.965-.26-.966 1.933-.518 1.932-.517.776 2.897.776 2.898-.965.259-.966.259 1.035 3.863 1.035 3.864 16.42-4.4 16.422-4.4-.259-.966-.259-.966.966-.258.966-.26-.777-2.897-.776-2.898.966-.259.966-.258-.777-2.898-.776-2.898.966-.259.966-.259-.777-2.897-.776-2.898.966-.259.966-.259-.777-2.897-.776-2.898-17.387 4.658-17.386 4.66 1.035 3.863 1.035 3.864-.966.258-.966.26.518 1.931.517 1.932-.966.259-.965.259-.518-1.932-.518-1.932-.966.259-.965.258-.26-.965-.258-.966.966-.26.966-.258-.26-.966-.258-.966.966-.259.966-.258-.259-.966-.259-.966-.966.258-.966.26-.258-.967-.26-.966.967-.258.966-.26-.26-.965-.258-.966-.966.259-.966.259-.259-.966-.258-.966-.966.259-.966.258.258.966.26.966-.967.259-.966.259-.258-.966-.26-.966-.965.259-.966.259-.259-.966-.259-.966-.966.259-.966.258-.258-.966-.26-.965-.965.258-.966.26-.259-.967-.259-.966-.966.26-.966.258-.258-.966-.26-.966-.965.259-.966.259.259.966.259.966-.966.258-.966.26-.26-.967-.258-.966-.966.26-.966.258-.259-.966-.258-.966-.966.259-.966.259-.259-.966-.259-.966-.966.259-.966.259-.258-.966-.26-.966-.965.259-.966.258-.259-.965-.259-.966-.966.258-.966.26-.258-.967-.26-.966-.965.26-.966.258-.259-.966-.259-.966-.966.259-.966.259.26.966.258.966-.966.258-.966.26-.259-.967-.259-.966-.965.26-.966.258-.26-.966-.258-.966-.966.259-.966.259-.259-.966-.259-.966-.965.259-.966.259-.26-.966-.258-.966-.966.259-.966.258.259.966zm.518 1.932.258.966.966-.259.966-.258.26.965.258.966-.966.26-.966.258.259.966.259.966-.966.259-.966.259.259.965.258.966.966-.258.966-.26.26.967.258.966-.966.258-.966.26.259.965.259.966-.966.259-.966.259.259.966.259.966.966-.26.965-.258.26.966.258.966-.966.258-.966.26.259.965.259.966.966-.259.966-.258.258.966.26.965.965-.258.966-.26.259.967.259.966.966-.26.966-.258.258.966.26.966.965-.259.966-.259.259.966.259.966.966-.259.966-.259.258.966.26.966-.967.26-.966.258.26.966.258.966.966-.259.966-.259.259.966.259.966.966-.259.965-.259-.258-.966-.26-.966.967-.258.966-.26.258.967.26.966.965-.26.966-.258.259.966.259.966.966-.259.966-.259.258.966.26.966.965-.259.966-.258.259.965.259.966.966-.258.966-.26.258.967.26.966.965-.26.966-.258.259.966.259.966.966-.259.966-.259.258.966.26.966.965-.259.966-.259.259.966.259.966.966-.259.965-.258.26.965.258.966.966-.258.966-.26.259.967.259.966.966-.26.966-.258-.26-.966-.258-.966.966-.259.966-.259-.26-.965-.258-.966.966-.26.966-.258-.259-.966-.259-.966-.966.259-.966.259-.258-.966-.26-.966.967-.259.966-.259-.26-.966-.258-.965.966-.26.966-.258-.259-.966-.259-.966.966-.259.966-.259-.259-.966-.258-.965-.967.258-.965.26-.26-.967-.258-.966.966-.259.966-.258-.259-.966-.259-.966.966-.259.966-.259-.259-.966-.259-.966-.966.26-.965.258-.26-.966-.258-.966.966-.259.966-.259-.26-.965-.258-.966-.966.258-.966.26.26.965.258.966-.966.259-.966.259-.259-.966-.259-.966-.966.259-.965.259-.26-.966-.258-.966-.966.258-.966.26-.259-.967-.259-.966-.966.26-.965.258-.26-.966-.258-.966-.966.259-.966.259-.259-.966-.259-.966-.965.259-.966.259.258.966.26.965-.967.26-.966.258-.258-.966-.26-.966-.965.26-.966.258-.259-.966-.259-.966-.966.259-.966.259-.258-.966-.26-.966-.965.259-.966.258-.259-.965-.259-.966-.966.258-.966.26-.258-.967-.26-.966-.965.26-.966.258-.259-.966-.259-.966-.966.259-.965.259-.26-.966-.258-.966-.966.259-.966.259.259.966.259.966-.966.258-.966.26-.26-.967-.258-.966-.966.26-.966.258-.259-.966-.258-.966-.966.259-.966.259-.26-.966-.258-.966-.966.259-.966.258-.258-.965-.26-.966-.965.258-.966.26.259.965zm2.967 3.346.259.966-.966.259-.966.259.259.966.258.966.966-.26.966-.258.259.966.259.966-.966.259-.966.259.259.966.259.965-.966.26-.966.258.259.966.258.966.966-.259.966-.259.26.966.258.966-.966.259-.966.259.259.966.259.966.966-.26.966-.258.258.966.26.966.965-.259.966-.259.259.966.259.966.966-.259.965-.259.26.966.258.966.966-.259.966-.258.259.965.259.966.966-.258.965-.26.26.967.258.966-.966.258-.966.26.26.965.258.966.966-.259.966-.258-.26-.966-.258-.966.966-.26.966-.258.259.966.259.966.965-.259.967-.259.258.966.26.966.965-.259.966-.259.259.966.259.966.965-.258.966-.26.26.967.258.966.966-.26.966-.258.259.966.259.966.965-.26.966-.258.26.966.258.966.966-.259.966-.259.259.966.259.966.965-.259.966-.258.26.965.258.966.966-.258.966-.26.259.967.259.966.965-.26.966-.258.26.966.258.966.966-.259.966-.259-.259-.966-.259-.966.966-.258.966-.26-.259-.965-.259-.966-.966.259-.965.258-.26-.966-.258-.965.966-.26.966-.258-.259-.966-.259-.966.966-.259.966-.258-.259-.967-.259-.965.966-.26.966-.258-.259-.966-.258-.966-.966.259-.966.259-.26-.966-.258-.966.966-.259.966-.259-.259-.966-.259-.966.966-.258.966-.26-.259-.965-.258-.966-.966.259-.966.259-.26-.966-.258-.966-.966.258-.966.26-.259-.967-.258-.965-.966.258-.966.26-.26-.967-.258-.966-.966.26-.966.258-.259-.966-.258-.966-.966.259-.966.259-.26-.966-.258-.966-.966.259-.966.258.26.966.258.966-.966.26-.966.258-.259-.966-.259-.966-.965.259-.967.259-.258-.966-.26-.966-.965.259-.966.259-.259-.966-.259-.966-.965.259-.966.258-.26-.966-.258-.965-.966.258-.966.26-.259-.967-.259-.966-.965.26-.966.258-.26-.966-.258-.966-.966.259-.966.259-.259-.966-.259-.966-.966.259-.965.259.258.965.26.966-.967.26-.966.258-.258-.966-.26-.966-.965.259-.966.259-.259-.966-.259-.966-.966.259-.966.259-.258-.966-.26-.966-.965.259-.966.258.259.966zm25.114-6.729.259.966.966-.259.965-.259-.258-.966-.26-.966-.965.26-.966.258.259.966zm28.978-7.765.258.966 1.932-.517 1.932-.518-.259-.966-.259-.966-1.931.518-1.932.518.259.965zm5.795-1.553.259.966 1.932-.517 1.932-.518-.26-.966-.258-.966-1.932.518-1.932.518.26.965zm-59.37 17.98.26.965.965-.259.966-.259.259.966.259.966-.966.26-.966.258.259.966.259.966-.966.259-.966.258.258.966.26.966.965-.259.966-.258.259.966.259.965-.966.26-.966.258.259.966.259.966.965-.259.966-.259.26.966.258.966.966-.259.966-.258.259.965.258.966.966-.258.966-.26.26.967.258.966.966-.26.966-.258.259.966.258.966.966-.259.966-.259.26.966.258.966.966-.259.966-.259.259.966.258.966.966-.259.966-.258.26.966.258.965.966-.258.966-.26.259.967.258.966.966-.26.966-.258.26.966.258.966.966-.259.966-.259.259.966.258.966.966-.259.966-.259.26.966.258.966.966-.258.966-.26.259.967.258.966.966-.26.966-.258.26.966.258.966.966-.26.966-.258.259.966.258.966.966-.259.966-.259-.259-.966-.258-.966-.966.26-.966.258-.26-.966-.258-.966.966-.259.966-.258-.259-.966-.259-.966.966-.26.966-.258-.259-.966-.258-.966.966-.259.965-.258-.258-.966-.26-.966-.965.259-.966.258-.259-.965-.259-.966.966-.26.966-.258-.259-.966-.258-.966.965-.259.966-.259-.258-.965-.26-.966-.965.258-.966.26-.259-.967-.259-.966-.966.26-.966.258-.258-.966-.26-.966-.965.259-.966.259-.259-.966-.259-.966-.966.259-.966.259-.258-.966-.26-.966-.965.258-.966.26.259.965.258.966-.965.259-.966.259-.26-.966-.258-.966-.966.259-.966.259-.259-.966-.258-.966-.966.259-.966.258-.26-.965-.258-.966-.966.258-.966.26-.259-.967-.258-.966-.966.26-.966.258-.26-.966-.258-.966-.966.259-.966.259-.259-.966-.258-.966-.966.259-.966.259-.26-.966-.258-.966-.966.258-.966.26.26.965.258.966-.966.259-.966.259-.259-.966-.259-.966-.965.259-.967.259-.258-.966-.26-.966-.965.259-.966.258-.259-.966-.259-.965-.965.258-.966.26.258.965zm27.564-5.316.259.966.966-.259.966-.259-.26-.966-.258-.965-.966.258-.966.26.259.965zm-24.597 8.661.26.966-.967.259-.965.259.258.966.26.966.965-.26.966-.258.259.966.259.966-.966.259-.966.258.259.966.258.966.966-.258.966-.26.26.967.258.966.966-.26.966-.258.258.966.26.966.965-.26.966-.258.259.966.259.966.966-.259.966-.259.258.966.26.966.965-.259.966-.258.259.965.259.966.966-.258.966-.26.259.967.258.966.966-.26.966-.258.259.966.259.966.966-.259.966-.259.259.966.258.966.966-.259.966-.259.259.966.259.966.966-.259.966-.258.258.966.26.965.965-.258.966-.26.259.967.259.966.966-.26.966-.258.258.966.26.966.965-.259.966-.259-.259-.966-.258-.966.965-.258.966-.26-.259-.965-.258-.966.966-.259.965-.259-.258-.966-.26-.966-.965.26-.966.258-.259-.966-.259-.966.966-.259.966-.258-.259-.966-.258-.966.965-.26.966-.258-.258-.966-.26-.966-.965.259-.966.259-.259-.966-.259-.966-.966.259-.966.259-.258-.966-.26-.966-.965.259-.966.258-.259-.966-.259-.965-.966.258-.965.26.258.965.26.966-.967.259-.966.259-.259-.966-.258-.966-.966.259-.966.258-.259-.965-.259-.966-.966.258-.966.26-.259-.967-.258-.966-.966.26-.966.258-.259-.966-.259-.966-.966.259-.966.259-.258-.966-.26-.966-.965.259-.966.259-.259-.966-.259-.966-.966.259-.966.258-.258-.966-.26-.965-.965.258-.966.26.259.965.258.966-.965.259-.966.259-.26-.966-.258-.966-.966.259-.966.258-.259-.965-.258-.966-.966.258-.966.26.258.965zm.518 1.932.259.966.966-.259.966-.259.259.966.258.966-.965.259-.966.259.258.966.26.966.965-.26.966-.258.259.966.259.966.966-.259.966-.259.258.966.26.966.965-.259.966-.258.259.965.259.966.966-.259.966-.258.258.966.26.965.965-.258.966-.26.259.967.259.966.966-.26.965-.258.26.966.258.966.966-.259.966-.259.259.966.259.966.966-.259.965-.258.26.965.258.966.966-.258.966-.26.259.967.259.966.966-.26.965-.258.26.966.258.966.966-.259.966-.259.259.966.259.966.965-.259.967-.259-.26-.966-.258-.966.966-.258.966-.26-.26-.965-.258-.966-.966.259-.966.259-.259-.966-.258-.966.966-.259.965-.259-.258-.966-.26-.966.967-.258.966-.26-.26-.965-.258-.966-.966.259-.966.258-.259-.965-.258-.966-.966.258-.966.26-.26-.967-.258-.966-.966.26-.966.258.259.966.259.966-.966.259-.966.258-.259-.965-.259-.966-.966.258-.965.26-.26-.967-.258-.966-.966.26-.966.258-.259-.966-.259-.966-.966.26-.965.258-.26-.966-.258-.966-.966.259-.966.259-.259-.966-.259-.966-.966.259-.965.258-.26-.966-.258-.965-.966.258-.966.26-.259-.967-.259-.966-.966.26-.965.258.258.966.26.966-.967.259-.966.258-.259-.965-.258-.966-.966.258-.966.26-.259-.967-.259-.966-.966.26-.966.258.26.966zm2.967 3.346.26.966.965-.259.966-.259.259.966.259.966.966-.259.965-.258.26.965.258.967.966-.26.966-.258.259.966.259.966.965-.26.966-.258.26.966.258.966.966-.259.966-.259.259.966.258.966.966-.259.966-.258.26.965.258.966.966-.258.966-.26.259.967.258.966.966-.26.966-.258.26.966.258.966.966-.26.966-.258.259.966.258.966.966-.259.966-.259.26.966.258.966.966-.259.966-.258-.259-.966-.259-.966-.966.258-.966.26-.258-.967-.26-.966.967-.258.966-.26-.26-.965-.258-.966.966-.259.966-.259-.259-.966-.259-.966-.966.26-.966.258-.258-.966-.26-.966-.965.26-.966.258.259.966.258.966-.965.259-.966.258-.26-.966-.258-.965-.966.258-.966.26-.259-.967-.258-.966-.966.26-.966.258-.26-.966-.258-.966-.966.259-.966.259-.259-.966-.258-.966-.966.259-.966.258-.26-.965-.258-.966-.966.259-.966.258-.259-.966-.258-.965-.966.258-.966.26-.26-.967-.258-.966-.966.26-.966.258.259.966.259.966-.966.259-.966.258-.259-.966-.259-.966-.966.26-.966.258.26.966zm4.382.897.258.966.966-.26.966-.258.26.966.258.966.966-.259.966-.259.259.966.258.966.966-.259.966-.259.26.966.258.966.966-.259.966-.258.259.966.258.966.966-.26.966-.258.26.966.258.966.966-.26.966-.258.258.966.26.966.965-.259.966-.259.259.966.259.966.966-.259.966-.259-.26-.966-.258-.965.966-.26.966-.258-.259-.966-.259-.966-.966.259-.966.259.26.966.258.966-.966.258-.966.26-.259-.967-.258-.966-.966.26-.966.258-.26-.966-.258-.966-.966.259-.966.259-.259-.966-.258-.966-.966.259-.966.259-.26-.966-.258-.966-.966.259-.966.258-.259-.965-.258-.967-.966.26-.966.258-.26-.966-.258-.966-.966.26-.966.258-.258-.966-.26-.966-.965.259-.966.259.259.966zm48.296-12.941.259.966 3.863-1.036 3.864-1.035-.259-.966-.258-.966L93.7 58.75l-3.864 1.036.259.966zm-4.742 20.94.518 1.932.966-.258.966-.26.258.967.26.966.965-.26.966-.258.259.966.259.966.966-.259.966-.259.258.966.26.966 6.76-1.812 6.762-1.812-.259-.965-.258-.966 1.931-.518 1.932-.518-1.035-3.863-1.035-3.864-1.932.518-1.932.517.518 1.932.517 1.932-7.727 2.07-7.728 2.071-.517-1.932-.518-1.932-1.932.518-1.931.518.517 1.931zm9.022 2.76.258.966 5.796-1.553 5.796-1.553-.259-.966-.259-.966-5.796 1.553-5.795 1.553.259.966z"/><path fill="#fff" d="m51.005 15.321.258.966-5.795 1.553-5.796 1.553.777 2.898.776 2.897-.966.26-.966.258-.259-.966-.258-.966-2.898.777-2.898.776.518 1.932.517 1.932-.966.259-.965.259.258.965.26.966-2.899.777-2.898.776.26.966.258.966.966-.259.966-.259.259.966.259.966 1.931-.517 1.932-.518.26.966.258.966.966-.259.966-.259.259.966.258.966.966-.259.966-.259.518 1.932.518 1.932-.966.259-.966.259-.259-.966-.259-.966-5.795 1.553-5.796 1.553.259.966.259.966 1.932-.518 1.931-.518.26.966.258.966 2.898-.776 2.898-.777.258.966.26.966 1.931-.517 1.932-.518.259.966.258.966.967-.26.965-.258.26.966.258.966 1.932-.518 1.932-.517.259.966.258.965.966-.258.966-.26.26.967.258.966.966-.26.966-.258-.26-.966-.258-.966-.966.259-.966.259-.259-.966-.258-.966-.966.259-.966.259-.26-.966-.258-.966-.966.259-.966.258-.259-.966-.258-.965-.966.258-.966.26-.26-.967-.258-.966 1.932-.517 1.932-.518.259.966.258.966.966-.259.966-.259.26.966.258.966.966-.259.966-.258-.259-.966-.259-.966-.966.258-.966.26-.258-.967-.26-.966-.965.26-.966.258-.259-.966-.259-.966.966-.259.966-.258-.259-.966-.259-.966.966-.26.966-.258.518 1.932.518 1.932.966-.259.965-.259.777 2.898.776 2.898.966-.26.966-.258.518 1.932.517 1.932.966-.259.966-.259.777 2.898.776 2.898.966-.26.966-.258.776 2.898.777 2.898-.966.258-.966.26.259.965.259.966.966-.259.966-.258.517 1.931.518 1.932.966-.259.966-.258.258.965.26.966.965-.258.966-.26.259.967.259.966 1.932-.518 1.932-.518-.26-.966-.258-.966 8.693-2.329 8.694-2.33.258.967.26.966-6.762 1.811-6.762 1.812.518 1.932.517 1.932 14.49-3.883 14.488-3.882-.259-.966-.258-.966-.966.26-.966.258-.259-.966-.259-.966-2.898.777-2.897.776-.26-.966-.258-.966.966-.259.966-.258-.259-.966-.259-.966-.966.258-.966.26-.776-2.898-.777-2.898-4.83 1.294-4.829 1.294-.259-.966-.258-.966 7.727-2.07 7.727-2.071-.258-.966-.259-.966-.966.259-.966.259-.518-1.932-.517-1.932-.966.259-.966.259-.777-2.898-.776-2.898-.966.259-.966.259-1.035-3.864-1.036-3.864-.966.26-.965.258-1.294-4.83-1.295-4.83-.966.26-.965.258-1.295-4.83-1.294-4.829-.966.259-.966.259-.776-2.898-.776-2.898-13.523 3.624-13.523 3.623.258.966zm-2.311 6.83.258.967 4.83-1.294 4.83-1.294-.26-.966-.258-.966-4.83 1.294-4.83 1.294.26.966zm11.59-3.105.26.966.966-.259.965-.259-.258-.965-.26-.966-.965.258-.966.26.259.965zm-18.54 8.074.517 1.932.966-.259.966-.258.518 1.931.517 1.932.966-.259.966-.258.777 2.897.776 2.898.966-.259.966-.259.518 1.932.517 1.932.966-.259.966-.258.777 2.897.776 2.898.966-.259.966-.258.518 1.931.517 1.932.966-.259.966-.258.777 2.897.776 2.898.966-.259.966-.259 1.294 4.83 1.294 4.83 4.83-1.294 4.83-1.294-.26-.966-.258-.966 5.795-1.553 5.796-1.553-.259-.966-.259-.966-5.795 1.553-5.796 1.553.259.966.259.966-2.898.776-2.898.777-.259-.966-.258-.966-.966.258-.966.26-.777-2.898-.776-2.898-.966.259-.966.258-.777-2.897-.776-2.898-.966.259-.966.259-.518-1.932-.517-1.932-.966.259-.966.258-.776-2.897-.777-2.898-.966.259-.966.258-.517-1.931-.518-1.932-.966.259-.966.258-.776-2.897-.777-2.898-.966.259-.966.259-.517-1.932-.518-1.932-.966.259-.966.259-.517-1.932-.518-1.932-.966.259-.966.258.518 1.932zm-7.469 3.037.259.966 1.932-.518 1.932-.518.517 1.932.518 1.932.966-.259.966-.258.259.965.258.966.966-.259.966-.258.518 1.931.518 1.932.966-.258.965-.26-.517-1.931-.518-1.932-.966.259-.966.259-.259-.966-.258-.966-.966.259-.966.259-.518-1.932-.517-1.932-.966.259-.966.258-.26-.965-.258-.966-1.932.517-1.932.518.26.966zm19.319-5.177.258.966.966-.259.966-.258-.258-.966-.26-.966-.965.259-.966.258.259.966zm3.863-1.035.26.966 3.863-1.035 3.864-1.036-.26-.965-.258-.966-3.864 1.035-3.864 1.035.26.966zm19.458 3.069.258.966.966-.26.966-.258-.259-.966-.258-.966-.966.259-.966.259.259.966zm-14.938 6.073.26.966 1.931-.518 1.932-.518-.259-.966-.259-.966-1.932.518-1.931.518.258.966zm5.796-1.553.259.966 3.863-1.036 3.864-1.035-.259-.966-.258-.966-3.864 1.036-3.864 1.035.259.966zM39.829 43.162l.26.966.965-.259.966-.259-.259-.966-.259-.965-.965.258-.966.26.259.965zm27.046-7.247.26.966 7.727-2.07 7.727-2.071-.259-.966-.259-.966-7.727 2.07-7.727 2.071.258.966zm1.036 3.864.258.966 7.728-2.07 7.727-2.071-.258-.966-.26-.966-7.727 2.07-7.727 2.07.259.967zM26.963 56.962l.259.966-.966.26-.966.258.259.966.258.966.966-.259.966-.259.26.966.258.966-.966.259-.966.259.259.966.259.966-.966.258-.966.26.259.965.258.966.966-.259.966-.259.26.966.258.966-.966.26-.966.258.259.966.259.966-.966.259-.966.258.259.966.259.966.965-.259.966-.258.26.966.258.965-.966.26-.966.258.259.966.259.966-.966.259-.966.259.518 1.931.517 1.932.966-.258.966-.26.259.967.259.966.966-.26.966-.258.258.966.26.966.965-.26.966-.258.259.966.259.966.966-.259.966-.259-.26-.966-.258-.966-.966.26-.966.258-.259-.966-.259-.966-.966.259-.965.259-.26-.966-.258-.966-.966.259-.966.259-.518-1.932-.517-1.932.966-.259.966-.259.259.966.258.966.966-.259.966-.258.259.965.259.966.966-.258.966-.26.259.967.258.966.966-.26.966-.258.259.966.259.966.966-.259.966-.259.259.966.258.966-.966.259-.966.259.26.966.258.965.966-.258.966-.26.259.967.259.966.965-.26.966-.258.26.966.258.966.966-.259.966-.259-.259-.966-.259-.966.966-.258.966-.26.259.967.259.966.966-.26.966-.258.258.966.26.966.965-.259.966-.259.259.966.259.966.966-.259.966-.259.258.966.26.966.965-.259.966-.258.259.966.259.965.966-.258.966-.26.258.967.26.966.965-.26.966-.258.259.966.259.966.966-.259.965-.259.26.966.258.966.966-.259.966-.258.259.965.259.966.966-.258.966-.26.258.967.26.966 1.931-.518 1.932-.518.259.966.258.966 1.932-.517 1.932-.518-.259-.966-.258-.966-1.932.518-1.932.517-.518-1.932-.517-1.931.965-.26.966-.258-.258-.966-.26-.966.967-.259.966-.259-.26-.966-.258-.965-.966.258-.966.26-.259-.967-.258-.966.966-.258.965-.26-.258-.965-.26-.966 1.933-.518 1.931-.517.777 2.897.776 2.898-.966.259-.966.259 1.036 3.864 1.035 3.863 16.42-4.4 16.422-4.4-.259-.966-.259-.965.966-.26.966-.258-.777-2.898-.776-2.898.966-.258.966-.26-.777-2.897-.776-2.898.966-.259.966-.258-.777-2.898-.776-2.898.966-.259.966-.259-.777-2.897-.776-2.898-17.387 4.658-17.387 4.66 1.036 3.863 1.035 3.864-.966.259-.966.258.518 1.932.517 1.932-.966.259-.966.259-.517-1.932-.518-1.932-.966.259-.966.259-.258-.966-.26-.966.967-.26.966-.258-.26-.966-.258-.966.966-.259.966-.258-.26-.966-.258-.966-.966.259-.966.258-.259-.966-.258-.966.966-.258.965-.26-.258-.965-.26-.966-.965.259-.966.259-.259-.966-.259-.966-.966.259-.966.258.26.966.258.966-.966.26-.966.258-.258-.966-.26-.966-.965.259-.966.259-.259-.966-.259-.966-.966.259-.966.258-.259-.965-.258-.966-.966.258-.966.26-.259-.967-.259-.966-.966.26-.966.258-.259-.966-.258-.966-.966.26-.966.258.259.966.259.966-.966.259-.966.258-.26-.966-.258-.966-.966.26-.966.258-.259-.966-.258-.966-.966.26-.966.258-.26-.966-.258-.966-.966.259-.966.259-.259-.966-.258-.966-.966.259-.966.258-.26-.965-.258-.966-.966.258-.966.26-.259-.967-.258-.966-.966.26-.966.258-.26-.966-.258-.966-.966.26-.966.258.259.966.259.966-.966.258-.966.26-.259-.967-.259-.965-.966.258-.965.26-.26-.967-.258-.966-.966.26-.966.258-.259-.966-.259-.966-.966.259-.965.259-.26-.966-.258-.966-.966.259-.966.258.259.966zm.517 1.932.26.966.965-.259.966-.258.259.965.259.966-.966.26-.966.258.259.966.259.966-.966.259-.966.259.259.965.258.966.966-.258.966-.26.259.967.259.966-.966.258-.966.26.259.965.259.966-.966.259-.966.259.259.966.258.966.966-.26.966-.258.26.966.258.966-.966.259-.966.258.259.966.259.966.966-.258.965-.26.26.967.258.965.966-.258.966-.26.259.967.259.966.966-.26.965-.258.26.966.258.966.966-.259.966-.259.259.966.259.966.966-.259.965-.258.26.965.258.966-.966.26-.966.258.26.966.258.966.966-.259.966-.259.259.966.258.966.966-.259.966-.259-.259-.965-.258-.966.966-.26.965-.258.26.966.258.966.966-.259.966-.259.259.966.259.966.965-.259.966-.259.26.966.258.966.966-.259.966-.258.259.965.259.966.965-.258.966-.26.26.967.258.966.966-.26.966-.258.259.966.259.966.965-.259.966-.259.26.966.258.966.966-.259.966-.259.259.966.258.966.967-.258.965-.26.26.967.258.966.966-.26.966-.258.259.966.258.966.966-.26.966-.258-.258-.966-.26-.966.967-.259.966-.258-.26-.966-.258-.966.966-.26.966-.258-.259-.966-.259-.966-.966.26-.966.258-.259-.966-.258-.966.966-.259.965-.259-.258-.966-.26-.965.967-.26.966-.258-.26-.966-.258-.966.966-.259.966-.259-.259-.966-.259-.965-.966.258-.966.26-.258-.967-.26-.966.967-.258.966-.26-.26-.965-.258-.966.966-.259.966-.259-.259-.966-.259-.966-.966.26-.966.258-.258-.966-.26-.966.967-.259.966-.258-.26-.966-.258-.966-.966.258-.966.26.259.965.259.966-.966.259-.966.259-.259-.966-.259-.966-.966.259-.966.259-.258-.966-.26-.966-.965.259-.966.258-.259-.966-.259-.965-.966.258-.966.26-.258-.967-.26-.966-.965.26-.966.258-.259-.966-.259-.966-.966.259-.965.259.258.966.26.966-.967.258-.966.26-.259-.967-.258-.966-.966.26-.966.258-.26-.966-.258-.966-.966.259-.966.259-.258-.966-.26-.966-.965.259-.966.259-.259-.966-.259-.966-.966.258-.966.26-.258-.967-.26-.966-.965.26-.966.258-.259-.966-.259-.966-.966.26-.966.258-.259-.966-.258-.966-.966.259-.966.259.259.966.259.966-.966.258-.966.26-.26-.967-.258-.966-.966.26-.966.258-.259-.966-.258-.966-.966.259-.966.259-.26-.966-.258-.966-.966.259-.966.259-.259-.966-.258-.966-.966.258-.966.26.258.965zm2.968 3.346.258.966-.965.26-.966.258.258.966.26.966.965-.259.966-.259.259.966.259.966-.966.259-.966.259.259.966.259.965-.966.26-.966.258.258.966.26.966.965-.259.966-.259.259.966.259.966-.966.259-.966.259.259.966.258.966.966-.26.966-.258.26.966.258.966.966-.259.966-.259.259.966.258.966.966-.259.966-.258.26.965.258.966.966-.258.966-.26.259.967.258.966.966-.26.966-.258.26.966.258.966-.966.259-.966.258.259.966.259.966.966-.259.966-.258-.26-.966-.258-.966.966-.26.966-.258.259.966.258.966.966-.259.966-.259.26.966.258.966.966-.259.966-.258.259.965.258.966.966-.258.966-.26.26.967.258.966.966-.26.966-.258.259.966.258.966.966-.259.966-.259.26.966.258.966.966-.259.966-.259.259.966.258.966.966-.259.966-.258.26.965.258.966.966-.258.966-.26.259.967.258.966.966-.26.966-.258.26.966.258.966.966-.259.966-.259-.26-.966-.258-.966.966-.258.966-.26-.259-.965-.259-.966-.966.259-.965.258-.26-.965-.258-.966.966-.26.966-.258-.26-.966-.258-.966.966-.259.966-.258-.259-.966-.259-.966.966-.26.966-.258-.259-.966-.258-.966-.966.259-.966.259-.26-.966-.258-.966.966-.259.966-.259-.259-.966-.259-.966.966-.258.966-.26-.259-.965-.259-.966-.966.259-.965.259-.26-.966-.258-.966-.966.259-.966.258-.259-.966-.259-.965-.966.258-.965.26-.26-.967-.258-.966-.966.26-.966.258-.259-.966-.259-.966-.965.259-.966.259-.26-.966-.258-.966-.966.259-.966.259.259.966.259.965-.966.26-.966.258-.259-.966-.259-.966-.966.259-.966.259-.258-.966-.26-.966-.965.259-.966.259-.259-.966-.259-.966-.966.259-.966.258-.258-.966-.26-.965-.965.258-.966.26-.259-.967-.259-.966-.966.26-.966.258-.258-.966-.26-.966-.965.259-.966.259-.259-.966-.259-.966-.966.259-.965.259.258.966.26.965-.967.26-.966.258-.259-.966-.258-.966-.966.259-.966.259-.26-.966-.258-.966-.966.259-.966.259-.259-.966-.258-.966-.966.259-.966.258.259.966zm25.114-6.729.259.966.965-.259.966-.259-.259-.966-.258-.965-.966.258-.966.26.259.965zm28.977-7.765.26.966 1.931-.517 1.932-.518-.259-.966-.259-.966-1.931.518-1.932.518.258.965zm5.796-1.552.259.965 1.932-.517 1.931-.518-.258-.966-.26-.966-1.931.518-1.932.518.259.966zm-59.37 17.978.26.966.965-.259.966-.258.259.965.258.966-.965.26-.966.258.259.966.258.966-.966.259-.965.258.258.966.26.966.965-.258.966-.26.259.967.259.965-.966.26-.966.258.259.966.258.966.966-.259.966-.259.26.966.258.966.966-.259.966-.258.259.965.258.966.966-.258.966-.26.259.967.259.966.966-.26.966-.258.258.966.26.966.965-.259.966-.259.259.966.259.966.966-.259.966-.258.258.965.26.966.965-.258.966-.26.259.967.259.966.966-.26.966-.258.258.966.26.966.965-.26.966-.258.259.966.259.966.966-.259.966-.259.259.966.258.966.966-.259.966-.258.259.966.259.965.966-.258.966-.26.259.967.258.966.966-.26.966-.258.259.966.259.966.966-.259.966-.259.258.966.26.966.965-.259.966-.259-.259-.966-.258-.965-.966.258-.966.26-.26-.967-.258-.966.966-.258.966-.26-.259-.965-.259-.966.966-.259.966-.259-.259-.966-.259-.966.966-.258.966-.26-.259-.965-.258-.966-.966.259-.966.258-.26-.965-.258-.966.966-.26.966-.258-.259-.966-.259-.966.966-.259.966-.258-.259-.966-.258-.966-.966.258-.966.26-.26-.967-.258-.966-.966.26-.966.258-.259-.966-.258-.966-.966.259-.966.259-.26-.966-.258-.966-.966.259-.966.259-.259-.966-.258-.966-.966.259-.966.258.259.966.258.966-.965.26-.967.258-.258-.966-.26-.966-.965.259-.966.259-.259-.966-.259-.966-.966.259-.965.258-.26-.965-.258-.966-.966.258-.966.26-.259-.967-.259-.966-.966.26-.965.258-.26-.966-.258-.966-.966.259-.966.259-.259-.966-.259-.966-.965.259-.966.259-.26-.966-.258-.966-.966.259-.966.258.259.966.259.966-.966.26-.966.258-.259-.966-.259-.966-.966.259-.966.259-.258-.966-.26-.966-.965.259-.966.259-.259-.966-.259-.966-.966.258-.966.26.26.965zm27.564-5.315.259.966.966-.259.965-.259-.258-.965-.26-.966-.965.258-.966.26.259.965zm-24.597 8.661.26.966-.967.259-.966.259.26.966.258.966.966-.26.966-.258.259.966.258.966-.965.259-.966.258.258.967.26.965.965-.258.966-.26.259.967.259.966.966-.26.966-.258.258.966.26.966.965-.259.966-.259.259.966.259.966.966-.259.966-.259.258.966.26.966.965-.259.966-.258.259.966.259.965.966-.258.965-.26.26.967.258.966.966-.26.966-.258.259.966.259.966.966-.259.966-.259.258.966.26.966.965-.259.966-.258.259.965.259.966.966-.259.965-.258.26.966.258.965.966-.258.966-.26.259.967.259.966.966-.26.965-.258.26.966.258.966.966-.259.966-.259-.259-.966-.259-.966.966-.258.966-.26-.259-.965-.259-.966.966-.259.966-.259-.258-.966-.26-.966-.965.26-.966.258-.259-.966-.259-.966.966-.258.966-.26-.259-.965-.258-.966.965-.259.966-.259-.258-.966-.26-.966-.965.26-.966.258-.259-.966-.259-.966-.966.259-.966.259-.258-.966-.26-.966-.965.259-.966.258-.259-.965-.259-.966-.966.258-.966.26.26.965.258.966-.966.259-.966.259-.259-.966-.259-.966-.965.259-.966.259-.26-.966-.258-.966-.966.258-.966.26-.259-.967-.258-.966-.966.26-.966.258-.26-.966-.258-.966-.966.26-.966.258-.259-.966-.258-.966-.966.259-.966.259-.26-.966-.258-.966-.966.259-.966.258-.259-.965-.258-.966-.966.258-.966.26.259.965.258.966-.966.259-.965.259-.26-.966-.258-.966-.966.259-.966.259-.259-.966-.259-.966-.965.258-.967.26.26.965zm.518 1.932.259.966.966-.259.966-.259.259.966.258.966-.966.26-.965.258.258.966.26.966.965-.26.966-.258.259.966.259.966.965-.259.966-.259.26.966.258.966.966-.259.966-.258.259.966.259.965.965-.258.966-.26.26.967.258.966.966-.26.966-.258.259.966.259.966.966-.259.965-.259.26.966.258.966.966-.259.966-.259.259.966.259.966.965-.259.966-.258.26.965.258.967.966-.26.966-.258.259.966.258.966.966-.26.966-.258.26.966.258.966.966-.259.966-.259.259.966.258.966.966-.259.966-.258-.258-.966-.26-.966.967-.26.965-.258-.258-.966-.26-.966-.965.259-.966.259-.259-.966-.259-.966.966-.259.966-.259-.258-.966-.26-.966.967-.258.966-.26-.26-.965-.258-.966-.966.259-.966.259-.259-.966-.259-.966-.966.259-.965.258-.26-.966-.258-.965-.966.258-.966.26.259.965.259.966-.966.259-.966.259-.259-.966-.259-.966-.966.259-.966.258-.258-.966-.26-.965-.965.258-.966.26-.259-.967-.259-.966-.966.26-.966.258-.258-.966-.26-.966-.965.259-.966.259-.259-.966-.259-.966-.966.259-.966.259-.258-.966-.26-.966-.965.258-.966.26-.259-.967-.259-.966-.966.26-.966.258.26.966.258.966-.966.259-.966.259-.259-.966-.259-.966-.965.259-.966.258-.26-.965-.258-.966-.966.258-.966.26.259.965zm2.967 3.346.259.966.966-.259.966-.258.259.965.258.966.966-.258.966-.26.26.967.258.966.966-.26.966-.258.259.966.258.966.966-.26.966-.258.26.966.258.966.966-.259.966-.259.259.966.258.966.966-.259.966-.258.26.965.258.966.966-.258.966-.26.259.967.258.966.966-.26.966-.258.259.966.259.966.966-.259.966-.259.258.966.26.966.965-.259.966-.259.259.966.259.966.966-.259.966-.258-.26-.966-.258-.966-.966.259-.966.258-.259-.965-.258-.967.965-.258.966-.26-.258-.965-.26-.966.967-.259.966-.259-.26-.965-.258-.966-.966.258-.966.26-.259-.967-.259-.966-.965.26-.966.258.259.966.258.966-.966.259-.966.258-.258-.965-.26-.966-.965.258-.966.26-.259-.967-.259-.966-.966.26-.965.258-.26-.966-.258-.966-.966.259-.966.259-.259-.966-.259-.966-.966.259-.965.259-.26-.966-.258-.966-.966.259-.966.258-.259-.966-.259-.965-.966.258-.965.26-.26-.967-.258-.966-.966.26-.966.258.259.966.259.966-.966.259-.966.258-.259-.966-.259-.965-.966.258-.966.26.26.965zm4.381.897.26.966.965-.26.966-.258.259.966.259.966.966-.259.966-.259.258.966.26.966.965-.259.966-.258.259.965.259.966.966-.258.966-.26.258.967.26.966.965-.26.966-.258.259.966.259.966.966-.26.966-.258.258.966.26.966.965-.259.966-.259.259.966.259.966.966-.259.966-.259-.26-.965-.258-.966.966-.26.966-.258-.259-.966-.259-.966-.966.259-.966.259.26.966.258.966-.966.259-.966.258-.259-.966-.259-.965-.965.258-.966.26-.26-.967-.258-.966-.966.26-.966.258-.259-.966-.258-.966-.967.259-.965.259-.26-.966-.258-.966-.966.259-.966.258-.259-.965-.258-.966-.966.258-.966.26-.26-.967-.258-.966-.966.26-.966.258-.259-.966-.258-.966-.966.259-.966.259.258.966zm48.297-12.941.259.966 3.863-1.036 3.864-1.035-.259-.966-.259-.966-3.863 1.036-3.864 1.035.259.966zm-4.742 20.94.518 1.932.966-.258.966-.26.258.967.26.966.965-.26.966-.258.259.966.259.966.966-.259.965-.259.26.966.258.966 6.762-1.812 6.761-1.811-.259-.966-.259-.966 1.932-.518 1.932-.517-1.035-3.864-1.035-3.864-1.932.518-1.932.517.518 1.932.517 1.932-7.727 2.07-7.728 2.071-.517-1.932-.518-1.931-1.932.517-1.932.518.518 1.932zm9.022 2.76.258.966 5.796-1.553 5.795-1.553-.258-.966-.259-.966-5.796 1.553-5.795 1.553.259.966z"/></g><defs><clipPath id="a"><path fill="#fff" d="M0 25.882 96.593 0l25.882 96.592-96.593 25.882z"/></clipPath></defs></svg>