<svg width="244" height="72" viewBox="0 0 244 72" fill="none" xmlns="http://www.w3.org/2000/svg">
<mask id="mask0_361_961" style="mask-type:luminance" maskUnits="userSpaceOnUse" x="26" y="0" width="218" height="72">
<path d="M26.7969 0H243.156V71.7063H26.7969V0Z" fill="white"/>
</mask>
<g mask="url(#mask0_361_961)">
<path d="M224.188 0.193001V0H27.0799V52.3309L27.0178 52.4613L27.0799 52.5239V52.7169H27.271L46.0208 71.7063H242.938V19.1823L224.188 0.193001Z" fill="#1C1D22"/>
</g>
<path d="M27.7151 0.644165H223.552V52.0728H27.7151V0.644165Z" fill="#F2B950"/>
<path d="M46.2762 71.0621L28.1594 52.7169H223.744L241.858 71.0621H46.2762Z" fill="#446EA6"/>
<path d="M242.303 70.6109L224.188 52.2658V1.09534L242.303 19.438V70.6109Z" fill="#F26241"/>
<path d="M10.6134 33.7167V31.8218H10.5539C10.0897 32.6189 9.48161 33.2004 8.72705 33.5663C7.97249 33.9273 7.14844 34.1077 6.25488 34.1077C4.96916 34.1077 3.85718 33.7694 2.91895 33.0951C1.97823 32.4209 1.25594 31.4784 0.754557 30.2678C0.250692 29.0521 0 27.6459 0 26.0468C0 24.4827 0.258138 23.1192 0.774414 21.9562C1.29565 20.7881 2.02787 19.8883 2.96859 19.2592C3.90682 18.6325 4.9766 18.3167 6.17546 18.3167C7.12113 18.3167 7.9576 18.5222 8.68734 18.9283C9.41459 19.3293 10.0103 19.9058 10.4744 20.6528H10.534V13.4641H14.4458V33.7167H10.6134ZM10.6929 26.5481C10.6929 25.0041 10.4074 23.816 9.83903 22.9788C9.27559 22.1442 8.43416 21.7256 7.31722 21.7256C6.26978 21.7256 5.46061 22.1266 4.88477 22.9287C4.30892 23.7258 4.021 24.8487 4.021 26.2974C4.021 27.6359 4.30892 28.7313 4.88477 29.586C5.46061 30.4432 6.24495 30.8693 7.23779 30.8693C8.29517 30.8693 9.1366 30.4783 9.7596 29.6963C10.3801 28.9142 10.6929 27.8665 10.6929 26.5481Z" fill="black"/>
<path d="M26.5422 18.3669V22.3773C26.2444 22.3372 25.8894 22.3172 25.4799 22.3172C23.0375 22.3172 21.8163 23.4852 21.8163 25.8163V33.7168H17.9045V18.7078H21.6475V21.3045H21.7071C22.2631 20.1967 22.8588 19.4196 23.4942 18.9785C24.1296 18.5373 24.8941 18.3168 25.7877 18.3168C25.8795 18.3168 26.1302 18.3343 26.5422 18.3669Z" fill="black"/>
<path d="M35.0275 30.9496C35.6083 30.9496 36.1345 30.8092 36.6061 30.5285C37.0827 30.2478 37.3954 29.8442 37.5493 29.3153H41.5703C41.1384 30.8393 40.3442 32.0199 39.1875 32.8545C38.0358 33.6917 36.6483 34.1078 35.0275 34.1078C32.5702 34.1078 30.7236 33.4235 29.4875 32.0524C28.2489 30.6839 27.6309 28.6411 27.6309 25.9265C27.6309 24.4427 27.9039 23.1293 28.4549 21.9863C29.0035 20.8383 29.8077 19.9385 30.8675 19.2893C31.9323 18.6426 33.2156 18.3168 34.7197 18.3168C36.8444 18.3168 38.5446 19.0036 39.8229 20.3721C41.0987 21.7432 41.7391 23.8211 41.7391 26.6083V27.2801H31.5426C31.6667 29.7264 32.8284 30.9496 35.0275 30.9496ZM34.6701 21.5552C32.883 21.5552 31.8752 22.6079 31.6519 24.7134H37.7181C37.6238 23.7384 37.3061 22.9689 36.765 22.4074C36.2214 21.8409 35.5239 21.5552 34.6701 21.5552Z" fill="black"/>
<path d="M56.568 23.2797H52.7455C52.6313 22.5453 52.3633 22.0339 51.9413 21.7457C51.5243 21.4524 50.9088 21.3045 50.0946 21.3045C49.3053 21.3045 48.7096 21.4198 48.3075 21.6454C47.9104 21.866 47.7118 22.242 47.7118 22.7683C47.7118 23.1844 48.0097 23.5153 48.6054 23.7609C49.2011 24.0015 50.1592 24.2472 51.4846 24.4928C53.5348 24.8888 54.9695 25.4428 55.7836 26.1571C56.6027 26.874 57.0147 27.7964 57.0147 28.9243C57.0147 30.6689 56.4041 31.9697 55.1879 32.8245C53.9692 33.6817 52.3807 34.1078 50.4223 34.1078C48.243 34.1078 46.5204 33.6441 45.2496 32.7142C43.9837 31.7868 43.3533 30.5235 43.3533 28.9243H47.3842C47.3842 30.3881 48.4515 31.12 50.5911 31.12C51.358 31.12 51.9711 30.9772 52.4278 30.6889C52.8845 30.3956 53.1129 30.0222 53.1129 29.566C53.1129 29.1198 52.8175 28.7739 52.2292 28.5333C51.6385 28.2877 50.5911 28.0195 49.082 27.7312C47.3346 27.4179 46.029 26.9091 45.1702 26.2073C44.3163 25.5004 43.8894 24.5404 43.8894 23.3298C43.8894 21.8259 44.4181 20.6177 45.4779 19.7004C46.5428 18.778 48.0146 18.3168 49.8961 18.3168C52.0729 18.3168 53.7036 18.7479 54.7908 19.6101C55.8829 20.4724 56.4736 21.6955 56.568 23.2797Z" fill="black"/>
<path d="M72.1016 23.2797H68.2792C68.165 22.5453 67.897 22.0339 67.475 21.7457C67.058 21.4524 66.4425 21.3045 65.6283 21.3045C64.839 21.3045 64.2433 21.4198 63.8412 21.6454C63.4441 21.866 63.2455 22.242 63.2455 22.7683C63.2455 23.1844 63.5434 23.5153 64.1391 23.7609C64.7348 24.0015 65.6929 24.2472 67.0183 24.4928C69.0685 24.8888 70.5032 25.4428 71.3173 26.1571C72.1364 26.874 72.5484 27.7964 72.5484 28.9243C72.5484 30.6689 71.9378 31.9697 70.7216 32.8245C69.5029 33.6817 67.9143 34.1078 65.956 34.1078C63.7767 34.1078 62.0541 33.6441 60.7833 32.7142C59.5174 31.7868 58.887 30.5235 58.887 28.9243H62.9179C62.9179 30.3881 63.9852 31.12 66.1248 31.12C66.8917 31.12 67.5048 30.9772 67.9615 30.6889C68.4182 30.3956 68.6466 30.0222 68.6466 29.566C68.6466 29.1198 68.3512 28.7739 67.7629 28.5333C67.1722 28.2877 66.1248 28.0195 64.6156 27.7312C62.8682 27.4179 61.5627 26.9091 60.7039 26.2073C59.85 25.5004 59.4231 24.5404 59.4231 23.3298C59.4231 21.8259 59.9518 20.6177 61.0116 19.7004C62.0765 18.778 63.5483 18.3168 65.4298 18.3168C67.6066 18.3168 69.2373 18.7479 70.3245 19.6101C71.4166 20.4724 72.0073 21.6955 72.1016 23.2797Z" fill="black"/>
<path d="M81.6288 30.9496C82.2096 30.9496 82.7358 30.8092 83.2074 30.5285C83.684 30.2478 83.9967 29.8442 84.1506 29.3153H88.1716C87.7397 30.8393 86.9455 32.0199 85.7888 32.8545C84.6371 33.6917 83.2496 34.1078 81.6288 34.1078C79.1715 34.1078 77.3249 33.4235 76.0888 32.0524C74.8502 30.6839 74.2322 28.6411 74.2322 25.9265C74.2322 24.4427 74.5052 23.1293 75.0562 21.9863C75.6048 20.8383 76.409 19.9385 77.4688 19.2893C78.5337 18.6426 79.8169 18.3168 81.321 18.3168C83.4457 18.3168 85.146 19.0036 86.4242 20.3721C87.7 21.7432 88.3404 23.8211 88.3404 26.6083V27.2801H78.144C78.2681 29.7264 79.4297 30.9496 81.6288 30.9496ZM81.2714 21.5552C79.4843 21.5552 78.4766 22.6079 78.2532 24.7134H84.3194C84.2251 23.7384 83.9074 22.9689 83.3663 22.4074C82.8227 21.8409 82.1252 21.5552 81.2714 21.5552Z" fill="black"/>
<path d="M100.687 33.7167V31.8218H100.628C100.163 32.6189 99.5553 33.2004 98.8008 33.5663C98.0462 33.9273 97.2222 34.1077 96.3286 34.1077C95.0429 34.1077 93.9309 33.7694 92.9927 33.0951C92.052 32.4209 91.3297 31.4784 90.8283 30.2678C90.3244 29.0521 90.0737 27.6459 90.0737 26.0468C90.0737 24.4827 90.3319 23.1192 90.8481 21.9562C91.3694 20.7881 92.1016 19.8883 93.0423 19.2592C93.9806 18.6325 95.0503 18.3167 96.2492 18.3167C97.1949 18.3167 98.0313 18.5222 98.7611 18.9283C99.4883 19.3293 100.084 19.9058 100.548 20.6528H100.608V13.4641H104.52V33.7167H100.687ZM100.767 26.5481C100.767 25.0041 100.481 23.816 99.9128 22.9788C99.3493 22.1442 98.5079 21.7256 97.391 21.7256C96.3435 21.7256 95.5343 22.1266 94.9585 22.9287C94.3826 23.7258 94.0947 24.8487 94.0947 26.2974C94.0947 27.6359 94.3826 28.7313 94.9585 29.586C95.5343 30.4432 96.3187 30.8693 97.3115 30.8693C98.3689 30.8693 99.2103 30.4783 99.8333 29.6963C100.454 28.9142 100.767 27.8665 100.767 26.5481Z" fill="black"/>
<path d="M106.946 27.651V23.9814H114.739V27.651H106.946Z" fill="black"/>
<path d="M124.132 18.7078V21.5251H121.7V29.9069C121.7 30.3029 121.804 30.5661 122.017 30.6989C122.228 30.8343 122.653 30.8994 123.288 30.8994C123.44 30.8994 123.72 30.8794 124.132 30.8393V33.827C123.085 33.8671 122.385 33.8872 122.027 33.8872C120.836 33.8872 119.932 33.7594 119.317 33.5062C118.706 33.253 118.299 32.8946 118.096 32.4334C117.89 31.9722 117.788 31.3656 117.788 30.6087V21.5251H115.772V18.7078H117.788V14.6472H121.7V18.7078H124.132Z" fill="black"/>
<path d="M140.941 26.2073C140.941 27.8265 140.624 29.2301 139.988 30.4182C139.358 31.6013 138.464 32.5136 137.308 33.1553C136.156 33.7895 134.835 34.1078 133.346 34.1078C131.857 34.1078 130.531 33.7895 129.375 33.1553C128.223 32.5136 127.33 31.6013 126.694 30.4182C126.064 29.2301 125.751 27.8265 125.751 26.2073C125.751 24.5906 126.071 23.1869 126.714 21.9963C127.354 20.8007 128.253 19.8884 129.405 19.2592C130.561 18.6326 131.877 18.3168 133.346 18.3168C134.835 18.3168 136.156 18.6376 137.308 19.2793C138.464 19.9159 139.358 20.8233 139.988 22.0064C140.624 23.1894 140.941 24.5906 140.941 26.2073ZM133.346 30.7791C134.538 30.7791 135.431 30.3831 136.027 29.586C136.623 28.784 136.92 27.6585 136.92 26.2073C136.92 24.7635 136.615 23.6456 136.007 22.8485C135.404 22.0465 134.508 21.6454 133.316 21.6454C132.185 21.6454 131.311 22.0414 130.695 22.8285C130.08 23.618 129.772 24.7435 129.772 26.2073C129.772 27.6986 130.072 28.8341 130.675 29.6161C131.284 30.3931 132.175 30.7791 133.346 30.7791Z" fill="black"/>
<path d="M142.623 27.651V23.9814H150.417V27.651H142.623Z" fill="black"/>
<path d="M161.924 18.7077H166.729L161.477 24.5228L166.868 33.7167H162.182L158.628 27.28L157.009 28.9744V33.7167H153.098V13.4641H157.009V24.4025L161.924 18.7077Z" fill="black"/>
<path d="M168.632 16.9331V13.2635H172.544V16.9331H168.632ZM168.632 33.7167V18.7077H172.544V33.7167H168.632Z" fill="black"/>
<path d="M176.398 33.7167V13.4641H180.31V33.7167H176.398Z" fill="black"/>
<path d="M184.166 33.7167V13.4641H188.078V33.7167H184.166Z" fill="black"/>
</svg>
