<svg xmlns="http://www.w3.org/2000/svg" xmlns:xlink="http://www.w3.org/1999/xlink" width="500" zoomAndPan="magnify" viewBox="0 0 375 374.999991" height="500" preserveAspectRatio="xMidYMid meet" version="1.0"><defs><clipPath id="fa9ea77cd0"><path d="M 45.058594 31.324219 L 302.308594 31.324219 L 302.308594 288.574219 L 45.058594 288.574219 Z M 45.058594 31.324219 " clip-rule="nonzero"/></clipPath></defs><g clip-path="url(#fa9ea77cd0)"><path fill="#1c1d22" d="M 267.203125 102.464844 L 233.957031 69.574219 C 229.664062 64.5 224.945312 59.78125 219.800781 55.5625 L 219.296875 55.0625 L 219.226562 55.132812 C 200.851562 40.261719 177.472656 31.324219 152.019531 31.324219 C 93.03125 31.324219 45.058594 79.300781 45.058594 138.285156 C 45.058594 168.671875 57.855469 196.199219 78.304688 215.71875 L 117.484375 254.828125 C 119.058594 256.472656 120.632812 258.117188 122.277344 259.617188 C 142.222656 278.277344 168.175781 288.574219 195.347656 288.574219 C 254.332031 288.574219 302.308594 240.597656 302.308594 181.613281 C 302.308594 151.582031 289.507812 122.769531 267.203125 102.464844 Z M 267.203125 102.464844 " fill-opacity="1" fill-rule="nonzero"/></g><path fill="#f2b950" d="M 266.203125 103.464844 C 287.578125 122.839844 300.089844 150.226562 300.878906 178.824219 L 258.40625 149.726562 C 258.835938 145.9375 259.050781 142.144531 259.050781 138.214844 C 259.050781 115.761719 252.117188 94.886719 240.175781 77.65625 Z M 266.203125 103.464844 " fill-opacity="1" fill-rule="nonzero"/><path fill="#f26241" d="M 46.488281 138.285156 C 46.488281 80.085938 93.820312 32.753906 152.019531 32.753906 C 210.21875 32.753906 257.550781 80.085938 257.550781 138.285156 C 257.550781 196.484375 210.21875 243.816406 152.019531 243.816406 C 93.820312 243.816406 46.488281 196.484375 46.488281 138.285156 Z M 46.488281 138.285156 " fill-opacity="1" fill-rule="nonzero"/><path fill="#446ea6" d="M 195.347656 287.144531 C 168.464844 287.144531 142.867188 276.992188 123.207031 258.546875 C 121.5625 257.042969 119.988281 255.398438 118.414062 253.753906 L 89.957031 225.371094 C 107.476562 237.882812 128.851562 245.246094 151.949219 245.246094 C 206.5 245.246094 251.617188 204.207031 258.121094 151.371094 L 300.804688 180.613281 C 300.804688 180.96875 300.804688 181.253906 300.804688 181.613281 C 300.878906 239.8125 253.546875 287.144531 195.347656 287.144531 Z M 195.347656 287.144531 " fill-opacity="1" fill-rule="nonzero"/></svg>