<svg width="169" height="37" viewBox="0 0 169 37" fill="none" xmlns="http://www.w3.org/2000/svg">
<path d="M15.74 17.38H6.62V28H0.66V1.6H6.62V12.16H15.74V1.6H21.68V28H15.74V17.38ZM26.4269 28V11.58H32.5069V28H26.4269ZM29.5469 8.2C28.5869 8.2 27.7735 7.86667 27.1069 7.2C26.4402 6.52 26.1069 5.71333 26.1069 4.78C26.1069 3.84667 26.4402 3.04 27.1069 2.36C27.7869 1.66666 28.6002 1.32 29.5469 1.32C30.1735 1.32 30.7469 1.48 31.2669 1.8C31.7869 2.10667 32.2069 2.52 32.5269 3.04C32.8469 3.56 33.0069 4.14 33.0069 4.78C33.0069 5.71333 32.6669 6.52 31.9869 7.2C31.3069 7.86667 30.4935 8.2 29.5469 8.2ZM45.3156 36.78C44.169 36.78 43.029 36.68 41.8956 36.48C40.7756 36.28 39.729 35.94 38.7556 35.46C37.7823 34.98 36.9623 34.32 36.2956 33.48L39.8556 29.78C40.1623 30.14 40.5356 30.4933 40.9756 30.84C41.429 31.1867 41.9823 31.4733 42.6356 31.7C43.3023 31.9267 44.109 32.04 45.0556 32.04C45.9356 32.04 46.7023 31.8867 47.3556 31.58C48.009 31.2733 48.5156 30.8267 48.8756 30.24C49.249 29.6533 49.4356 28.94 49.4356 28.1V27.7H55.4156V28.46C55.4156 30.2733 54.9623 31.8 54.0556 33.04C53.1623 34.28 51.9556 35.2133 50.4356 35.84C48.9156 36.4667 47.209 36.78 45.3156 36.78ZM49.4356 28V25.34C49.3156 25.6067 49.009 25.9933 48.5156 26.5C48.0356 27.0067 47.3956 27.4667 46.5956 27.88C45.7956 28.28 44.8623 28.48 43.7956 28.48C42.1956 28.48 40.7956 28.0933 39.5956 27.32C38.3956 26.5333 37.4623 25.4867 36.7956 24.18C36.129 22.86 35.7956 21.4 35.7956 19.8C35.7956 18.2 36.129 16.7467 36.7956 15.44C37.4623 14.12 38.3956 13.0667 39.5956 12.28C40.7956 11.4933 42.1956 11.1 43.7956 11.1C44.8223 11.1 45.7223 11.2667 46.4956 11.6C47.269 11.92 47.8956 12.3067 48.3756 12.76C48.8556 13.2 49.189 13.6067 49.3756 13.98V11.58H55.4156V28H49.4356ZM41.7556 19.8C41.7556 20.5467 41.929 21.22 42.2756 21.82C42.6223 22.4067 43.0823 22.8667 43.6556 23.2C44.2423 23.5333 44.889 23.7 45.5956 23.7C46.329 23.7 46.9756 23.5333 47.5356 23.2C48.0956 22.8667 48.5356 22.4067 48.8556 21.82C49.189 21.22 49.3556 20.5467 49.3556 19.8C49.3556 19.0533 49.189 18.3867 48.8556 17.8C48.5356 17.2 48.0956 16.7333 47.5356 16.4C46.9756 16.0533 46.329 15.88 45.5956 15.88C44.889 15.88 44.2423 16.0533 43.6556 16.4C43.0823 16.7333 42.6223 17.2 42.2756 17.8C41.929 18.3867 41.7556 19.0533 41.7556 19.8ZM70.7528 11.1C71.8995 11.1 73.0195 11.3333 74.1128 11.8C75.2061 12.2667 76.1061 13.0067 76.8128 14.02C77.5195 15.02 77.8728 16.34 77.8728 17.98V28H71.7928V18.98C71.7928 17.8067 71.5261 16.9267 70.9928 16.34C70.4728 15.74 69.7595 15.44 68.8528 15.44C68.2528 15.44 67.6795 15.6 67.1328 15.92C66.5861 16.2267 66.1395 16.6667 65.7928 17.24C65.4595 17.8 65.2928 18.4467 65.2928 19.18V28H59.1928V0.479999H65.2928V14C65.4395 13.56 65.7661 13.12 66.2728 12.68C66.7928 12.2267 67.4395 11.8533 68.2128 11.56C68.9995 11.2533 69.8461 11.1 70.7528 11.1ZM87.5413 28H81.4413V0.479999H87.5413V28ZM91.6613 28V11.58H97.7413V28H91.6613ZM94.7812 8.2C93.8213 8.2 93.0079 7.86667 92.3413 7.2C91.6746 6.52 91.3413 5.71333 91.3413 4.78C91.3413 3.84667 91.6746 3.04 92.3413 2.36C93.0213 1.66666 93.8346 1.32 94.7812 1.32C95.4079 1.32 95.9813 1.48 96.5013 1.8C97.0213 2.10667 97.4413 2.52 97.7613 3.04C98.0813 3.56 98.2413 4.14 98.2413 4.78C98.2413 5.71333 97.9013 6.52 97.2213 7.2C96.5413 7.86667 95.7279 8.2 94.7812 8.2ZM110.55 36.78C109.403 36.78 108.263 36.68 107.13 36.48C106.01 36.28 104.963 35.94 103.99 35.46C103.017 34.98 102.197 34.32 101.53 33.48L105.09 29.78C105.397 30.14 105.77 30.4933 106.21 30.84C106.663 31.1867 107.217 31.4733 107.87 31.7C108.537 31.9267 109.343 32.04 110.29 32.04C111.17 32.04 111.937 31.8867 112.59 31.58C113.243 31.2733 113.75 30.8267 114.11 30.24C114.483 29.6533 114.67 28.94 114.67 28.1V27.7H120.65V28.46C120.65 30.2733 120.197 31.8 119.29 33.04C118.397 34.28 117.19 35.2133 115.67 35.84C114.15 36.4667 112.443 36.78 110.55 36.78ZM114.67 28V25.34C114.55 25.6067 114.243 25.9933 113.75 26.5C113.27 27.0067 112.63 27.4667 111.83 27.88C111.03 28.28 110.097 28.48 109.03 28.48C107.43 28.48 106.03 28.0933 104.83 27.32C103.63 26.5333 102.697 25.4867 102.03 24.18C101.363 22.86 101.03 21.4 101.03 19.8C101.03 18.2 101.363 16.7467 102.03 15.44C102.697 14.12 103.63 13.0667 104.83 12.28C106.03 11.4933 107.43 11.1 109.03 11.1C110.057 11.1 110.957 11.2667 111.73 11.6C112.503 11.92 113.13 12.3067 113.61 12.76C114.09 13.2 114.423 13.6067 114.61 13.98V11.58H120.65V28H114.67ZM106.99 19.8C106.99 20.5467 107.163 21.22 107.51 21.82C107.857 22.4067 108.317 22.8667 108.89 23.2C109.477 23.5333 110.123 23.7 110.83 23.7C111.563 23.7 112.21 23.5333 112.77 23.2C113.33 22.8667 113.77 22.4067 114.09 21.82C114.423 21.22 114.59 20.5467 114.59 19.8C114.59 19.0533 114.423 18.3867 114.09 17.8C113.77 17.2 113.33 16.7333 112.77 16.4C112.21 16.0533 111.563 15.88 110.83 15.88C110.123 15.88 109.477 16.0533 108.89 16.4C108.317 16.7333 107.857 17.2 107.51 17.8C107.163 18.3867 106.99 19.0533 106.99 19.8ZM135.987 11.1C137.134 11.1 138.254 11.3333 139.347 11.8C140.441 12.2667 141.341 13.0067 142.047 14.02C142.754 15.02 143.107 16.34 143.107 17.98V28H137.027V18.98C137.027 17.8067 136.761 16.9267 136.227 16.34C135.707 15.74 134.994 15.44 134.087 15.44C133.487 15.44 132.914 15.6 132.367 15.92C131.821 16.2267 131.374 16.6667 131.027 17.24C130.694 17.8 130.527 18.4467 130.527 19.18V28H124.427V0.479999H130.527V14C130.674 13.56 131.001 13.12 131.507 12.68C132.027 12.2267 132.674 11.8533 133.447 11.56C134.234 11.2533 135.081 11.1 135.987 11.1ZM145.296 11.58H148.096V4.84H154.116V11.58H157.796V16.58H154.116V21.16C154.116 21.84 154.216 22.3933 154.416 22.82C154.616 23.2333 154.982 23.44 155.516 23.44C155.876 23.44 156.182 23.36 156.436 23.2C156.689 23.04 156.842 22.9333 156.896 22.88L158.976 27.2C158.882 27.28 158.589 27.4267 158.096 27.64C157.616 27.8533 157.002 28.0467 156.256 28.22C155.509 28.3933 154.676 28.48 153.756 28.48C152.116 28.48 150.762 28.02 149.696 27.1C148.629 26.1667 148.096 24.7333 148.096 22.8V16.58H145.296V11.58ZM165.307 28.48C164.32 28.48 163.467 28.1267 162.747 27.42C162.04 26.7 161.687 25.8467 161.687 24.86C161.687 23.8467 162.04 22.9867 162.747 22.28C163.467 21.56 164.32 21.2 165.307 21.2C166.32 21.2 167.18 21.56 167.887 22.28C168.594 22.9867 168.947 23.8467 168.947 24.86C168.947 25.8467 168.594 26.7 167.887 27.42C167.18 28.1267 166.32 28.48 165.307 28.48Z" fill="white"/>
</svg>
