<svg xmlns="http://www.w3.org/2000/svg" xmlns:xlink="http://www.w3.org/1999/xlink" width="500" zoomAndPan="magnify" viewBox="0 0 375 374.999991" height="500" preserveAspectRatio="xMidYMid meet" version="1.0"><defs><clipPath id="fe0eea2d92"><path d="M 85.238281 44.382812 L 289.988281 44.382812 L 289.988281 330.882812 L 85.238281 330.882812 Z M 85.238281 44.382812 " clip-rule="nonzero"/></clipPath><clipPath id="e372cb9add"><path d="M 100 44.382812 L 289.988281 44.382812 L 289.988281 173 L 100 173 Z M 100 44.382812 " clip-rule="nonzero"/></clipPath><clipPath id="508a15ab75"><path d="M 85.238281 44.382812 L 240 44.382812 L 240 302 L 85.238281 302 Z M 85.238281 44.382812 " clip-rule="nonzero"/></clipPath><clipPath id="339f28c753"><path d="M 85.238281 44.382812 L 289.988281 44.382812 L 289.988281 330.882812 L 85.238281 330.882812 Z M 85.238281 44.382812 " clip-rule="nonzero"/></clipPath></defs><path fill="#446ea6" d="M 170.945312 195.828125 C 169.570312 195.207031 168.226562 194.519531 166.894531 193.789062 C 166.375 193.511719 165.867188 193.226562 165.359375 192.929688 L 115.789062 164.199219 C 115.683594 164.136719 115.578125 164.074219 115.472656 164.007812 C 116.074219 164.367188 116.699219 164.71875 117.324219 165.058594 C 127.332031 170.546875 138.398438 173.253906 150.566406 173.253906 C 157.222656 173.253906 164.207031 172.367188 171.484375 170.546875 C 172.128906 170.378906 172.785156 170.21875 173.441406 170.019531 C 173.78125 179.136719 172.945312 187.746094 170.945312 195.828125 Z M 170.945312 195.828125 " fill-opacity="1" fill-rule="nonzero"/><g clip-path="url(#fe0eea2d92)"><path fill="#f26241" d="M 289.355469 174.671875 C 289.355469 192.824219 286.855469 210.183594 281.863281 226.730469 C 279.683594 233.964844 277.015625 241.054688 273.886719 247.980469 C 263.539062 270.714844 249.285156 289.375 231.074219 303.964844 C 212.867188 318.507812 192.539062 327.320312 170.089844 330.355469 L 120.519531 301.617188 L 120.519531 247.917969 C 121.183594 247.71875 121.839844 247.515625 122.496094 247.304688 C 123.609375 246.945312 124.699219 246.574219 125.777344 246.171875 C 126.539062 245.910156 127.289062 245.625 128.03125 245.328125 C 128.0625 245.316406 128.082031 245.304688 128.105469 245.296875 C 128.589844 245.117188 129.066406 244.914062 129.542969 244.714844 C 129.914062 244.566406 130.273438 244.40625 130.632812 244.257812 C 131.214844 244.003906 131.796875 243.738281 132.367188 243.476562 C 134.21875 242.617188 136.019531 241.699219 137.753906 240.726562 C 138.167969 240.492188 138.589844 240.25 139.003906 240.007812 C 139.289062 239.835938 139.5625 239.679688 139.839844 239.507812 C 140.261719 239.253906 140.675781 239 141.085938 238.738281 C 141.871094 238.238281 142.632812 237.730469 143.371094 237.214844 C 143.710938 236.980469 144.039062 236.746094 144.367188 236.503906 C 144.925781 236.101562 145.488281 235.699219 146.027344 235.277344 C 146.492188 234.929688 146.960938 234.558594 147.414062 234.1875 C 147.433594 234.167969 147.46875 234.144531 147.488281 234.125 C 147.921875 233.773438 148.355469 233.414062 148.777344 233.046875 C 150.324219 231.722656 151.804688 230.328125 153.210938 228.867188 C 153.636719 228.445312 154.039062 228.019531 154.429688 227.574219 C 154.832031 227.140625 155.222656 226.699219 155.613281 226.253906 C 155.636719 226.222656 155.667969 226.191406 155.699219 226.148438 C 156.121094 225.660156 156.535156 225.175781 156.925781 224.675781 C 157.308594 224.222656 157.667969 223.757812 158.027344 223.292969 C 158.121094 223.164062 158.21875 223.039062 158.3125 222.910156 C 158.609375 222.53125 158.882812 222.148438 159.167969 221.757812 C 159.199219 221.714844 159.234375 221.671875 159.253906 221.632812 C 162.25 217.453125 164.820312 212.859375 166.945312 207.859375 C 167.242188 207.160156 167.527344 206.460938 167.792969 205.753906 C 167.910156 205.488281 168.003906 205.222656 168.109375 204.960938 C 168.203125 204.714844 168.289062 204.460938 168.375 204.21875 C 168.597656 203.636719 168.808594 203.054688 169 202.460938 C 169.1875 201.914062 169.367188 201.363281 169.539062 200.8125 C 170.066406 199.171875 170.53125 197.511719 170.945312 195.828125 C 172.554688 189.34375 173.410156 182.523438 173.496094 175.371094 C 173.527344 173.605469 173.507812 171.828125 173.441406 170.019531 C 172.785156 170.21875 172.128906 170.378906 171.484375 170.546875 C 169.601562 171.023438 167.730469 171.425781 165.878906 171.761719 C 160.609375 172.769531 155.496094 173.253906 150.566406 173.253906 C 138.398438 173.253906 127.332031 170.546875 117.324219 165.058594 C 116.699219 164.71875 116.074219 164.371094 115.472656 164.007812 C 114.910156 163.679688 114.347656 163.34375 113.808594 163.003906 C 113.640625 162.886719 113.472656 162.78125 113.300781 162.675781 C 112.855469 162.390625 112.414062 162.105469 111.980469 161.808594 C 111.914062 161.757812 111.851562 161.714844 111.789062 161.671875 C 111.300781 161.34375 110.824219 161.003906 110.359375 160.667969 C 110.253906 160.582031 110.160156 160.507812 110.054688 160.433594 C 109.589844 160.09375 109.132812 159.746094 108.6875 159.398438 C 108.605469 159.332031 108.519531 159.257812 108.433594 159.195312 C 108.03125 158.878906 107.628906 158.550781 107.238281 158.210938 C 107.046875 158.0625 106.867188 157.894531 106.679688 157.738281 C 106.382812 157.484375 106.085938 157.230469 105.800781 156.953125 C 105.597656 156.785156 105.398438 156.605469 105.195312 156.402344 C 104.933594 156.171875 104.667969 155.925781 104.402344 155.664062 C 104.140625 155.417969 103.886719 155.175781 103.640625 154.910156 C 103.441406 154.722656 103.238281 154.519531 103.058594 154.320312 C 102.816406 154.078125 102.582031 153.832031 102.351562 153.589844 C 102.097656 153.324219 101.84375 153.050781 101.609375 152.773438 C 101.386719 152.542969 101.175781 152.308594 100.976562 152.066406 C 100.371094 151.390625 99.789062 150.691406 99.230469 149.972656 C 98.964844 149.644531 98.710938 149.316406 98.457031 148.976562 C 97.640625 147.910156 96.871094 146.808594 96.128906 145.675781 C 95.421875 144.585938 94.734375 143.476562 94.085938 142.324219 C 92.996094 140.378906 92.011719 138.386719 91.15625 136.355469 C 87.652344 128.191406 85.898438 119.25 85.898438 109.539062 C 85.898438 108.96875 85.90625 108.410156 85.917969 107.835938 C 85.929688 107.371094 85.941406 106.90625 85.960938 106.441406 C 86.003906 105.296875 86.078125 104.167969 86.183594 103.035156 C 86.203125 102.78125 86.226562 102.527344 86.257812 102.285156 C 86.289062 101.945312 86.320312 101.605469 86.351562 101.269531 C 86.363281 101.234375 86.363281 101.203125 86.375 101.160156 C 86.4375 100.644531 86.5 100.113281 86.574219 99.597656 C 86.636719 99.121094 86.710938 98.644531 86.796875 98.167969 C 86.902344 97.46875 87.03125 96.761719 87.167969 96.0625 C 87.21875 95.765625 87.285156 95.460938 87.347656 95.164062 C 87.664062 93.683594 88.023438 92.222656 88.449219 90.785156 C 88.554688 90.394531 88.679688 90 88.796875 89.609375 C 88.957031 89.09375 89.125 88.585938 89.292969 88.078125 C 89.515625 87.429688 89.738281 86.796875 89.980469 86.160156 C 90.128906 85.78125 90.265625 85.410156 90.425781 85.03125 C 90.574219 84.660156 90.734375 84.289062 90.890625 83.917969 C 91.199219 83.167969 91.539062 82.425781 91.886719 81.707031 C 92.003906 81.464844 92.117188 81.222656 92.234375 80.976562 C 92.382812 80.671875 92.542969 80.363281 92.699219 80.066406 C 92.890625 79.6875 93.082031 79.316406 93.292969 78.945312 C 94.550781 76.597656 95.980469 74.335938 97.578125 72.15625 C 97.886719 71.722656 98.203125 71.296875 98.53125 70.875 C 99.039062 70.210938 99.558594 69.554688 100.097656 68.90625 C 100.289062 68.675781 100.476562 68.441406 100.679688 68.21875 C 100.984375 67.859375 101.292969 67.5 101.609375 67.152344 C 101.96875 66.75 102.328125 66.347656 102.710938 65.945312 C 103.027344 65.597656 103.355469 65.257812 103.683594 64.917969 C 104.117188 64.464844 104.5625 64.019531 105.015625 63.578125 C 117.777344 51.148438 134.15625 44.914062 154.1875 44.914062 C 155.03125 44.914062 155.867188 44.925781 156.703125 44.957031 C 156.882812 44.957031 157.0625 44.957031 157.234375 44.96875 C 157.984375 44.988281 158.734375 45.023438 159.476562 45.074219 C 159.613281 45.074219 159.75 45.085938 159.878906 45.09375 C 160.683594 45.136719 161.488281 45.203125 162.289062 45.277344 C 162.417969 45.285156 162.535156 45.296875 162.648438 45.308594 C 163.328125 45.371094 164.015625 45.445312 164.691406 45.53125 C 164.902344 45.550781 165.105469 45.570312 165.304688 45.601562 C 166.078125 45.699219 166.851562 45.804688 167.613281 45.921875 C 167.675781 45.929688 167.738281 45.941406 167.804688 45.953125 C 168.679688 46.089844 169.558594 46.25 170.425781 46.40625 C 170.449219 46.40625 170.46875 46.417969 170.492188 46.417969 C 171.210938 46.554688 171.929688 46.703125 172.636719 46.863281 C 172.871094 46.914062 173.105469 46.96875 173.328125 47.019531 C 173.390625 47.03125 173.441406 47.042969 173.496094 47.0625 C 174.195312 47.222656 174.890625 47.390625 175.589844 47.570312 C 176.425781 47.78125 177.25 48.015625 178.066406 48.269531 C 178.109375 48.269531 178.152344 48.28125 178.195312 48.300781 C 178.890625 48.5 179.578125 48.714844 180.257812 48.945312 C 180.46875 49.007812 180.679688 49.082031 180.890625 49.15625 C 181.503906 49.359375 182.117188 49.570312 182.722656 49.804688 C 182.984375 49.898438 183.25 49.992188 183.503906 50.097656 C 183.980469 50.269531 184.457031 50.457031 184.933594 50.648438 C 185.164062 50.746094 185.386719 50.839844 185.621094 50.933594 C 185.769531 50.988281 185.929688 51.050781 186.074219 51.125 C 186.65625 51.359375 187.25 51.613281 187.820312 51.875 C 187.96875 51.941406 188.109375 52.003906 188.246094 52.066406 C 188.847656 52.34375 189.453125 52.628906 190.042969 52.921875 C 190.796875 53.285156 191.535156 53.664062 192.277344 54.054688 C 192.59375 54.226562 192.902344 54.394531 193.21875 54.5625 C 193.269531 54.59375 193.335938 54.625 193.386719 54.660156 C 193.90625 54.933594 194.414062 55.230469 194.921875 55.527344 L 194.933594 55.527344 L 244.195312 84.078125 L 244.503906 84.257812 C 245.667969 84.921875 246.808594 85.632812 247.941406 86.363281 C 260.964844 94.878906 271.144531 106.726562 278.414062 121.894531 C 285.472656 136.546875 289.101562 153.453125 289.34375 172.628906 C 289.355469 173.308594 289.355469 173.984375 289.355469 174.671875 Z M 289.355469 174.671875 " fill-opacity="1" fill-rule="nonzero"/></g><g clip-path="url(#e372cb9add)"><path fill="#f2b950" d="M 289.34375 172.632812 L 203.089844 114.089844 L 179.503906 121.84375 L 104.785156 86.4375 C 102.425781 80.945312 100.859375 75.105469 100.097656 68.90625 C 100.289062 68.675781 100.476562 68.441406 100.679688 68.21875 C 100.984375 67.859375 101.292969 67.5 101.609375 67.152344 C 101.96875 66.75 102.328125 66.347656 102.710938 65.945312 C 103.027344 65.597656 103.355469 65.257812 103.683594 64.917969 C 104.117188 64.464844 104.5625 64.019531 105.015625 63.578125 C 117.777344 51.148438 134.15625 44.914062 154.1875 44.914062 C 155.03125 44.914062 155.867188 44.925781 156.703125 44.957031 C 156.882812 44.957031 157.0625 44.957031 157.234375 44.96875 C 157.984375 44.988281 158.734375 45.023438 159.476562 45.074219 C 159.613281 45.074219 159.75 45.085938 159.878906 45.09375 C 160.683594 45.136719 161.488281 45.203125 162.289062 45.277344 C 162.417969 45.285156 162.535156 45.296875 162.648438 45.308594 C 163.328125 45.371094 164.015625 45.445312 164.691406 45.53125 C 164.902344 45.550781 165.105469 45.570312 165.304688 45.601562 C 166.078125 45.699219 166.851562 45.804688 167.613281 45.921875 C 167.675781 45.929688 167.738281 45.941406 167.804688 45.953125 C 168.679688 46.089844 169.558594 46.25 170.425781 46.40625 C 170.449219 46.40625 170.46875 46.417969 170.492188 46.417969 C 171.210938 46.554688 171.929688 46.703125 172.636719 46.863281 C 172.871094 46.914062 173.105469 46.96875 173.328125 47.019531 C 173.390625 47.03125 173.441406 47.042969 173.496094 47.0625 C 174.195312 47.222656 174.890625 47.390625 175.589844 47.570312 C 176.425781 47.78125 177.25 48.015625 178.066406 48.269531 C 178.109375 48.269531 178.152344 48.28125 178.195312 48.300781 C 178.890625 48.5 179.578125 48.714844 180.257812 48.945312 C 180.46875 49.007812 180.679688 49.082031 180.890625 49.15625 C 181.503906 49.359375 182.117188 49.570312 182.722656 49.804688 C 182.984375 49.898438 183.25 49.992188 183.503906 50.097656 C 183.980469 50.269531 184.457031 50.457031 184.933594 50.648438 C 185.164062 50.746094 185.386719 50.839844 185.621094 50.933594 C 185.769531 50.988281 185.929688 51.050781 186.074219 51.125 C 186.65625 51.359375 187.25 51.613281 187.820312 51.875 C 187.96875 51.941406 188.109375 52.003906 188.246094 52.066406 C 188.847656 52.34375 189.453125 52.628906 190.042969 52.921875 C 190.796875 53.285156 191.535156 53.664062 192.277344 54.054688 C 192.59375 54.226562 192.902344 54.394531 193.21875 54.5625 C 193.269531 54.59375 193.335938 54.625 193.386719 54.660156 C 193.90625 54.933594 194.414062 55.230469 194.921875 55.527344 L 194.933594 55.527344 L 244.195312 84.078125 L 244.503906 84.257812 C 245.667969 84.921875 246.808594 85.632812 247.941406 86.363281 C 260.964844 94.878906 271.144531 106.726562 278.414062 121.894531 C 285.472656 136.546875 289.101562 153.453125 289.34375 172.628906 Z M 289.34375 172.632812 " fill-opacity="1" fill-rule="nonzero"/></g><g clip-path="url(#508a15ab75)"><path fill="#b0d9d9" d="M 239.773438 145.941406 C 239.773438 172.039062 234.621094 196.476562 224.316406 219.25 C 213.964844 241.984375 199.703125 260.644531 181.503906 275.234375 C 163.296875 289.777344 142.96875 298.589844 120.519531 301.617188 L 120.519531 247.917969 C 121.183594 247.71875 121.839844 247.515625 122.496094 247.304688 C 123.605469 246.945312 124.695312 246.574219 125.777344 246.171875 C 126.539062 245.910156 127.289062 245.621094 128.03125 245.328125 C 128.0625 245.316406 128.082031 245.304688 128.105469 245.296875 C 128.589844 245.105469 129.066406 244.914062 129.542969 244.714844 C 129.914062 244.566406 130.273438 244.40625 130.632812 244.257812 C 131.226562 243.992188 131.796875 243.738281 132.367188 243.476562 C 134.21875 242.617188 136.019531 241.699219 137.753906 240.726562 C 138.175781 240.492188 138.589844 240.25 139.003906 240.003906 C 139.289062 239.835938 139.5625 239.679688 139.839844 239.507812 C 140.261719 239.253906 140.675781 238.992188 141.085938 238.738281 C 141.871094 238.238281 142.632812 237.730469 143.371094 237.214844 C 143.710938 236.980469 144.039062 236.746094 144.367188 236.503906 C 144.925781 236.101562 145.488281 235.699219 146.027344 235.277344 C 146.492188 234.917969 146.957031 234.558594 147.414062 234.1875 C 147.433594 234.167969 147.46875 234.144531 147.488281 234.125 C 147.921875 233.773438 148.355469 233.414062 148.777344 233.046875 C 150.324219 231.722656 151.804688 230.328125 153.210938 228.867188 C 153.625 228.445312 154.039062 228.011719 154.429688 227.574219 C 154.832031 227.140625 155.222656 226.699219 155.613281 226.253906 C 155.636719 226.222656 155.667969 226.191406 155.699219 226.148438 C 156.121094 225.671875 156.523438 225.175781 156.925781 224.675781 C 157.296875 224.222656 157.667969 223.769531 158.027344 223.292969 C 158.121094 223.164062 158.21875 223.039062 158.3125 222.910156 C 158.628906 222.488281 158.945312 222.066406 159.253906 221.628906 C 162.25 217.453125 164.820312 212.859375 166.945312 207.859375 C 167.242188 207.160156 167.527344 206.460938 167.792969 205.753906 C 168.003906 205.246094 168.195312 204.738281 168.375 204.21875 C 168.597656 203.636719 168.808594 203.054688 169 202.460938 C 169.1875 201.914062 169.367188 201.363281 169.539062 200.8125 C 170.066406 199.171875 170.53125 197.511719 170.945312 195.828125 C 172.945312 187.746094 173.78125 179.136719 173.441406 170.019531 C 172.785156 170.21875 172.128906 170.378906 171.484375 170.546875 C 164.207031 172.367188 157.222656 173.253906 150.566406 173.253906 C 138.398438 173.253906 127.332031 170.546875 117.324219 165.058594 C 116.699219 164.71875 116.074219 164.367188 115.472656 164.007812 C 114.910156 163.679688 114.347656 163.34375 113.808594 163.003906 C 113.640625 162.886719 113.472656 162.78125 113.300781 162.675781 C 112.855469 162.390625 112.414062 162.105469 111.980469 161.808594 C 111.914062 161.757812 111.851562 161.714844 111.789062 161.671875 C 111.300781 161.34375 110.824219 161.003906 110.359375 160.667969 C 110.253906 160.582031 110.160156 160.507812 110.054688 160.433594 C 109.589844 160.09375 109.132812 159.746094 108.6875 159.398438 C 108.605469 159.332031 108.519531 159.257812 108.433594 159.195312 C 108.03125 158.878906 107.628906 158.550781 107.238281 158.210938 C 107.046875 158.0625 106.867188 157.894531 106.679688 157.738281 C 106.382812 157.480469 106.085938 157.230469 105.800781 156.953125 C 105.597656 156.785156 105.398438 156.605469 105.195312 156.402344 C 104.933594 156.171875 104.667969 155.925781 104.402344 155.664062 C 104.148438 155.417969 103.886719 155.164062 103.640625 154.910156 C 103.441406 154.722656 103.238281 154.519531 103.058594 154.320312 C 102.816406 154.074219 102.582031 153.832031 102.351562 153.589844 C 102.097656 153.324219 101.84375 153.050781 101.609375 152.773438 C 101.386719 152.542969 101.175781 152.308594 100.976562 152.066406 C 100.371094 151.390625 99.789062 150.691406 99.230469 149.972656 C 98.964844 149.644531 98.710938 149.316406 98.457031 148.976562 C 97.640625 147.910156 96.871094 146.808594 96.128906 145.675781 C 95.421875 144.585938 94.734375 143.476562 94.085938 142.324219 C 88.636719 132.601562 85.898438 121.675781 85.898438 109.539062 C 85.898438 108.96875 85.90625 108.410156 85.917969 107.835938 C 85.929688 107.371094 85.941406 106.90625 85.960938 106.441406 C 86.003906 105.296875 86.078125 104.167969 86.183594 103.035156 C 86.203125 102.78125 86.226562 102.527344 86.257812 102.285156 C 86.289062 101.945312 86.320312 101.605469 86.351562 101.269531 C 86.363281 101.234375 86.363281 101.203125 86.375 101.160156 C 86.4375 100.644531 86.5 100.113281 86.574219 99.597656 C 86.636719 99.121094 86.710938 98.644531 86.796875 98.167969 C 86.902344 97.46875 87.03125 96.761719 87.167969 96.0625 C 87.21875 95.765625 87.285156 95.460938 87.347656 95.164062 C 87.664062 93.683594 88.023438 92.222656 88.449219 90.785156 C 88.554688 90.394531 88.679688 90 88.796875 89.609375 C 88.957031 89.09375 89.125 88.585938 89.292969 88.078125 C 89.515625 87.429688 89.738281 86.796875 89.980469 86.160156 C 90.128906 85.78125 90.265625 85.410156 90.425781 85.03125 C 90.574219 84.660156 90.734375 84.289062 90.890625 83.917969 C 91.199219 83.167969 91.539062 82.425781 91.886719 81.707031 C 92.003906 81.464844 92.117188 81.222656 92.234375 80.976562 C 92.382812 80.671875 92.542969 80.363281 92.699219 80.066406 C 92.890625 79.6875 93.082031 79.316406 93.292969 78.945312 C 94.550781 76.597656 95.980469 74.335938 97.578125 72.15625 C 97.886719 71.722656 98.203125 71.296875 98.53125 70.875 C 99.21875 69.976562 99.925781 69.085938 100.679688 68.21875 C 100.984375 67.859375 101.292969 67.5 101.609375 67.152344 C 101.96875 66.75 102.328125 66.347656 102.710938 65.945312 C 103.027344 65.597656 103.355469 65.257812 103.683594 64.917969 C 104.117188 64.464844 104.5625 64.019531 105.015625 63.578125 C 117.777344 51.148438 134.15625 44.914062 154.1875 44.914062 C 155.03125 44.914062 155.867188 44.925781 156.703125 44.957031 C 156.882812 44.957031 157.0625 44.957031 157.234375 44.96875 C 157.984375 44.988281 158.734375 45.023438 159.476562 45.074219 C 159.613281 45.074219 159.75 45.085938 159.878906 45.09375 C 160.683594 45.136719 161.488281 45.203125 162.289062 45.277344 C 162.417969 45.285156 162.535156 45.296875 162.648438 45.308594 C 163.328125 45.371094 164.015625 45.445312 164.691406 45.53125 C 164.902344 45.550781 165.105469 45.570312 165.304688 45.601562 C 166.078125 45.699219 166.851562 45.804688 167.613281 45.921875 C 167.675781 45.929688 167.738281 45.941406 167.804688 45.953125 C 168.679688 46.089844 169.558594 46.25 170.425781 46.40625 C 170.449219 46.40625 170.46875 46.417969 170.492188 46.417969 C 171.210938 46.554688 171.929688 46.703125 172.636719 46.863281 C 172.871094 46.914062 173.105469 46.96875 173.328125 47.019531 C 173.390625 47.03125 173.441406 47.042969 173.496094 47.0625 C 174.195312 47.222656 174.890625 47.390625 175.589844 47.570312 C 176.425781 47.78125 177.25 48.015625 178.066406 48.269531 C 178.109375 48.269531 178.152344 48.28125 178.195312 48.300781 C 178.890625 48.5 179.578125 48.714844 180.257812 48.945312 C 180.46875 49.007812 180.679688 49.082031 180.890625 49.15625 C 181.503906 49.359375 182.117188 49.570312 182.722656 49.804688 C 182.984375 49.898438 183.25 49.992188 183.503906 50.097656 C 183.980469 50.269531 184.457031 50.457031 184.933594 50.648438 C 185.164062 50.746094 185.386719 50.839844 185.621094 50.933594 C 185.769531 50.988281 185.929688 51.050781 186.074219 51.125 C 186.65625 51.359375 187.25 51.613281 187.820312 51.875 C 187.96875 51.941406 188.109375 52.003906 188.246094 52.066406 C 188.847656 52.34375 189.453125 52.628906 190.042969 52.921875 C 190.796875 53.285156 191.535156 53.664062 192.277344 54.054688 C 192.59375 54.226562 192.902344 54.394531 193.21875 54.5625 C 193.269531 54.59375 193.335938 54.625 193.386719 54.660156 C 193.90625 54.933594 194.414062 55.230469 194.921875 55.527344 L 194.933594 55.527344 C 196.097656 56.191406 197.238281 56.902344 198.371094 57.632812 C 211.386719 66.148438 221.5625 77.996094 228.84375 93.164062 C 236.15625 108.335938 239.773438 125.914062 239.773438 145.941406 Z M 239.773438 145.941406 " fill-opacity="1" fill-rule="nonzero"/></g><g clip-path="url(#339f28c753)"><path fill="#1c1d22" d="M 278.898438 121.664062 C 271.621094 106.496094 261.304688 94.472656 248.230469 85.921875 C 247.085938 85.179688 245.921875 84.464844 244.769531 83.796875 L 244.464844 83.621094 C 195.925781 55.488281 195.195312 55.066406 195.195312 55.066406 C 194.859375 54.871094 194.515625 54.691406 194.179688 54.5 C 193.917969 54.355469 193.65625 54.207031 193.394531 54.0625 C 192.761719 53.71875 192.128906 53.386719 191.488281 53.0625 C 191.3125 52.972656 191.136719 52.878906 190.957031 52.789062 C 190.175781 52.398438 189.394531 52.023438 188.601562 51.660156 C 188.554688 51.640625 188.507812 51.617188 188.460938 51.59375 C 185.859375 50.40625 183.199219 49.367188 180.476562 48.472656 C 180.371094 48.4375 180.261719 48.40625 180.15625 48.371094 C 179.386719 48.121094 178.613281 47.878906 177.832031 47.652344 C 177.605469 47.589844 177.375 47.527344 177.144531 47.464844 C 176.484375 47.277344 175.820312 47.097656 175.152344 46.929688 C 174.859375 46.855469 174.566406 46.785156 174.277344 46.714844 C 173.664062 46.570312 173.050781 46.425781 172.4375 46.292969 C 172.105469 46.222656 171.769531 46.152344 171.4375 46.085938 C 170.855469 45.96875 170.273438 45.855469 169.6875 45.75 C 169.328125 45.683594 168.96875 45.621094 168.605469 45.5625 C 168.035156 45.464844 167.464844 45.378906 166.890625 45.292969 C 166.515625 45.242188 166.144531 45.1875 165.765625 45.136719 C 165.195312 45.0625 164.621094 44.996094 164.046875 44.929688 C 163.667969 44.890625 163.289062 44.84375 162.90625 44.808594 C 162.316406 44.75 161.726562 44.703125 161.132812 44.65625 C 160.765625 44.628906 160.398438 44.597656 160.027344 44.574219 C 159.375 44.53125 158.722656 44.503906 158.066406 44.476562 C 157.75 44.460938 157.4375 44.441406 157.125 44.433594 C 156.148438 44.402344 155.171875 44.382812 154.191406 44.382812 C 134.128906 44.382812 117.460938 50.710938 104.648438 63.195312 C 103.886719 63.9375 103.152344 64.691406 102.433594 65.460938 C 102.230469 65.675781 102.039062 65.898438 101.835938 66.121094 C 101.320312 66.6875 100.808594 67.257812 100.3125 67.835938 C 100.132812 68.050781 99.957031 68.265625 99.777344 68.480469 C 99.265625 69.097656 98.761719 69.71875 98.277344 70.347656 C 98.152344 70.511719 98.03125 70.671875 97.90625 70.835938 C 97.617188 71.21875 97.316406 71.597656 97.039062 71.984375 C 96.769531 72.355469 96.519531 72.734375 96.261719 73.109375 L 96.222656 73.164062 C 94.429688 75.769531 92.859375 78.484375 91.507812 81.304688 C 91.496094 81.328125 91.484375 81.351562 91.476562 81.375 C 91.039062 82.292969 90.621094 83.222656 90.230469 84.160156 C 90.21875 84.183594 90.210938 84.207031 90.199219 84.230469 C 89.421875 86.109375 88.734375 88.03125 88.144531 89.996094 C 88.097656 90.152344 88.054688 90.3125 88.007812 90.46875 C 87.777344 91.25 87.566406 92.035156 87.367188 92.828125 C 87.308594 93.066406 87.25 93.304688 87.191406 93.542969 C 87 94.339844 86.828125 95.148438 86.667969 95.960938 C 86.632812 96.128906 86.59375 96.296875 86.5625 96.46875 C 86.378906 97.441406 86.214844 98.421875 86.074219 99.410156 C 86.042969 99.628906 86.019531 99.847656 85.992188 100.066406 C 85.890625 100.832031 85.796875 101.605469 85.722656 102.382812 C 85.6875 102.710938 85.660156 103.042969 85.632812 103.371094 C 85.574219 104.085938 85.523438 104.804688 85.484375 105.523438 C 85.46875 105.835938 85.449219 106.148438 85.4375 106.460938 C 85.394531 107.480469 85.367188 108.503906 85.367188 109.539062 C 85.367188 121.6875 88.144531 132.808594 93.625 142.582031 C 94.296875 143.773438 95.007812 144.929688 95.75 146.058594 C 96.011719 146.453125 96.296875 146.828125 96.566406 147.214844 C 97.0625 147.933594 97.558594 148.65625 98.085938 149.347656 C 98.417969 149.785156 98.773438 150.199219 99.117188 150.625 C 99.617188 151.242188 100.109375 151.863281 100.628906 152.460938 C 101.003906 152.886719 101.402344 153.292969 101.789062 153.710938 C 102.3125 154.273438 102.835938 154.839844 103.378906 155.382812 C 103.789062 155.789062 104.21875 156.175781 104.640625 156.566406 C 105.195312 157.089844 105.753906 157.613281 106.332031 158.113281 C 106.773438 158.492188 107.230469 158.855469 107.683594 159.222656 C 108.277344 159.707031 108.871094 160.1875 109.484375 160.648438 C 109.957031 161 110.441406 161.339844 110.925781 161.679688 C 111.550781 162.121094 112.179688 162.558594 112.824219 162.980469 C 113.335938 163.3125 113.859375 163.632812 114.382812 163.949219 C 114.765625 164.183594 115.132812 164.433594 115.523438 164.660156 L 165.09375 193.390625 C 165.601562 193.683594 166.117188 193.976562 166.636719 194.257812 C 167.84375 194.917969 169.078125 195.542969 170.3125 196.121094 C 170.253906 196.355469 170.203125 196.589844 170.140625 196.820312 C 170.136719 196.839844 170.132812 196.855469 170.125 196.875 C 169.945312 197.558594 169.757812 198.242188 169.558594 198.921875 C 169.515625 199.066406 169.472656 199.214844 169.425781 199.363281 C 169.261719 199.917969 169.09375 200.46875 168.917969 201.019531 C 168.84375 201.25 168.765625 201.480469 168.6875 201.714844 C 168.53125 202.183594 168.375 202.652344 168.210938 203.121094 C 168.109375 203.402344 168.007812 203.683594 167.90625 203.960938 C 167.765625 204.34375 167.625 204.726562 167.480469 205.109375 C 167.152344 205.960938 166.816406 206.8125 166.460938 207.65625 C 165.933594 208.890625 165.378906 210.105469 164.796875 211.296875 C 159.003906 223.117188 150.464844 232.445312 139.28125 239.191406 C 139.191406 239.246094 139.097656 239.296875 139.007812 239.351562 C 138.046875 239.925781 137.066406 240.480469 136.066406 241.015625 C 135.882812 241.113281 135.699219 241.210938 135.515625 241.308594 C 133.335938 242.453125 131.066406 243.507812 128.703125 244.476562 C 128.394531 244.605469 128.074219 244.726562 127.761719 244.851562 C 126.878906 245.199219 125.984375 245.535156 125.078125 245.859375 C 124.734375 245.984375 124.390625 246.109375 124.042969 246.230469 C 122.835938 246.644531 121.613281 247.042969 120.367188 247.417969 C 120.140625 247.484375 119.988281 247.6875 119.988281 247.921875 L 119.988281 301.621094 C 119.988281 301.707031 120.011719 301.789062 120.050781 301.863281 C 120.066406 301.886719 120.082031 301.902344 120.097656 301.925781 C 120.121094 301.957031 120.136719 301.992188 120.167969 302.019531 C 120.183594 302.035156 120.207031 302.039062 120.226562 302.050781 C 120.234375 302.058594 120.238281 302.070312 120.25 302.078125 L 169.820312 330.8125 C 169.902344 330.859375 169.996094 330.882812 170.085938 330.882812 C 170.113281 330.882812 170.136719 330.882812 170.160156 330.878906 C 192.582031 327.847656 213.1875 318.929688 231.402344 304.375 C 249.574219 289.820312 264.027344 270.921875 274.367188 248.199219 C 284.660156 225.464844 289.878906 200.726562 289.878906 174.675781 C 289.878906 154.625 286.183594 136.789062 278.898438 121.664062 Z M 86.425781 109.539062 C 86.425781 108.519531 86.453125 107.511719 86.492188 106.507812 C 86.507812 106.203125 86.523438 105.902344 86.542969 105.597656 C 86.578125 104.882812 86.628906 104.167969 86.6875 103.460938 C 86.714844 103.144531 86.742188 102.824219 86.773438 102.507812 C 86.847656 101.726562 86.941406 100.949219 87.042969 100.175781 C 87.070312 99.980469 87.089844 99.78125 87.117188 99.585938 C 87.257812 98.601562 87.421875 97.625 87.601562 96.660156 C 87.628906 96.523438 87.660156 96.390625 87.6875 96.257812 C 87.851562 95.417969 88.03125 94.585938 88.230469 93.757812 C 88.277344 93.554688 88.328125 93.355469 88.378906 93.15625 C 88.585938 92.324219 88.804688 91.5 89.046875 90.6875 C 89.078125 90.578125 89.109375 90.464844 89.140625 90.355469 C 91.199219 83.519531 94.421875 77.195312 98.792969 71.417969 C 98.894531 71.285156 98.992188 71.152344 99.097656 71.019531 C 99.585938 70.382812 100.09375 69.753906 100.613281 69.132812 C 100.78125 68.929688 100.945312 68.722656 101.121094 68.519531 C 101.601562 67.953125 102.105469 67.394531 102.613281 66.839844 C 102.8125 66.617188 103.007812 66.394531 103.210938 66.175781 C 103.917969 65.425781 104.636719 64.679688 105.386719 63.949219 C 117.992188 51.667969 134.414062 45.441406 154.191406 45.441406 C 155.160156 45.441406 156.125 45.457031 157.085938 45.488281 C 157.398438 45.5 157.707031 45.519531 158.019531 45.53125 C 158.664062 45.558594 159.3125 45.585938 159.953125 45.628906 C 160.316406 45.652344 160.679688 45.683594 161.039062 45.710938 C 161.628906 45.757812 162.214844 45.804688 162.800781 45.859375 C 163.171875 45.894531 163.542969 45.941406 163.917969 45.980469 C 164.488281 46.042969 165.054688 46.109375 165.621094 46.183594 C 165.992188 46.234375 166.359375 46.285156 166.726562 46.339844 C 167.292969 46.421875 167.863281 46.507812 168.425781 46.605469 C 168.78125 46.664062 169.132812 46.726562 169.484375 46.789062 C 170.066406 46.894531 170.644531 47.003906 171.222656 47.121094 C 171.550781 47.1875 171.875 47.253906 172.199219 47.324219 C 172.808594 47.457031 173.417969 47.597656 174.023438 47.742188 C 174.308594 47.8125 174.597656 47.878906 174.878906 47.953125 C 175.546875 48.121094 176.207031 48.296875 176.863281 48.484375 C 177.085938 48.546875 177.304688 48.605469 177.523438 48.667969 C 178.296875 48.890625 179.066406 49.128906 179.832031 49.378906 C 179.933594 49.410156 180.035156 49.441406 180.136719 49.472656 C 182.824219 50.359375 185.453125 51.386719 188.019531 52.554688 C 188.0625 52.578125 188.105469 52.597656 188.152344 52.617188 C 188.933594 52.976562 189.710938 53.347656 190.484375 53.734375 C 190.65625 53.824219 190.832031 53.914062 191.007812 54.003906 C 191.636719 54.324219 192.261719 54.652344 192.886719 54.992188 C 193.144531 55.132812 193.40625 55.28125 193.664062 55.425781 C 195.15625 56.261719 196.632812 57.140625 198.082031 58.078125 C 210.988281 66.519531 221.179688 78.398438 228.367188 93.390625 C 235.585938 108.371094 239.246094 126.054688 239.246094 145.945312 C 239.246094 171.847656 234.058594 196.433594 223.828125 219.027344 C 213.5625 241.597656 199.210938 260.367188 181.167969 274.816406 C 163.269531 289.121094 143.046875 297.933594 121.046875 301.011719 L 121.046875 248.316406 C 122.300781 247.9375 123.527344 247.53125 124.738281 247.105469 C 125.089844 246.984375 125.4375 246.855469 125.785156 246.730469 C 126.691406 246.402344 127.585938 246.0625 128.46875 245.707031 C 128.789062 245.578125 129.113281 245.453125 129.429688 245.320312 C 131.789062 244.347656 134.054688 243.28125 136.234375 242.128906 C 136.453125 242.011719 136.667969 241.894531 136.882812 241.777344 C 137.84375 241.257812 138.789062 240.71875 139.710938 240.164062 C 139.839844 240.085938 139.972656 240.011719 140.101562 239.933594 C 147.894531 235.199219 154.421875 229.230469 159.59375 222.066406 C 161.886719 218.890625 163.949219 215.4375 165.75 211.757812 C 166.339844 210.554688 166.902344 209.324219 167.433594 208.070312 C 167.800781 207.207031 168.144531 206.332031 168.480469 205.457031 C 168.519531 205.351562 168.5625 205.25 168.601562 205.148438 C 168.699219 204.890625 168.789062 204.628906 168.882812 204.371094 C 169.007812 204.03125 169.128906 203.691406 169.25 203.351562 C 169.402344 202.914062 169.550781 202.472656 169.695312 202.03125 C 169.792969 201.742188 169.886719 201.453125 169.980469 201.160156 C 170.144531 200.648438 170.300781 200.128906 170.457031 199.609375 C 170.519531 199.402344 170.582031 199.191406 170.640625 198.984375 C 170.820312 198.371094 170.988281 197.753906 171.148438 197.136719 C 171.179688 197.019531 171.210938 196.90625 171.242188 196.789062 C 171.3125 196.515625 171.390625 196.238281 171.457031 195.960938 C 171.464844 195.933594 171.460938 195.902344 171.464844 195.875 C 173.46875 187.734375 174.3125 179.078125 173.96875 170 C 173.964844 169.835938 173.882812 169.683594 173.75 169.589844 C 173.617188 169.496094 173.445312 169.464844 173.289062 169.511719 C 172.65625 169.703125 172.019531 169.863281 171.355469 170.027344 C 164.242188 171.816406 157.246094 172.71875 150.566406 172.71875 C 138.527344 172.71875 127.425781 169.988281 117.570312 164.597656 C 116.667969 164.105469 115.800781 163.574219 114.933594 163.046875 C 114.421875 162.734375 113.910156 162.421875 113.410156 162.097656 C 112.769531 161.679688 112.148438 161.25 111.53125 160.816406 C 111.0625 160.484375 110.589844 160.152344 110.128906 159.808594 C 109.519531 159.351562 108.925781 158.871094 108.339844 158.394531 C 107.902344 158.039062 107.460938 157.6875 107.035156 157.320312 C 106.457031 156.820312 105.902344 156.300781 105.34375 155.78125 C 104.941406 155.398438 104.527344 155.027344 104.132812 154.636719 C 103.585938 154.09375 103.0625 153.527344 102.539062 152.960938 C 102.171875 152.566406 101.789062 152.175781 101.433594 151.769531 C 100.90625 151.167969 100.410156 150.542969 99.90625 149.917969 C 99.582031 149.515625 99.246094 149.125 98.933594 148.714844 C 98.398438 148.015625 97.898438 147.285156 97.394531 146.558594 C 97.144531 146.195312 96.878906 145.847656 96.636719 145.480469 C 95.90625 144.371094 95.210938 143.234375 94.546875 142.066406 C 89.160156 132.449219 86.425781 121.507812 86.425781 109.539062 Z M 167.144531 193.328125 C 166.632812 193.050781 166.125 192.765625 165.625 192.476562 L 126.277344 169.667969 C 133.832031 172.394531 141.960938 173.777344 150.566406 173.777344 C 157.332031 173.777344 164.414062 172.863281 171.640625 171.046875 C 172.074219 170.941406 172.503906 170.832031 172.933594 170.714844 C 173.203125 179.242188 172.40625 187.390625 170.574219 195.066406 C 169.421875 194.523438 168.269531 193.945312 167.144531 193.328125 Z M 273.402344 247.761719 C 263.136719 270.332031 248.78125 289.101562 230.742188 303.550781 C 212.730469 317.941406 192.355469 326.777344 170.195312 329.804688 L 122.082031 301.917969 C 143.925781 298.695312 164.023438 289.871094 181.832031 275.640625 C 200.003906 261.085938 214.457031 242.1875 224.792969 219.464844 C 235.085938 196.734375 240.304688 171.996094 240.304688 145.945312 C 240.304688 125.894531 236.609375 108.058594 229.320312 92.933594 C 223.429688 80.648438 215.539062 70.425781 205.808594 62.441406 C 220.339844 70.863281 243.933594 84.535156 243.933594 84.535156 L 244.238281 84.714844 C 245.375 85.371094 246.523438 86.078125 247.652344 86.808594 C 260.5625 95.25 270.753906 107.128906 277.941406 122.121094 C 285.160156 137.105469 288.820312 154.785156 288.820312 174.675781 C 288.820312 200.574219 283.632812 225.164062 273.402344 247.761719 Z M 273.402344 247.761719 " fill-opacity="1" fill-rule="nonzero"/></g></svg>