<svg width="120" height="28" viewBox="0 0 120 28" fill="none" xmlns="http://www.w3.org/2000/svg">
<path d="M16.604 21.42H5.66L3.644 27H0.188L9.26 2.052H13.04L22.076 27H18.62L16.604 21.42ZM15.668 18.756L11.132 6.084L6.596 18.756H15.668ZM35.6418 6.912C38.0418 6.912 39.9858 7.644 41.4738 9.108C42.9618 10.548 43.7058 12.636 43.7058 15.372V27H40.4658V15.84C40.4658 13.872 39.9738 12.372 38.9898 11.34C38.0058 10.284 36.6618 9.756 34.9578 9.756C33.2298 9.756 31.8498 10.296 30.8178 11.376C29.8098 12.456 29.3058 14.028 29.3058 16.092V27H26.0298V7.272H29.3058V10.08C29.9538 9.072 30.8298 8.292 31.9338 7.74C33.0618 7.188 34.2978 6.912 35.6418 6.912ZM58.6692 6.912C61.0692 6.912 63.0132 7.644 64.5012 9.108C65.9892 10.548 66.7332 12.636 66.7332 15.372V27H63.4932V15.84C63.4932 13.872 63.0012 12.372 62.0172 11.34C61.0332 10.284 59.6892 9.756 57.9852 9.756C56.2572 9.756 54.8772 10.296 53.8452 11.376C52.8372 12.456 52.3332 14.028 52.3332 16.092V27H49.0572V7.272H52.3332V10.08C52.9812 9.072 53.8572 8.292 54.9612 7.74C56.0892 7.188 57.3252 6.912 58.6692 6.912ZM70.8605 17.064C70.8605 15.048 71.2685 13.284 72.0845 11.772C72.9005 10.236 74.0165 9.048 75.4325 8.208C76.8725 7.368 78.4685 6.948 80.2205 6.948C81.9485 6.948 83.4485 7.32 84.7205 8.064C85.9925 8.808 86.9405 9.744 87.5645 10.872V7.272H90.8765V27H87.5645V23.328C86.9165 24.48 85.9445 25.44 84.6485 26.208C83.3765 26.952 81.8885 27.324 80.1845 27.324C78.4325 27.324 76.8485 26.892 75.4325 26.028C74.0165 25.164 72.9005 23.952 72.0845 22.392C71.2685 20.832 70.8605 19.056 70.8605 17.064ZM87.5645 17.1C87.5645 15.612 87.2645 14.316 86.6645 13.212C86.0645 12.108 85.2485 11.268 84.2165 10.692C83.2085 10.092 82.0925 9.792 80.8685 9.792C79.6445 9.792 78.5285 10.08 77.5205 10.656C76.5125 11.232 75.7085 12.072 75.1085 13.176C74.5085 14.28 74.2085 15.576 74.2085 17.064C74.2085 18.576 74.5085 19.896 75.1085 21.024C75.7085 22.128 76.5125 22.98 77.5205 23.58C78.5285 24.156 79.6445 24.444 80.8685 24.444C82.0925 24.444 83.2085 24.156 84.2165 23.58C85.2485 22.98 86.0645 22.128 86.6645 21.024C87.2645 19.896 87.5645 18.588 87.5645 17.1ZM99.6886 0.36V27H96.4126V0.36H99.6886ZM112.256 27.324C110.744 27.324 109.388 27.072 108.188 26.568C106.988 26.04 106.04 25.32 105.344 24.408C104.648 23.472 104.264 22.404 104.192 21.204H107.576C107.672 22.188 108.128 22.992 108.944 23.616C109.784 24.24 110.876 24.552 112.22 24.552C113.468 24.552 114.452 24.276 115.172 23.724C115.892 23.172 116.252 22.476 116.252 21.636C116.252 20.772 115.868 20.136 115.1 19.728C114.332 19.296 113.144 18.876 111.536 18.468C110.072 18.084 108.872 17.7 107.936 17.316C107.024 16.908 106.232 16.32 105.56 15.552C104.912 14.76 104.588 13.728 104.588 12.456C104.588 11.448 104.888 10.524 105.488 9.684C106.088 8.844 106.94 8.184 108.044 7.704C109.148 7.2 110.408 6.948 111.824 6.948C114.008 6.948 115.772 7.5 117.116 8.604C118.46 9.708 119.18 11.22 119.276 13.14H116C115.928 12.108 115.508 11.28 114.74 10.656C113.996 10.032 112.988 9.72 111.716 9.72C110.54 9.72 109.604 9.972 108.908 10.476C108.212 10.98 107.864 11.64 107.864 12.456C107.864 13.104 108.068 13.644 108.476 14.076C108.908 14.484 109.436 14.82 110.06 15.084C110.708 15.324 111.596 15.6 112.724 15.912C114.14 16.296 115.292 16.68 116.18 17.064C117.068 17.424 117.824 17.976 118.448 18.72C119.096 19.464 119.432 20.436 119.456 21.636C119.456 22.716 119.156 23.688 118.556 24.552C117.956 25.416 117.104 26.1 116 26.604C114.92 27.084 113.672 27.324 112.256 27.324Z" fill="url(#paint0_linear_355_516)"/>
<defs>
<linearGradient id="paint0_linear_355_516" x1="7.21739" y1="6.15385" x2="94.5875" y2="70.9854" gradientUnits="userSpaceOnUse">
<stop stop-color="#212EED"/>
<stop offset="0.99" stop-color="#9716DB"/>
</linearGradient>
</defs>
</svg>
