<svg width="139" height="51" viewBox="0 0 139 51" fill="none" xmlns="http://www.w3.org/2000/svg">
<path d="M10.772 34.288C7.58 34.288 5.024 33.688 3.104 32.488C1.184 31.264 0.224 29.404 0.224 26.908C0.224 25.588 0.452 24.58 0.908 23.884C1.364 23.188 2.036 22.84 2.924 22.84C3.572 22.84 4.1 23.008 4.508 23.344C4.916 23.68 5.12 24.112 5.12 24.64C5.12 25.12 5.084 25.54 5.012 25.9C5.012 25.996 4.988 26.164 4.94 26.404C4.916 26.644 4.904 26.896 4.904 27.16C4.904 28.24 5.444 29.044 6.524 29.572C7.628 30.1 9.164 30.364 11.132 30.364C13.172 30.364 14.768 30.004 15.92 29.284C17.072 28.54 17.648 27.508 17.648 26.188C17.648 25.372 17.384 24.676 16.856 24.1C16.328 23.5 15.668 23.008 14.876 22.624C14.084 22.216 12.968 21.724 11.528 21.148C9.68 20.428 8.168 19.744 6.992 19.096C5.84 18.448 4.844 17.572 4.004 16.468C3.188 15.34 2.78 13.948 2.78 12.292C2.78 10.564 3.236 9.028 4.148 7.684C5.084 6.34 6.416 5.296 8.144 4.552C9.896 3.808 11.948 3.436 14.3 3.436C16.052 3.436 17.66 3.7 19.124 4.228C20.588 4.732 21.752 5.512 22.616 6.568C23.504 7.624 23.948 8.92 23.948 10.456C23.948 11.968 23.72 13.108 23.264 13.876C22.808 14.644 22.136 15.028 21.248 15.028C20.624 15.028 20.096 14.836 19.664 14.452C19.256 14.068 19.052 13.612 19.052 13.084C19.052 12.628 19.088 12.208 19.16 11.824C19.232 11.104 19.268 10.648 19.268 10.456C19.268 9.448 18.776 8.68 17.792 8.152C16.808 7.624 15.584 7.36 14.12 7.36C12.056 7.36 10.472 7.744 9.368 8.512C8.288 9.256 7.748 10.312 7.748 11.68C7.748 12.592 8.024 13.372 8.576 14.02C9.152 14.668 9.86 15.208 10.7 15.64C11.54 16.072 12.716 16.588 14.228 17.188C16.052 17.932 17.516 18.604 18.62 19.204C19.724 19.804 20.66 20.62 21.428 21.652C22.22 22.684 22.616 23.956 22.616 25.468C22.616 28.3 21.536 30.484 19.376 32.02C17.24 33.532 14.372 34.288 10.772 34.288ZM43.9452 26.044C44.2572 26.044 44.4972 26.2 44.6652 26.512C44.8572 26.8 44.9532 27.172 44.9532 27.628C44.9532 28.18 44.8692 28.612 44.7012 28.924C44.5332 29.236 44.2692 29.512 43.9092 29.752L36.9972 34.396C36.0852 39.364 34.8852 43.264 33.3972 46.096C31.9332 48.952 30.0612 50.38 27.7812 50.38C26.5572 50.38 25.5612 49.996 24.7932 49.228C24.0252 48.484 23.6412 47.5 23.6412 46.276C23.6412 45.148 23.8932 43.996 24.3972 42.82C24.9252 41.644 25.8852 40.288 27.2772 38.752C28.6932 37.24 30.6852 35.5 33.2532 33.532L33.3612 32.704C33.5292 31.816 33.7212 30.544 33.9372 28.888C33.4572 30.616 32.7852 31.936 31.9212 32.848C31.0572 33.736 30.1452 34.18 29.1852 34.18C28.1052 34.18 27.2172 33.688 26.5212 32.704C25.8492 31.696 25.5132 30.448 25.5132 28.96C25.5132 27.16 25.6332 25.516 25.8732 24.028C26.1132 22.516 26.5092 20.92 27.0612 19.24C27.3012 18.52 27.6372 18.004 28.0692 17.692C28.5012 17.38 29.1852 17.224 30.1212 17.224C30.6492 17.224 31.0092 17.308 31.2012 17.476C31.4172 17.644 31.5252 17.896 31.5252 18.232C31.5252 18.424 31.3932 19.072 31.1292 20.176C30.8892 21.064 30.6972 21.868 30.5532 22.588C30.3612 23.572 30.1932 24.52 30.0492 25.432C29.9052 26.32 29.8332 27.052 29.8332 27.628C29.8332 28.54 30.0852 28.996 30.5892 28.996C30.9492 28.996 31.3932 28.636 31.9212 27.916C32.4732 27.196 33.0492 26.104 33.6492 24.64C34.2732 23.176 34.8732 21.376 35.4492 19.24C35.6412 18.52 35.9292 18.004 36.3132 17.692C36.7212 17.38 37.3212 17.224 38.1132 17.224C38.6652 17.224 39.0492 17.296 39.2652 17.44C39.4812 17.584 39.5892 17.824 39.5892 18.16C39.5892 18.76 39.2772 20.824 38.6532 24.352L37.7172 30.148C39.5652 28.756 41.3652 27.484 43.1172 26.332C43.4292 26.14 43.7052 26.044 43.9452 26.044ZM28.1772 46.888C28.7772 46.888 29.4492 46.192 30.1932 44.8C30.9372 43.408 31.6812 41.092 32.4252 37.852C30.5772 39.412 29.2332 40.828 28.3932 42.1C27.5772 43.396 27.1692 44.524 27.1692 45.484C27.1692 45.892 27.2412 46.228 27.3852 46.492C27.5532 46.756 27.8172 46.888 28.1772 46.888ZM44.909 34.18C43.997 34.18 43.349 33.7 42.965 32.74C42.605 31.78 42.425 30.244 42.425 28.132C42.425 25.012 42.869 22.048 43.757 19.24C43.973 18.544 44.321 18.04 44.801 17.728C45.305 17.392 46.001 17.224 46.889 17.224C47.369 17.224 47.705 17.284 47.897 17.404C48.089 17.524 48.185 17.752 48.185 18.088C48.185 18.472 48.005 19.336 47.645 20.68C47.405 21.64 47.213 22.48 47.069 23.2C46.925 23.92 46.805 24.808 46.709 25.864C47.501 23.8 48.389 22.12 49.373 20.824C50.357 19.528 51.317 18.604 52.253 18.052C53.213 17.5 54.089 17.224 54.881 17.224C56.441 17.224 57.221 18.004 57.221 19.564C57.221 20.5 56.957 22.192 56.429 24.64C55.973 26.728 55.745 28.108 55.745 28.78C55.745 29.74 56.093 30.22 56.789 30.22C57.269 30.22 57.833 29.932 58.481 29.356C59.153 28.756 60.041 27.796 61.145 26.476C61.433 26.14 61.757 25.972 62.117 25.972C62.429 25.972 62.669 26.116 62.837 26.404C63.029 26.692 63.125 27.088 63.125 27.592C63.125 28.552 62.897 29.296 62.441 29.824C61.409 31.096 60.293 32.14 59.093 32.956C57.917 33.772 56.573 34.18 55.061 34.18C53.837 34.18 52.913 33.832 52.289 33.136C51.665 32.416 51.353 31.384 51.353 30.04C51.353 29.368 51.521 28.168 51.857 26.44C52.169 24.928 52.325 23.884 52.325 23.308C52.325 22.924 52.193 22.732 51.929 22.732C51.617 22.732 51.173 23.14 50.597 23.956C50.045 24.748 49.469 25.804 48.869 27.124C48.293 28.444 47.825 29.836 47.465 31.3C47.201 32.428 46.889 33.196 46.529 33.604C46.193 33.988 45.653 34.18 44.909 34.18ZM76.2684 25.972C76.5804 25.972 76.8204 26.116 76.9884 26.404C77.1804 26.692 77.2764 27.088 77.2764 27.592C77.2764 28.552 77.0484 29.296 76.5924 29.824C75.5604 31.096 74.4324 32.14 73.2084 32.956C71.9844 33.772 70.5804 34.18 68.9964 34.18C64.1004 34.18 61.6524 30.736 61.6524 23.848C61.6524 22.792 61.6884 21.724 61.7604 20.644H60.3564C59.6364 20.644 59.1444 20.512 58.8804 20.248C58.6404 19.984 58.5204 19.564 58.5204 18.988C58.5204 17.644 59.0604 16.972 60.1404 16.972H62.1924C62.6004 14.332 63.2244 11.92 64.0644 9.736C64.9044 7.552 65.9124 5.812 67.0884 4.516C68.2884 3.22 69.5724 2.572 70.9404 2.572C71.9484 2.572 72.7404 3.016 73.3164 3.904C73.8924 4.792 74.1804 5.908 74.1804 7.252C74.1804 10.972 72.6204 14.212 69.5004 16.972H73.5324C73.9164 16.972 74.1924 17.056 74.3604 17.224C74.5284 17.392 74.6124 17.704 74.6124 18.16C74.6124 19.816 73.2564 20.644 70.5444 20.644H66.1524C66.1044 21.844 66.0804 22.78 66.0804 23.452C66.0804 25.948 66.3684 27.7 66.9444 28.708C67.5444 29.716 68.4804 30.22 69.7524 30.22C70.7844 30.22 71.6964 29.908 72.4884 29.284C73.2804 28.66 74.2164 27.724 75.2964 26.476C75.5844 26.14 75.9084 25.972 76.2684 25.972ZM69.9684 6.028C69.6084 6.028 69.2004 6.484 68.7444 7.396C68.3124 8.284 67.8924 9.532 67.4844 11.14C67.1004 12.724 66.7764 14.488 66.5124 16.432C67.9284 15.208 68.9844 13.84 69.6804 12.328C70.4004 10.792 70.7604 9.4 70.7604 8.152C70.7604 6.736 70.4964 6.028 69.9684 6.028ZM94.3252 25.972C94.6372 25.972 94.8772 26.116 95.0452 26.404C95.2372 26.692 95.3332 27.088 95.3332 27.592C95.3332 28.552 95.1052 29.296 94.6492 29.824C93.5452 31.096 92.4052 32.14 91.2292 32.956C90.0772 33.772 88.7572 34.18 87.2692 34.18C86.0452 34.18 85.1212 33.832 84.4972 33.136C83.8732 32.416 83.5612 31.384 83.5612 30.04C83.5612 29.368 83.7292 28.168 84.0652 26.44C84.3772 24.928 84.5332 23.884 84.5332 23.308C84.5332 22.924 84.4012 22.732 84.1372 22.732C83.8252 22.732 83.3812 23.14 82.8052 23.956C82.2292 24.748 81.6532 25.804 81.0772 27.124C80.5012 28.444 80.0332 29.836 79.6732 31.3C79.2172 33.22 78.0892 34.18 76.2892 34.18C75.5692 34.18 75.0892 33.928 74.8492 33.424C74.6332 32.896 74.5252 31.96 74.5252 30.616C74.5252 29.848 74.5372 29.236 74.5612 28.78L74.5972 25.9C74.5972 22.204 74.9692 18.352 75.7132 14.344C76.4812 10.336 77.5972 6.976 79.0612 4.264C80.5492 1.528 82.3252 0.159998 84.3892 0.159998C85.4932 0.159998 86.3812 0.639998 87.0532 1.6C87.7492 2.536 88.0972 3.76 88.0972 5.272C88.0972 7.696 87.3892 10.216 85.9732 12.832C84.5572 15.424 82.2532 18.46 79.0612 21.94C78.9892 23.188 78.9532 24.472 78.9532 25.792C79.7452 23.752 80.6212 22.096 81.5812 20.824C82.5652 19.528 83.5252 18.604 84.4612 18.052C85.4212 17.5 86.2972 17.224 87.0892 17.224C88.6492 17.224 89.4292 18.004 89.4292 19.564C89.4292 20.5 89.1652 22.192 88.6372 24.64C88.1812 26.728 87.9532 28.108 87.9532 28.78C87.9532 29.74 88.3012 30.22 88.9972 30.22C89.4772 30.22 90.0412 29.932 90.6892 29.356C91.3612 28.756 92.2492 27.796 93.3532 26.476C93.6412 26.14 93.9652 25.972 94.3252 25.972ZM83.6332 3.724C83.2012 3.724 82.7212 4.348 82.1932 5.596C81.6652 6.82 81.1492 8.488 80.6452 10.6C80.1652 12.688 79.7692 14.968 79.4572 17.44C80.9452 15.688 82.1692 13.78 83.1292 11.716C84.1132 9.652 84.6052 7.78 84.6052 6.1C84.6052 5.332 84.5212 4.744 84.3532 4.336C84.1852 3.928 83.9452 3.724 83.6332 3.724ZM102.64 34.18C100.624 34.18 99.0995 33.628 98.0675 32.524C97.0355 31.396 96.5195 29.896 96.5195 28.024C96.5195 26.968 96.6755 25.684 96.9875 24.172L99.2195 13.876C99.2675 13.684 99.3755 13.156 99.5435 12.292C99.7355 11.428 99.8315 10.492 99.8315 9.484C99.8315 8.908 99.7115 8.476 99.4715 8.188C99.2555 7.9 98.9555 7.756 98.5715 7.756C97.8515 7.756 97.0115 8.104 96.0515 8.8C95.0915 9.472 94.0835 10.516 93.0275 11.932C92.6915 12.388 92.3195 12.616 91.9115 12.616C91.5755 12.616 91.2755 12.46 91.0115 12.148C90.7715 11.812 90.6515 11.44 90.6515 11.032C90.6515 10.288 90.9875 9.448 91.6595 8.512C94.1075 5.152 96.9755 3.472 100.264 3.472C101.728 3.472 102.868 3.916 103.684 4.804C104.524 5.692 104.944 7 104.944 8.728C104.944 9.952 104.86 11.08 104.692 12.112C104.524 13.144 104.236 14.548 103.828 16.324L102.352 22.912C102.304 23.128 102.22 23.512 102.1 24.064C101.98 24.616 101.884 25.144 101.812 25.648C101.74 26.128 101.704 26.608 101.704 27.088C101.704 27.856 101.92 28.468 102.352 28.924C102.784 29.38 103.396 29.608 104.188 29.608C105.628 29.608 107.08 28.84 108.544 27.304C110.032 25.768 111.4 23.296 112.648 19.888C113.92 16.456 114.904 12.076 115.6 6.748C115.768 5.524 116.008 4.672 116.32 4.192C116.656 3.712 117.292 3.472 118.228 3.472C119.068 3.472 119.692 3.724 120.1 4.228C120.508 4.732 120.712 5.548 120.712 6.676C120.712 7.324 120.628 8.176 120.46 9.232C120.316 10.288 120.088 11.764 119.776 13.66C119.128 17.332 118.612 20.704 118.228 23.776C118.036 25.168 117.94 26.2 117.94 26.872C117.94 27.856 118.156 28.612 118.588 29.14C119.044 29.644 119.644 29.896 120.388 29.896C121.18 29.896 121.948 29.632 122.692 29.104C123.46 28.576 124.36 27.7 125.392 26.476C125.68 26.14 126.004 25.972 126.364 25.972C126.676 25.972 126.916 26.116 127.084 26.404C127.276 26.692 127.372 27.088 127.372 27.592C127.372 28.528 127.144 29.272 126.688 29.824C125.44 31.336 124.204 32.44 122.98 33.136C121.756 33.832 120.472 34.18 119.128 34.18C117.136 34.18 115.612 33.676 114.556 32.668C113.5 31.636 112.972 30.304 112.972 28.672C112.972 27.76 113.164 25.984 113.548 23.344C112.348 26.872 110.824 29.56 108.976 31.408C107.152 33.256 105.04 34.18 102.64 34.18ZM138.699 23.02C138.699 24.916 138.255 26.716 137.367 28.42C136.503 30.1 135.339 31.468 133.875 32.524C132.435 33.58 130.887 34.132 129.231 34.18C128.919 38.812 128.211 42.676 127.107 45.772C126.003 48.892 124.383 50.452 122.247 50.452C120.951 50.452 119.991 49.984 119.367 49.048C118.743 48.112 118.431 46.816 118.431 45.16C118.431 42.808 118.971 40.06 120.051 36.916C121.131 33.796 122.799 30.352 125.055 26.584C125.055 23.08 125.031 20.644 124.983 19.276C124.959 18.58 125.235 18.028 125.811 17.62C126.387 17.212 127.107 17.008 127.971 17.008C128.475 17.008 128.835 17.116 129.051 17.332C129.291 17.524 129.423 17.92 129.447 18.52C129.447 19.12 129.459 19.564 129.483 19.852C130.251 18.892 131.007 18.208 131.751 17.8C132.495 17.368 133.287 17.152 134.127 17.152C135.471 17.152 136.563 17.692 137.403 18.772C138.267 19.852 138.699 21.268 138.699 23.02ZM129.411 30.724C130.275 30.532 131.067 30.064 131.787 29.32C132.531 28.552 133.119 27.616 133.551 26.512C133.983 25.384 134.199 24.208 134.199 22.984C134.199 22.264 134.055 21.724 133.767 21.364C133.479 20.98 133.095 20.788 132.615 20.788C131.751 20.788 130.707 21.7 129.483 23.524C129.459 24.58 129.447 26.128 129.447 28.168C129.447 29.272 129.435 30.124 129.411 30.724ZM122.535 46.924C123.183 46.924 123.723 45.508 124.155 42.676C124.587 39.868 124.863 36.364 124.983 32.164C123.951 34.564 123.135 36.856 122.535 39.04C121.935 41.224 121.635 43.06 121.635 44.548C121.635 45.316 121.731 45.904 121.923 46.312C122.091 46.72 122.295 46.924 122.535 46.924Z" fill="white"/>
</svg>
