<svg xmlns="http://www.w3.org/2000/svg" xmlns:xlink="http://www.w3.org/1999/xlink" width="500" zoomAndPan="magnify" viewBox="0 0 375 374.999991" height="500" preserveAspectRatio="xMidYMid meet" version="1.0"><defs><clipPath id="e3796f75cc"><path d="M 140.214844 55.480469 L 234.714844 55.480469 L 234.714844 319.480469 L 140.214844 319.480469 Z M 140.214844 55.480469 " clip-rule="nonzero"/></clipPath></defs><g clip-path="url(#e3796f75cc)"><path fill="#1c1d22" d="M 227.488281 61.734375 C 223.28125 57.707031 217.8125 55.480469 212.105469 55.480469 L 189.085938 55.480469 C 182.957031 55.480469 177.066406 58.066406 172.917969 62.578125 C 171.898438 63.660156 171.054688 64.800781 170.335938 66.003906 L 148.398438 89.097656 C 143.109375 93.726562 140.40625 100.34375 140.945312 107.320312 L 151.765625 261.269531 L 169.671875 261.507812 L 153.867188 277.746094 L 153.507812 278.105469 L 153.507812 319.480469 L 194.796875 319.480469 L 195.15625 319.121094 L 221.359375 293.203125 L 221.359375 251.527344 L 204.109375 251.527344 L 222.019531 233.90625 L 222.019531 233.183594 L 234.039062 79.113281 C 234.523438 72.558594 232.117188 66.246094 227.488281 61.734375 Z M 227.488281 61.734375 " fill-opacity="1" fill-rule="nonzero"/></g><path fill="#446ea6" d="M 142.148438 107.199219 C 141.667969 100.644531 144.191406 94.390625 149.238281 90 L 168.652344 69.3125 C 167.449219 72.378906 166.910156 75.6875 167.210938 79.113281 L 179.109375 233.003906 L 152.90625 259.222656 Z M 154.769531 278.648438 L 179.769531 253.570312 L 179.769531 292.359375 L 154.769531 317.4375 C 154.769531 317.4375 154.769531 278.648438 154.769531 278.648438 Z M 154.769531 278.648438 " fill-opacity="1" fill-rule="nonzero"/><path fill="#f2b950" d="M 194.375 318.277344 L 155.609375 318.277344 L 180.613281 293.203125 L 219.375 293.203125 Z M 170.9375 260.308594 L 153.746094 260.066406 L 179.949219 233.847656 L 220.039062 233.847656 L 202.429688 251.46875 L 179.769531 251.46875 " fill-opacity="1" fill-rule="nonzero"/><path fill="#f26241" d="M 220.21875 252.667969 L 220.21875 291.9375 L 180.972656 291.9375 L 180.972656 252.667969 Z M 232.839844 79.054688 L 220.9375 232.644531 L 180.25 232.644531 L 168.351562 79.054688 C 167.871094 73.222656 169.855469 67.6875 173.820312 63.359375 C 177.726562 59.148438 183.316406 56.683594 189.085938 56.683594 L 212.105469 56.683594 C 217.511719 56.683594 222.683594 58.789062 226.648438 62.636719 C 231.035156 66.847656 233.257812 72.859375 232.839844 79.054688 Z M 232.839844 79.054688 " fill-opacity="1" fill-rule="nonzero"/></svg>