<svg width="191" height="29" viewBox="0 0 191 29" fill="none" xmlns="http://www.w3.org/2000/svg">
<path d="M11.936 9.104C11.872 8.848 11.808 8.61333 11.744 8.4C11.68 8.18667 11.616 7.984 11.552 7.792C11.0827 7.92 10.6987 8.144 10.4 8.464C10.1013 8.784 9.952 9.14667 9.952 9.552C9.952 9.91467 9.99467 10.2133 10.08 10.448L10.976 10.704C12.064 11.024 13.1627 11.4293 14.272 11.92C15.3813 12.3893 16.3947 12.9653 17.312 13.648C18.2507 14.3093 19.008 15.0987 19.584 16.016C20.16 16.912 20.448 17.936 20.448 19.088C20.448 21.712 19.712 23.792 18.24 25.328C16.7893 26.864 14.7307 27.7493 12.064 27.984C11.8933 28.0053 11.712 28.016 11.52 28.016C11.3493 28.0373 11.1787 28.048 11.008 28.048C10.1973 28.048 9.36533 27.9307 8.512 27.696C7.65867 27.4827 6.784 27.1413 5.888 26.672C4.84267 26.096 3.968 25.5307 3.264 24.976C2.56 24.4 1.984 23.696 1.536 22.864C1.10933 22.032 0.746667 20.9547 0.448 19.632L5.792 17.584L8.992 19.184C9.12 19.7387 9.26933 20.2187 9.44 20.624C10.7413 20.432 11.392 19.7813 11.392 18.672C11.392 18.5013 11.3707 18.352 11.328 18.224C11.3067 18.0747 11.2747 17.936 11.232 17.808C11.232 17.808 11.104 17.7333 10.848 17.584C10.592 17.4347 10.3573 17.3387 10.144 17.296C8.07467 16.784 6.35733 16.176 4.992 15.472C3.648 14.768 2.64533 13.872 1.984 12.784C1.344 11.696 1.024 10.32 1.024 8.656C1.024 7.248 1.35467 5.968 2.016 4.816C2.67733 3.64267 3.59467 2.69333 4.768 1.968C5.96267 1.22133 7.328 0.783999 8.864 0.655998C9.056 0.634665 9.23733 0.623999 9.408 0.623999C9.6 0.602666 9.78133 0.591999 9.952 0.591999C10.912 0.591999 11.7547 0.719999 12.48 0.975998C13.2267 1.232 14.08 1.584 15.04 2.032C16.0213 2.48 16.8427 2.98133 17.504 3.536C18.1653 4.09067 18.7093 4.784 19.136 5.616C19.584 6.42667 19.9573 7.472 20.256 8.752L15.136 10.704L11.936 9.104ZM8.704 21.008C7.85067 21.008 7.168 20.752 6.656 20.24C6.144 19.728 5.77067 18.992 5.536 18.032L0.8 19.824C1.29067 21.936 2.10133 23.5147 3.232 24.56C4.36267 25.584 5.888 26.096 7.808 26.096C7.97867 26.096 8.14933 26.096 8.32 26.096C8.49067 26.096 8.66133 26.0853 8.832 26.064C11.392 25.8507 13.376 24.9973 14.784 23.504C16.2133 22.0107 16.928 20.0053 16.928 17.488C16.928 15.696 16.4267 14.3093 15.424 13.328C14.4213 12.3467 12.9067 11.5787 10.88 11.024L8.32 10.32C7.552 10.1067 7.04 9.79733 6.784 9.392C6.54933 8.98667 6.432 8.50667 6.432 7.952C6.432 7.39733 6.64533 6.91733 7.072 6.512C7.49867 6.10667 8.064 5.872 8.768 5.808C8.85333 5.808 8.928 5.808 8.992 5.808C9.07733 5.78667 9.16267 5.776 9.248 5.776C10.0373 5.776 10.656 6 11.104 6.448C11.5733 6.87467 11.9253 7.62133 12.16 8.688L16.672 6.96C16.224 4.93333 15.456 3.42933 14.368 2.448C13.3013 1.44533 11.8293 0.943998 9.952 0.943998C9.78133 0.943998 9.6 0.943998 9.408 0.943998C9.23733 0.943998 9.06667 0.954665 8.896 0.975998C7.40267 1.104 6.09067 1.52 4.96 2.224C3.82933 2.928 2.944 3.83467 2.304 4.944C1.664 6.05333 1.344 7.29067 1.344 8.656C1.344 10.5333 1.76 12.0267 2.592 13.136C3.44533 14.2453 4.94933 15.0773 7.104 15.632L9.088 16.144C9.89867 16.3573 10.5387 16.6347 11.008 16.976C11.4773 17.3173 11.712 17.8827 11.712 18.672C11.712 20.0587 10.8267 20.8373 9.056 21.008H8.704ZM40.2208 20.976C39.8581 23.0667 39.1008 24.72 37.9488 25.936C36.8181 27.1307 35.2714 27.8133 33.3088 27.984C33.0954 28.0053 32.8821 28.016 32.6688 28.016C32.4554 28.0373 32.2421 28.048 32.0288 28.048C30.7061 28.048 29.4474 27.856 28.2528 27.472C27.0794 27.1093 26.0341 26.5227 25.1168 25.712C24.2208 24.9013 23.5061 23.8453 22.9728 22.544C22.4608 21.2427 22.2048 19.6747 22.2048 17.84C22.2048 16.0053 22.5141 14.3733 23.1328 12.944C23.7728 11.4933 24.6794 10.3413 25.8528 9.488C27.0261 8.61333 28.4234 8.112 30.0448 7.984C30.1514 7.96267 30.2688 7.952 30.3968 7.952C30.5248 7.952 30.6528 7.952 30.7808 7.952C31.7834 7.952 32.8074 8.10133 33.8528 8.4C34.8981 8.69867 35.8794 9.136 36.7968 9.712C37.7141 10.288 38.4821 11.0027 39.1007 11.856C39.7194 12.688 40.0821 13.648 40.1888 14.736L35.7728 16.816L32.5728 15.216C32.5728 15.1733 32.5621 15.1413 32.5408 15.12C32.5408 15.0773 32.5408 15.0453 32.5408 15.024C31.9434 15.1733 31.5168 15.5253 31.2608 16.08C31.0048 16.6133 30.8767 17.5947 30.8767 19.024C30.8767 19.4293 30.9088 19.7813 30.9728 20.08C31.0368 20.3787 31.1221 20.6667 31.2288 20.944C31.5914 20.752 31.8794 20.464 32.0928 20.08C32.3061 19.696 32.4768 19.1413 32.6048 18.416L37.0208 19.376L40.2208 20.976ZM32.8608 18.832C32.7114 19.7067 32.4021 20.3787 31.9328 20.848C31.4848 21.3173 30.9408 21.584 30.3008 21.648C30.2368 21.648 30.1728 21.6587 30.1088 21.68C30.0448 21.68 29.9914 21.68 29.9488 21.68C29.0314 21.68 28.3808 21.328 27.9968 20.624C27.6128 19.8987 27.4208 18.832 27.4208 17.424C27.4208 15.952 27.6661 14.8427 28.1568 14.096C28.6688 13.3493 29.3514 12.9333 30.2048 12.848C30.2688 12.848 30.3328 12.848 30.3968 12.848C30.4608 12.8267 30.5141 12.816 30.5568 12.816C31.7941 12.816 32.5408 13.4667 32.7968 14.768L36.6048 12.976C36.3274 11.5893 35.6768 10.4587 34.6528 9.584C33.6288 8.70933 32.3274 8.272 30.7488 8.272C30.6421 8.272 30.5248 8.272 30.3968 8.272C30.2901 8.272 30.1834 8.28267 30.0768 8.304C28.4981 8.432 27.1434 8.92267 26.0128 9.776C24.8821 10.608 24.0181 11.7173 23.4208 13.104C22.8234 14.4907 22.5247 16.0693 22.5247 17.84C22.5247 19.7813 22.8128 21.36 23.3888 22.576C23.9648 23.792 24.7541 24.688 25.7568 25.264C26.7594 25.8187 27.9008 26.096 29.1808 26.096C29.3301 26.096 29.4794 26.096 29.6288 26.096C29.7781 26.096 29.9274 26.0853 30.0768 26.064C31.9541 25.9147 33.4368 25.2747 34.5248 24.144C35.6128 22.992 36.3168 21.488 36.6368 19.632L32.8608 18.832ZM58.8695 26.576C58.1868 26.8533 57.4828 26.992 56.7575 26.992C56.0962 26.992 55.4882 26.896 54.9335 26.704C54.3788 26.5333 53.9522 26.3627 53.6535 26.192C52.7148 27.3227 51.3388 27.9733 49.5255 28.144C49.3548 28.1653 49.1842 28.176 49.0135 28.176C48.8428 28.176 48.6722 28.176 48.5015 28.176C47.1788 28.176 45.9628 27.9413 44.8535 27.472C43.7442 27.024 42.8482 26.3413 42.1655 25.424C41.5042 24.4853 41.1735 23.3333 41.1735 21.968C41.1735 20.496 41.5788 19.3227 42.3895 18.448C43.2215 17.5733 44.4588 16.7413 46.1015 15.952L44.4695 15.408L41.2695 13.808C41.8028 11.952 42.6668 10.5547 43.8615 9.616C45.0775 8.67733 46.4535 8.13333 47.9895 7.984C48.1815 7.96267 48.3735 7.952 48.5655 7.952C48.7575 7.93067 48.9388 7.92 49.1095 7.92C50.6455 7.92 52.0428 8.208 53.3015 8.784C54.5602 9.33867 55.5628 10.1387 56.3095 11.184C57.0562 12.208 57.4295 13.4133 57.4295 14.8V20.88L59.3815 21.84L58.8695 26.576ZM55.7975 20.784C55.2855 21.0187 54.9015 21.136 54.6455 21.136C54.1548 21.136 53.9095 20.816 53.9095 20.176V13.2C53.9095 9.91467 52.2562 8.272 48.9495 8.272C48.8002 8.272 48.6508 8.272 48.5015 8.272C48.3522 8.272 48.1922 8.28267 48.0215 8.304C46.5495 8.45333 45.2375 8.96533 44.0855 9.84C42.9335 10.7147 42.1228 11.984 41.6535 13.648L45.2375 14.832C45.4722 14.1067 45.7922 13.52 46.1975 13.072C46.6242 12.624 47.1042 12.3787 47.6375 12.336C47.7015 12.336 47.7655 12.336 47.8295 12.336C47.8935 12.3147 47.9468 12.304 47.9895 12.304C48.4802 12.304 48.8535 12.4213 49.1095 12.656C49.3655 12.8907 49.4935 13.2107 49.4935 13.616C49.4935 14.064 49.3548 14.4267 49.0775 14.704C48.8002 14.96 48.4162 15.2053 47.9255 15.44L46.4855 16.112C44.8428 16.88 43.5948 17.6907 42.7415 18.544C41.9095 19.376 41.4935 20.5173 41.4935 21.968C41.4935 24.8267 42.8375 26.256 45.5255 26.256C45.6535 26.256 45.7815 26.256 45.9095 26.256C46.0375 26.256 46.1655 26.2453 46.2935 26.224C47.3175 26.1387 48.2028 25.8933 48.9495 25.488C49.6962 25.0827 50.2615 24.5067 50.6455 23.76C50.7948 24.208 51.1148 24.56 51.6055 24.816C52.0962 25.072 52.6722 25.2 53.3335 25.2C54.0375 25.2 54.7095 25.0613 55.3495 24.784L55.7975 20.784ZM47.1895 22.512C46.8268 22.512 46.5282 22.416 46.2935 22.224C46.0588 22.0107 45.9415 21.712 45.9415 21.328C45.9415 20.4107 46.4108 19.728 47.3495 19.28L47.9895 18.96C48.2882 18.8107 48.5762 18.672 48.8535 18.544C49.1522 18.3947 49.3762 18.2347 49.5255 18.064V20.272C49.4188 20.9333 49.1628 21.4667 48.7575 21.872C48.3522 22.256 47.9042 22.4693 47.4135 22.512H47.1895ZM61.7035 25.904V14.288L59.6875 13.296V8.464L61.7035 8.304V7.664C61.7035 5.616 62.2262 4.016 63.2715 2.864C64.3168 1.712 65.6715 0.944 67.3355 0.559999C67.7195 0.453333 68.1248 0.367999 68.5515 0.303999C68.9782 0.218665 69.4688 0.143998 70.0235 0.079998L73.2235 1.68L74.6955 6.416C73.7142 6.50133 72.9355 6.608 72.3595 6.736C71.7835 6.84267 71.3142 6.98133 70.9515 7.152C70.8448 7.19467 70.7382 7.30133 70.6315 7.472C70.5462 7.64267 70.4715 7.824 70.4075 8.016L72.7755 9.2V14.032L70.0875 14.256V26.992L64.9035 27.472L61.7035 25.904ZM69.2555 12.144V7.952L66.5675 8.176V7.248C66.5675 6.26667 66.9195 5.60533 67.6235 5.264C67.9862 5.09333 68.4448 4.95467 68.9995 4.848C69.5542 4.72 70.2368 4.624 71.0475 4.56L69.7675 0.431999C69.3622 0.474665 68.9568 0.538665 68.5515 0.623999C68.1675 0.709332 67.7942 0.794666 67.4315 0.879999C65.8528 1.264 64.5515 2 63.5275 3.088C62.5248 4.176 62.0235 5.70133 62.0235 7.664V8.592L60.0075 8.752V12.944L62.0235 12.784V25.552L66.5675 25.136V12.368L69.2555 12.144ZM75.7973 25.904V14.288L73.7812 13.296V8.464L75.7973 8.304V7.664C75.7973 5.616 76.3199 4.016 77.3653 2.864C78.4106 1.712 79.7653 0.944 81.4293 0.559999C81.8133 0.453333 82.2186 0.367999 82.6453 0.303999C83.0719 0.218665 83.5626 0.143998 84.1173 0.079998L87.3173 1.68L88.7893 6.416C87.8079 6.50133 87.0293 6.608 86.4533 6.736C85.8773 6.84267 85.4079 6.98133 85.0453 7.152C84.9386 7.19467 84.8319 7.30133 84.7253 7.472C84.6399 7.64267 84.5653 7.824 84.5013 8.016L86.8693 9.2V14.032L84.1813 14.256V26.992L78.9973 27.472L75.7973 25.904ZM83.3493 12.144V7.952L80.6613 8.176V7.248C80.6613 6.26667 81.0133 5.60533 81.7173 5.264C82.0799 5.09333 82.5386 4.95467 83.0933 4.848C83.6479 4.72 84.3306 4.624 85.1413 4.56L83.8613 0.431999C83.4559 0.474665 83.0506 0.538665 82.6453 0.623999C82.2613 0.709332 81.8879 0.794666 81.5253 0.879999C79.9466 1.264 78.6453 2 77.6213 3.088C76.6186 4.176 76.1173 5.70133 76.1173 7.664V8.592L74.1013 8.752V12.944L76.1173 12.784V25.552L80.6613 25.136V12.368L83.3493 12.144ZM89.891 25.904V14.288L87.875 13.296V8.464L89.891 8.304V7.664C89.891 5.616 90.4137 4.016 91.459 2.864C92.5043 1.712 93.859 0.944 95.523 0.559999C95.907 0.453333 96.3123 0.367999 96.739 0.303999C97.1657 0.218665 97.6563 0.143998 98.211 0.079998L101.411 1.68L102.883 6.416C101.902 6.50133 101.123 6.608 100.547 6.736C99.971 6.84267 99.5017 6.98133 99.139 7.152C99.0323 7.19467 98.9257 7.30133 98.819 7.472C98.7337 7.64267 98.659 7.824 98.595 8.016L100.963 9.2V14.032L98.275 14.256V26.992L93.091 27.472L89.891 25.904ZM97.443 12.144V7.952L94.755 8.176V7.248C94.755 6.26667 95.107 5.60533 95.811 5.264C96.1737 5.09333 96.6323 4.95467 97.187 4.848C97.7417 4.72 98.4243 4.624 99.235 4.56L97.955 0.431999C97.5497 0.474665 97.1443 0.538665 96.739 0.623999C96.355 0.709332 95.9817 0.794666 95.619 0.879999C94.0403 1.264 92.739 2 91.715 3.088C90.7123 4.176 90.211 5.70133 90.211 7.664V8.592L88.195 8.752V12.944L90.211 12.784V25.552L94.755 25.136V12.368L97.443 12.144ZM113.809 27.952C113.595 27.9733 113.371 27.984 113.137 27.984C112.923 28.0053 112.699 28.016 112.465 28.016C110.545 28.016 108.849 27.6213 107.377 26.832C105.905 26.0427 104.753 24.8907 103.921 23.376C103.11 21.84 102.705 19.9947 102.705 17.84C102.705 16.1547 102.982 14.5973 103.537 13.168C104.113 11.7173 104.977 10.5227 106.129 9.584C107.302 8.64533 108.774 8.10133 110.545 7.952C110.715 7.93067 110.886 7.92 111.057 7.92C111.227 7.92 111.398 7.92 111.569 7.92C112.934 7.92 114.214 8.16533 115.409 8.656C116.625 9.14666 117.691 9.84 118.609 10.736C119.547 11.632 120.283 12.7093 120.817 13.968C121.35 15.2053 121.617 16.5813 121.617 18.096C121.617 19.7813 121.329 21.3493 120.753 22.8C120.198 24.2293 119.345 25.4027 118.193 26.32C117.041 27.2373 115.579 27.7813 113.809 27.952ZM110.577 26.032C112.283 25.8827 113.691 25.36 114.801 24.464C115.91 23.568 116.731 22.4267 117.265 21.04C117.819 19.632 118.097 18.1173 118.097 16.496C118.097 14.9387 117.851 13.5413 117.361 12.304C116.891 11.0667 116.155 10.0853 115.153 9.36C114.171 8.61333 112.913 8.24 111.377 8.24C111.249 8.24 111.121 8.24 110.993 8.24C110.865 8.24 110.726 8.25067 110.577 8.272C108.87 8.42133 107.451 8.95467 106.321 9.872C105.211 10.768 104.379 11.9093 103.825 13.296C103.291 14.6827 103.025 16.1973 103.025 17.84C103.025 19.376 103.27 20.7733 103.761 22.032C104.251 23.2693 104.998 24.2507 106.001 24.976C107.003 25.7013 108.262 26.064 109.777 26.064C109.905 26.064 110.033 26.064 110.161 26.064C110.289 26.064 110.427 26.0533 110.577 26.032ZM110.289 21.616C109.499 21.616 108.881 21.2747 108.433 20.592C108.006 19.9093 107.793 18.8533 107.793 17.424C107.793 15.9307 108.038 14.8107 108.529 14.064C109.019 13.296 109.702 12.8693 110.577 12.784H110.865C111.654 12.784 112.262 13.1253 112.689 13.808C113.115 14.4693 113.329 15.504 113.329 16.912C113.329 18.4053 113.083 19.5467 112.593 20.336C112.123 21.104 111.451 21.5307 110.577 21.616H110.289ZM111.505 21.008C112.507 20.4533 113.009 19.088 113.009 16.912C113.009 16.1653 112.945 15.5253 112.817 14.992C112.262 15.0773 111.867 15.4613 111.633 16.144C111.419 16.8053 111.313 17.7653 111.313 19.024C111.313 19.792 111.377 20.4533 111.505 21.008ZM124.008 25.904V1.584L129.352 1.136L132.552 2.736V27.056L127.208 27.472L124.008 25.904ZM124.328 1.872V25.552L129.032 25.168V1.488L124.328 1.872ZM147.532 26.672C147.19 26.9493 146.785 27.1947 146.316 27.408C145.868 27.6213 145.334 27.7493 144.716 27.792C144.545 27.8133 144.364 27.824 144.172 27.824C143.98 27.824 143.798 27.824 143.628 27.824C141.921 27.824 140.406 27.4613 139.084 26.736C137.782 26.032 136.758 24.9227 136.012 23.408C135.286 21.8933 134.924 19.9307 134.924 17.52C134.924 14.4907 135.5 12.1547 136.652 10.512C137.825 8.86933 139.468 7.952 141.58 7.76C141.665 7.76 141.74 7.76 141.804 7.76C141.889 7.73867 141.974 7.728 142.06 7.728C142.657 7.728 143.169 7.792 143.595 7.92C144.022 8.048 144.406 8.16533 144.748 8.272V1.168L149.964 0.719999L153.164 2.32V26.672L148.268 27.056L147.532 26.672ZM145.068 1.456V9.456L144.972 9.488C144.822 9.06133 144.492 8.72 143.98 8.464C143.468 8.18667 142.828 8.048 142.06 8.048C141.996 8.048 141.921 8.05867 141.836 8.08C141.772 8.08 141.697 8.08 141.612 8.08C139.585 8.272 138.017 9.168 136.908 10.768C135.798 12.3467 135.243 14.5973 135.243 17.52C135.243 20.336 135.755 22.448 136.78 23.856C137.825 25.2427 139.222 25.936 140.972 25.936C141.078 25.936 141.174 25.936 141.26 25.936C141.366 25.936 141.462 25.9253 141.548 25.904C142.55 25.7973 143.361 25.488 143.98 24.976C144.598 24.4427 145.036 23.8453 145.292 23.184L145.388 23.216V25.136L149.644 24.784V1.072L145.068 1.456ZM142.38 21.68C141.697 21.68 141.11 21.328 140.62 20.624C140.15 19.8987 139.916 18.7253 139.916 17.104C139.916 15.4827 140.14 14.3093 140.588 13.584C141.036 12.8587 141.718 12.4533 142.635 12.368H142.924C143.478 12.368 143.948 12.5067 144.332 12.784C144.716 13.0613 144.961 13.424 145.068 13.872V18.288C145.068 19.248 144.833 20.0373 144.364 20.656C143.916 21.2747 143.318 21.616 142.572 21.68H142.38ZM144.748 14.64C144.278 14.704 143.937 15.0453 143.724 15.664C143.532 16.2827 143.436 17.296 143.436 18.704C143.436 19.152 143.446 19.5787 143.468 19.984C143.489 20.368 143.553 20.688 143.66 20.944C144.385 20.3467 144.748 19.4613 144.748 18.288V14.64ZM173.728 21.712C173.152 23.504 172.299 24.9547 171.168 26.064C170.059 27.1733 168.544 27.8133 166.624 27.984C166.39 28.0053 166.155 28.016 165.92 28.016C165.707 28.0373 165.483 28.048 165.248 28.048C163.392 28.048 161.718 27.664 160.224 26.896C158.752 26.1493 157.579 25.0187 156.704 23.504C155.83 21.9893 155.392 20.112 155.392 17.872C155.392 15.9093 155.723 14.2133 156.384 12.784C157.067 11.3547 157.984 10.2347 159.136 9.424C160.31 8.592 161.643 8.112 163.136 7.984C163.286 7.96267 163.435 7.952 163.584 7.952C163.755 7.952 163.915 7.952 164.064 7.952C165.259 7.952 166.432 8.16533 167.584 8.592C168.758 8.99733 169.814 9.63733 170.752 10.512C171.712 11.3867 172.47 12.5173 173.024 13.904C173.6 15.2693 173.888 16.912 173.888 18.832C173.888 19.0027 173.888 19.184 173.888 19.376C173.888 19.5467 173.878 19.7173 173.856 19.888L170.496 20.176L173.728 21.712ZM166.176 19.248C165.984 19.9733 165.632 20.5707 165.12 21.04C164.608 21.5093 163.947 21.7867 163.136 21.872H162.88C162.155 21.872 161.558 21.6053 161.088 21.072C160.619 20.5387 160.384 19.8027 160.384 18.864L170.336 18C170.358 17.7867 170.368 17.584 170.368 17.392C170.368 17.1787 170.368 16.976 170.368 16.784C170.368 14.096 169.792 12.0053 168.64 10.512C167.488 9.01867 165.899 8.272 163.872 8.272C163.766 8.272 163.648 8.272 163.52 8.272C163.414 8.272 163.296 8.28267 163.168 8.304C161.739 8.41067 160.459 8.86933 159.328 9.68C158.198 10.4693 157.312 11.5573 156.672 12.944C156.032 14.3307 155.712 15.9733 155.712 17.872C155.712 20.624 156.331 22.6827 157.568 24.048C158.806 25.4133 160.448 26.096 162.496 26.096C162.646 26.096 162.795 26.096 162.944 26.096C163.094 26.096 163.243 26.0853 163.392 26.064C165.227 25.9147 166.678 25.3173 167.744 24.272C168.832 23.2267 169.611 21.9253 170.08 20.368L166.176 19.248ZM160.544 15.28C160.544 14.576 160.79 13.968 161.28 13.456C161.771 12.944 162.4 12.656 163.168 12.592H163.456C164.096 12.592 164.619 12.784 165.024 13.168C165.451 13.5307 165.664 14.0853 165.664 14.832L160.544 15.28ZM163.136 20.848C163.136 20.9547 163.179 21.0613 163.264 21.168C163.371 21.2747 163.478 21.3813 163.584 21.488C163.968 21.3813 164.267 21.2533 164.48 21.104C164.694 20.9547 164.875 20.8053 165.024 20.656L163.136 20.848ZM176.129 26.096V8.528L181.281 8.048L182.081 8.432C182.721 7.792 183.468 7.44 184.321 7.376H184.737C185.1 7.376 185.441 7.408 185.761 7.472C186.081 7.51467 186.39 7.568 186.689 7.632L189.889 9.232L190.497 14.736C189.516 14.352 188.684 14.16 188.001 14.16C187.894 14.16 187.777 14.16 187.649 14.16C187.542 14.16 187.436 14.1707 187.329 14.192C186.817 14.2347 186.348 14.4267 185.921 14.768C185.494 15.1093 185.153 15.5467 184.897 16.08C184.662 16.592 184.545 17.1253 184.545 17.68V27.216L179.329 27.696L176.129 26.096ZM181.025 16.08C181.025 15.4613 181.164 14.8747 181.441 14.32C181.718 13.744 182.092 13.2747 182.561 12.912C183.03 12.528 183.542 12.3147 184.097 12.272C184.225 12.2507 184.353 12.24 184.481 12.24C184.609 12.24 184.726 12.24 184.833 12.24C185.217 12.24 185.569 12.2827 185.889 12.368C186.23 12.432 186.572 12.528 186.913 12.656L186.369 7.92C186.177 7.87733 185.942 7.83467 185.665 7.792C185.388 7.728 185.078 7.696 184.737 7.696H184.353C183.606 7.76 182.913 8.10133 182.273 8.72C181.654 9.31733 181.249 10.0853 181.057 11.024H180.961V8.4L176.449 8.816V25.776L181.025 25.36V16.08Z" fill="black"/>
</svg>
