<svg width="196" height="16" viewBox="0 0 196 16" fill="none" xmlns="http://www.w3.org/2000/svg">
<path d="M0.710227 2.99006V0.454545H12.6562V2.99006H8.20312V15H5.16335V2.99006H0.710227ZM14.6236 15V0.454545H17.6989V6.45597H23.9418V0.454545H27.0099V15H23.9418V8.99148H17.6989V15H14.6236ZM29.5455 15V0.454545H39.3466V2.99006H32.6207V6.45597H38.8423V8.99148H32.6207V12.4645H39.375V15H29.5455ZM59.2543 5.54688H56.1435C56.0866 5.14441 55.9706 4.78693 55.7955 4.47443C55.6203 4.1572 55.3954 3.88731 55.1207 3.66477C54.8461 3.44223 54.5289 3.27178 54.169 3.15341C53.8139 3.03504 53.428 2.97585 53.0114 2.97585C52.2585 2.97585 51.6027 3.16288 51.044 3.53693C50.4853 3.90625 50.0521 4.44602 49.7443 5.15625C49.4366 5.86174 49.2827 6.71875 49.2827 7.72727C49.2827 8.7642 49.4366 9.63542 49.7443 10.3409C50.0568 11.0464 50.4924 11.5791 51.0511 11.9389C51.6098 12.2988 52.2562 12.4787 52.9901 12.4787C53.402 12.4787 53.7831 12.4242 54.1335 12.3153C54.4886 12.2064 54.8035 12.0478 55.0781 11.8395C55.3527 11.6264 55.58 11.3684 55.7599 11.0653C55.9446 10.7623 56.0724 10.4167 56.1435 10.0284L59.2543 10.0426C59.1738 10.7102 58.9725 11.3542 58.6506 11.9744C58.3333 12.59 57.9048 13.1416 57.3651 13.6293C56.83 14.1122 56.1908 14.4957 55.4474 14.7798C54.7088 15.0592 53.8731 15.1989 52.9403 15.1989C51.643 15.1989 50.483 14.9053 49.4602 14.3182C48.4422 13.7311 47.6373 12.8812 47.0455 11.7685C46.4583 10.6558 46.1648 9.30871 46.1648 7.72727C46.1648 6.1411 46.4631 4.79167 47.0597 3.67898C47.6563 2.56629 48.4659 1.71875 49.4886 1.13636C50.5114 0.549242 51.6619 0.255681 52.9403 0.255681C53.7831 0.255681 54.5644 0.374053 55.2841 0.610795C56.0085 0.847538 56.6501 1.19318 57.2088 1.64773C57.7675 2.09754 58.2221 2.64915 58.5724 3.30256C58.9276 3.95597 59.1548 4.70407 59.2543 5.54688ZM61.4595 15V0.454545H67.1982C68.2966 0.454545 69.2341 0.651041 70.0107 1.04403C70.7919 1.43229 71.3861 1.9839 71.7933 2.69886C72.2053 3.40909 72.4112 4.24479 72.4112 5.20597C72.4112 6.17187 72.2029 7.00284 71.7862 7.69886C71.3696 8.39015 70.7659 8.92045 69.9751 9.28977C69.1892 9.65909 68.2375 9.84375 67.12 9.84375H63.2777V7.37216H66.6229C67.21 7.37216 67.6977 7.29167 68.0859 7.13068C68.4742 6.9697 68.763 6.72822 68.9524 6.40625C69.1465 6.08428 69.2436 5.68419 69.2436 5.20597C69.2436 4.72301 69.1465 4.31581 68.9524 3.98438C68.763 3.65294 68.4718 3.40199 68.0788 3.23153C67.6906 3.05634 67.2005 2.96875 66.6087 2.96875H64.5348V15H61.4595ZM69.3146 8.38068L72.9297 15H69.5348L65.9979 8.38068H69.3146ZM77.0916 15H73.7962L78.8175 0.454545H82.7805L87.7947 15H84.4993L80.8558 3.77841H80.7422L77.0916 15ZM76.8857 9.28267H84.6697V11.6832H76.8857V9.28267ZM91.3548 15L87.1928 0.454545H90.5522L92.9599 10.5611H93.0806L95.7369 0.454545H98.6133L101.262 10.5824H101.39L103.798 0.454545H107.157L102.995 15H99.9982L97.2283 5.49006H97.1147L94.3519 15H91.3548ZM108.803 15V0.454545H111.879V12.4645H118.114V15H108.803ZM120.151 15V0.454545H129.952V2.99006H123.226V6.45597H129.448V8.99148H123.226V12.4645H129.98V15H120.151ZM132.397 15V0.454545H138.136C139.234 0.454545 140.172 0.651041 140.948 1.04403C141.729 1.43229 142.324 1.9839 142.731 2.69886C143.143 3.40909 143.349 4.24479 143.349 5.20597C143.349 6.17187 143.14 7.00284 142.724 7.69886C142.307 8.39015 141.703 8.92045 140.913 9.28977C140.127 9.65909 139.175 9.84375 138.058 9.84375H134.215V7.37216H137.56C138.147 7.37216 138.635 7.29167 139.023 7.13068C139.412 6.9697 139.701 6.72822 139.89 6.40625C140.084 6.08428 140.181 5.68419 140.181 5.20597C140.181 4.72301 140.084 4.31581 139.89 3.98438C139.701 3.65294 139.409 3.40199 139.016 3.23153C138.628 3.05634 138.138 2.96875 137.546 2.96875H135.472V15H132.397ZM140.252 8.38068L143.867 15H140.472L136.935 8.38068H140.252ZM150.151 0.454545H153.944L157.949 10.2273H158.12L162.125 0.454545H165.918V15H162.935V5.53267H162.814L159.05 14.929H157.019L153.255 5.49716H153.134V15H150.151V0.454545ZM170.959 15H167.663L172.685 0.454545H176.648L181.662 15H178.366L174.723 3.77841H174.609L170.959 15ZM170.753 9.28267H178.537V11.6832H170.753V9.28267ZM195.579 0.454545V15H192.923L186.594 5.84517H186.488V15H183.413V0.454545H186.112L192.39 9.60227H192.518V0.454545H195.579Z" fill="black"/>
</svg>
