<svg xmlns="http://www.w3.org/2000/svg" width="350" height="235" fill="none"><g fill-rule="evenodd" clip-path="url(#a)" clip-rule="evenodd"><path fill="#3D3D3D" d="m41.953 3.007-.562 1.84.92.281.92.281-.282.92-.281.92.92.281.92.281-.563 1.84-.562 1.84.92.28.92.282-.282.92-.281.92.92.28.92.282-.282.92-.281.92.92.28.92.282-.282.92-.28.92.919.28.92.282-.282.92-.28.92.919.28.92.281-.282.92-.28.92 1.839.563 1.84.562-.282.92-.281.92.92.28.92.282-.282.92-.28.92 1.839.562 1.84.562-.282.92-.281.92 1.84.562 1.839.563-.281.92-.282.919 1.84.562 1.84.563-.282.92-.28.92 1.839.562 1.84.562-.282.92-.281.92 1.84.562 1.839.563-.281.92-.282.919 2.76.844 2.759.843-.281.92-.281.92 1.84.562 1.839.563-.282.92-.28.919 1.839.562 1.84.563-.282.92-.281.92 1.84.562 1.839.562-.281.92-.281.92 1.84.562 1.839.563-.282.92-.28.919 1.839.562 1.84.563-.282.92-.281.92 2.76.843 2.758.844-.28.92-.282.92 1.84.562 1.84.562-.282.92-.281.92 1.839.562 1.84.562-.281.92-.282.92 2.76.843 2.759.844-.281.92-.281.92 1.839.562 1.84.562-.282.92-.281.92 2.76.843 2.759.844-.281.92-.282.92 1.84.562 1.839.562-.281.92-.281.92 3.679 1.125 3.679 1.124-.281.92-.281.92 1.839.562 1.84.563-.281.92-.282.92 2.76.843 2.759.844-.281.92-.281.92 2.759.843 2.759.843-.281.92-.281.92 2.759.843 2.759.844-.281.92-.281.92 2.759.843 2.76.844-.282.92-.281.919 2.759.844 2.76.843-1.125 3.68-1.125 3.679.92.281.92.281-1.125 3.679-1.125 3.679.92.281.92.282-.563 1.839-.562 1.84.92.281.919.281-.562 1.839-.562 1.84.919.281.92.281-.281.92-.281.92.919.281.92.281-.281.92-.281.92.92.281.919.281-.281.92-.281.92 1.839.562 1.84.563-.281.919-.281.92.919.281.92.282-.281.919-.281.92 1.839.562 1.84.563-.281.92-.282.919 1.84.563 1.839.562-.281.92-.281.92 1.84.562 1.839.563-.281.919-.281.92 1.839.562 1.84.563-.281.92-.282.919 1.84.563 1.839.562-.281.92-.281.92 1.84.562 1.839.563-.281.919-.281.92 2.759.844 2.759.843-.281.92-.281.92 1.839.562 1.84.563-.281.919-.281.92 2.759.844 2.759.843-.281.92-.281.92 2.759.843 2.759.844-.281.92-.281.92 1.839.562 1.84.562-.281.92-.281.92.919.281.92.281.281-.919.281-.92.92.281.92.281.281-.92.281-.919.92.281.92.281-.281.92-.281.92 2.759.843 2.759.844-.281.92-.281.919 1.839.563 1.84.562-.281.92-.282.92 2.76.843 2.759.844-.281.92-.281.919 1.839.563 1.84.562-.282.92-.281.92 2.76.843 2.759.844-.281.92-.282.919 1.84.563 1.839.562-.281.92-.281.92 1.84.562 1.839.563-.281.919-.281.92 1.839.563 1.84.562-.281.92-.282.919 1.84.563 1.839.562-.281.92-.281.92 1.84.562 1.839.563-.281.919-.281.92.919.281.92.281.281-.919.282-.92-.92-.281-.92-.281.281-.92.281-.92-1.839-.562-1.84-.563.282-.92.281-.919-1.84-.563-1.839-.562.281-.92.281-.92-1.839-.562-1.84-.562.281-.92.282-.92-1.84-.562-1.84-.563.282-.92.281-.919-1.84-.563-1.839-.562.281-.92.281-.92-2.759-.843-2.759-.844.281-.92.281-.919-1.84-.563-1.839-.562.281-.92.281-.92-1.839-.562-1.84-.562.281-.92.282-.92-1.84-.562-1.839-.563.281-.92.281-.919-1.839-.563-1.84-.562.281-.92.281-.92-1.839-.562-1.84-.562.563-1.84.562-1.84.92.282.92.281.281-.92.281-.92.92.282.92.281-.282.92-.281.919 1.84.563 1.839.562-.281.92-.281.92 1.839.562 1.84.562-.281.92-.282.92 1.84.562 1.84.563.281-.92.281-.92-1.84-.562-1.839-.563.281-.919.281-.92-1.839-.563-1.84-.562.281-.92.282-.919-1.84-.563-1.839-.562.281-.92.281-.92-2.759-.843-2.76-.844.282-.92.281-.92-1.84-.562-1.839-.562.281-.92.281-.92-1.839-.562-1.84-.563.281-.919.281-.92-1.839-.563-1.84-.562.282-.92.281-.92-1.84-.562-1.839-.562.281-.92.281-.92-1.839-.562-1.84-.563.281-.919.282-.92-.92-.281-.92-.282.281-.919.281-.92-.919-.281-.92-.282.281-.919.281-.92-.92-.281-.919-.281.281-.92.281-.92-.92-.281-.919-.281.281-.92.281-.92-.92-.281-.92-.281.282-.92.281-.92-.92-.281-.92-.281.563-1.84.562-1.839-.92-.281-.919-.282.281-.919.281-.92 2.759.843 2.76.844-.282.92-.281.92 2.759.843 2.76.844-.281.919-.282.92 2.76.844 2.759.843-.281.92-.281.92 2.759.844 2.759.843-.281.92-.281.92 2.759.843 2.759.844-.281.92-.281.919 2.759.844 2.76.844-.282.919-.281.92 7.358 2.25 7.358 2.249-.843 2.76-.844 2.759.92.281.92.281-.282.92-.281.92.92.281.92.281-.281.92-.282.92.92.281.92.281-.281.92-.281.92.919.281.92.281-.281.92-.281.92 1.839.562 1.84.562-.281.92-.282.92 1.84.562 1.839.563-.281.92-.281.919 1.84.563 1.839.562-.281.92-.281.92 2.759.843 2.759.844-.281.92-.281.919 2.759.844 2.759.844-.281.919-.281.92 2.759.844 2.76.843-.282.92-.281.92 3.679 1.125 3.679 1.124-.281.92-.281.92 2.759.844 2.76.843-.282.92-.281.92 2.759.843 2.76.844.281-.92.281-.92-.92-.281-.919-.281.281-.92.281-.92-1.84-.562-1.839-.562.281-.92.281-.92-.919-.281-.92-.281.281-.92.281-.92 1.84.563 1.839.562-.281.92-.281.92 2.759.843 2.759.844-.281.92-.281.919 2.759.844 2.76.843-.282.92-.281.92 2.759.844 2.76.843-.281.92-.282.92 2.76.843 2.759.844-.281.92-.281.919 2.759.844 2.759.844-.281.919-.281.92 1.839.563 1.84.562.281-.92.281-.92.92.282.92.281-.281.92-.282.919.92.282.92.281.281-.92.281-.92-.919-.281-.92-.281.281-.92.281-.92-.92-.281-.919-.281.281-.92.281-.92-.92-.281-.92-.281-.281.92-.281.92.92.281.92.281-.282.92-.281.919-1.839-.562-1.84-.562.281-.92.282-.92-1.84-.562-1.839-.563.281-.919.281-.92-3.679-1.125-3.679-1.125.281-.92.281-.919-2.759-.844-2.759-.844.281-.919.281-.92-1.84-.562-1.839-.563.281-.92.281-.919 1.84.562 1.839.562.282-.919.281-.92-.92-.281-.92-.282.281-.919.282-.92-1.84-.562-1.839-.563.281-.92.281-.919-.92-.282-.92-.281.282-.92.281-.919 1.839.562 1.84.563-.281.919-.281.92 1.839.562 1.84.563-.282.92-.281.919 1.84.563 1.839.562-.281.92-.281.92 1.839.562 1.84.563-.281.919-.281.92.919.281.92.281-.281.92-.281.92 1.839.562 1.84.563-.281.92-.282.919.92.281.92.282-.281.919-.282.92.92.281.92.282.281-.92.281-.92-.919-.281-.92-.281.281-.92.281-.92-.92-.281-.919-.281.281-.92.281-.92-.92-.281-.919-.281.281-.92.281-.92 2.759.844 2.76.844-.282.919-.281.92 1.84.562 1.839.563.281-.92.282-.92-.92-.281-.92-.281.281-.92.281-.92-1.839-.562-1.84-.562.282-.92.281-.92-1.84-.562-1.839-.563.281-.92.281-.919-1.839-.563-1.84-.562.281-.92.282-.92-.92-.281-.92-.281.281-.92.281-.92-1.839-.562-1.84-.562.282-.92.281-.92-1.84-.562-1.839-.563.281-.919.281-.92-1.839-.563-1.84-.562.281-.92.281-.92-1.839-.562-1.84-.562.282-.92.281-.92-2.76-.843-2.759-.844.281-.92.282-.92-2.76-.843-2.759-.844.281-.92.281-.919-2.759-.844-2.759-.844.281-.919.281-.92-2.759-.844-2.759-.843.281-.92.281-.92-2.759-.843-2.76-.844.282-.92.281-.92-3.679-1.124-3.679-1.125.281-.92.281-.92-2.759-.843-2.759-.844.281-.92.281-.919-2.759-.844-2.76-.844.282-.919.281-.92-1.84-.563-1.839-.562.281-.92.281-.919-1.839-.563-1.84-.562.281-.92.281-.92-.919-.281-.92-.281.281-.92.281-.92-1.839-.562-1.84-.563.281-.919.282-.92-.92-.281-.92-.281.281-.92.282-.92-1.84-.562-1.84-.563.282-.92.281-.919-1.84-.563-1.839-.562.281-.92.281-.92-1.839-.562-1.84-.562.281-.92.282-.92-.92-.281-.92-.281.281-.92.281-.92-1.839-.562-1.84-.563.282-.919.281-.92-1.84-.563-1.839-.562.281-.92.281-.92-.92-.281-.919-.281.281-.92.281-.919-1.84-.563-1.839-.562.281-.92.281-.92 1.84.563 1.839.562.282-.92.281-.92 1.839.563 1.84.562.281-.92.281-.919 4.599 1.406 4.599 1.406-.281.919-.282.92 3.68 1.125 3.679 1.125-.282.92-.281.919 2.759.844 2.76.844-.281.919-.282.92 1.84.563 1.839.562-.281.92-.281.919 1.84.563 1.839.562-.281.92-.281.92 1.839.562 1.84.563-.281.919-.282.92.92.281.92.282.281-.92.281-.92.92.281.92.281-.281.92-.282.92 1.84.562 1.839.563-.281.919-.281.92 2.759.844 2.76.843-.282.92-.281.92 1.84.562 1.839.563-.281.92-.281.919 2.759.844 2.759.844-.281.919-.281.92 1.84.562 1.839.563-.281.92-.281.919 1.839.563 1.84.562-.281.92-.282.92 1.84.562 1.839.563-.281.919-.281.92 2.759.844 2.76.843-.282.92-.281.92 1.84.562 1.839.563-.281.919-.281.92 1.839.562 1.84.563-.281.92-.281.919 1.839.563 1.84.562-.282.92-.281.92.92.281.92.281.281-.92.281-.919-.92-.282-.919-.281.281-.92.281-.919-1.84-.563-1.839-.562.281-.92.281-.92 1.84.563 1.839.562.282-.92.281-.919 1.839.562 1.84.562-.281.92-.282.92-.919-.281-.92-.281-.281.919-.281.92 1.839.563 1.84.562-.282.92-.281.919 1.84.563 1.839.562-.281.92-.281.92.92.281.919.281.282-.92.281-.919-.92-.282-.92-.281.281-.92.282-.919-1.84-.563-1.839-.562.562-1.84.562-1.839-.919-.281-.92-.282.281-.919.281-.92-1.839-.562-1.84-.563.281-.92.282-.919-1.84-.563-1.839-.562.281-.92.281-.92-1.84-.562-1.839-.563.281-.919.281-.92-1.839-.562-1.84-.563.281-.92.282-.919-1.84-.563-1.839-.562.281-.92.281-.92-1.84-.562-1.839-.563.281-.919.281-.92-1.839-.562-1.84-.563.281-.92.282-.919-1.84-.563-1.839-.562.281-.92.281-.92-1.84-.562-1.839-.563.281-.919.281-.92-2.759-.844-2.759-.843.281-.92.281-.92-1.839-.562-1.84-.563.281-.919.282-.92-1.84-.563-1.84-.562.282-.92.281-.919-1.84-.563-1.839-.562.281-.92.281-.92-1.839-.562-1.84-.563.281-.919.282-.92-.92-.281-.92-.282.281-.919.281-.92-.919-.281-.92-.281.281-.92.281-.92-1.839-.562-1.84-.563.281-.92.282-.919-1.84-.563-1.839-.562.281-.92.281-.92-2.759-.843-2.76-.844.282-.92.281-.92-1.84-.562-1.839-.562.281-.92.281-.92-2.759-.843-2.759-.844.281-.92.281-.92-2.759-.843-2.76-.844.282-.92.281-.92-4.599-1.405-4.599-1.406.281-.92.282-.92-11.038-3.374-11.037-3.374-.281.92-.281.919-1.84-.562-1.839-.563-.281.92-.282.92-1.839-.563-1.84-.562-.281.92-.281.92-.92-.282-.92-.28-.281.919-.281.92-1.84-.563-1.839-.562-.281.92-.282.92-.919-.282-.92-.281.562-1.84.563-1.84-1.84-.561-1.839-.563.281-.92.281-.92-.92-.28-.919-.282-.282.92-.281.92-.92-.281-.919-.282.562-1.84.562-1.839-1.839-.562-1.84-.563.282-.92.281-.92-1.84-.561-1.839-.563.281-.92.281-.92-1.839-.562-1.84-.562.281-.92.281-.92-1.839-.562-1.84-.563.282-.92.281-.92-1.84-.562-1.839-.562.281-.92.281-.92-2.759-.843-2.759-.844.281-.92.281-.92-1.84-.562-1.839-.562.281-.92.281-.92-2.759-.843-2.759-.844.281-.92.281-.92-2.759-.843-2.759-.843.281-.92.281-.92-2.759-.844-2.76-.843.282-.92.281-.92-2.76-.843-2.759-.844.281-.92.282-.92-2.76-.843-2.759-.844.281-.92.281-.92-3.679-1.124-3.679-1.125.281-.92.282-.92-3.679-1.124-3.679-1.125.281-.92.281-.92-3.679-1.124-3.68-1.125.282-.92.281-.92-4.599-1.406-4.598-1.406.28-.92.282-.92-6.438-1.968-6.439-1.968.282-.92.28-.92-17.475-5.342-17.475-5.343-.563 1.84zm3.398 2.045-.281.92.92.281.92.281-.282.92-.281.92.92.281.92.281-.282.92-.28.92.919.28.92.282-.282.92-.28.92.919.28.92.282.281-.92.281-.92.92.282.92.28.843-2.758.844-2.76-4.599-1.406-4.599-1.406-.28.92zm14.154 6.339-.281.92 1.84.562 1.839.562-.281.92-.282.92 3.68 1.125 3.678 1.125-.28.92-.282.919 2.76.844 2.759.843-.281.92-.282.92 2.76.843 2.759.844-.281.92-.281.92.92.28.919.282.562-1.84.563-1.84-2.76-.843-2.759-.843.281-.92.282-.92-2.76-.844-2.759-.843.281-.92.281-.92-3.679-1.124-3.679-1.125.281-.92.282-.92-2.76-.843-2.759-.844-.281.92zm28.87 10.838-.281.92.92.28.92.282.28-.92.282-.92-.92-.28-.92-.282-.281.92zm3.679 1.125-.281.92.92.28.92.282-.282.92-.281.92-3.68-1.126-3.678-1.124-.844 2.759-.843 2.76-.92-.282-.92-.281-.281.92-.281.92 1.84.562 1.839.562-.281.92-.282.92 2.76.843 2.759.844-.281.92-.281.92 1.84.562 1.839.562-.282.92-.28.92 2.758.843 2.76.844-.281.92-.282.92 1.84.562 1.839.562-.281.92-.281.92 2.759.843 2.76.844-.282.92-.281.92 2.76.843 2.759.844-.281.92-.282.92 1.84.562 1.839.562-.281.92-.281.92 2.759.843 2.76.844-.282.92-.281.92 1.84.562 1.839.562-.281.92-.281.92 2.759.843 2.76.844-.282.92-.281.92 1.84.562 1.839.562-.281.92-.281.92 1.839.562 1.84.563-.281.92-.282.92 2.76.843 2.759.843-.281.92-.281.92 1.839.562 1.84.563-.282.92-.281.92 2.76.843 2.759.843-.281.92-.282.92 1.84.562 1.84.563-.282.92-.281.92 2.759.843 2.76.843-.281.92-.282.92 1.84.562 1.839.563-.281.92-.281.92 2.759.843 2.76.843-.282.92-.281.92 1.84.562 1.839.563-.281.92-.281.92-.92-.282-.92-.281-.281.92-.281.919-.92-.281-.92-.281.282-.92.281-.92-.92-.28-.92-.282.281-.92.282-.92-2.76-.843-2.759-.844.281-.92.281-.92-.919-.28-.92-.282-.281.92-.281.92-.92-.281-.92-.281.562-1.84.563-1.84-3.679-1.124-3.679-1.125.281-.92.281-.92-.92-.28-.919-.282.281-.92.281-.92-2.759-.843-2.76-.844.282-.92.281-.92-.92-.28-.92-.282-.281.92-.281.92-.92-.281-.92-.282.563-1.84.562-1.839-3.679-1.124-3.679-1.125.281-.92.281-.92-.919-.281-.92-.281.281-.92.281-.92-2.759-.843-2.759-.844.281-.92.281-.92-.92-.28-.919-.282-.282.92-.281.92-.92-.281-.919-.282.562-1.84.562-1.839-3.679-1.124-3.679-1.125.281-.92.282-.92-.92-.281-.92-.281.281-.92.282-.92-2.76-.843-2.759-.844.281-.92.281-.92-.919-.28-.92-.282-.281.92-.282.92-.919-.282-.92-.28.281-.92.281-.92-.919-.282-.92-.28.281-.92.281-.92-2.76-.844-2.758-.843.28-.92.282-.92-.92-.281-.92-.281-.28.92-.282.92-.92-.282-.92-.281.563-1.84.562-1.84-3.679-1.124-3.679-1.125.281-.92.282-.92-.92-.28-.92-.282.281-.92.281-.92-2.759-.843-2.76-.844.282-.92.281-.92-.92-.28-.92-.282-.562 1.84-.562 1.84-.92-.282-.92-.28-.28.919-.282.92.92.28.92.282-.282.92-.28.92 3.678 1.124 3.68 1.125-.282.92-.281.92.92.28.92.282-.282.92-.281.92 2.76.843 2.759.844-.282.92-.28.92.919.28.92.282-.281.92-.282.92-.92-.282-.92-.281-.28.92-.282.92-.92-.282-.92-.281.563-1.84.563-1.839-3.68-1.125-3.678-1.125.28-.92.282-.92-.92-.28-.92-.282.282-.92.28-.92-2.758-.843-2.76-.843.281-.92.282-.92-.92-.281-.92-.281-.562 1.84-.563 1.839 3.68 1.125 3.678 1.124-.28.92-.282.92.92.281.92.281-.282.92-.28.92 2.758.843 2.76.844-.281.92-.282.92.92.28.92.282-.281.92-.281.92 2.759.843 2.76.844-.282.92-.281.92.92.28.92.282-.282.92-.281.92 2.76.843 2.758.843-.28.92-.282.92.92.281.92.281.28-.92.282-.92.92.282.919.281-.562 1.84-.562 1.84 3.679 1.124 3.679 1.125-.281.92-.282.92.92.28.92.282.281-.92.281-.92.92.282.92.28-.563 1.84-.562 1.84 1.84.562 1.839.563-.281.92-.281.92.919.28.92.281.281-.92.282-.919.919.281.92.281-.281.92-.281.92.919.281.92.281-.281.92-.281.92 2.759.843 2.759.844-.281.92-.281.92.92.28.92.282.281-.92.281-.92.92.282.92.28-.563 1.84-.562 1.84 1.839.562 1.84.563-.281.92-.282.92.92.28.92.282.281-.92.281-.92.92.281.92.281-.281.92-.282.92.92.281.92.281-.281.92-.281.92 2.759.844 2.759.843-.281.92-.281.92.919.28.92.282.281-.92.282-.92.919.282.92.281-.281.92-.281.92.92.28.919.282-.281.92-.281.919 2.759.844 2.76.844-.282.919-.281.92.92.281.92.282.281-.92.281-.92.92.281.92.281-.282.92-.281.92.92.281.92.281-.282.92-.281.92 2.76.843 2.759.844-.281.92-.282.92.92.281.92.281.281-.92.281-.92.92.282.92.281-.281.92-.281.919.919.282.92.281-.281.92-.281.919 2.759.844 2.759.844-.281.919-.281.92.92.281.919.281.282-.919.281-.92.92.281.919.281-.281.92-.281.92.92.281.919.281-.281.92-.281.92 2.759.843 2.76.844-.282.92-.281.92.92.281.92.281.281-.92.281-.92.92.282.92.281-.282.92-.281.919.92.282.92.281.281-.92.281-.92.92.281.92.282-.563 1.839-.562 1.84 3.679 1.124 3.679 1.125-.281.92-.281.92 1.839.562 1.84.563-.281.919-.282.92 3.679 1.125 3.679 1.125-.281.919-.281.92 2.759.844 2.76.843-.282.92-.281.92 2.76.844 2.759.843-.281.92-.282.92 4.599 1.406 4.599 1.406.281-.92.281-.92.92.281.92.282.281-.92.281-.92-2.759-.844-2.759-.843.281-.92.281-.92-.92-.281-.919-.281.281-.92.281-.92.92.282.92.281.281-.92.281-.92.92.281.92.282-.563 1.839-.562 1.84 2.759.843 2.759.844.563-1.84.562-1.839-.92-.281-.919-.282-.282.92-.281.92-.92-.281-.919-.281.281-.92.281-.92-.92-.281-.919-.281.281-.92.281-.92.92.281.919.282.282-.92.281-.92-.92-.281-.92-.281.282-.92.281-.92-.92-.281-.92-.281-.281.919-.281.92-.92-.281-.92-.281-.281.92-.281.919-.92-.281-.92-.281.563-1.84.562-1.839.92.281.92.281.281-.919.281-.92-.92-.281-.919-.282-.282.92-.281.92-1.839-.563-1.84-.562.281-.92.281-.919.92.281.92.281.281-.92.281-.92-.919-.281-.92-.281.281-.92.281-.92-.919-.281-.92-.281-.281.92-.282.92-1.839-.563-1.84-.562.281-.92.282-.92.919.281.92.282.281-.92.282-.92-.92-.281-.92-.281-.281.92-.281.919-1.84-.562-1.839-.563.281-.919.281-.92.92.281.92.281.281-.919.281-.92-.92-.281-.92-.282.282-.919.281-.92-.92-.281-.92-.281.281-.92.282-.92-.92-.281-.92-.281.281-.92.282-.92-.92-.281-.92-.281-.281.919-.281.92.919.281.92.282-.281.919-.281.92.92.281.919.282-.281.919-.281.92-1.84-.562-1.839-.563.281-.92.281-.919-1.839-.563-1.84-.562.281-.92.282-.92-.92-.281-.92-.281.281-.92.281-.92.92.282.92.281.281-.92.281-.92-.919-.281-.92-.281.281-.92.281-.92 1.84.563 1.839.562.282-.92.281-.919.919.281.92.281.281-.92.282-.919-.92-.282-.92-.281.281-.92.282-.919 1.839.562 1.84.562-.282.92-.281.92 1.84.562 1.839.563.281-.92.282-.92-1.84-.562-1.839-.563.281-.919.281-.92 9.198 2.812 9.197 2.812-.281.92-.281.919 1.839.563 1.84.562-.281.92-.281.92-.92-.281-.92-.282-.281.92-.281.92.919.281.92.281.281-.919.282-.92 2.759.843 2.759.844-.281.92-.281.919-.92-.281-.92-.281-.281.92-.281.92.92.281.919.281.282-.92.281-.92 2.759.844 2.759.844-.281.919-.281.92.92.281.919.282-.281.919-.281.92-.92-.281-.92-.281-.281.919-.281.92.92.281.92.282.281-.92.281-.92 1.84.563 1.839.562.844-2.759.843-2.76-1.839-.562-1.84-.562.281-.92.282-.92-1.84-.562-1.839-.563.281-.92.281-.919-1.84-.563-1.839-.562.281-.92.281-.92-1.839-.562-1.84-.562.281-.92.282-.92-1.84-.562-1.839-.563.281-.92.281-.919-1.84-.563-1.839-.562.281-.92.281-.92-2.759-.843-2.759-.844.281-.92.281-.92-3.679-1.124-3.679-1.125.281-.92.281-.92-4.598-1.406-4.599-1.406.281-.92.281-.919-8.278-2.53-8.278-2.532-.281.92-.281.92-1.84-.563-1.839-.562-.281.92-.281.92-.92-.282-.92-.28-.281.919-.281.92-.92-.282-.92-.28-.562 1.839-.563 1.84-.919-.282-.92-.281-.281.92-.282.92.92.28.92.282.281-.92.281-.92 1.84.563 1.839.562-.281.92-.281.92 1.839.562 1.84.563-.281.92-.281.92-.92-.282-.92-.281-.281.92-.281.92.919.28.92.282.281-.92.282-.92 1.839.563 1.84.562-.282.92-.281.92 1.84.562 1.839.562-.281.92-.281.92-.92-.281-.92-.282-.281.92-.281.92.92.281.92.281.281-.92.281-.919 1.839.562 1.84.563-.281.919-.281.92 1.839.562 1.84.563-.282.92-.281.919-.92-.281-.919-.281-.281.92-.282.92.92.281.92.281-.281.92-.282.919-1.839-.562-1.84-.562.282-.92.281-.92-1.84-.562-1.839-.563.281-.919.281-.92-1.839-.563-1.84-.562.281-.92.281-.92-1.839-.562-1.84-.562.282-.92.281-.92-1.84-.562-1.839-.563.281-.92.281-.92-1.839-.562-1.84-.562.281-.92.282-.92-1.84-.562-1.84-.562.282-.92.281-.92-1.84-.562-1.839-.563.281-.92.281-.92-1.839-.562-1.84-.562.281-.92.282-.92-2.76-.843-2.759-.844.281-.92.281-.92-1.839-.562-1.84-.562.281-.92.282-.92-1.84-.562-1.839-.562.281-.92.281-.92-1.839-.562-1.84-.563.281-.92.281-.92-1.839-.562-1.84-.562.282-.92.281-.92-1.84-.562-1.839-.562.281-.92.281-.92.92.281.92.281.281-.92.281-.919-.92-.281-.92-.281.282-.92.281-.92-.92-.281-.92-.281-.281.92-.281.92.92.28.919.282-.281.92-.281.92-1.839-.563-1.84-.563.281-.92.281-.92-2.759-.843-2.759-.843.281-.92.281-.92-1.839-.562-1.84-.563.281-.92.282-.92.919.282.92.281.281-.92.281-.92-.919-.28-.92-.282.281-.92.281-.92-.919-.28-.92-.282-.281.92-.282.92.92.281.92.281-.281.92-.281.92-2.76-.844-2.759-.843.281-.92.281-.92.92.281.92.281.281-.92.281-.92-.919-.28-.92-.282.281-.92.281-.92-.92-.28-.919-.282-.282.92-.281.92.92.281.92.281-.281.92-.282.92-2.759-.844-2.759-.843.281-.92.281-.92.92.281.92.282.281-.92.281-.92-.92-.281-.919-.281.281-.92.281-.92-.92-.281-.92-.281-.281.92-.281.92.92.28.92.282-.282.92-.281.92-2.759-.844-2.759-.844.281-.92.281-.92-2.759-.843-2.76-.844.282-.92.281-.92-2.759-.843-2.76-.843.281-.92.282-.92-3.679-1.125-3.679-1.125.281-.92.281-.92-3.679-1.124-3.679-1.125.281-.92.281-.92.92.282.92.281.281-.92.281-.92-.92-.28-.919-.282.281-.92.281-.92-.92-.28-.92-.282-.281.92-.281.92.92.281.92.281-.282.92-.281.92-4.599-1.406-4.598-1.406.28-.92.282-.92.92.281.92.282.28-.92.282-.92-.92-.281-.92-.281.282-.92.28-.92-.919-.281-.92-.281-.281.92zm4.956 3.526-.281.92.92.281.92.281.28-.92.282-.92-.92-.28-.92-.282-.28.92zm8.635 4.652-.281.92.92.28.92.282.281-.92.281-.92-.92-.28-.919-.282-.282.92zm3.68 1.125-.282.92.92.28.92.282-.281.92-.282.92.92.28.92.282.281-.92.281-.92-.919-.281-.92-.281.281-.92.281-.92-.92-.281-.919-.281-.281.92zm4.956 3.526-.281.92.919.281.92.282.281-.92.281-.92-.919-.281-.92-.281-.281.92zm4.956 3.527-.281.92.919.281.92.281.281-.92.282-.92-.92-.28-.92-.282-.281.92zm4.956 3.527-.281.92.92.28.919.282.282-.92.281-.92-.92-.28-.92-.282-.281.92zM79.634 37.66l-.28.92.919.28.92.282.28-.92.282-.92-.92-.28-.92-.282-.28.92zm3.68 1.125-.282.92.92.28.92.282.28-.92.282-.92-.92-.281-.92-.281-.28.92zm61.981 20.96-.281.92.92.282.919.28.281-.919.282-.92-.92-.28-.92-.282-.281.92zM85.868 43.589l-.282.92.92.281.92.282.281-.92.281-.92-.92-.281-.92-.281-.28.92zm3.679 1.125-.281.92.92.281.919.281.281-.92.281-.92-.92-.28-.92-.282-.28.92zm65.66 22.086-.281.92.92.281.92.281-.282.92-.281.92.92.281.92.281.281-.92.281-.92-.92-.28-.919-.282.281-.92.281-.92-.92-.28-.919-.282-.282.92zM92.101 49.517l-.281.92.92.281.92.281.28-.92.282-.92-.92-.28-.92-.282-.281.92zm3.679 1.125-.281.92.92.28.92.282.28-.92.282-.92-.92-.28-.92-.282-.281.92zm3.68 1.125-.282.92.92.28.919.282.282-.92.281-.92-.92-.28-.92-.282-.28.92zm61.981 20.96-.282.92.92.282.92.28.281-.919.281-.92-.919-.28-.92-.282-.281.92zm-70.465-19.53-.281.919 1.84.562 1.839.563-.562 1.84-.563 1.839.92.28.92.282.28-.92.282-.92.92.282.92.281-.281.92-.282.92 3.679 1.124 3.679 1.125-.562 1.84-.562 1.84.919.28.92.282.281-.92.282-.92.919.281.92.281-.281.92-.281.92 2.759.844 2.759.843-.281.92-.281.92.92.28.919.282-.281.92-.281.92.92.28.919.282.282-.92.281-.92.92.282.919.28-.281.92-.281.92 2.759.844 2.76.844-.282.92-.281.92-.92-.282-.919-.281-.282.92-.281.92.92.28.92.282.281-.92.281-.92.92.281.92.282-.281.92-.282.92.92.28.92.281.281-.92.281-.919.92.281.92.281-.281.92-.282.92 2.76.844 2.759.843-.281.92-.281.92-.92-.282-.92-.28-.281.919-.281.92.919.281.92.281.281-.92.282-.92.919.282.92.281-.281.92-.281.92.919.28.92.282.281-.92.282-.92.919.282.92.28-.281.92-.281.92 2.759.844 2.759.844-.281.92-.281.92-.92-.282-.92-.281-.281.92-.281.92.92.28.92.282.281-.92.281-.92.92.281.919.281-.281.92-.281.92 3.679 1.125 3.679 1.125-.562 1.84-.563 1.839.92.281.92.281.281-.92.281-.92.92.282.92.281-.281.92-.282.919 2.76.844 2.759.844-.281.919-.281.92-.92-.281-.92-.281-.281.92-.281.919.919.282.92.281.281-.92.282-.92.919.281.92.282-.281.919-.281.92.92.281.919.282.281-.92.282-.92.919.281.92.281-.281.92-.281.92 2.759.844 2.759.843-.281.92-.281.92-.92-.282-.92-.281-.281.92-.281.92.92.281.92.281.281-.92.281-.919.92.281.92.281-.282.92-.281.92.92.281.92.281.281-.92.281-.92.92.282.92.281-.282.92-.281.919 2.759.844 2.76.844-.281.919-.282.92-.919-.281-.92-.281-.281.92-.282.919.92.281.92.282.281-.92.281-.92.92.281.92.282-.281.919-.282.92.92.281.92.281.281-.919.281-.92.92.281.92.281-.281.92-.281.92 2.759.843 2.759.844-.281.92-.281.92.92.281.919.281-.281.92-.281.92.92.281.919.281.282-.92.281-.92.92.282.919.281-.281.92-.281.919 2.759.844 2.76.844-.282.919-.281.92.92.281.92.281-.282.92-.281.92.92.281.92.281.843-2.759.844-2.759-.92-.281-.92-.282-.281.92-.281.92-.92-.281-.919-.281.281-.92.281-.92-2.759-.844-2.76-.843.282-.92.281-.92.919.281.92.282.281-.92.282-.92.919.281.92.282-.281.919-.281.92 2.759.844 2.759.843.282-.919.281-.92-2.76-.844-2.759-.843.281-.92.282-.92-.92-.281-.92-.281.281-.92.281-.92-2.759-.844-2.759-.843-.281.92-.282.919 1.84.563 1.84.562-.563 1.84-.562 1.839-.92-.281-.92-.281.281-.92.282-.92-.92-.281-.92-.281-.281.92-.281.919-.92-.281-.92-.281.281-.92.282-.919-2.76-.844-2.759-.844.281-.919.281-.92.92.281.92.281.281-.92.281-.919.92.281.92.281-.281.92-.282.92.92.281.92.281.562-1.84.563-1.839-1.84-.562-1.839-.563.281-.92.281-.919-2.759-.844-2.76-.844.282-.919.281-.92-.92-.281-.92-.282-.281.92-.281.92-.92-.281-.92-.281-.281.919-.281.92.92.281.92.282.281-.92.281-.92.92.281.919.281-.281.92-.281.92 2.759.844 2.76.843-.282.92-.281.92-.919-.282-.92-.281-.281.92-.282.92-.919-.281-.92-.282.281-.919.281-.92-.92-.281-.919-.282-.282.92-.281.92-.919-.281-.92-.281.281-.92.281-.92-2.759-.844-2.759-.843.281-.92.281-.92.92.282.92.281.281-.92.281-.92-.92-.281-.92-.281-.281.92-.281.919-.92-.281-.92-.281.282-.92.281-.92-.92-.281-.92-.281-.281.92-.281.92-.92-.282-.92-.281.282-.92.281-.919-2.759-.844-2.76-.844.281-.919.282-.92.919.281.92.281.281-.919.282-.92-.92-.281-.92-.282-.281.92-.281.92-.92-.281-.92-.282.281-.919.281-.92-.919-.281-.92-.281-.281.919-.281.92-.92-.281-.92-.281.281-.92.281-.92-1.839-.562-1.84-.563.563-1.84.562-1.839-.92-.28-.919-.282-.282.92-.281.92-.92-.282-.919-.281.281-.92.281-.92-3.679-1.124-3.679-1.125.562-1.84.563-1.84-.92-.28-.92-.282-.281.92-.281.92-.92-.281-.92-.281.282-.92.281-.92-2.76-.844-2.759-.843.281-.92.282-.92.919.282.92.28.281-.92.281-.919-.919-.281-.92-.281-.281.92-.281.92-.92-.282-.92-.281.281-.92.281-.92-.919-.28-.92-.282-.281.92-.282.92-.919-.282-.92-.28.281-.92.281-.92-2.759-.844-2.759-.844.281-.92.281-.92.92.282.92.281.281-.92.281-.92-.92-.28-.919-.282-.282.92-.281.92-.92-.281-.919-.282.281-.92.281-.92-.92-.28-.919-.282-.282.92-.281.92-.92-.281-.919-.281.281-.92.281-.92-2.759-.843-2.76-.844.282-.92.281-.92.92.282.919.28.282-.919.281-.92-.92-.281-.92-.281-.281.92-.281.92-.92-.282-.92-.281.281-.92.282-.92-.92-.28-.92-.282-.281.92-.281.92-.92-.282-.92-.28.281-.92.282-.92-2.76-.844-2.759-.844.281-.92.281-.92.92.282.92.281.281-.92.281-.92-.919-.28-.92-.282-.281.92-.282.92-.919-.281-.92-.282.281-.92.281-.919-3.679-1.125-3.679-1.125.563-1.84.562-1.839-.92-.28-.92-.282-.28.92-.282.92-.92-.282-.92-.281.282-.92.28-.92-2.758-.843-2.76-.844-.28.92zm11.037 3.373-.281.92.92.282.92.28.281-.92.281-.919-.92-.281-.919-.281-.282.92zm3.679 1.125-.281.92.92.281.92.282.281-.92.281-.92-.92-.281-.919-.282-.282.92zm3.679 1.125-.281.92.92.281.92.281.281-.92.281-.92-.92-.28-.919-.282-.282.92zm58.303 19.836-.281.92.92.281.919.282.281-.92.282-.92-.92-.281-.92-.281-.281.92zm-55.748-15.032-.282.92.92.28.92.282.281-.92.281-.92-.919-.28-.92-.282-.281.92zm3.679 1.125-.281.92.919.28.92.282.281-.92.281-.92-.919-.28-.92-.282-.281.92zm58.302 19.836-.281.92.92.281.92.281.281-.92.281-.92-.92-.28-.92-.282-.281.92zm-52.069-13.908-.281.92.92.281.919.282.282-.92.281-.92-.92-.281-.92-.281-.281.92zm3.679 1.125-.281.92.92.281.919.281.282-.92.281-.92-.92-.28-.92-.282-.281.92zm6.233 5.929-.281.92.92.28.92.282.281-.92.281-.92-.92-.28-.919-.282-.282.92zm9.913 7.053-.281.92.919.281.92.281.281-.92.282-.919-.92-.281-.92-.281-.281.92zm80.939 24.746-.281.92 1.839.562 1.84.563.281-.92.281-.92-1.839-.562-1.84-.563-.281.92zm-74.706-18.817-.281.92.92.281.919.281.282-.92.281-.92-.92-.28-.92-.282-.281.92zm100.331 33.691-.563 1.84.92.281.92.281-.281.92-.282.92.92.281.92.281.281-.92.281-.919.92.281.92.281-.563 1.84-.562 1.839.92.281.92.282.281-.92.281-.92.92.281.919.281-.562 1.84-.562 1.839 1.839.563 1.84.562-.281.92-.282.92 1.84.562 1.839.563.282-.92.281-.92 1.839.562 1.84.563-.281.92-.282.919-.919-.281-.92-.281-.281.92-.282.92 1.84.562 1.84.562-.282.92-.281.92 1.84.562 1.839.563-.281.919-.281.92 1.839.563 1.84.562-.281.92-.282.92 1.84.562 1.84.562.281-.919.281-.92.92.281.919.281-.562 1.84-.562 1.839 1.839.563 1.84.562-.281.92-.282.92 1.84.562 1.839.562.282-.919.281-.92 1.839.562 1.84.563.281-.92.281-.92-1.839-.562-1.84-.563.281-.919.282-.92-1.84-.563-1.839-.562.281-.92.281-.92-1.84-.562-1.839-.562.281-.92.281-.92-1.839-.562-1.84-.563.281-.919.282-.92-1.84-.563-1.839-.562.281-.92.281-.92-1.84-.562-1.839-.562.281-.92.281-.92-1.839-.562-1.84-.563.281-.919.282-.92-1.84-.563-1.839-.562.281-.92.281-.92-2.759-.843-2.76-.844.282-.919.281-.92-1.84-.563-1.839-.562.281-.92.281-.92-3.679-1.124-3.679-1.125-.562 1.839zM135.734 91.018l-.281.92.92.28.919.282.282-.92.281-.92-.92-.28-.92-.282-.281.92zm22.074 6.748-.281.92.92.281.92.282.281-.92.281-.92-.92-.281-.919-.281-.282.92zm7.359 2.25-.282.92 2.76.843 2.759.844-.281.92-.281.92-.92-.282-.92-.281-.281.92-.281.92.919.281.92.281.281-.92.282-.919.919.281.92.281-.281.92-.281.919.919.282.92.281.563-1.84.562-1.839-1.839-.563-1.84-.562.281-.92.281-.919-2.759-.844-2.759-.844-.281.92zm84.618 25.87-.281.92.919.281.92.282.281-.92.282-.92-.92-.281-.92-.281-.281.919zM145.647 98.071l-.282.92.92.281.92.281.281-.92.281-.92-.92-.28-.919-.282-.281.92zm29.432 8.999-.281.919 1.839.563 1.84.562.281-.92.281-.919-1.839-.563-1.84-.562-.281.92zm82.779 25.308-.281.919.919.282.92.281-.281.919-.281.92 1.839.563 1.84.562.281-.92.281-.919-1.839-.563-1.84-.562.281-.92.282-.92-.92-.281-.92-.281-.281.92zm-50.792-11.506-.282.92.92.281.92.281.281-.92.281-.92-.919-.281-.92-.281-.281.92zm60.142 20.399-.281.919 1.839.563 1.84.562-.282.92-.281.92 1.84.562 1.839.562-.281.92-.281.92.92.281.919.281.282-.919.281-.92-.92-.281-.92-.282.281-.919.282-.92-1.84-.562-1.839-.563.281-.92.281-.919-1.84-.563-1.839-.562-.281.92zM155.43 112.125l-.562 1.84.919.281.92.281-1.125 3.679-1.124 3.679.919.282.92.281-.562 1.839-.563 1.84.92.281.92.281-.281.92-.282.92.92.281.92.281-.281.92-.281.92.919.281.92.281-.281.92-.281.92.919.281.92.281-.281.92-.281.92.92.281.919.281-.281.92-.281.919.92.282.919.281-.281.92-.281.919.92.282.92.281-.282.92-.281.919.92.282.92.281-.281.92-.282.919 1.84.563 1.839.562-.281.92-.281.92 1.839.562 1.84.562-.281.92-.281.92 1.839.562 1.84.563-.282.92-.281.919 1.84.563 1.839.562-.281.92-.281.92 2.759.843 2.76.844-.282.92-.281.919 1.84.563 1.839.562-.281.92-.281.92 2.759.843 2.759.844-.281.92-.281.919 2.759.844 2.76.844-.282.919-.281.92 1.84.563 1.839.562.281-.92.282-.92.919.282.92.281-.281.92-.281.919.92.282.919.281.281-.92.282-.92.919.281.92.282.563-1.84.562-1.839-.92-.282-.92-.281.282-.92.281-.919-1.84-.563-1.839-.562.281-.92.281-.92-2.759-.843-2.759-.844.281-.92.281-.919-1.84-.563-1.839-.562.281-.92.281-.92-1.839-.562-1.84-.563.282-.919.281-.92-.92-.281-.92-.282.281-.919.282-.92-1.84-.562-1.839-.563.281-.92.281-.919-.92-.282-.92-.281.282-.92.281-.919-.92-.282-.92-.281.281-.919.282-.92-.92-.281-.92-.282.563-1.839.562-1.84-.92-.281-.92-.281.282-.92.281-.92-.92-.281-.92-.281 1.125-3.679 1.125-3.679-2.759-.844-2.76-.843.281-.92.282-.92-3.679-1.125-3.679-1.124.281-.92.281-.92-1.84-.562-1.839-.563.281-.92.281-.919-2.759-.844-2.759-.844.281-.919.281-.92-2.759-.844-2.759-.843.281-.92.281-.92-.92-.281-.92-.281-.562 1.839zm59.146 17.077-.281.92.92.281.919.282.282-.92.281-.92-.92-.281-.92-.281-.281.919zm-10.322.867-.844 2.76.92.281.92.281.281-.92.281-.919.92.281.92.281-.282.92-.281.92 1.84.562 1.839.562-.562 1.84-.563 1.839-.919-.281-.92-.281.281-.92.281-.92-2.759-.843-2.759-.844-.282.92-.281.92 1.84.562 1.839.563-.281.919-.281.92 2.759.844 2.76.843-.282.92-.281.92 2.759.843 2.76.844-.281.92-.282.92 1.84.562 1.839.562.282-.919.281-.92-.92-.281-.92-.282.281-.919.282-.92-3.679-1.125-3.679-1.125.562-1.839.562-1.84.92.281.92.282-.281.919-.282.92 2.76.844 2.759.843.281-.919.281-.92-2.759-.844-2.759-.843.281-.92.281-.92.92.281.92.282.281-.92.281-.92-.92-.281-.919-.281-.282.919-.281.92-.919-.281-.92-.281.281-.92.281-.92-2.759-.843-2.759-.844.281-.92.281-.92.92.282.919.281.282-.92.281-.92-.92-.281-.92-.281-.281.92-.281.919-.92-.281-.92-.281.282-.92.281-.919-.92-.282-.92-.281-.843 2.759zm75.983 21.219-.281.92.919.281.92.282-.281.919-.281.92 1.839.562 1.84.563.281-.92.281-.92-1.839-.562-1.84-.562.281-.92.282-.92-.92-.281-.92-.281-.281.919zm-58.15-13.755-.282.92.92.281.92.281.281-.92.281-.919-.919-.282-.92-.281-.281.92zm67.652 28.729-.281.92.92.281.919.281.282-.919.281-.92-.92-.281-.92-.281-.281.919zm9.198 2.812-.281.92.919.281.92.281.281-.919.281-.92-.919-.281-.92-.281-.281.919zm3.679 1.125-.281.92.919.281.92.281-.281.92-.281.92 1.839.562 1.84.563-.281.919-.282.92 1.84.563 1.839.562.282-.92.281-.92-1.84-.562-1.839-.562.281-.92.281-.92-1.839-.562-1.84-.563.281-.919.282-.92-.92-.281-.92-.282-.281.92zm-74.425-19.737-.562 1.84 2.759.844 2.759.843-.281.92-.281.92.92.281.919.281-.281.92-.281.92.92.281.919.281-.281.92-.281.92.92.281.92.281-.282.92-.281.919.92.282.92.281-.281.92-.282.919 1.84.563 1.839.562-.281.92-.281.92 1.84.562 1.839.563-.281.919-.281.92 1.839.562 1.84.563-.281.92-.282.919 1.84.563 1.839.562-.281.92-.281.92 1.839.562 1.84.562-.281.92-.281.92 2.759.844 2.759.843-.281.92-.281.92 3.679 1.125 3.679 1.124-.281.92-.281.92 3.679 1.125 3.679 1.124-.282.92-.281.92 3.679 1.125 3.679 1.125.282-.92.281-.92-3.679-1.125-3.679-1.125.281-.919.281-.92-2.759-.844-2.76-.843.282-.92.281-.92-2.759-.843-2.76-.844.281-.92.282-.919-2.76-.844-2.759-.844.281-.919.281-.92-1.839-.563-1.84-.562.282-.92.281-.92-1.84-.562-1.839-.562.281-.92.281-.92-2.759-.843-2.759-.844.281-.92.281-.92-1.84-.562-1.839-.562.281-.92.281-.92-1.839-.562-1.84-.563.281-.92.282-.919-.92-.281-.92-.282.281-.919.282-.92-.92-.281-.92-.282.281-.919.281-.92-.919-.281-.92-.282.281-.919.281-.92 1.84.562 1.839.563-.281.919-.281.92 3.679 1.125 3.679 1.125-.281.92-.281.919 2.759.844 2.759.844-.281.919-.281.92 2.759.844 2.759.843-.281.92-.281.92 2.759.843 2.76.844-.282.92-.281.92 1.84.562 1.839.562-.281.92-.281.92 1.839.562 1.84.563-.281.919-.281.92 1.839.563 1.84.562-.282.92-.281.92 1.84.562 1.839.562-.281.92-.281.92 1.839.562 1.84.563.281-.92.281-.92-1.839-.562-1.84-.563.281-.919.282-.92-.92-.281-.92-.282.281-.919.282-.92-1.84-.562-1.84-.563.282-.92.281-.919-1.84-.563-1.839-.562.281-.92.281-.92-2.759-.843-2.759-.844.281-.92.281-.919-1.84-.563-1.839-.562.281-.92.281-.92-3.679-1.125-3.679-1.124.281-.92.282-.92-2.76-.844-2.759-.843.281-.92.281-.92-3.679-1.124-3.679-1.125.282-.92.281-.92-2.76-.843-2.759-.844-.281.92-.281.92-.92-.282-.92-.281.281-.92.282-.919-1.84-.563-1.839-.562.281-.92.281-.92-.92-.281-.92-.281-.562 1.839zm64.665 18.765-.281.919.919.282.92.281.281-.92.281-.92-.919-.281-.92-.281-.281.92zm3.116 2.964-.281.92.92.281.92.281.281-.92.281-.919-.92-.282-.919-.281-.282.92zm-66.633-12.326-.281.92.92.281.92.281-.282.92-.281.92.92.281.92.281-.281.92-.282.92 1.84.562 1.839.563-.281.919-.281.92.92.281.92.281-.282.92-.281.92 1.84.562 1.839.563-.281.92-.281.919 1.839.563 1.84.562-.281.92-.282.92 1.84.562 1.84.562-.282.92-.281.92 2.759.844 2.76.843-.282.92-.281.92 1.84.562 1.839.562.282-.919.281-.92-1.84-.562-1.839-.563.281-.92.281-.919-1.839-.563-1.84-.562.281-.92.281-.92-1.839-.562-1.84-.563.282-.919.281-.92-1.84-.562-1.839-.563.281-.92.281-.919-1.839-.563-1.84-.562.281-.92.281-.92-1.839-.562-1.84-.562.282-.92.281-.92-1.84-.562-1.839-.563.281-.92.281-.919-.92-.282-.919-.281.281-.92.281-.919-.92-.281-.92-.282-.281.92zm-63.106-17.282-.281.92.919.281.92.281.281-.92.282-.919-.92-.282-.92-.281-.281.92zm3.117 2.964-.282.92.92.281.92.281.281-.919.281-.92-.919-.281-.92-.281-.281.919zm108.532 33.182-.281.92.919.281.92.281-.281.92-.281.92 1.839.562 1.84.562-.281.92-.282.92 1.84.562 1.839.563-.281.92-.281.919 1.84.563 1.839.562.281-.92.281-.919-1.839-.563-1.84-.562.282-.92.281-.92-1.84-.562-1.839-.563.281-.919.281-.92-1.839-.562-1.84-.563.281-.92.281-.919-.919-.282-.92-.281-.281.92zm-105.416-30.217-.281.919.92.282.92.281.281-.92.281-.92-.92-.281-.92-.281-.281.92zm3.117 2.964-.281.92.919.281.92.281.281-.92.282-.919-.92-.282-.92-.281-.281.92zm3.117 2.964-.282.92.92.281.92.281.281-.919.281-.92-.919-.281-.92-.281-.281.919zm4.956 3.527-.281.92.919.281.92.281.281-.92.281-.919-.919-.282-.92-.281-.281.92zm3.116 2.964-.281.92.92.281.92.282.281-.92.281-.92-.92-.281-.919-.281-.282.919zm4.957 3.527-.282.92.92.281.92.281.281-.92.281-.919-.919-.281-.92-.282-.281.92zm99.334 30.37-.281.92 1.839.562 1.84.562.281-.919.281-.92-1.839-.563-1.84-.562-.281.92zm-94.378-26.843-.281.92.919.281.92.281.281-.92.281-.92-.919-.281-.92-.281-.281.92zm58.865 17.997-.282.919.92.282.92.281.281-.92.281-.92-.919-.281-.92-.281-.281.92zm-32.397-5.882-.281.92 1.839.562 1.84.562-.281.92-.282.92 1.84.562 1.839.563-.281.92-.281.919 1.84.563 1.839.562-.281.92-.281.92 1.839.562 1.84.562-.281.92-.282.92 1.84.562 1.839.563.282-.92.281-.92-1.84-.562-1.839-.563.281-.919.281-.92-1.839-.562-1.84-.563.281-.92.281-.919-1.839-.563-1.84-.562.282-.92.281-.92-1.84-.562-1.839-.563.281-.919.281-.92-1.839-.562-1.84-.563-.281.92zm-20.083-.106-.281.92.92.281.92.282.281-.92.281-.92-.92-.281-.919-.281-.282.919zm38.631 11.811-.282.92.92.281.92.281.281-.92.281-.919-.92-.282-.919-.281-.281.92zm-35.514-8.846-.281.92 1.839.562 1.84.562.281-.919.281-.92-1.839-.563-1.84-.562-.281.92zm38.63 11.81-.281.92-1.84-.562-1.839-.563-.281.92-.282.92 1.84.562 1.84.563-.282.919-.281.92 1.84.562 1.839.563-.281.92-.281.919.92.282.919.281.282-.92.281-.92-.92-.281-.92-.281.281-.92.282-.92.919.282.92.281.281-.92.282-.92-.92-.281-.92-.281-.281.92-.281.919-1.84-.562-1.839-.562.281-.92.281-.92.92.281.919.281.282-.919.281-.92-.92-.281-.92-.282-.281.92zm-33.674-8.283-.281.919.92.282.92.281.281-.92.281-.92-.92-.281-.92-.281-.281.92zm93.816 28.682-.281.92.92.281.92.281.281-.92.281-.919-.92-.282-.92-.281-.281.92zM214.26 189.45l-.281.92.919.281.92.281.281-.92.282-.919-.92-.282-.92-.281-.281.92zm36.79 11.248-.281.92.92.281.92.281.281-.92.281-.919-.92-.282-.919-.281-.282.92zm58.865 17.997-.281.919.92.282.92.281.281-.92.281-.92-.92-.281-.919-.281-.282.92zm-92.538-26.281-.282.92.92.281.92.281.281-.919.281-.92-.919-.281-.92-.282-.281.92zm3.116 2.965-.281.919.92.281.92.282.281-.92.281-.92-.92-.281-.92-.281-.281.92zm29.433 8.998-.282.92 1.84.562 1.84.563-.282.919-.281.92 1.84.562 1.839.563-.281.92-.281.919 1.839.563 1.84.562-.281.92-.282.92.92.281.92.281.281-.92.281-.919-.919-.282-.92-.281.281-.92.281-.919-1.839-.563-1.84-.562.281-.92.282-.92-1.84-.562-1.839-.562.281-.92.281-.92-1.84-.562-1.839-.563-.281.92zm-26.316-6.034-.281.92.919.281.92.281.281-.92.282-.92-.92-.281-.92-.281-.281.92zm3.117 2.964-.282.92.92.281.92.281.281-.919.281-.92-.92-.281-.919-.282-.281.92zm3.116 2.965-.281.919.92.281.92.282.281-.92.281-.92-.92-.281-.92-.281-.281.92zm3.117 2.964-.281.92.919.281.92.281.281-.92.282-.92-.92-.281-.92-.281-.281.92zm12.877 3.937-.282.919.92.282.92.281.281-.92.281-.92-.919-.281-.92-.281-.281.92zm-9.761-.973-.281.92.92.281.92.281.281-.919.281-.92-.92-.281-.919-.282-.282.92zm12.877 3.937-.281.92.92.281.92.281.281-.92.281-.919-.92-.282-.92-.281-.281.92zm3.229 2.596c-.165.54-.148.559.751.833.9.275.924.269 1.089-.27.165-.54.148-.558-.751-.833-.9-.275-.924-.269-1.089.27z"/><path fill="#fff" d="m45.35 5.052-.28.92.92.28.919.282-.281.92-.281.92.92.28.92.282-.282.92-.281.92.92.28.92.282-.282.92-.281.92.92.28.92.282.28-.92.282-.92.92.281.92.281.843-2.759.844-2.76-4.6-1.405-4.598-1.406-.281.92zm14.154 6.338-.28.92 1.839.563 1.84.562-.282.92-.281.92 3.679 1.124 3.679 1.125-.281.92-.281.92 2.759.843 2.76.844-.282.92-.281.92 2.76.843 2.758.843-.28.92-.282.92.92.281.92.281.562-1.84.562-1.839-2.759-.843-2.76-.844.282-.92.281-.92-2.76-.843-2.758-.844.28-.92.282-.92-3.68-1.124-3.678-1.125.281-.92.281-.92-2.759-.843-2.76-.843-.28.92zm28.87 10.838-.28.92.92.281.919.281.281-.92.281-.92-.92-.28-.92-.282-.28.92zm3.68 1.125-.282.92.92.281.92.281-.281.92-.282.92-3.678-1.125-3.68-1.125-.843 2.76-.844 2.759-.92-.281-.92-.282-.28.92-.282.92 1.84.562 1.84.563-.282.92-.281.92 2.76.843 2.758.843-.28.92-.282.92 1.84.562 1.84.563-.282.92-.281.92 2.76.843 2.758.843-.28.92-.282.92 1.84.562 1.839.563-.281.92-.281.92 2.759.843 2.759.843-.281.92-.281.92 2.759.844 2.759.843-.281.92-.281.92 1.84.562 1.839.563-.281.92-.281.92 2.759.843 2.759.843-.281.92-.281.92 1.839.562 1.84.563-.281.92-.282.92 2.76.843 2.759.843-.281.92-.281.92 1.839.562 1.84.563-.281.92-.282.92 1.84.562 1.839.562-.281.92-.281.92 2.759.843 2.76.844-.282.92-.281.92 1.84.562 1.839.562-.281.92-.281.92 2.759.843 2.759.844-.281.92-.281.92 1.84.562 1.839.562-.281.92-.281.92 2.759.843 2.759.844-.281.92-.281.92 1.839.562 1.84.562-.281.92-.281.92 2.759.843 2.759.844-.281.92-.281.92 1.839.562 1.84.562-.281.92-.282.92-.919-.281-.92-.282-.281.92-.282.92-.919-.281-.92-.281.281-.92.281-.92-.919-.281-.92-.281.281-.92.281-.92-2.759-.844-2.759-.843.281-.92.281-.92-.92-.28-.92-.282-.281.92-.281.92-.92-.282-.919-.28.562-1.84.562-1.84-3.679-1.125-3.679-1.125.281-.92.282-.92-.92-.28-.92-.281.281-.92.281-.92-2.759-.844-2.759-.843.281-.92.281-.92-.919-.281-.92-.281-.281.92-.282.92-.919-.282-.92-.281.562-1.84.563-1.84-3.679-1.124-3.679-1.125.281-.92.281-.92-.92-.28-.92-.282.282-.92.281-.92-2.759-.843-2.76-.843.281-.92.282-.92-.92-.281-.92-.281-.281.92-.281.92-.92-.282-.92-.281.563-1.84.562-1.84-3.679-1.124-3.679-1.125.281-.92.281-.92-.92-.28-.919-.282.281-.92.281-.92-2.759-.843-2.759-.844.281-.92.281-.919-.92-.281-.92-.281-.281.92-.281.92-.92-.282-.92-.281.282-.92.281-.92-.92-.281-.92-.281.282-.92.281-.92-2.76-.843-2.759-.844.281-.92.282-.92-.92-.28-.92-.282-.281.92-.281.92-.92-.282-.92-.28.563-1.84.562-1.84-3.68-1.125-3.678-1.124.281-.92.281-.92-.92-.281-.92-.281.282-.92.281-.92-2.76-.844-2.758-.843.28-.92.282-.92-.92-.28-.92-.282-.562 1.84-.563 1.84-.92-.282-.919-.281-.281.92-.281.92.92.28.92.282-.282.92-.281.92 3.679 1.124 3.679 1.125-.281.92-.282.92.92.28.92.282-.281.92-.281.92 2.759.843 2.76.843-.282.92-.281.92.92.281.92.281-.282.92-.281.92-.92-.281-.92-.281-.28.92-.282.919-.92-.281-.92-.281.563-1.84.562-1.84-3.679-1.124-3.679-1.125.281-.92.281-.92-.92-.28-.919-.282.281-.92.281-.92-2.759-.843-2.76-.844.282-.92.281-.92-.92-.28-.92-.282-.562 1.84-.562 1.84 3.679 1.124 3.679 1.125-.281.92-.281.92.92.28.92.282-.282.92-.281.92 2.759.843 2.76.844-.282.92-.281.92.92.28.92.282-.282.92-.281.92 2.76.843 2.759.843-.282.92-.28.92.919.281.92.281-.281.92-.282.92 2.76.843 2.759.844-.281.92-.282.92.92.28.92.282.281-.92.281-.92.92.282.92.28-.562 1.84-.563 1.84 3.679 1.125 3.679 1.124-.281.92-.281.92.92.281.919.281.282-.92.281-.92.92.282.919.281-.562 1.84-.562 1.84 1.839.562 1.84.562-.282.92-.281.92.92.28.92.282.281-.92.281-.92.92.282.92.28-.282.92-.281.92.92.282.92.28-.281.92-.282.92 2.76.844 2.759.844-.281.92-.281.92.919.28.92.281.281-.92.282-.919.919.281.92.281-.562 1.84-.563 1.84 1.84.562 1.839.562-.281.92-.281.92.92.28.919.282.282-.92.281-.92.92.282.919.281-.281.92-.281.92.92.28.92.282-.282.92-.281.92 2.759.843 2.76.844-.282.92-.281.92.92.28.92.282.281-.92.281-.92.92.281.92.281-.281.92-.282.92.92.281.92.281-.281.92-.282.92 2.76.844 2.759.843-.281.92-.281.92.919.281.92.281.281-.92.282-.919.919.281.92.281-.281.92-.281.919.919.282.92.281-.281.92-.281.919 2.759.844 2.759.844-.281.919-.281.92.92.281.92.282.281-.92.281-.92.92.281.919.281-.281.92-.281.92.92.281.92.281-.282.92-.281.92 2.76.843 2.759.844-.281.92-.282.92.92.281.92.281.281-.92.281-.92.92.282.92.281-.281.92-.282.919.92.282.92.281-.281.92-.281.919 2.759.844 2.759.844-.281.919-.281.92.92.281.919.281.282-.919.281-.92.919.281.92.281-.281.92-.281.92.92.281.919.281.282-.92.281-.919.92.281.919.281-.562 1.84-.563 1.839 3.68 1.125 3.679 1.125-.282.92-.281.919 1.84.563 1.839.562-.281.92-.281.92 3.679 1.124 3.679 1.125-.281.92-.281.92 2.759.843 2.759.844-.281.92-.281.92 2.759.843 2.759.844-.281.919-.281.92 4.599 1.406 4.599 1.406.281-.92.281-.919.92.281.92.281.281-.92.281-.919-2.759-.844-2.76-.844.282-.919.281-.92-.92-.281-.92-.282.281-.919.282-.92.919.281.92.281.281-.919.282-.92.919.281.92.281-.562 1.84-.563 1.839 2.76.844 2.759.843.562-1.839.563-1.84-.92-.281-.92-.281-.281.92-.281.92-.92-.282-.92-.281.281-.92.282-.919-.92-.282-.92-.281.281-.92.281-.919.92.281.92.281.281-.92.281-.919-.919-.282-.92-.281.281-.92.281-.919-.919-.282-.92-.281-.281.92-.282.92-.919-.281-.92-.282-.281.92-.282.92-.919-.281-.92-.282.562-1.839.563-1.84.919.282.92.281.281-.92.282-.92-.92-.281-.92-.281-.281.92-.281.919-1.84-.562-1.839-.562.281-.92.281-.92.92.281.92.281.281-.919.281-.92-.92-.281-.92-.281.282-.92.281-.92-.92-.281-.92-.281-.281.919-.281.92-1.84-.562-1.839-.563.281-.919.281-.92.92.281.92.281.281-.92.281-.919-.92-.282-.919-.281-.282.92-.281.92-1.839-.563-1.84-.562.281-.92.282-.92.919.282.92.281.281-.92.282-.92-.92-.281-.92-.281.281-.92.281-.92-.919-.281-.92-.281.281-.92.281-.919-.92-.282-.919-.281.281-.92.281-.919-.92-.282-.919-.281-.282.92-.281.92.92.281.92.281-.281.92-.282.92.92.281.92.281-.281.92-.282.92-1.839-.563-1.84-.562.282-.92.281-.92-1.84-.562-1.839-.563.281-.919.281-.92-.92-.281-.919-.281.281-.92.281-.92.92.281.92.281.281-.919.281-.92-.92-.281-.92-.282.282-.919.281-.92 1.839.562 1.84.563.281-.92.281-.92.92.281.92.282.281-.92.281-.92-.92-.281-.919-.281.281-.92.281-.92 1.84.563 1.839.562-.281.92-.281.919 1.839.563 1.84.562.281-.92.281-.919-1.839-.563-1.84-.562.281-.92.282-.92 9.197 2.812 9.198 2.812-.281.92-.282.92 1.84.562 1.839.563-.281.92-.281.919-.92-.281-.919-.281-.282.92-.281.919.92.282.92.281.281-.92.281-.92 2.759.844 2.76.843-.282.92-.281.92-.92-.281-.919-.281-.281.919-.282.92.92.281.92.282.281-.92.281-.92 2.76.844 2.759.843-.281.92-.282.92.92.281.92.281-.281.92-.281.92-.92-.282-.92-.281-.281.92-.281.92.919.281.92.281.281-.92.282-.919 1.839.562 1.84.562.843-2.759.844-2.759-1.84-.563-1.839-.562.281-.92.281-.919-1.839-.563-1.84-.562.281-.92.282-.92-1.84-.562-1.84-.563.282-.919.281-.92-1.84-.563-1.839-.562.281-.92.281-.919-1.839-.563-1.84-.562.281-.92.282-.92-1.84-.562-1.84-.563.282-.919.281-.92-2.759-.844-2.76-.843.282-.92.281-.92-3.679-1.125-3.679-1.124.281-.92.281-.92-4.599-1.406-4.599-1.406.282-.92.281-.92-8.278-2.53-8.278-2.531-.281.92-.281.92-1.84-.563-1.839-.562-.282.92-.281.92-.92-.282-.919-.281-.282.92-.281.92-.92-.282-.919-.281-.563 1.84-.562 1.839-.92-.281-.92-.281-.281.92-.281.92.92.28.919.282.282-.92.281-.92 1.839.562 1.84.563-.281.92-.281.92 1.839.562 1.84.562-.282.92-.281.92-.92-.282-.919-.28-.282.919-.281.92.92.28.92.282.281-.92.281-.92 1.84.563 1.839.562-.281.92-.281.92 1.839.562 1.84.563-.281.919-.282.92-.919-.281-.92-.281-.281.92-.281.919.919.282.92.281.281-.92.281-.92 1.84.563 1.84.562-.282.92-.281.92 1.84.562 1.839.562-.281.92-.281.92-.92-.281-.92-.281-.281.919-.281.92.92.281.919.281-.281.92-.281.92-1.84-.562-1.839-.563.281-.92.281-.919-1.839-.563-1.84-.562.281-.92.282-.92-1.84-.562-1.839-.562.281-.92.281-.92-1.839-.562-1.84-.563.281-.92.281-.92-1.839-.562-1.84-.562.282-.92.281-.92-1.84-.562-1.839-.563.281-.92.281-.919-1.839-.562-1.84-.563.281-.92.281-.92-1.839-.562-1.84-.562.282-.92.281-.92-1.84-.562-1.839-.563.281-.92.281-.919-2.759-.844-2.759-.843.281-.92.281-.92-1.84-.562-1.839-.563.281-.92.281-.92-1.839-.562-1.84-.562.281-.92.282-.92-1.84-.562-1.839-.562.281-.92.281-.92-1.84-.562-1.839-.563.281-.92.281-.92-1.839-.561-1.84-.563.281-.92.282-.92.919.282.92.281.281-.92.282-.92-.92-.28-.92-.282.281-.92.281-.92-.919-.28-.92-.282-.281.92-.282.92.92.28.92.282-.281.92-.281.92-1.84-.563-1.839-.562.281-.92.281-.92-2.759-.843-2.76-.844.282-.92.281-.92-1.84-.562-1.839-.562.281-.92.281-.92.92.281.92.282.281-.92.281-.92-.92-.281-.919-.281.281-.92.281-.92-.92-.281-.92-.281-.281.92-.281.92.92.28.92.282-.282.92-.281.92-2.759-.844-2.759-.844.281-.92.281-.92.92.282.919.28.282-.919.281-.92-.92-.28-.92-.282.282-.92.281-.92-.92-.28-.92-.282-.281.92-.281.92.92.28.919.282-.281.92-.281.92-2.759-.844-2.76-.844.282-.92.281-.92.92.282.919.281.281-.92.282-.92-.92-.28-.92-.282.281-.92.282-.92-.92-.28-.92-.282-.281.92-.281.92.919.281.92.281-.281.92-.281.92-2.76-.844-2.759-.843.281-.92.282-.92-2.76-.844-2.759-.843.281-.92.281-.92-2.759-.843-2.759-.844.281-.92.281-.92-3.679-1.124-3.679-1.125.281-.92.281-.92-3.679-1.124-3.679-1.125.282-.92.281-.92.92.282.919.28.281-.92.282-.919-.92-.281-.92-.281.281-.92.282-.92-.92-.281-.92-.281-.281.92-.281.92.919.28.92.282-.281.92-.281.92-4.6-1.407-4.598-1.406.281-.92.281-.92.92.282.92.281.281-.92.281-.92-.92-.28-.92-.282.282-.92.281-.92-.92-.28-.92-.282-.28.92zm4.956 3.527-.281.92.92.28.92.282.28-.92.281-.92-.92-.28-.919-.282-.281.92zm8.635 4.651-.281.92.92.281.919.282.282-.92.281-.92-.92-.281-.92-.281-.281.92zm3.679 1.125-.281.92.92.281.919.281-.281.92-.281.92.92.281.92.281.281-.92.281-.92-.92-.28-.92-.282.282-.92.281-.92-.92-.28-.92-.282-.281.92zm4.956 3.527-.281.92.92.28.92.282.281-.92.281-.92-.92-.28-.92-.282-.281.92zm4.956 3.527-.281.92.92.28.92.282.281-.92.281-.92-.92-.281-.919-.281-.282.92zm4.957 3.526-.282.92.92.281.92.282.281-.92.281-.92-.919-.281-.92-.281-.281.92zm-44.56-5.577-.28.92.92.281.92.281.28-.92.282-.92-.92-.28-.92-.282-.281.92zm3.68 1.125-.281.92.92.281.92.281.28-.92.282-.92-.92-.28-.92-.282-.281.92zm61.982 20.961-.282.92.92.281.92.281.281-.92.281-.92-.92-.28-.919-.282-.281.92zM85.867 43.588l-.281.92.92.28.92.282.28-.92.282-.92-.92-.28-.92-.282-.28.92zm3.68 1.125-.282.92.92.28.92.282.28-.92.282-.92-.92-.28-.92-.282-.28.92zm65.66 22.086-.281.92.919.28.92.282-.281.92-.281.92.92.28.919.282.282-.92.281-.92-.92-.281-.92-.281.281-.92.282-.92-.92-.28-.92-.282-.281.92zM92.101 49.517l-.282.92.92.28.92.282.281-.92.281-.92-.92-.281-.92-.281-.28.92zm3.679 1.124-.282.92.92.281.92.282.281-.92.281-.92-.92-.281-.92-.281-.28.92zm3.679 1.125-.282.92.92.281.92.281.281-.92.281-.92-.919-.28-.92-.282-.281.92zm61.981 20.961-.281.92.92.281.92.282.281-.92.281-.92-.92-.281-.92-.281-.281.92zM90.976 53.196l-.281.92 1.839.562 1.84.562-.563 1.84-.562 1.84.92.28.92.282.28-.92.282-.92.92.281.92.282-.282.92-.281.919 3.679 1.125 3.679 1.125-.562 1.84-.563 1.839.92.28.92.282.281-.92.281-.92.92.282.92.281-.282.92-.281.92 2.759.843 2.76.844-.281.92-.282.92.92.28.92.282-.281.92-.282.92.92.28.92.282.281-.92.281-.92.92.281.92.281-.281.92-.281.92 2.759.844 2.759.843-.281.92-.281.92-.92-.281-.92-.282-.281.92-.281.92.92.281.919.281.282-.92.281-.92.92.282.919.281-.281.92-.281.92.92.28.919.282.282-.92.281-.92.92.282.919.28-.281.92-.281.92 2.759.844 2.76.844-.282.92-.281.92-.92-.282-.919-.281-.282.92-.281.92.92.28.92.282.281-.92.281-.92.92.281.92.282-.282.92-.281.92.92.28.92.281.281-.92.281-.919.92.281.92.281-.281.92-.282.92 2.76.844 2.759.843-.281.92-.282.92-.919-.282-.92-.28-.281.919-.281.92.919.281.92.281.281-.92.281-.92.92.282.92.281-.281.92-.281.92 3.679 1.124 3.679 1.125-.563 1.84-.562 1.839.92.281.919.282.282-.92.281-.92.92.281.919.281-.281.92-.281.92 2.759.844 2.76.843-.282.92-.281.92-.92-.281-.919-.282-.282.92-.281.92.92.281.92.281.281-.919.281-.92.92.281.92.281-.281.92-.282.92.92.281.92.281.281-.92.281-.919.92.281.92.281-.281.92-.282.919 2.76.844 2.759.844-.281.919-.281.92-.92-.281-.92-.281-.281.92-.281.919.919.282.92.281.281-.92.282-.92.919.281.92.282-.281.919-.281.92.919.281.92.282.281-.92.282-.92.919.281.92.281-.281.92-.281.92 2.759.844 2.759.843-.281.92-.281.92-.92-.282-.92-.281-.281.92-.281.92.92.281.92.281.281-.92.281-.919.92.281.919.281-.281.92-.281.92.92.281.92.281.281-.92.281-.92.92.282.92.281-.282.92-.281.919 2.759.844 2.76.844-.282.919-.281.92.92.281.92.282-.281.919-.282.92.92.281.92.281.281-.919.281-.92.92.281.92.281-.281.92-.282.92 2.76.843 2.759.844-.281.92-.281.92.919.281.92.281-.281.92-.281.92.92.281.919.281.844-2.759.844-2.76-.92-.281-.92-.281-.281.92-.281.919-.92-.281-.92-.281.281-.92.281-.919-2.759-.844-2.759-.844.281-.919.281-.92.92.281.92.281.281-.92.281-.919.92.281.92.281-.281.92-.282.92 2.76.843 2.759.844.281-.92.281-.92-2.759-.843-2.759-.844.281-.92.281-.919-.92-.282-.919-.281.281-.92.281-.919-2.759-.844-2.76-.844-.281.92-.281.92 1.84.562 1.839.563-.562 1.839-.563 1.84-.919-.281-.92-.282.281-.919.281-.92-.92-.281-.919-.282-.282.92-.281.92-.92-.281-.919-.281.281-.92.281-.92-2.759-.844-2.759-.843.281-.92.281-.92.92.282.919.281.282-.92.281-.92.92.281.919.282-.281.919-.281.92.92.281.919.282.563-1.84.562-1.84-1.839-.562-1.84-.562.281-.92.282-.92-2.76-.843-2.759-.844.281-.92.281-.92-.919-.281-.92-.281-.281.92-.281.92-.92-.282-.92-.281-.281.92-.281.92.919.281.92.281.281-.92.282-.919.919.281.92.281-.281.92-.281.919 2.759.844 2.759.844-.281.919-.281.92-.92-.281-.92-.281-.281.92-.281.919-.92-.281-.92-.281.282-.92.281-.92-.92-.281-.92-.281-.281.92-.281.92-.92-.282-.92-.281.282-.92.281-.919-2.76-.844-2.759-.844.281-.919.282-.92.919.281.92.281.281-.919.281-.92-.919-.281-.92-.282-.281.92-.281.92-.92-.281-.92-.282.281-.919.281-.92-.919-.281-.92-.281-.281.919-.282.92-.919-.281-.92-.281.281-.92.281-.92-2.759-.843-2.759-.844.281-.92.281-.92.92.282.92.281.281-.92.281-.92-.92-.281-.919-.281-.282.92-.281.919-.92-.281-.919-.281.281-.92.281-.92-.92-.281-.919-.281-.282.92-.281.92-.92-.282-.919-.281.281-.92.281-.919-1.84-.563-1.839-.562.562-1.84.563-1.84-.92-.28-.92-.282-.281.92-.281.92-.92-.281-.92-.281.281-.92.282-.92-3.679-1.125-3.679-1.125.562-1.84.562-1.839-.919-.28-.92-.282-.281.92-.282.92-.919-.282-.92-.28.281-.92.281-.92-2.759-.844-2.759-.844.281-.92.281-.92.92.282.92.281.281-.92.281-.92-.92-.28-.919-.282-.282.92-.281.92-.92-.281-.919-.282.281-.92.281-.92-.92-.28-.92-.281-.281.92-.281.919-.92-.281-.919-.281.281-.92.281-.92-2.759-.844-2.76-.843.282-.92.281-.92.919.282.92.28.281-.919.282-.92-.92-.281-.92-.281-.281.92-.281.92-.92-.282-.92-.281.281-.92.282-.92-.92-.28-.92-.282-.281.92-.281.92-.92-.282-.92-.28.281-.92.282-.92-2.76-.844-2.759-.844.281-.92.281-.92.92.282.92.281.281-.92.281-.92-.919-.28-.92-.282-.281.92-.282.92-.919-.281-.92-.282.281-.92.281-.919-.92-.281-.919-.281-.281.92-.282.92-.919-.282-.92-.281.281-.92.281-.92-2.759-.843-2.759-.844.281-.92.281-.92.92.282.92.28.281-.919.281-.92-.92-.28-.92-.282-.281.92-.281.92-.92-.282-.92-.281.282-.92.281-.92-3.679-1.124-3.68-1.125.563-1.84.563-1.84-.92-.28-.92-.282-.281.92-.281.92-.92-.281-.92-.281.281-.92.281-.92-2.759-.843-2.76-.844-.28.92zm11.037 3.374-.281.92.919.281.92.281.281-.92.282-.92-.92-.28-.92-.282-.281.92zm3.679 1.125-.281.92.919.28.92.282.281-.92.282-.92-.92-.28-.92-.282-.281.92zm3.679 1.125-.281.92.92.28.919.282.282-.92.281-.92-.92-.28-.92-.282-.281.92zm58.303 19.836-.282.92.92.28.92.282.281-.92.281-.92-.92-.28-.919-.282-.281.92zm-55.749-15.033-.281.92.92.281.92.282.281-.92.281-.92-.92-.281-.92-.281-.281.92zm3.679 1.125-.281.92.92.281.92.281.281-.92.281-.92-.92-.28-.919-.282-.282.92zm58.303 19.837-.281.92.919.28.92.282.281-.92.282-.92-.92-.28-.92-.282-.281.92zm-52.069-13.908-.282.92.92.28.92.282.281-.92.281-.92-.919-.28-.92-.282-.281.92zm3.679 1.125-.282.92.92.28.92.282.281-.92.281-.92-.919-.28-.92-.282-.281.92zm6.233 5.928-.281.92.92.281.919.282.282-.92.281-.92-.92-.281-.92-.281-.281.92zm9.912 7.054-.281.92.92.28.92.282.281-.92.281-.92-.92-.28-.919-.282-.282.92zm80.94 24.746-.282.919 1.84.563 1.839.562.282-.92.281-.919-1.84-.563-1.839-.562-.281.92zm-74.706-18.817-.282.92.92.28.92.282.281-.92.281-.92-.919-.281-.92-.281-.281.92zm100.33 33.691-.562 1.839.92.282.919.281-.281.92-.281.919.92.282.919.281.282-.92.281-.92.92.281.919.282-.562 1.839-.562 1.84.919.281.92.281.281-.92.281-.919.92.281.92.281-.562 1.839-.563 1.84 1.84.562 1.839.563-.281.92-.281.919 1.839.563 1.84.562.281-.92.281-.919 1.84.562 1.839.562-.281.92-.281.92-.92-.281-.92-.281-.281.919-.281.92 1.84.562 1.839.563-.281.92-.281.919 1.839.563 1.84.562-.281.92-.282.92 1.84.562 1.839.563-.281.919-.281.92 1.84.562 1.839.563.281-.92.281-.92.92.282.92.281-.562 1.839-.563 1.84 1.84.562 1.839.563-.281.919-.281.92 1.839.563 1.84.562.281-.92.281-.92 1.84.563 1.839.562.282-.92.281-.919-1.84-.563-1.839-.562.281-.92.281-.92-1.839-.562-1.84-.562.281-.92.281-.92-1.839-.562-1.84-.563.282-.92.281-.919-1.84-.563-1.839-.562.281-.92.281-.92-1.839-.562-1.84-.562.281-.92.281-.92-1.839-.562-1.84-.563.282-.92.281-.919-1.84-.563-1.839-.562.281-.92.281-.92-1.839-.562-1.84-.562.281-.92.282-.92-2.76-.844-2.759-.843.281-.92.281-.92-1.839-.562-1.84-.563.281-.919.282-.92-3.679-1.125-3.679-1.125-.563 1.84zM135.734 91.017l-.281.92.919.281.92.281.281-.92.281-.92-.919-.28-.92-.282-.281.92zm22.074 6.749-.281.92.92.281.919.281.282-.92.281-.92-.92-.28-.92-.282-.281.92zm7.358 2.25-.281.919 2.759.844 2.76.844-.282.919-.281.92-.92-.281-.919-.281-.282.919-.281.92.92.281.92.282.281-.92.281-.92.92.281.92.281-.282.92-.281.92.92.281.92.281.562-1.839.563-1.84-1.84-.562-1.839-.562.281-.92.281-.92-2.759-.844-2.76-.843-.281.92zm84.618 25.87-.281.92.92.281.92.281.281-.92.281-.919-.92-.282-.919-.281-.282.92zM145.646 98.071l-.281.92.92.28.919.282.282-.92.281-.92-.92-.28-.92-.282-.281.92zm29.433 8.998-.282.92 1.84.562 1.839.563.282-.92.281-.92-1.84-.562-1.839-.563-.281.92zm82.778 25.308-.281.92.92.281.92.281-.282.92-.281.92 1.84.562 1.839.563.282-.92.281-.92-1.84-.562-1.839-.563.281-.92.281-.919-.92-.281-.919-.282-.282.92zm-50.792-11.506-.281.92.92.281.92.281.281-.919.281-.92-.92-.281-.92-.281-.281.919zm60.142 20.399-.281.92 1.84.562 1.839.563-.281.919-.281.92 1.839.563 1.84.562-.281.92-.282.92.92.281.92.281.281-.92.281-.92-.919-.281-.92-.281.281-.92.281-.92-1.839-.562-1.84-.562.281-.92.282-.92-1.84-.562-1.839-.563-.282.92zM155.43 112.125l-.563 1.839.92.282.92.281-1.125 3.679-1.125 3.679.92.281.92.281-.563 1.84-.562 1.839.92.282.919.281-.281.92-.281.919.92.281.919.282-.281.919-.281.92.92.281.92.282-.282.919-.281.92.92.281.92.282-.281.919-.282.92.92.281.92.281-.281.92-.282.92.92.281.92.281-.281.92-.281.92.919.281.92.281-.281.92-.281.92.919.281.92.281-.281.92-.281.92 1.839.562 1.84.563-.281.919-.281.92 1.839.563 1.84.562-.282.92-.281.919 1.84.563 1.839.562-.281.92-.281.92 1.839.562 1.84.563-.281.919-.282.92 2.76.844 2.759.843-.281.92-.281.92 1.839.562 1.84.563-.281.919-.282.92 2.76.844 2.759.843-.281.92-.281.92 2.759.844 2.759.843-.281.92-.281.92 1.839.562 1.84.562.281-.919.281-.92.92.281.92.281-.282.92-.281.92.92.281.92.281.281-.92.281-.919.92.281.92.281.562-1.839.563-1.84-.92-.281-.92-.281.281-.92.281-.92-1.839-.562-1.84-.563.282-.919.281-.92-2.76-.844-2.759-.843.281-.92.282-.92-1.84-.562-1.839-.563.281-.919.281-.92-1.84-.563-1.839-.562.281-.92.281-.92-.919-.281-.92-.281.281-.92.281-.92-1.839-.562-1.84-.562.281-.92.281-.92-.919-.281-.92-.281.281-.92.281-.92-.919-.281-.92-.281.281-.92.281-.92-.92-.281-.919-.281.562-1.84.562-1.839-.919-.281-.92-.282.281-.919.281-.92-.919-.281-.92-.281 1.125-3.68 1.124-3.679-2.759-.843-2.759-.844.281-.92.281-.919-3.679-1.125-3.679-1.125.281-.92.282-.919-1.84-.563-1.84-.562.282-.92.281-.92-2.759-.843-2.76-.844.281-.92.282-.92-2.76-.843-2.759-.844.281-.92.282-.919-.92-.281-.92-.282-.562 1.84zm59.146 17.077-.282.92.92.281.92.281.281-.92.281-.919-.919-.282-.92-.281-.281.92zm-10.323.867-.843 2.759.919.281.92.282.281-.92.282-.92.919.281.92.282-.281.919-.281.92 1.839.562 1.84.563-.563 1.839-.562 1.84-.92-.281-.92-.281.282-.92.281-.92-2.759-.844-2.76-.843-.281.92-.281.919 1.839.563 1.84.562-.281.92-.281.92 2.759.843 2.759.844-.281.92-.281.919 2.759.844 2.759.844-.281.919-.281.92 1.839.563 1.84.562.281-.92.281-.92-.919-.281-.92-.281.281-.92.281-.92-3.679-1.124-3.679-1.125.562-1.84.563-1.839.92.281.919.281-.281.92-.281.92 2.759.843 2.76.844.281-.92.281-.92-2.759-.843-2.76-.844.282-.92.281-.919.92.281.919.281.282-.92.281-.919-.92-.282-.92-.281-.281.92-.281.92-.92-.282-.92-.281.281-.919.282-.92-2.76-.844-2.759-.843.281-.92.282-.92.919.281.92.281.281-.919.281-.92-.919-.281-.92-.282-.281.92-.281.92-.92-.281-.92-.281.281-.92.281-.92-.919-.281-.92-.281-.844 2.759zm75.983 21.219-.281.92.92.281.92.281-.282.92-.281.92 1.84.562 1.839.562.282-.919.281-.92-1.84-.563-1.839-.562.281-.92.281-.919-.92-.282-.919-.281-.282.92zm-58.15-13.755-.281.919.92.281.919.282.282-.92.281-.92-.92-.281-.92-.281-.281.92zm6.105 12.929-.563 1.839 2.759.844 2.76.844-.281.919-.282.92.92.281.92.282-.281.919-.282.92.92.281.92.282-.281.919-.281.92.919.281.92.281-.281.92-.281.92.92.281.919.281-.281.92-.281.92 1.839.562 1.84.563-.281.919-.281.92 1.839.563 1.84.562-.282.92-.281.92 1.84.562 1.839.562-.281.92-.281.92 1.839.562 1.84.563-.281.919-.281.92 1.839.563 1.84.562-.282.92-.281.92 2.759.843 2.76.844-.281.92-.282.919 3.679 1.125 3.679 1.125-.281.92-.281.919 3.679 1.125 3.679 1.125-.281.92-.281.92 3.679 1.124 3.679 1.125.281-.92.281-.919-3.679-1.125-3.679-1.125.281-.92.282-.92-2.76-.843-2.759-.844.281-.919.281-.92-2.759-.844-2.759-.843.281-.92.281-.92-2.759-.844-2.759-.843.281-.92.281-.92-1.839-.562-1.84-.563.281-.919.281-.92-1.839-.562-1.84-.563.282-.92.281-.919-2.76-.844-2.759-.844.281-.919.282-.92-1.84-.562-1.84-.563.282-.92.281-.919-1.84-.563-1.839-.562.281-.92.281-.92-.92-.281-.919-.281.281-.92.281-.92-.92-.281-.919-.281.281-.92.281-.92-.92-.281-.92-.281.282-.92.281-.92 1.839.563 1.84.562-.281.92-.282.92 3.68 1.125 3.679 1.124-.282.92-.281.92 2.759.844 2.76.843-.281.92-.282.92 2.76.843 2.759.844-.281.92-.281.919 2.759.844 2.759.844-.281.919-.281.92 1.839.563 1.84.562-.281.92-.282.919 1.84.563 1.839.562-.281.92-.281.92 1.84.562 1.839.563-.281.919-.281.92 1.839.563 1.84.562-.281.92-.282.919 1.84.563 1.839.562.282-.92.281-.919-1.84-.563-1.839-.562.281-.92.281-.92-.92-.281-.919-.281.281-.92.281-.92-1.839-.562-1.84-.562.281-.92.281-.92-1.839-.562-1.84-.563.282-.919.281-.92-2.76-.844-2.759-.843.281-.92.282-.92-1.84-.562-1.839-.563.281-.92.281-.919-3.679-1.125-3.679-1.125.281-.92.281-.919-2.759-.844-2.759-.844.281-.919.281-.92-3.679-1.125-3.679-1.125.281-.92.281-.919-2.759-.844-2.759-.843-.282.919-.281.92-.919-.281-.92-.281.281-.92.281-.92-1.839-.562-1.84-.563.281-.919.282-.92-.92-.281-.92-.282-.562 1.84zm1.148 9.403-.281.919.919.282.92.281-.281.92-.281.919.92.282.919.281-.281.919-.281.92 1.839.563 1.84.562-.281.92-.281.92.919.281.92.281-.281.92-.281.919 1.839.563 1.84.562-.281.92-.282.92 1.84.562 1.839.563-.281.919-.281.92 1.84.563 1.839.562-.281.92-.281.919 2.759.844 2.759.844-.281.919-.281.92 1.839.563 1.84.562.281-.92.281-.92-1.839-.562-1.84-.562.281-.92.282-.92-1.84-.562-1.839-.563.281-.919.281-.92-1.84-.563-1.839-.562.281-.92.281-.92-1.839-.562-1.84-.562.281-.92.282-.92-1.84-.562-1.839-.563.281-.919.281-.92-1.84-.563-1.839-.562.281-.92.281-.919-1.839-.563-1.84-.562.281-.92.282-.92-.92-.281-.92-.281.281-.92.282-.92-.92-.281-.92-.281-.281.92zm-63.107-17.282-.281.919.92.281.92.282.281-.92.281-.92-.92-.281-.919-.281-.282.92zm3.117 2.964-.281.92.92.281.919.281.282-.92.281-.92-.92-.281-.92-.281-.281.92zm108.532 33.181-.281.92.92.281.92.282-.282.919-.281.92 1.84.563 1.839.562-.281.92-.281.92 1.839.562 1.84.562-.281.92-.281.92 1.839.562 1.84.563.281-.92.281-.92-1.84-.562-1.839-.563.281-.919.281-.92-1.839-.563-1.84-.562.282-.92.281-.92-1.84-.562-1.839-.562.281-.92.281-.92-.92-.281-.919-.281-.282.919zm-105.415-30.217-.281.92.919.281.92.281.281-.919.282-.92-.92-.281-.92-.282-.281.92zm3.116 2.965-.281.919.92.281.92.282.281-.92.281-.92-.92-.281-.919-.281-.282.92zm3.117 2.964-.281.92.92.281.919.281.282-.92.281-.92-.92-.281-.92-.281-.281.92zm4.956 3.527-.281.919.92.282.92.281.281-.92.281-.92-.92-.281-.92-.281-.281.92zm3.117 2.964-.281.92.919.281.92.281.281-.92.282-.919-.92-.282-.92-.281-.281.92zm4.956 3.527-.281.919.92.282.919.281.282-.92.281-.92-.92-.281-.92-.281-.281.92zm99.335 30.369-.282.92 1.84.562 1.84.563.281-.92.281-.92-1.84-.562-1.839-.562-.281.919zm-94.379-26.843-.281.92.92.281.92.282.281-.92.281-.92-.92-.281-.919-.281-.282.919zm58.865 17.997-.281.92.92.281.92.281.281-.919.281-.92-.92-.281-.92-.282-.281.92z"/></g><defs><clipPath id="a"><path fill="#fff" d="m42.797.248 307.201 93.92-42.798 139.99L-.002 140.236z"/></clipPath></defs></svg>