<svg xmlns="http://www.w3.org/2000/svg" xmlns:xlink="http://www.w3.org/1999/xlink" width="500" zoomAndPan="magnify" viewBox="0 0 375 374.999991" height="500" preserveAspectRatio="xMidYMid meet" version="1.0"><defs><clipPath id="82f81dbe79"><path d="M 116 52.054688 L 255 52.054688 L 255 322.804688 L 116 322.804688 Z M 116 52.054688 " clip-rule="nonzero"/></clipPath><clipPath id="5350548ebb"><path d="M 151 292 L 231 292 L 231 322.804688 L 151 322.804688 Z M 151 292 " clip-rule="nonzero"/></clipPath><clipPath id="b387cde9dc"><path d="M 116 52.054688 L 255 52.054688 L 255 255 L 116 255 Z M 116 52.054688 " clip-rule="nonzero"/></clipPath><clipPath id="ecaa3f9e65"><path d="M 147 52.054688 L 255 52.054688 L 255 322.804688 L 147 322.804688 Z M 147 52.054688 " clip-rule="nonzero"/></clipPath><clipPath id="2eab655065"><path d="M 116 185 L 256 185 L 256 322.804688 L 116 322.804688 Z M 116 185 " clip-rule="nonzero"/></clipPath><clipPath id="7f63fc79db"><path d="M 116 52.054688 L 256 52.054688 L 256 160 L 116 160 Z M 116 52.054688 " clip-rule="nonzero"/></clipPath></defs><g clip-path="url(#82f81dbe79)"><path fill="#f2b950" d="M 210.359375 186.265625 C 207.410156 185.75 204.402344 185.484375 201.355469 185.484375 L 170.382812 185.484375 C 167.40625 185.484375 164.402344 185.738281 161.390625 186.265625 C 159.085938 186.667969 156.78125 187.230469 154.480469 187.964844 C 135.671875 193.621094 121.246094 210.21875 117.898438 228.609375 C 116.074219 237.453125 116.589844 246.089844 118.941406 254.003906 C 125.457031 275.976562 146.089844 292.410156 169.914062 292.40625 L 172.460938 292.40625 C 172.457031 292.417969 172.457031 292.421875 172.449219 292.433594 C 167.851562 303.417969 160.957031 313.648438 151.613281 322.519531 L 182.585938 322.511719 C 201.324219 319.050781 218 309.703125 230.609375 296.46875 C 241.671875 284.863281 249.613281 270.257812 253.082031 254.003906 C 253.664062 251.304688 254.117188 248.5625 254.441406 245.777344 C 254.492188 245.371094 254.539062 244.960938 254.582031 244.558594 C 257.59375 214.574219 236.351562 190.800781 210.359375 186.265625 Z M 201.332031 52.351562 L 201.320312 52.351562 L 170.371094 52.34375 L 170.347656 52.34375 C 140.773438 52.34375 116.796875 76.277344 116.796875 105.800781 C 116.796875 118.621094 121.320312 130.386719 128.863281 139.59375 C 138.683594 151.589844 153.617188 159.25 170.34375 159.25 L 201.320312 159.25 C 213.914062 159.25 225.492188 154.910156 234.636719 147.648438 C 245.632812 138.90625 253.109375 125.933594 254.59375 111.199219 C 254.773438 109.425781 254.863281 107.628906 254.863281 105.800781 C 254.863281 76.285156 230.902344 52.355469 201.332031 52.351562 Z M 201.332031 52.351562 " fill-opacity="1" fill-rule="nonzero"/></g><path fill="#446ea6" d="M 170.34375 159.25 C 153.617188 159.25 138.683594 151.589844 128.863281 139.59375 L 226.570312 139.59375 L 234.636719 147.648438 C 225.492188 154.910156 213.914062 159.25 201.320312 159.25 Z M 170.34375 159.25 " fill-opacity="1" fill-rule="nonzero"/><g clip-path="url(#5350548ebb)"><path fill="#446ea6" d="M 230.609375 296.46875 C 218 309.703125 201.324219 319.050781 182.585938 322.511719 L 151.613281 322.519531 C 160.957031 313.648438 167.851562 303.417969 172.449219 292.433594 L 226.570312 292.433594 Z M 230.609375 296.46875 " fill-opacity="1" fill-rule="nonzero"/></g><g clip-path="url(#b387cde9dc)"><path fill="#f26241" d="M 254.582031 244.558594 C 254.539062 244.960938 254.492188 245.371094 254.441406 245.777344 C 254.117188 248.5625 253.664062 251.304688 253.082031 254.003906 L 118.941406 254.003906 C 116.589844 246.089844 116.074219 237.453125 117.898438 228.609375 C 121.246094 210.21875 135.671875 193.621094 154.480469 187.964844 C 159.78125 186.277344 165.132812 185.484375 170.382812 185.484375 L 201.355469 185.484375 C 231.21875 185.484375 257.933594 211.167969 254.582031 244.558594 Z M 201.332031 52.351562 L 201.320312 52.351562 L 170.371094 52.34375 L 170.347656 52.34375 C 140.773438 52.34375 116.796875 76.277344 116.796875 105.800781 L 254.863281 105.800781 C 254.863281 76.285156 230.902344 52.355469 201.332031 52.351562 Z M 201.332031 52.351562 " fill-opacity="1" fill-rule="nonzero"/></g><g clip-path="url(#ecaa3f9e65)"><path fill="#b0d9d9" d="M 147.773438 105.800781 C 147.773438 76.28125 171.746094 52.351562 201.320312 52.351562 C 230.890625 52.351562 254.863281 76.28125 254.863281 105.800781 C 254.863281 135.324219 230.890625 159.253906 201.320312 159.253906 C 171.746094 159.253906 147.773438 135.324219 147.773438 105.800781 Z M 185.453125 187.964844 C 166.644531 193.621094 152.222656 210.214844 148.871094 228.609375 C 141.800781 262.886719 169.902344 294.011719 203.464844 292.335938 C 198.863281 303.355469 191.949219 313.617188 182.585938 322.511719 C 220.496094 315.503906 249.941406 284.441406 254.441406 245.777344 C 259.300781 205.890625 221.253906 176.570312 185.453125 187.964844 Z M 185.453125 187.964844 " fill-opacity="1" fill-rule="nonzero"/></g><path fill="#446ea6" d="M 201.355469 185.484375 C 204.402344 185.484375 207.410156 185.75 210.359375 186.265625 L 161.390625 186.265625 C 164.402344 185.738281 167.40625 185.484375 170.382812 185.484375 Z M 201.355469 185.484375 " fill-opacity="1" fill-rule="nonzero"/><g clip-path="url(#2eab655065)"><path fill="#1c1d22" d="M 254.90625 244.179688 C 254.914062 244.074219 254.921875 243.972656 254.933594 243.867188 C 254.96875 243.429688 255.003906 242.992188 255.03125 242.554688 C 255.042969 242.410156 255.050781 242.261719 255.058594 242.121094 C 255.082031 241.726562 255.097656 241.335938 255.113281 240.949219 C 255.121094 240.777344 255.128906 240.601562 255.132812 240.429688 C 255.140625 240.085938 255.144531 239.746094 255.148438 239.402344 C 255.160156 238.265625 255.136719 237.132812 255.078125 236.007812 L 255.078125 235.988281 C 254.359375 222.074219 248.414062 209.3125 238.035156 199.726562 C 237.710938 199.425781 237.382812 199.128906 237.054688 198.835938 C 237.023438 198.808594 236.992188 198.785156 236.964844 198.757812 C 234.414062 196.515625 231.679688 194.523438 228.796875 192.808594 C 228.742188 192.777344 228.6875 192.746094 228.636719 192.710938 C 228.230469 192.472656 227.824219 192.242188 227.417969 192.011719 C 227.332031 191.96875 227.253906 191.921875 227.167969 191.875 C 226.765625 191.652344 226.359375 191.433594 225.949219 191.222656 C 225.875 191.183594 225.804688 191.144531 225.730469 191.109375 C 225.285156 190.882812 224.839844 190.660156 224.390625 190.445312 C 224.140625 190.328125 223.894531 190.214844 223.644531 190.101562 C 223.441406 190.007812 223.242188 189.914062 223.039062 189.824219 C 222.742188 189.691406 222.445312 189.566406 222.148438 189.4375 C 221.996094 189.375 221.84375 189.3125 221.691406 189.25 C 221.367188 189.113281 221.039062 188.980469 220.707031 188.851562 C 220.597656 188.808594 220.488281 188.769531 220.382812 188.726562 C 220.011719 188.585938 219.644531 188.449219 219.273438 188.316406 C 219.257812 188.308594 219.242188 188.304688 219.230469 188.300781 C 217.523438 187.691406 215.796875 187.171875 214.046875 186.742188 C 213.96875 186.722656 213.894531 186.703125 213.816406 186.6875 C 213.441406 186.597656 213.066406 186.511719 212.691406 186.429688 C 212.574219 186.402344 212.460938 186.378906 212.34375 186.351562 C 211.984375 186.277344 211.628906 186.203125 211.269531 186.136719 C 211.132812 186.109375 211 186.085938 210.863281 186.0625 C 210.515625 185.996094 210.164062 185.933594 209.816406 185.878906 C 209.675781 185.855469 209.53125 185.835938 209.390625 185.8125 C 208.867188 185.734375 208.339844 185.660156 207.8125 185.597656 C 207.515625 185.558594 207.214844 185.523438 206.914062 185.488281 C 206.71875 185.46875 206.519531 185.453125 206.324219 185.433594 C 205.992188 185.402344 205.664062 185.375 205.332031 185.347656 C 205.15625 185.335938 204.980469 185.324219 204.804688 185.3125 C 204.441406 185.289062 204.078125 185.269531 203.714844 185.25 C 203.566406 185.246094 203.421875 185.238281 203.277344 185.234375 C 202.859375 185.21875 202.441406 185.207031 202.019531 185.203125 C 201.929688 185.203125 201.835938 185.199219 201.742188 185.199219 C 201.613281 185.199219 201.484375 185.195312 201.355469 185.195312 L 170.382812 185.195312 C 164.96875 185.195312 159.585938 186.035156 154.398438 187.6875 C 135.828125 193.273438 121.046875 209.699219 117.613281 228.550781 C 115.835938 237.167969 116.191406 245.761719 118.664062 254.085938 C 125.402344 276.820312 146.472656 292.695312 169.902344 292.695312 L 172.027344 292.695312 C 167.296875 303.851562 160.363281 313.8125 151.414062 322.308594 C 151.328125 322.390625 151.300781 322.515625 151.34375 322.625 C 151.390625 322.734375 151.496094 322.808594 151.613281 322.808594 L 182.570312 322.796875 C 182.574219 322.796875 182.582031 322.800781 182.585938 322.800781 C 182.605469 322.800781 182.621094 322.800781 182.640625 322.796875 C 183.6875 322.601562 184.734375 322.386719 185.769531 322.15625 C 185.816406 322.148438 185.859375 322.136719 185.902344 322.128906 C 186.953125 321.894531 187.992188 321.640625 189.027344 321.371094 L 189.070312 321.359375 C 204.929688 317.207031 219.195312 308.8125 230.671875 296.824219 C 230.730469 296.761719 230.789062 296.699219 230.847656 296.640625 C 230.980469 296.496094 231.121094 296.355469 231.253906 296.214844 C 231.808594 295.625 232.347656 295.03125 232.882812 294.429688 C 232.960938 294.339844 233.039062 294.25 233.117188 294.164062 C 233.789062 293.402344 234.445312 292.636719 235.089844 291.859375 C 235.121094 291.824219 235.148438 291.785156 235.179688 291.746094 C 245.554688 279.152344 252.160156 264.171875 254.445312 248 C 254.453125 247.957031 254.457031 247.914062 254.464844 247.871094 C 254.558594 247.1875 254.648438 246.5 254.730469 245.8125 C 254.738281 245.753906 254.742188 245.699219 254.75 245.640625 C 254.792969 245.289062 254.832031 244.9375 254.867188 244.585938 C 254.882812 244.449219 254.890625 244.3125 254.90625 244.179688 Z M 254.554688 240.421875 C 254.546875 240.589844 254.539062 240.761719 254.535156 240.929688 C 254.519531 241.316406 254.503906 241.699219 254.480469 242.085938 C 254.472656 242.230469 254.464844 242.378906 254.453125 242.523438 C 254.425781 242.953125 254.394531 243.378906 254.355469 243.808594 C 254.347656 243.917969 254.335938 244.027344 254.328125 244.132812 C 254.28125 244.605469 254.230469 245.074219 254.175781 245.546875 C 254.167969 245.613281 254.164062 245.679688 254.152344 245.742188 C 254.074219 246.429688 253.984375 247.117188 253.890625 247.800781 C 253.886719 247.832031 253.878906 247.859375 253.875 247.890625 C 253.585938 249.941406 253.226562 251.96875 252.796875 253.945312 C 249.851562 267.75 243.664062 280.527344 234.730469 291.382812 C 234.703125 291.417969 234.671875 291.457031 234.640625 291.492188 C 234.003906 292.265625 233.347656 293.03125 232.679688 293.785156 C 232.605469 293.871094 232.527344 293.957031 232.453125 294.042969 C 231.832031 294.738281 231.195312 295.425781 230.550781 296.105469 C 230.210938 296.464844 229.859375 296.816406 229.511719 297.171875 C 229.046875 297.640625 228.589844 298.113281 228.117188 298.574219 C 227.9375 298.753906 227.753906 298.921875 227.570312 299.09375 C 220.609375 305.773438 212.707031 311.21875 204.140625 315.265625 L 204.117188 315.277344 C 203.230469 315.695312 202.339844 316.09375 201.441406 316.484375 C 201.292969 316.546875 201.144531 316.613281 200.996094 316.675781 C 200.21875 317.007812 199.429688 317.324219 198.640625 317.632812 C 198.351562 317.746094 198.066406 317.855469 197.777344 317.964844 C 197.105469 318.222656 196.429688 318.464844 195.75 318.703125 C 195.320312 318.855469 194.890625 319.003906 194.460938 319.144531 C 193.898438 319.332031 193.332031 319.515625 192.765625 319.691406 C 192.199219 319.867188 191.628906 320.039062 191.054688 320.203125 C 190.601562 320.335938 190.144531 320.464844 189.6875 320.589844 C 188.992188 320.777344 188.296875 320.957031 187.59375 321.128906 C 187.234375 321.21875 186.871094 321.308594 186.507812 321.394531 C 185.71875 321.574219 184.925781 321.746094 184.128906 321.90625 C 183.921875 321.949219 183.710938 321.996094 183.5 322.035156 C 192.289062 313.511719 199.089844 303.5625 203.730469 292.449219 C 203.769531 292.355469 203.757812 292.25 203.699219 292.171875 C 203.644531 292.09375 203.558594 292.046875 203.464844 292.046875 L 203.449219 292.046875 C 187.238281 292.855469 171.726562 286.082031 160.886719 273.464844 C 150.140625 260.953125 145.863281 244.625 149.15625 228.660156 C 152.554688 210.007812 167.171875 193.765625 185.535156 188.238281 L 185.542969 188.238281 C 190.855469 186.546875 196.316406 185.742188 201.742188 185.777344 C 201.828125 185.777344 201.917969 185.78125 202.003906 185.78125 C 202.425781 185.785156 202.84375 185.796875 203.261719 185.8125 C 203.402344 185.816406 203.542969 185.824219 203.683594 185.828125 C 204.046875 185.84375 204.414062 185.867188 204.777344 185.890625 C 204.945312 185.902344 205.117188 185.910156 205.285156 185.925781 C 205.617188 185.949219 205.949219 185.980469 206.28125 186.011719 C 206.472656 186.027344 206.664062 186.042969 206.851562 186.0625 C 207.160156 186.097656 207.46875 186.136719 207.777344 186.175781 C 208.273438 186.234375 208.773438 186.304688 209.269531 186.378906 C 209.421875 186.402344 209.574219 186.425781 209.730469 186.449219 C 210.070312 186.503906 210.410156 186.566406 210.75 186.628906 C 210.886719 186.652344 211.027344 186.679688 211.167969 186.703125 C 211.519531 186.769531 211.867188 186.84375 212.21875 186.917969 C 212.335938 186.941406 212.457031 186.96875 212.574219 186.992188 C 212.941406 187.074219 213.308594 187.15625 213.675781 187.246094 C 213.757812 187.265625 213.839844 187.289062 213.921875 187.308594 C 215.644531 187.734375 217.347656 188.242188 219.019531 188.839844 C 219.039062 188.847656 219.0625 188.855469 219.085938 188.863281 C 219.445312 188.992188 219.804688 189.125 220.164062 189.261719 C 220.277344 189.308594 220.394531 189.351562 220.507812 189.394531 C 220.828125 189.519531 221.148438 189.648438 221.464844 189.78125 C 221.621094 189.84375 221.777344 189.910156 221.933594 189.976562 C 222.222656 190.097656 222.511719 190.222656 222.800781 190.351562 C 223.007812 190.445312 223.21875 190.539062 223.425781 190.636719 C 223.664062 190.746094 223.902344 190.851562 224.136719 190.964844 C 224.582031 191.179688 225.03125 191.398438 225.472656 191.625 C 225.535156 191.65625 225.597656 191.691406 225.65625 191.722656 C 226.074219 191.9375 226.488281 192.15625 226.898438 192.382812 C 226.972656 192.425781 227.046875 192.46875 227.125 192.511719 C 227.535156 192.742188 227.945312 192.976562 228.351562 193.214844 C 228.398438 193.242188 228.445312 193.269531 228.492188 193.300781 C 230.863281 194.714844 233.148438 196.324219 235.324219 198.121094 C 235.753906 198.472656 236.171875 198.832031 236.585938 199.195312 C 236.613281 199.21875 236.640625 199.242188 236.667969 199.265625 C 237 199.558594 237.324219 199.859375 237.648438 200.15625 C 238.785156 201.214844 239.886719 202.320312 240.9375 203.480469 C 249.175781 212.570312 253.851562 223.894531 254.496094 236.011719 C 254.5 236.035156 254.5 236.054688 254.5 236.078125 C 254.558594 237.171875 254.578125 238.273438 254.570312 239.378906 C 254.566406 239.726562 254.5625 240.074219 254.554688 240.417969 Z M 172.730469 292.515625 C 172.765625 292.425781 172.757812 292.324219 172.703125 292.246094 C 172.648438 292.164062 172.558594 292.117188 172.460938 292.117188 L 169.902344 292.117188 C 146.730469 292.117188 125.886719 276.410156 119.21875 253.921875 C 116.773438 245.6875 116.425781 237.191406 118.183594 228.660156 C 121.578125 210.007812 136.199219 193.765625 154.570312 188.238281 C 159.707031 186.601562 165.027344 185.773438 170.382812 185.773438 L 193.621094 185.773438 C 190.847656 186.183594 188.089844 186.820312 185.367188 187.6875 C 166.804688 193.273438 152.019531 209.699219 148.585938 228.550781 C 145.257812 244.683594 149.582031 261.191406 160.449219 273.839844 C 171.304688 286.476562 186.800781 293.320312 203.019531 292.644531 C 198.304688 303.777344 191.390625 313.726562 182.46875 322.222656 L 152.335938 322.230469 C 161.195312 313.6875 168.054688 303.691406 172.730469 292.515625 Z M 172.730469 292.515625 " fill-opacity="1" fill-rule="nonzero"/></g><g clip-path="url(#7f63fc79db)"><path fill="#1c1d22" d="M 170.34375 159.539062 L 201.09375 159.539062 C 201.171875 159.539062 201.242188 159.542969 201.320312 159.542969 C 202.996094 159.542969 204.65625 159.460938 206.292969 159.308594 L 206.347656 159.304688 C 207.160156 159.230469 207.964844 159.136719 208.765625 159.027344 L 208.835938 159.015625 C 209.636719 158.902344 210.4375 158.773438 211.226562 158.625 C 211.246094 158.621094 211.265625 158.617188 211.285156 158.617188 C 212.082031 158.464844 212.875 158.300781 213.660156 158.113281 L 213.699219 158.105469 C 214.492188 157.917969 215.277344 157.714844 216.058594 157.496094 L 216.089844 157.484375 C 216.785156 157.285156 217.472656 157.074219 218.15625 156.847656 C 218.285156 156.804688 218.417969 156.765625 218.546875 156.722656 C 219.136719 156.519531 219.722656 156.308594 220.304688 156.085938 C 220.542969 155.996094 220.78125 155.910156 221.019531 155.816406 C 221.511719 155.621094 221.996094 155.421875 222.480469 155.210938 C 223.007812 154.988281 223.527344 154.75 224.046875 154.511719 C 224.25 154.417969 224.453125 154.324219 224.652344 154.226562 C 229.304688 151.992188 233.648438 149.09375 237.539062 145.558594 C 243.34375 140.285156 247.851562 133.886719 250.859375 126.828125 C 250.90625 126.722656 250.949219 126.617188 250.992188 126.511719 C 251.246094 125.90625 251.492188 125.296875 251.722656 124.679688 C 251.816406 124.425781 251.914062 124.171875 252.003906 123.914062 C 252.152344 123.5 252.296875 123.082031 252.4375 122.660156 C 252.578125 122.234375 252.714844 121.804688 252.847656 121.371094 C 252.925781 121.117188 253.003906 120.859375 253.078125 120.601562 C 253.242188 120.023438 253.398438 119.4375 253.546875 118.851562 C 253.597656 118.648438 253.644531 118.445312 253.695312 118.242188 C 253.847656 117.605469 253.988281 116.964844 254.113281 116.324219 C 254.144531 116.171875 254.171875 116.023438 254.203125 115.871094 C 254.332031 115.179688 254.453125 114.480469 254.558594 113.78125 C 254.574219 113.695312 254.582031 113.609375 254.597656 113.523438 C 254.960938 111 255.152344 108.421875 255.152344 105.800781 C 255.152344 76.175781 231.007812 52.066406 201.332031 52.0625 L 201.320312 52.0625 L 170.347656 52.058594 C 140.660156 52.054688 116.507812 76.167969 116.507812 105.800781 C 116.507812 135.4375 140.660156 159.539062 170.34375 159.539062 Z M 254.574219 105.800781 C 254.574219 105.992188 254.570312 106.1875 254.566406 106.378906 C 254.566406 106.636719 254.5625 106.890625 254.558594 107.144531 C 254.523438 108.492188 254.4375 109.839844 254.304688 111.171875 C 254.226562 111.933594 254.132812 112.6875 254.023438 113.441406 C 254.011719 113.527344 254 113.609375 253.988281 113.691406 C 253.882812 114.386719 253.761719 115.078125 253.632812 115.765625 C 253.605469 115.914062 253.578125 116.0625 253.546875 116.210938 C 253.421875 116.84375 253.28125 117.476562 253.132812 118.109375 C 253.082031 118.308594 253.035156 118.511719 252.984375 118.710938 C 252.839844 119.292969 252.683594 119.867188 252.519531 120.441406 C 252.445312 120.699219 252.371094 120.953125 252.292969 121.207031 C 252.164062 121.632812 252.027344 122.054688 251.886719 122.480469 C 251.75 122.894531 251.605469 123.308594 251.460938 123.71875 C 251.367188 123.972656 251.273438 124.226562 251.179688 124.476562 C 250.949219 125.085938 250.710938 125.691406 250.460938 126.289062 C 250.414062 126.394531 250.371094 126.5 250.328125 126.605469 C 245.257812 138.460938 235.992188 148.117188 224.402344 153.707031 C 224.199219 153.804688 223.992188 153.898438 223.785156 153.996094 C 223.277344 154.230469 222.769531 154.460938 222.253906 154.679688 C 221.773438 154.886719 221.292969 155.085938 220.808594 155.277344 C 220.574219 155.371094 220.335938 155.457031 220.101562 155.546875 C 219.523438 155.761719 218.945312 155.976562 218.359375 156.171875 C 218.230469 156.214844 218.101562 156.257812 217.976562 156.296875 C 217.296875 156.519531 216.617188 156.734375 215.929688 156.929688 L 215.898438 156.9375 C 215.128906 157.15625 214.347656 157.359375 213.566406 157.542969 L 213.527344 157.550781 C 212.75 157.734375 211.964844 157.898438 211.175781 158.046875 L 211.121094 158.058594 C 210.335938 158.203125 209.546875 158.332031 208.753906 158.445312 L 208.6875 158.453125 C 207.890625 158.5625 207.09375 158.65625 206.292969 158.730469 L 206.242188 158.734375 C 204.613281 158.886719 202.96875 158.960938 201.320312 158.960938 L 201.097656 158.960938 C 171.832031 158.839844 148.0625 135.042969 148.0625 105.800781 C 148.0625 76.488281 171.953125 52.640625 201.320312 52.640625 C 230.683594 52.640625 254.574219 76.488281 254.574219 105.800781 Z M 170.371094 52.632812 L 193.449219 52.640625 C 167.480469 56.453125 147.484375 78.839844 147.484375 105.800781 C 147.484375 132.765625 167.460938 155.132812 193.414062 158.960938 L 170.34375 158.960938 C 140.976562 158.960938 117.089844 135.113281 117.089844 105.800781 C 117.089844 76.488281 140.980469 52.632812 170.371094 52.632812 Z M 170.371094 52.632812 " fill-opacity="1" fill-rule="nonzero"/></g><path fill="#1c1d22" d="M 171.707031 292.117188 L 202.871094 292.117188 L 202.871094 292.695312 L 171.707031 292.695312 Z M 171.707031 292.117188 " fill-opacity="1" fill-rule="nonzero"/></svg>