<svg width="191" height="41" viewBox="0 0 191 41" fill="none" xmlns="http://www.w3.org/2000/svg">
<g clip-path="url(#clip0_355_618)">
<path d="M3.40332 37.3097C3.92841 36.7899 4.42588 36.3078 4.90493 35.8161C5.66954 35.0411 6.42493 34.2657 7.18031 33.4907C7.3093 33.3489 7.38299 33.3208 7.54883 33.4814C8.32263 34.1996 9.21621 34.7101 10.2388 34.9654C11.3258 35.2395 12.4128 35.2111 13.4907 34.8616C14.7804 34.4549 15.8305 33.6894 16.632 32.5928C17.2308 31.7799 17.5901 30.8535 17.7743 29.861C17.7928 29.7759 17.7743 29.6908 17.7743 29.6057C17.2308 29.8704 16.7057 30.1634 16.153 30.3997C15.416 30.7117 14.6698 30.9858 13.8592 31.0709C13.5459 31.0992 13.242 31.1843 12.9287 31.241C12.6984 31.2883 12.6524 31.1749 12.6892 30.9763C12.7076 30.8724 12.7261 30.7684 12.7261 30.6644C12.7261 29.1426 12.7261 27.6207 12.7261 26.0988C12.7261 25.9097 12.68 25.6545 12.7721 25.5316C12.8642 25.4087 13.1222 25.4371 13.2972 25.3804C14.2092 25.1062 15.0291 24.662 15.7384 24.0192C16.5307 23.3008 17.1295 22.4501 17.4427 21.4103C17.6177 20.8242 17.8204 20.2192 17.8388 19.6143C17.8757 18.2153 17.5256 16.9108 16.7333 15.7387C16.1069 14.8218 15.3147 14.1128 14.3382 13.6307C13.6933 13.3188 13.0301 13.0919 12.3115 13.0541C12.072 13.0446 11.8325 12.9407 11.6022 12.9596C10.1927 13.0825 8.86615 13.47 7.78832 14.4531C7.38299 14.8218 7.04213 15.2566 6.67365 15.663C6.64603 15.6914 6.60915 15.7008 6.54469 15.7481C6.53546 15.6441 6.52627 15.5685 6.52627 15.4929C6.52627 13.2526 6.52627 11.0123 6.52627 8.77204C6.52627 8.57352 6.58153 8.47902 6.77499 8.41282C7.4751 8.16705 8.14761 7.86458 8.85695 7.66606C9.41888 7.51482 10.0085 7.47703 10.5796 7.41084C11.0679 7.35413 11.5561 7.27851 12.0444 7.31634C12.8458 7.37304 13.6473 7.45812 14.4303 7.63772C15.4897 7.88349 16.4939 8.29941 17.4335 8.85711C18.5666 9.5188 19.5615 10.3695 20.4366 11.3621C21.5882 12.6665 22.3897 14.1695 22.8963 15.8426C23.0898 16.476 23.1911 17.1471 23.2925 17.8088C23.3661 18.3003 23.3846 18.8013 23.3846 19.3023C23.3938 22.6202 23.403 25.9381 23.3846 29.256C23.3753 30.2012 23.228 31.1465 22.9792 32.0634C22.5831 33.5287 21.9383 34.8708 21.0447 36.0807C20.2893 37.1113 19.3865 37.9901 18.3455 38.7275C17.5901 39.2664 16.7886 39.7296 15.9227 40.0414C15.1581 40.3063 14.375 40.5235 13.592 40.6938C12.4589 40.9299 11.3074 40.9299 10.1558 40.7692C9.1149 40.6181 8.10153 40.344 7.12505 39.9184C6.10249 39.4648 5.16284 38.8882 4.30612 38.17C4.02975 37.9051 3.75338 37.631 3.40332 37.3097Z" fill="#7AC943"/>
<path d="M11.6852 25.6734C11.6852 27.5073 11.6852 29.3883 11.6852 31.2978C11.6299 31.3072 11.5654 31.3167 11.5009 31.3167C10.9113 31.2694 10.3033 31.2505 9.72297 31.1465C7.96344 30.8252 6.32365 30.1635 4.87734 29.0669C3.15467 27.7719 1.82811 26.1272 0.962166 24.1138C0.510767 23.0551 0.215977 21.9491 0.0870063 20.8053C0.0317331 20.3516 0.00409431 19.8979 0.00409431 19.4442C-0.00511789 13.0636 0.00409431 6.69249 0.00409431 0.311938C0.00409431 0.236317 0.00409431 0.151243 0.00409431 0C0.363371 0.0567159 0.704225 0.103979 1.04508 0.170148C1.33065 0.226864 1.62545 0.274127 1.90181 0.378106C3.18231 0.85074 4.1588 1.71093 4.8405 2.92088C5.24582 3.64874 5.46692 4.43329 5.54061 5.26513C5.55904 5.44473 5.513 5.6338 5.513 5.82286C5.513 8.49794 5.513 11.1731 5.513 13.8576C5.513 15.6064 5.50377 17.3551 5.52219 19.1039C5.53142 19.6616 5.54061 20.2476 5.69722 20.777C6.26838 22.762 7.4107 24.2744 9.31764 25.0968C9.89799 25.3426 10.4784 25.5222 11.114 25.56C11.289 25.5695 11.4733 25.6262 11.6852 25.6734Z" fill="#3FA9F5"/>
<path d="M12.7356 20.2098C12.3948 20.2193 12.0815 20.3044 11.8052 20.4556C10.8931 20.9566 9.89824 21.2874 8.85726 21.2874H6.40681C5.36583 21.2874 4.37092 20.9566 3.45893 20.4556C3.18255 20.3044 2.86012 20.2098 2.52848 20.2098L2.48242 24.5297C2.8417 24.5297 3.18255 24.4352 3.47735 24.2745C4.61044 23.6506 5.84488 23.2347 7.13458 23.2347H8.14791C9.43764 23.2347 10.6629 23.6506 11.8052 24.2745C12.1 24.4352 12.4408 24.5297 12.8001 24.5297C13.97 24.5297 14.9281 23.5466 14.9005 22.3367C14.8728 21.1551 13.8779 20.1815 12.7356 20.2098ZM12.8369 23.3198C12.321 23.3198 11.9065 22.8944 11.9065 22.365C11.9065 21.8357 12.321 21.4103 12.8369 21.4103C13.3528 21.4103 13.7674 21.8357 13.7674 22.365C13.7674 22.8944 13.3528 23.3198 12.8369 23.3198Z" fill="#3FA9F5"/>
<path d="M9.14258 15.9089C8.80175 15.9184 8.48853 16.0035 8.21216 16.1547C7.30014 16.6557 6.30523 16.9865 5.26425 16.9865H2.8138C1.77282 16.9865 1.10955 16.6651 0.188328 16.1642L0.133057 19.8318C1.26616 19.2079 2.24265 18.9338 3.53237 18.9338H4.54571C5.83541 18.9338 7.06061 19.3497 8.20294 19.9736C8.49773 20.1343 8.83859 20.2288 9.19788 20.2288C10.3678 20.2288 11.3259 19.2457 11.2982 18.0358C11.2798 16.8542 10.2941 15.8806 9.14258 15.9089ZM10.0178 18.6975C9.6769 19.0945 9.08731 19.1323 8.70041 18.7826C8.3135 18.4328 8.27663 17.8278 8.61749 17.4308C8.95835 17.0338 9.54794 16.996 9.93484 17.3457C10.3217 17.705 10.3586 18.3099 10.0178 18.6975Z" fill="#3FA9F5"/>
<path d="M29.2341 4.97218C29.5933 8.1388 27.3824 11.0124 24.2963 11.3811C23.3383 11.4945 22.4078 11.3527 21.5695 11.0124C26.9402 10.3602 28.1746 5.77565 28.2115 5.62441C25.9913 9.48109 23.1448 9.79302 21.0076 9.28257C21.0536 8.64925 21.1734 8.03485 21.3669 7.44878C21.6985 6.40896 22.2512 5.46372 22.9698 4.66967C24.1305 3.37467 25.7334 2.49556 27.5758 2.2687C27.7877 2.24034 27.9904 2.23089 28.1931 2.22144C28.7366 2.99656 29.1143 3.94182 29.2341 4.97218Z" fill="#7AC943"/>
<path d="M19.414 2.95869C19.414 2.95869 18.2348 5.53928 20.4181 7.94968L20.3905 8.08204C20.2431 8.00642 20.1049 7.92135 19.9759 7.82682C18.244 6.57906 17.8203 4.13083 19.0363 2.34426C19.4324 1.76765 19.9483 1.32337 20.5287 1.03979C20.6484 1.11542 20.7682 1.19104 20.8787 1.27611C21.7723 1.91889 22.3987 2.78854 22.7396 3.76216C21.8276 4.66016 21.1183 5.75668 20.6945 6.99498C19.7917 6.29547 19.0824 5.06662 19.414 2.95869Z" fill="#7AC943"/>
<path d="M50.6711 29.5679V33.8309H36.3093V11.778H41.1456V29.5679H50.6711Z" fill="#102A3D"/>
<path d="M58.1514 16.6462C59.5149 16.6462 60.657 16.8069 61.5597 17.1283C62.4718 17.4497 63.1997 17.9035 63.7433 18.499C64.2866 19.0945 64.6828 19.8129 64.9038 20.6636C65.1342 21.5144 65.2449 22.4596 65.2449 23.4994V33.3681C64.5815 33.5192 63.6604 33.6895 62.4812 33.8975C61.3019 34.0958 59.874 34.2 58.1976 34.2C57.1474 34.2 56.1891 34.1054 55.3326 33.9163C54.4756 33.7272 53.7387 33.4154 53.1122 32.9804C52.495 32.5456 52.0162 31.9785 51.6845 31.279C51.3528 30.5795 51.187 29.7193 51.187 28.6984C51.187 27.7248 51.3803 26.8929 51.7581 26.2123C52.1449 25.5317 52.6518 24.9929 53.2964 24.5865C53.9413 24.18 54.6692 23.8964 55.4984 23.7074C56.3272 23.5278 57.1842 23.4333 58.0685 23.4333C58.6673 23.4333 59.2016 23.4616 59.6623 23.5089C60.1321 23.5656 60.5005 23.6317 60.7954 23.7168V23.2726C60.7954 22.4691 60.5557 21.8168 60.0859 21.3348C59.6068 20.8432 58.787 20.6069 57.6078 20.6069C56.8247 20.6069 56.0511 20.6636 55.2771 20.7865C54.5124 20.9 53.8494 21.0701 53.2964 21.278L52.7069 17.4592C52.9741 17.3741 53.3151 17.2796 53.711 17.1851C54.1165 17.0905 54.5495 17.0055 55.0283 16.9298C55.5074 16.8542 56.0049 16.788 56.5302 16.7408C57.0735 16.6746 57.6078 16.6462 58.1514 16.6462ZM58.5199 30.5228C58.9712 30.5228 59.4042 30.5133 59.8188 30.4944C60.2334 30.4755 60.565 30.4377 60.8138 30.3999V26.8079C60.6296 26.7701 60.3437 26.7228 59.9753 26.685C59.6068 26.6472 59.2661 26.6188 58.9528 26.6188C58.5199 26.6188 58.1146 26.6472 57.7275 26.6944C57.3406 26.7512 57.009 26.8457 56.7234 26.9969C56.4379 27.1482 56.2075 27.3467 56.0417 27.6019C55.8759 27.8571 55.793 28.1785 55.793 28.5566C55.793 29.3034 56.0327 29.8138 56.5208 30.0974C57.009 30.381 57.6723 30.5228 58.5199 30.5228Z" fill="#102A3D"/>
<path d="M67.889 17.6672C68.672 17.4309 69.6851 17.2135 70.9289 17.015C72.1726 16.8165 73.4716 16.7125 74.835 16.7125C76.2169 16.7125 77.3683 16.9016 78.2895 17.2702C79.2106 17.6389 79.9384 18.1682 80.4727 18.8488C81.007 19.5294 81.3939 20.3329 81.6242 21.2687C81.8546 22.2045 81.9652 23.2443 81.9652 24.3881V33.8409H77.3406V24.9552C77.3406 23.4239 77.147 22.3463 76.7511 21.713C76.3549 21.0797 75.6271 20.7583 74.5492 20.7583C74.2178 20.7583 73.8677 20.7772 73.499 20.8055C73.1305 20.8339 72.7989 20.8717 72.5043 20.919V33.8409H67.8796V17.6672H67.889Z" fill="#102A3D"/>
<path d="M98.9984 33.2924C98.5838 33.4154 98.1047 33.538 97.5704 33.661C97.0361 33.7744 96.4651 33.8786 95.8847 33.9636C95.2952 34.0485 94.6964 34.1147 94.0882 34.1715C93.4804 34.2281 92.8906 34.2473 92.3379 34.2473C90.9929 34.2473 89.7952 34.0485 88.736 33.6422C87.6765 33.2358 86.7922 32.6591 86.0646 31.9123C85.3368 31.1561 84.7841 30.2486 84.4063 29.171C84.0194 28.1029 83.8352 26.8929 83.8352 25.5601C83.8352 24.1989 84.001 22.9795 84.3327 21.883C84.6641 20.7865 85.1432 19.8601 85.7604 19.0945C86.3776 18.3288 87.1422 17.7427 88.0359 17.3457C88.9386 16.9393 89.9611 16.7408 91.1219 16.7408C91.7669 16.7408 92.3379 16.8069 92.8448 16.9298C93.3513 17.0527 93.8672 17.2417 94.3831 17.4686V9.89702L99.0074 9.13135V33.2924H98.9984ZM88.5425 25.3332C88.5425 26.7984 88.8651 27.9705 89.5007 28.8685C90.1453 29.7571 91.0942 30.2013 92.3563 30.2013C92.7709 30.2013 93.1487 30.1824 93.5078 30.1541C93.8579 30.1257 94.1528 30.0879 94.3738 30.0407V21.4198C94.0882 21.2308 93.7104 21.0701 93.2407 20.9472C92.7709 20.8243 92.3012 20.7581 91.8314 20.7581C89.6388 20.7487 88.5425 22.28 88.5425 25.3332Z" fill="#102A3D"/>
<path d="M112.577 15.597C110.32 15.597 108.699 16.2398 107.695 17.5253C106.69 18.8109 106.193 20.5691 106.193 22.7905C106.193 23.8681 106.313 24.8511 106.562 25.7302C106.81 26.6093 107.179 27.3655 107.676 28.0083C108.174 28.6511 108.791 29.1427 109.537 29.4924C110.283 29.8421 111.149 30.0217 112.144 30.0217C112.679 30.0217 113.139 30.0123 113.526 29.9934C113.913 29.9745 114.245 29.9272 114.53 29.8705V22.2044H119.366V33.1223C118.786 33.3584 117.856 33.6044 116.575 33.8689C115.295 34.1338 113.71 34.266 111.831 34.266C110.219 34.266 108.754 34.0108 107.446 33.5003C106.129 32.9899 105.014 32.2526 104.084 31.2695C103.153 30.2959 102.435 29.0954 101.928 27.6775C101.421 26.2596 101.172 24.6337 101.172 22.8093C101.172 20.9661 101.449 19.3308 102.011 17.9129C102.573 16.495 103.337 15.2851 104.305 14.302C105.272 13.3189 106.414 12.5721 107.732 12.0617C109.049 11.5512 110.449 11.296 111.932 11.296C112.946 11.296 113.858 11.3622 114.678 11.504C115.497 11.6458 116.197 11.797 116.787 11.9861C117.377 12.1657 117.865 12.3547 118.243 12.5438C118.63 12.7328 118.897 12.8841 119.062 12.988L117.672 16.9676C117.008 16.6084 116.253 16.2965 115.396 16.0318C114.53 15.7293 113.591 15.597 112.577 15.597Z" fill="#102A3D"/>
<path d="M121.227 25.5885C121.227 24.1044 121.448 22.7999 121.891 21.694C122.333 20.5786 122.922 19.6522 123.641 18.9054C124.369 18.1587 125.198 17.6009 126.137 17.2229C127.077 16.8448 128.044 16.6462 129.039 16.6462C131.352 16.6462 133.185 17.3741 134.53 18.8298C135.875 20.2855 136.547 22.4218 136.547 25.2387C136.547 25.5129 136.538 25.8153 136.52 26.1462C136.501 26.477 136.473 26.7701 136.455 27.0253H125.972C126.073 27.9989 126.515 28.774 127.307 29.3507C128.09 29.9273 129.15 30.2108 130.467 30.2108C131.314 30.2108 132.144 30.1352 132.963 29.9745C133.784 29.8138 134.447 29.6153 134.963 29.3884L135.58 33.2358C135.331 33.3585 135 33.4908 134.585 33.6138C134.17 33.7368 133.71 33.8502 133.203 33.9447C132.696 34.0393 132.153 34.1243 131.573 34.1808C130.992 34.2473 130.412 34.2754 129.831 34.2754C128.367 34.2754 127.086 34.0486 125.999 33.6045C124.912 33.1601 124.019 32.5456 123.3 31.7705C122.591 30.9954 122.056 30.0785 121.715 29.0198C121.402 27.9705 121.227 26.8173 121.227 25.5885ZM132.088 23.7736C132.07 23.3671 131.996 22.9795 131.886 22.592C131.775 22.2139 131.6 21.8736 131.361 21.5711C131.121 21.2781 130.826 21.0323 130.458 20.8432C130.098 20.6542 129.647 20.5597 129.113 20.5597C128.597 20.5597 128.155 20.6542 127.777 20.8338C127.409 21.0134 127.095 21.2497 126.847 21.5522C126.598 21.8452 126.405 22.195 126.276 22.5825C126.137 22.9796 126.045 23.3766 125.981 23.7736H132.088Z" fill="#102A3D"/>
<path d="M138.565 17.6672C139.348 17.4309 140.361 17.2135 141.605 17.015C142.848 16.8165 144.147 16.7125 145.511 16.7125C146.893 16.7125 148.044 16.9016 148.965 17.2702C149.886 17.6389 150.614 18.1682 151.149 18.8488C151.683 19.5294 152.07 20.3329 152.3 21.2687C152.53 22.2045 152.641 23.2443 152.641 24.3881V33.8409H148.016V24.9552C148.016 23.4239 147.823 22.3463 147.427 21.713C147.031 21.0797 146.303 20.7583 145.225 20.7583C144.894 20.7583 144.544 20.7772 144.175 20.8055C143.806 20.8339 143.475 20.8717 143.18 20.919V33.8409H138.555V17.6672H138.565Z" fill="#102A3D"/>
<path d="M160.342 12.2507C160.342 13.1204 160.066 13.801 159.522 14.302C158.969 14.803 158.324 15.0487 157.588 15.0487C156.841 15.0487 156.197 14.803 155.653 14.302C155.109 13.801 154.833 13.1204 154.833 12.2507C154.833 11.3811 155.109 10.7005 155.653 10.1995C156.197 9.69853 156.851 9.45276 157.588 9.45276C158.334 9.45276 158.979 9.69853 159.522 10.1995C160.066 10.7005 160.342 11.3811 160.342 12.2507ZM159.909 33.8312H155.285V17.0905H159.909V33.8312Z" fill="#102A3D"/>
<path d="M176.62 33.264C175.837 33.5004 174.824 33.7179 173.58 33.9163C172.336 34.1147 171.038 34.2189 169.674 34.2189C168.293 34.2189 167.132 34.0297 166.22 33.6422C165.299 33.264 164.571 32.7253 164.036 32.0352C163.502 31.3452 163.115 30.5228 162.885 29.5681C162.655 28.6134 162.544 27.5641 162.544 26.4203V17.1H167.169V25.8532C167.169 27.3845 167.362 28.481 167.758 29.1616C168.154 29.8422 168.882 30.1825 169.96 30.1825C170.292 30.1825 170.642 30.1636 171.01 30.1352C171.379 30.1069 171.71 30.0691 172.005 30.0218V17.0906H176.629V33.264H176.62Z" fill="#102A3D"/>
<path d="M184.1 30.4282C184.948 30.4282 185.547 30.3431 185.897 30.1729C186.247 30.0028 186.422 29.6719 186.422 29.1899C186.422 28.8118 186.191 28.4715 185.74 28.1879C185.288 27.9043 184.588 27.5829 183.658 27.2143C182.93 26.9401 182.276 26.6566 181.687 26.3541C181.097 26.061 180.6 25.7018 180.185 25.2859C179.77 24.87 179.448 24.3785 179.227 23.8018C178.997 23.2252 178.886 22.5352 178.886 21.7317C178.886 20.1626 179.457 18.9243 180.59 18.0074C181.723 17.0999 183.289 16.6367 185.27 16.6367C186.265 16.6367 187.214 16.7313 188.126 16.9109C189.038 17.0905 189.756 17.2889 190.3 17.4969L189.489 21.1929C188.955 21.0038 188.365 20.8337 187.739 20.6825C187.113 20.5312 186.403 20.4556 185.611 20.4556C184.165 20.4556 183.437 20.8715 183.437 21.6939C183.437 21.883 183.465 22.0531 183.529 22.2044C183.594 22.3556 183.713 22.4974 183.898 22.6297C184.082 22.7715 184.34 22.9133 184.653 23.074C184.975 23.2347 185.381 23.4143 185.878 23.6033C186.891 23.9909 187.73 24.369 188.393 24.7471C189.056 25.1252 189.572 25.5222 189.959 25.957C190.346 26.3919 190.613 26.874 190.77 27.4033C190.927 27.9327 191 28.5471 191 29.2466C191 30.9008 190.392 32.1486 189.185 32.9898C187.979 33.8406 186.265 34.2565 184.054 34.2565C182.608 34.2565 181.401 34.1335 180.443 33.8782C179.485 33.6233 178.813 33.4153 178.444 33.2451L179.218 29.3978C180.001 29.7192 180.812 29.965 181.64 30.1446C182.47 30.3336 183.289 30.4282 184.1 30.4282Z" fill="#102A3D"/>
</g>
<defs>
<clipPath id="clip0_355_618">
<rect width="191" height="41" fill="white"/>
</clipPath>
</defs>
</svg>
