<?xml version="1.0" encoding="UTF-8"?> <svg xmlns="http://www.w3.org/2000/svg" xmlns:xlink="http://www.w3.org/1999/xlink" id="design" width="225" height="38.08" viewBox="0 0 225 38.08"><defs><linearGradient id="linear-gradient" x1="-0.088" y1="-0.029" x2="0.899" y2="0.864" gradientUnits="objectBoundingBox"><stop offset="0" stop-color="#f18a21"></stop><stop offset="1" stop-color="#ed3432"></stop></linearGradient></defs><path id="Path_27" data-name="Path 27" d="M113.352,22.39l8.223,19.81a1.15,1.15,0,0,0,1.214.75,1.276,1.276,0,0,0,1.309-.75l8.548-19.81h5.327l-9.532,22c-1.027,2.336-2.848,3.225-5.652,3.225s-4.673-.936-5.6-3.225l-9.064-22Z" transform="translate(-56.46 -11.692)" fill="#231f20"></path><path id="Path_28" data-name="Path 28" d="M179.028,2.93V8.678h-5V2.93Zm-.048,9.3V36.9h-4.95V12.228Z" transform="translate(-90.879 -1.53)" fill="#231f20"></path><path id="Path_29" data-name="Path 29" d="M217.515,0V24.807c0,7.1-3.177,10.559-9.064,10.559h-6.823c-6.589,0-10.7-4.018-10.7-12.332s4.109-12.332,10.7-12.332h10.884V0h5Zm-5,24.573V15.462H202.1c-4.252,0-6.168,2.241-6.168,7.568s1.916,7.521,6.168,7.521h4.907c3.971,0,5.514-1.777,5.514-5.982Z" transform="translate(-99.704)" fill="#231f20"></path><path id="Path_30" data-name="Path 30" d="M270.7,22.39c6.168,0,8.6,3.459,8.6,8.127V42.1c0,3.55-.936,4.95-5.093,4.95H262.661c-5.839,0-8.271-2.848-8.271-7.521s2.241-7.1,8.314-7.1h11.725V30.565c0-1.916-1.075-3.411-3.784-3.411H255.881V22.39h14.812Zm3.736,18.6V36.361H262.8c-2.618,0-3.55,1.075-3.55,2.9s.98,2.991,3.455,2.991h10.373C274.056,42.247,274.434,41.875,274.434,40.986Z" transform="translate(-132.843 -11.692)" fill="#231f20"></path><path id="Path_31" data-name="Path 31" d="M320.255,0V10.7h10.932c6.541,0,10.65,4.018,10.65,12.332s-4.114,12.332-10.65,12.332h-6.823c-5.934,0-9.064-3.459-9.064-10.559V0h4.95Zm0,15.462v9.112c0,4.2,1.543,5.982,5.562,5.982h4.859c4.3,0,6.168-2.2,6.168-7.521s-1.868-7.568-6.168-7.568H320.26Z" transform="translate(-164.65)" fill="#231f20"></path><path id="Path_32" data-name="Path 32" d="M382.35,0V35.367H377.4V0Z" transform="translate(-197.079)" fill="#231f20"></path><path id="Path_33" data-name="Path 33" d="M412.264,22.39c5.839,0,8.314,2.8,8.314,7.568s-2.289,7.1-8.361,7.1H400.491v1.777c0,1.964,1.075,3.411,3.784,3.411h15.089v4.811H404.276c-6.168,0-8.6-3.459-8.6-8.127V30.522c0-4.673,2.427-8.127,8.6-8.127h7.989ZM400.491,33.183h11.587c2.661,0,3.646-1.123,3.646-2.943s-1.075-3.082-3.5-3.082H404.28c-2.709,0-3.784,1.5-3.784,3.411v2.618Z" transform="translate(-206.625 -11.692)" fill="#231f20"></path><path id="Path_34" data-name="Path 34" d="M38.592,14.1H13.727a3.248,3.248,0,0,0-3.239,3.239V18.4L4.3,14.535A2.813,2.813,0,0,0,0,16.919V42.625a2.813,2.813,0,0,0,4.3,2.384l6.183-3.87V42.2a3.248,3.248,0,0,0,3.239,3.239h24.86A3.248,3.248,0,0,0,41.826,42.2V17.339A3.248,3.248,0,0,0,38.587,14.1ZM24.841,32.156,10.492,41.139V18.4l14.348,8.983a2.815,2.815,0,0,1,0,4.768Z" transform="translate(0 -7.363)" fill="url(#linear-gradient)"></path><path id="Path_35" data-name="Path 35" d="M459.046,23.92a3.524,3.524,0,1,1-3.746,3.5,3.6,3.6,0,0,1,3.746-3.5m0,6.512a3,3,0,1,0,0-6,3,3,0,1,0,0,6m-1.453-5.055h1.677c1.027,0,1.515.377,1.515,1.175,0,.741-.5,1.061-1.147,1.123l1.237,1.825h-.721l-1.171-1.773h-.717V29.5h-.674V25.377m.674,1.83h.7c.592,0,1.132-.033,1.132-.7,0-.535-.492-.616-.946-.616h-.889Z" transform="translate(-237.758 -12.491)" fill="#231f20"></path></svg> 