<svg width="15" height="18" viewBox="0 0 15 18" fill="none" xmlns="http://www.w3.org/2000/svg">
<g opacity="0.8">
<path fill-rule="evenodd" clip-rule="evenodd" d="M7.70838 0.444359C7.87796 0.444368 8.02765 0.572207 8.07706 0.759273L9.56373 6.38758L14.0069 8.2601C14.1571 8.32338 14.2578 8.48702 14.2601 8.67135C14.2622 8.85568 14.1655 9.02241 14.0169 9.09049L9.60265 11.112L8.07775 17.0133C8.02904 17.2017 7.87888 17.3308 7.70838 17.3308C7.53795 17.3308 7.38772 17.2017 7.33901 17.0133L5.81378 11.1123L1.39937 9.09049C1.25079 9.02241 1.15407 8.85568 1.15629 8.67135C1.1585 8.48702 1.25918 8.32339 1.40934 8.2601L5.85272 6.38734L7.3397 0.759238C7.38911 0.57218 7.5388 0.444353 7.70838 0.444359Z" fill="#4287F5"/>
<path d="M12.9728 17.2864C12.888 17.2864 12.8186 17.2153 12.8109 17.1264C12.6568 15.3489 12.5411 14.7801 11.092 14.629C11.0072 14.6201 10.9456 14.5401 10.9456 14.4424C10.9456 14.3446 11.0072 14.2646 11.092 14.2557C12.5566 14.0957 12.6568 13.6336 12.8109 11.9005C12.8186 11.8027 12.888 11.7316 12.9728 11.7316C13.0576 11.7316 13.127 11.8027 13.1347 11.8916C13.2888 13.6336 13.389 14.0957 14.8536 14.2468C14.9384 14.2557 15 14.3357 15 14.4335C15 14.5312 14.9384 14.6112 14.8536 14.6201C13.4122 14.7801 13.2888 15.3489 13.1424 17.1175C13.1347 17.2153 13.0653 17.2864 12.9805 17.2864H12.9728Z" fill="#4287F5"/>
</g>
<path fill-rule="evenodd" clip-rule="evenodd" d="M6.55215 2.27085e-10C6.72174 6.22155e-06 6.87141 0.127845 6.92082 0.314911L8.40748 5.94322L12.8507 7.81574C13.0009 7.87902 13.1016 8.04264 13.1038 8.22697C13.106 8.4113 13.0092 8.57805 12.8607 8.64613L8.4464 10.6676L6.9215 16.569C6.87282 16.7573 6.72261 16.8865 6.55215 16.8865C6.38168 16.8865 6.23147 16.7573 6.18278 16.569L4.65753 10.668L0.243125 8.64613C0.094541 8.57805 -0.00217432 8.41129 3.7143e-05 8.22696C0.00224937 8.04264 0.10293 7.87903 0.253089 7.81574L4.69647 5.94298L6.18345 0.314882C6.23288 0.12782 6.38255 -6.2211e-06 6.55215 2.27085e-10ZM6.55209 1.96947L5.37786 6.41382C5.34261 6.54723 5.2551 6.65382 5.1415 6.7017L1.46706 8.25037L5.11578 9.92159C5.22547 9.97181 5.30914 10.0772 5.34285 10.2076L6.55208 14.8859L7.76107 10.2073C7.79476 10.0769 7.87839 9.97145 7.98816 9.92124L11.6366 8.25037L7.96249 6.70194C7.84887 6.65406 7.76131 6.54746 7.72608 6.41403L6.55209 1.96947Z" fill="white"/>
<path d="M12.5256 16.5487C12.4485 16.5487 12.3791 16.4776 12.3714 16.3887C12.2326 14.7712 12.1247 14.2557 10.8375 14.1135C10.7604 14.1046 10.6987 14.0246 10.6987 13.9358C10.6987 13.8469 10.7604 13.7669 10.8375 13.758C12.1556 13.6158 12.2326 13.2248 12.3714 11.6072C12.3714 11.5183 12.4485 11.4472 12.5256 11.4472C12.6026 11.4472 12.672 11.5183 12.6797 11.6072C12.8185 13.2248 12.9033 13.6158 14.2136 13.758C14.2907 13.7669 14.3524 13.8469 14.3524 13.9358C14.3524 14.0246 14.2907 14.1046 14.2136 14.1135C12.9187 14.2557 12.8185 14.7712 12.6797 16.3976C12.6797 16.4865 12.6103 16.5576 12.5256 16.5576V16.5487Z" fill="white"/>
</svg>
