<svg width="13" height="15" viewBox="0 0 13 15" fill="none" xmlns="http://www.w3.org/2000/svg">
<g opacity="0.8">
<path fill-rule="evenodd" clip-rule="evenodd" d="M6.38092 0.367828C6.52129 0.367836 6.6452 0.473659 6.6861 0.62851L7.91675 5.28755L11.5948 6.83759C11.7191 6.88998 11.8024 7.02543 11.8043 7.17802C11.8061 7.3306 11.726 7.46862 11.6031 7.52498L7.94897 9.19833L6.68668 14.0834C6.64635 14.2393 6.52206 14.3462 6.38092 14.3462C6.23984 14.3462 6.11548 14.2393 6.07516 14.0834L4.81259 9.19863L1.1584 7.52498C1.03541 7.46862 0.955353 7.3306 0.957184 7.17802C0.959015 7.02543 1.04235 6.88998 1.16666 6.83759L4.84483 5.28735L6.07573 0.628481C6.11663 0.473637 6.24054 0.367823 6.38092 0.367828Z" fill="#4287F5"/>
<path d="M10.7387 14.3095C10.6685 14.3095 10.6111 14.2506 10.6047 14.177C10.4771 12.7056 10.3813 12.2348 9.18178 12.1097C9.11159 12.1023 9.06055 12.0361 9.06055 11.9552C9.06055 11.8743 9.11159 11.8081 9.18178 11.8007C10.3941 11.6683 10.4771 11.2857 10.6047 9.85109C10.6111 9.77016 10.6685 9.7113 10.7387 9.7113C10.8089 9.7113 10.8663 9.77016 10.8727 9.84373C11.0003 11.2857 11.0832 11.6683 12.2955 11.7933C12.3657 11.8007 12.4168 11.8669 12.4168 11.9478C12.4168 12.0288 12.3657 12.095 12.2955 12.1023C11.1024 12.2348 11.0003 12.7056 10.879 14.1697C10.8727 14.2506 10.8152 14.3095 10.745 14.3095H10.7387Z" fill="#4287F5"/>
</g>
<path fill-rule="evenodd" clip-rule="evenodd" d="M5.42378 1.87978e-10C5.56417 5.15012e-06 5.68806 0.105828 5.72896 0.260679L6.95959 4.91972L10.6376 6.46977C10.762 6.52215 10.8453 6.65759 10.8471 6.81017C10.8489 6.96276 10.7689 7.10079 10.6459 7.15715L6.99182 8.83051L5.72952 13.7156C5.68923 13.8715 5.56489 13.9784 5.42378 13.9784C5.28267 13.9784 5.15832 13.8715 5.11802 13.7156L3.85544 8.8308L0.201256 7.15715C0.0782598 7.10079 -0.00179987 6.96275 3.07465e-05 6.81017C0.001862 6.65759 0.0852039 6.52215 0.209504 6.46977L3.88768 4.91952L5.11858 0.260655C5.15949 0.105807 5.28338 -5.14974e-06 5.42378 1.87978e-10ZM5.42373 1.6303L4.45172 5.30927C4.42254 5.41971 4.3501 5.50794 4.25606 5.54757L1.21441 6.82955L4.23477 8.21296C4.32557 8.25452 4.39484 8.34178 4.42274 8.44971L5.42372 12.3224L6.42451 8.44949C6.45239 8.34149 6.52162 8.25423 6.61249 8.21266L9.63265 6.82954L6.59124 5.54777C6.49719 5.50814 6.4247 5.4199 6.39554 5.30945L5.42373 1.6303Z" fill="black"/>
<path d="M10.3684 13.6988C10.3046 13.6988 10.2472 13.6399 10.2408 13.5664C10.126 12.2274 10.0366 11.8007 8.97105 11.683C8.90725 11.6756 8.8562 11.6094 8.8562 11.5358C8.8562 11.4623 8.90725 11.396 8.97105 11.3887C10.0621 11.271 10.126 10.9473 10.2408 9.60829C10.2408 9.53472 10.3046 9.47586 10.3684 9.47586C10.4322 9.47586 10.4897 9.53472 10.496 9.60829C10.6109 10.9473 10.6811 11.271 11.7658 11.3887C11.8296 11.396 11.8806 11.4623 11.8806 11.5358C11.8806 11.6094 11.8296 11.6756 11.7658 11.683C10.6938 11.8007 10.6109 12.2274 10.496 13.5737C10.496 13.6473 10.4386 13.7062 10.3684 13.7062V13.6988Z" fill="black"/>
</svg>
