<svg xmlns="http://www.w3.org/2000/svg" xmlns:xlink="http://www.w3.org/1999/xlink" width="1920" zoomAndPan="magnify" viewBox="0 0 1440 809.999993" height="1080" preserveAspectRatio="xMidYMid meet" version="1.0"><defs><clipPath id="c07ef0877d"><path d="M 30.507812 0 L 1409 0 L 1409 810 L 30.507812 810 Z M 30.507812 0 " clip-rule="nonzero"/></clipPath><clipPath id="9631e25809"><path d="M 720 -279.867188 C 339.203125 -279.867188 30.507812 28.230469 30.507812 408.285156 C 30.507812 788.339844 339.203125 1096.4375 720 1096.4375 C 1100.796875 1096.4375 1409.492188 788.339844 1409.492188 408.285156 C 1409.492188 28.230469 1100.796875 -279.867188 720 -279.867188 Z M 720 -279.867188 " clip-rule="nonzero"/></clipPath><clipPath id="e64dfd9638"><path d="M 109.582031 0 L 1327 0 L 1327 810 L 109.582031 810 Z M 109.582031 0 " clip-rule="nonzero"/></clipPath><clipPath id="510775f9b1"><path d="M 718.105469 -194.445312 C 382.027344 -194.445312 109.582031 71.179688 109.582031 398.847656 C 109.582031 726.515625 382.027344 992.144531 718.105469 992.144531 C 1054.183594 992.144531 1326.628906 726.515625 1326.628906 398.847656 C 1326.628906 71.179688 1054.183594 -194.445312 718.105469 -194.445312 Z M 718.105469 -194.445312 " clip-rule="nonzero"/></clipPath><clipPath id="e868a3f190"><path d="M 204.171875 0 L 1235 0 L 1235 810 L 204.171875 810 Z M 204.171875 0 " clip-rule="nonzero"/></clipPath><clipPath id="88af8562c6"><path d="M 719.5 -105.703125 C 434.894531 -105.703125 204.171875 124.417969 204.171875 408.285156 C 204.171875 692.152344 434.894531 922.273438 719.5 922.273438 C 1004.109375 922.273438 1234.828125 692.152344 1234.828125 408.285156 C 1234.828125 124.417969 1004.109375 -105.703125 719.5 -105.703125 Z M 719.5 -105.703125 " clip-rule="nonzero"/></clipPath><clipPath id="935d6de4b3"><path d="M 318.519531 3.890625 L 1121 3.890625 L 1121 810 L 318.519531 810 Z M 318.519531 3.890625 " clip-rule="nonzero"/></clipPath><clipPath id="7277e4fc4a"><path d="M 719.5 3.890625 C 498.046875 3.890625 318.519531 184.34375 318.519531 406.945312 C 318.519531 629.546875 498.046875 810 719.5 810 C 940.957031 810 1120.480469 629.546875 1120.480469 406.945312 C 1120.480469 184.34375 940.957031 3.890625 719.5 3.890625 Z M 719.5 3.890625 " clip-rule="nonzero"/></clipPath><clipPath id="8dfc8686f1"><path d="M 383.234375 68.234375 L 1056.765625 68.234375 L 1056.765625 741.765625 L 383.234375 741.765625 Z M 383.234375 68.234375 " clip-rule="nonzero"/></clipPath><clipPath id="09f1502be6"><path d="M 720 68.234375 C 534.007812 68.234375 383.234375 219.007812 383.234375 405 C 383.234375 590.992188 534.007812 741.765625 720 741.765625 C 905.992188 741.765625 1056.765625 590.992188 1056.765625 405 C 1056.765625 219.007812 905.992188 68.234375 720 68.234375 Z M 720 68.234375 " clip-rule="nonzero"/></clipPath><clipPath id="9d12b5cfa1"><path d="M 460.6875 145.6875 L 979.3125 145.6875 L 979.3125 664.3125 L 460.6875 664.3125 Z M 460.6875 145.6875 " clip-rule="nonzero"/></clipPath><clipPath id="928dfb3f07"><path d="M 720 145.6875 C 576.785156 145.6875 460.6875 261.785156 460.6875 405 C 460.6875 548.214844 576.785156 664.3125 720 664.3125 C 863.214844 664.3125 979.3125 548.214844 979.3125 405 C 979.3125 261.785156 863.214844 145.6875 720 145.6875 Z M 720 145.6875 " clip-rule="nonzero"/></clipPath><clipPath id="984aceb335"><path d="M 518.144531 203.144531 L 921.855469 203.144531 L 921.855469 606.855469 L 518.144531 606.855469 Z M 518.144531 203.144531 " clip-rule="nonzero"/></clipPath><clipPath id="b04d9efc72"><path d="M 720 203.144531 C 608.519531 203.144531 518.144531 293.519531 518.144531 405 C 518.144531 516.480469 608.519531 606.855469 720 606.855469 C 831.480469 606.855469 921.855469 516.480469 921.855469 405 C 921.855469 293.519531 831.480469 203.144531 720 203.144531 Z M 720 203.144531 " clip-rule="nonzero"/></clipPath><clipPath id="1b04d2931e"><path d="M 572.65625 258.152344 L 866.347656 258.152344 L 866.347656 551.847656 L 572.65625 551.847656 Z M 572.65625 258.152344 " clip-rule="nonzero"/></clipPath><clipPath id="8f3eb172ab"><path d="M 719.5 258.152344 C 638.398438 258.152344 572.65625 323.898438 572.65625 405 C 572.65625 486.101562 638.398438 551.847656 719.5 551.847656 C 800.601562 551.847656 866.347656 486.101562 866.347656 405 C 866.347656 323.898438 800.601562 258.152344 719.5 258.152344 Z M 719.5 258.152344 " clip-rule="nonzero"/></clipPath></defs><rect x="-144" width="1728" fill="#ffffff" y="-80.999999" height="971.999992" fill-opacity="1"/><rect x="-144" width="1728" fill="#daff60" y="-80.999999" height="971.999992" fill-opacity="1"/><g clip-path="url(#c07ef0877d)"><g clip-path="url(#9631e25809)"><path fill="#d4b6ff" d="M 30.507812 -279.867188 L 1408.871094 -279.867188 L 1408.871094 1096.4375 L 30.507812 1096.4375 Z M 30.507812 -279.867188 " fill-opacity="1" fill-rule="nonzero"/></g></g><g clip-path="url(#e64dfd9638)"><g clip-path="url(#510775f9b1)"><path fill="#daff60" d="M 109.582031 -194.445312 L 1326.050781 -194.445312 L 1326.050781 992.144531 L 109.582031 992.144531 Z M 109.582031 -194.445312 " fill-opacity="1" fill-rule="nonzero"/></g></g><g clip-path="url(#e868a3f190)"><g clip-path="url(#88af8562c6)"><path fill="#d4b6ff" d="M 204.171875 -105.703125 L 1234.210938 -105.703125 L 1234.210938 922.273438 L 204.171875 922.273438 Z M 204.171875 -105.703125 " fill-opacity="1" fill-rule="nonzero"/></g></g><g clip-path="url(#935d6de4b3)"><g clip-path="url(#7277e4fc4a)"><path fill="#daff60" d="M 318.519531 3.890625 L 1120.367188 3.890625 L 1120.367188 810 L 318.519531 810 Z M 318.519531 3.890625 " fill-opacity="1" fill-rule="nonzero"/></g></g><g clip-path="url(#8dfc8686f1)"><g clip-path="url(#09f1502be6)"><path fill="#d4b6ff" d="M 383.234375 68.234375 L 1056.765625 68.234375 L 1056.765625 741.765625 L 383.234375 741.765625 Z M 383.234375 68.234375 " fill-opacity="1" fill-rule="nonzero"/></g></g><g clip-path="url(#9d12b5cfa1)"><g clip-path="url(#928dfb3f07)"><path fill="#daff60" d="M 460.6875 145.6875 L 979.3125 145.6875 L 979.3125 664.3125 L 460.6875 664.3125 Z M 460.6875 145.6875 " fill-opacity="1" fill-rule="nonzero"/></g></g><g clip-path="url(#984aceb335)"><g clip-path="url(#b04d9efc72)"><path fill="#d4b6ff" d="M 518.144531 203.144531 L 921.855469 203.144531 L 921.855469 606.855469 L 518.144531 606.855469 Z M 518.144531 203.144531 " fill-opacity="1" fill-rule="nonzero"/></g></g><g clip-path="url(#1b04d2931e)"><g clip-path="url(#8f3eb172ab)"><path fill="#daff60" d="M 572.65625 258.152344 L 866.347656 258.152344 L 866.347656 551.847656 L 572.65625 551.847656 Z M 572.65625 258.152344 " fill-opacity="1" fill-rule="nonzero"/></g></g></svg>