<svg xmlns="http://www.w3.org/2000/svg" xmlns:xlink="http://www.w3.org/1999/xlink" width="500" zoomAndPan="magnify" viewBox="0 0 375 374.999991" height="500" preserveAspectRatio="xMidYMid meet" version="1.0"><defs><g/></defs><g fill="#ffffff" fill-opacity="1"><g transform="translate(58.125001, 172.036863)"><g><path d="M 0.484375 -1.203125 L 13.625 -33.59375 L 18.625 -33.59375 L 31.578125 -1.203125 L 27.40625 0.484375 L 23.65625 -9.125 L 8.109375 -9.125 L 4.375 0.390625 Z M 9.546875 -12.953125 L 22.171875 -12.953125 L 15.890625 -29.09375 Z M 9.546875 -12.953125 "/></g></g></g><g fill="#ffffff" fill-opacity="1"><g transform="translate(90.188941, 172.036863)"><g><path d="M 17.375 -20.78125 C 16.769531 -21.039062 16.050781 -21.171875 15.21875 -21.171875 C 14.320312 -21.171875 13.445312 -20.976562 12.59375 -20.59375 C 11.75 -20.207031 11 -19.628906 10.34375 -18.859375 C 9.6875 -18.097656 9.15625 -17.113281 8.75 -15.90625 C 8.351562 -14.707031 8.15625 -13.289062 8.15625 -11.65625 L 8.15625 0 L 3.84375 0 L 3.84375 -24.953125 L 8.015625 -24.953125 L 8.015625 -19.53125 C 8.304688 -20.300781 8.691406 -21.050781 9.171875 -21.78125 C 9.648438 -22.519531 10.21875 -23.160156 10.875 -23.703125 C 11.53125 -24.253906 12.289062 -24.695312 13.15625 -25.03125 C 14.019531 -25.363281 14.976562 -25.53125 16.03125 -25.53125 C 16.507812 -25.53125 16.976562 -25.503906 17.4375 -25.453125 C 17.90625 -25.410156 18.316406 -25.34375 18.671875 -25.25 Z M 17.375 -20.78125 "/></g></g></g><g fill="#ffffff" fill-opacity="1"><g transform="translate(109.340902, 172.036863)"><g><path d="M 26.15625 0.234375 C 24.625 0.234375 23.410156 -0.0664062 22.515625 -0.671875 C 21.617188 -1.273438 20.992188 -2.15625 20.640625 -3.3125 C 19.515625 -2.15625 18.222656 -1.21875 16.765625 -0.5 C 15.316406 0.21875 13.726562 0.578125 12 0.578125 C 10.914062 0.578125 9.867188 0.40625 8.859375 0.0625 C 7.847656 -0.269531 6.945312 -0.800781 6.15625 -1.53125 C 5.375 -2.269531 4.75 -3.226562 4.28125 -4.40625 C 3.820312 -5.59375 3.59375 -7.035156 3.59375 -8.734375 L 3.59375 -24.953125 L 7.921875 -24.953125 L 7.921875 -9.3125 C 7.921875 -7.363281 8.328125 -5.867188 9.140625 -4.828125 C 9.960938 -3.785156 11.1875 -3.265625 12.8125 -3.265625 C 14.15625 -3.265625 15.4375 -3.523438 16.65625 -4.046875 C 17.875 -4.578125 18.960938 -5.289062 19.921875 -6.1875 L 19.921875 -24.953125 L 24.234375 -24.953125 L 24.234375 -6.484375 C 24.234375 -5.773438 24.3125 -5.203125 24.46875 -4.765625 C 24.632812 -4.335938 24.84375 -4.003906 25.09375 -3.765625 C 25.351562 -3.523438 25.660156 -3.359375 26.015625 -3.265625 C 26.367188 -3.171875 26.722656 -3.125 27.078125 -3.125 Z M 26.15625 0.234375 "/></g></g></g><g fill="#ffffff" fill-opacity="1"><g transform="translate(138.332848, 172.036863)"><g><path d="M 7.921875 -8.25 C 7.921875 -6.519531 8.28125 -5.238281 9 -4.40625 C 9.71875 -3.582031 10.71875 -3.171875 12 -3.171875 C 12.601562 -3.171875 13.191406 -3.238281 13.765625 -3.375 C 14.347656 -3.519531 14.863281 -3.691406 15.3125 -3.890625 L 16.375 -0.390625 C 15.789062 -0.128906 15.070312 0.09375 14.21875 0.28125 C 13.375 0.476562 12.441406 0.578125 11.421875 0.578125 C 10.304688 0.578125 9.273438 0.414062 8.328125 0.09375 C 7.378906 -0.226562 6.550781 -0.722656 5.84375 -1.390625 C 5.144531 -2.066406 4.59375 -2.929688 4.1875 -3.984375 C 3.789062 -5.035156 3.59375 -6.316406 3.59375 -7.828125 L 3.59375 -35.515625 L 7.921875 -35.515625 Z M 7.921875 -8.25 "/></g></g></g><g fill="#ffffff" fill-opacity="1"><g transform="translate(58.125001, 213.28686)"><g><path d="M 0.484375 -32.40625 L 4.9375 -34.125 L 15.5 -4.984375 L 26.109375 -33.984375 L 30.234375 -32.40625 L 17.953125 0 L 12.8125 0 Z M 0.484375 -32.40625 "/></g></g></g><g fill="#ffffff" fill-opacity="1"><g transform="translate(88.844946, 213.28686)"><g><path d="M 2.15625 -12.34375 C 2.15625 -14.195312 2.441406 -15.929688 3.015625 -17.546875 C 3.597656 -19.160156 4.410156 -20.554688 5.453125 -21.734375 C 6.492188 -22.921875 7.738281 -23.847656 9.1875 -24.515625 C 10.644531 -25.191406 12.238281 -25.53125 13.96875 -25.53125 C 15.40625 -25.53125 16.707031 -25.28125 17.875 -24.78125 C 19.039062 -24.289062 20.054688 -23.675781 20.921875 -22.9375 L 20.921875 -24.953125 L 24.859375 -24.953125 L 24.859375 -6.046875 C 24.859375 -4.828125 25.15625 -4.035156 25.75 -3.671875 C 26.34375 -3.304688 26.992188 -3.125 27.703125 -3.125 L 26.78125 0.234375 C 23.707031 0.234375 21.851562 -1.007812 21.21875 -3.5 C 20.832031 -2.988281 20.390625 -2.484375 19.890625 -1.984375 C 19.398438 -1.492188 18.832031 -1.054688 18.1875 -0.671875 C 17.550781 -0.285156 16.832031 0.015625 16.03125 0.234375 C 15.226562 0.460938 14.347656 0.578125 13.390625 0.578125 C 11.828125 0.578125 10.363281 0.273438 9 -0.328125 C 7.632812 -0.941406 6.445312 -1.804688 5.4375 -2.921875 C 4.4375 -4.046875 3.640625 -5.398438 3.046875 -6.984375 C 2.453125 -8.566406 2.15625 -10.351562 2.15625 -12.34375 Z M 14.359375 -3.265625 C 15.566406 -3.265625 16.710938 -3.550781 17.796875 -4.125 C 18.890625 -4.695312 19.804688 -5.453125 20.546875 -6.390625 L 20.546875 -19.78125 C 19.679688 -20.382812 18.726562 -20.867188 17.6875 -21.234375 C 16.644531 -21.609375 15.550781 -21.796875 14.40625 -21.796875 C 13.25 -21.796875 12.191406 -21.570312 11.234375 -21.125 C 10.273438 -20.675781 9.453125 -20.039062 8.765625 -19.21875 C 8.078125 -18.40625 7.539062 -17.421875 7.15625 -16.265625 C 6.769531 -15.117188 6.578125 -13.859375 6.578125 -12.484375 C 6.578125 -11.140625 6.769531 -9.898438 7.15625 -8.765625 C 7.539062 -7.628906 8.082031 -6.648438 8.78125 -5.828125 C 9.488281 -5.015625 10.3125 -4.382812 11.25 -3.9375 C 12.195312 -3.488281 13.234375 -3.265625 14.359375 -3.265625 Z M 14.359375 -3.265625 "/></g></g></g><g fill="#ffffff" fill-opacity="1"><g transform="translate(118.460892, 213.28686)"><g><path d="M 7.921875 -8.25 C 7.921875 -6.519531 8.28125 -5.238281 9 -4.40625 C 9.71875 -3.582031 10.71875 -3.171875 12 -3.171875 C 12.601562 -3.171875 13.191406 -3.238281 13.765625 -3.375 C 14.347656 -3.519531 14.863281 -3.691406 15.3125 -3.890625 L 16.375 -0.390625 C 15.789062 -0.128906 15.070312 0.09375 14.21875 0.28125 C 13.375 0.476562 12.441406 0.578125 11.421875 0.578125 C 10.304688 0.578125 9.273438 0.414062 8.328125 0.09375 C 7.378906 -0.226562 6.550781 -0.722656 5.84375 -1.390625 C 5.144531 -2.066406 4.59375 -2.929688 4.1875 -3.984375 C 3.789062 -5.035156 3.59375 -6.316406 3.59375 -7.828125 L 3.59375 -35.515625 L 7.921875 -35.515625 Z M 7.921875 -8.25 "/></g></g></g><g fill="#ffffff" fill-opacity="1"><g transform="translate(135.068866, 213.28686)"><g><path d="M 2.15625 -12.34375 C 2.15625 -14.195312 2.441406 -15.929688 3.015625 -17.546875 C 3.597656 -19.160156 4.410156 -20.554688 5.453125 -21.734375 C 6.492188 -22.921875 7.738281 -23.847656 9.1875 -24.515625 C 10.644531 -25.191406 12.238281 -25.53125 13.96875 -25.53125 C 15.40625 -25.53125 16.707031 -25.28125 17.875 -24.78125 C 19.039062 -24.289062 20.054688 -23.675781 20.921875 -22.9375 L 20.921875 -24.953125 L 24.859375 -24.953125 L 24.859375 -6.046875 C 24.859375 -4.828125 25.15625 -4.035156 25.75 -3.671875 C 26.34375 -3.304688 26.992188 -3.125 27.703125 -3.125 L 26.78125 0.234375 C 23.707031 0.234375 21.851562 -1.007812 21.21875 -3.5 C 20.832031 -2.988281 20.390625 -2.484375 19.890625 -1.984375 C 19.398438 -1.492188 18.832031 -1.054688 18.1875 -0.671875 C 17.550781 -0.285156 16.832031 0.015625 16.03125 0.234375 C 15.226562 0.460938 14.347656 0.578125 13.390625 0.578125 C 11.828125 0.578125 10.363281 0.273438 9 -0.328125 C 7.632812 -0.941406 6.445312 -1.804688 5.4375 -2.921875 C 4.4375 -4.046875 3.640625 -5.398438 3.046875 -6.984375 C 2.453125 -8.566406 2.15625 -10.351562 2.15625 -12.34375 Z M 14.359375 -3.265625 C 15.566406 -3.265625 16.710938 -3.550781 17.796875 -4.125 C 18.890625 -4.695312 19.804688 -5.453125 20.546875 -6.390625 L 20.546875 -19.78125 C 19.679688 -20.382812 18.726562 -20.867188 17.6875 -21.234375 C 16.644531 -21.609375 15.550781 -21.796875 14.40625 -21.796875 C 13.25 -21.796875 12.191406 -21.570312 11.234375 -21.125 C 10.273438 -20.675781 9.453125 -20.039062 8.765625 -19.21875 C 8.078125 -18.40625 7.539062 -17.421875 7.15625 -16.265625 C 6.769531 -15.117188 6.578125 -13.859375 6.578125 -12.484375 C 6.578125 -11.140625 6.769531 -9.898438 7.15625 -8.765625 C 7.539062 -7.628906 8.082031 -6.648438 8.78125 -5.828125 C 9.488281 -5.015625 10.3125 -4.382812 11.25 -3.9375 C 12.195312 -3.488281 13.234375 -3.265625 14.359375 -3.265625 Z M 14.359375 -3.265625 "/></g></g></g><g fill="#ffffff" fill-opacity="1"><g transform="translate(164.684811, 213.28686)"><g><path d="M 8.015625 -20.78125 C 8.910156 -22.125 10.050781 -23.25 11.4375 -24.15625 C 12.832031 -25.070312 14.492188 -25.53125 16.421875 -25.53125 C 19.234375 -25.53125 21.332031 -24.679688 22.71875 -22.984375 C 24.113281 -21.296875 24.8125 -19.054688 24.8125 -16.265625 L 24.8125 0 L 20.5 0 L 20.5 -15.796875 C 20.5 -17.617188 20.082031 -19.066406 19.25 -20.140625 C 18.414062 -21.210938 17.234375 -21.75 15.703125 -21.75 C 14.960938 -21.75 14.238281 -21.609375 13.53125 -21.328125 C 12.832031 -21.054688 12.15625 -20.679688 11.5 -20.203125 C 10.84375 -19.722656 10.234375 -19.160156 9.671875 -18.515625 C 9.109375 -17.878906 8.601562 -17.210938 8.15625 -16.515625 L 8.15625 0 L 3.84375 0 L 3.84375 -24.953125 L 8.015625 -24.953125 Z M 8.015625 -20.78125 "/></g></g></g><g fill="#ffffff" fill-opacity="1"><g transform="translate(193.100764, 213.28686)"><g/></g></g><g fill="#ffffff" fill-opacity="1"><g transform="translate(207.500737, 213.28686)"><g><path d="M 0.484375 -1.203125 L 13.625 -33.59375 L 18.625 -33.59375 L 31.578125 -1.203125 L 27.40625 0.484375 L 23.65625 -9.125 L 8.109375 -9.125 L 4.375 0.390625 Z M 9.546875 -12.953125 L 22.171875 -12.953125 L 15.890625 -29.09375 Z M 9.546875 -12.953125 "/></g></g></g><g fill="#ffffff" fill-opacity="1"><g transform="translate(239.564678, 213.28686)"><g><path d="M 8.015625 -20.78125 C 8.910156 -22.125 10.050781 -23.25 11.4375 -24.15625 C 12.832031 -25.070312 14.492188 -25.53125 16.421875 -25.53125 C 19.234375 -25.53125 21.332031 -24.679688 22.71875 -22.984375 C 24.113281 -21.296875 24.8125 -19.054688 24.8125 -16.265625 L 24.8125 0 L 20.5 0 L 20.5 -15.796875 C 20.5 -17.617188 20.082031 -19.066406 19.25 -20.140625 C 18.414062 -21.210938 17.234375 -21.75 15.703125 -21.75 C 14.960938 -21.75 14.238281 -21.609375 13.53125 -21.328125 C 12.832031 -21.054688 12.15625 -20.679688 11.5 -20.203125 C 10.84375 -19.722656 10.234375 -19.160156 9.671875 -18.515625 C 9.109375 -17.878906 8.601562 -17.210938 8.15625 -16.515625 L 8.15625 0 L 3.84375 0 L 3.84375 -24.953125 L 8.015625 -24.953125 Z M 8.015625 -20.78125 "/></g></g></g><g fill="#ffffff" fill-opacity="1"><g transform="translate(267.98063, 213.28686)"><g><path d="M 5.8125 -31.921875 L 9.125 -31.921875 L 9.125 -24.046875 L 16.03125 -24.046875 L 16.03125 -20.296875 L 9.125 -20.296875 L 9.125 -8.25 C 9.125 -7.320312 9.226562 -6.535156 9.4375 -5.890625 C 9.644531 -5.253906 9.921875 -4.742188 10.265625 -4.359375 C 10.617188 -3.984375 11.039062 -3.707031 11.53125 -3.53125 C 12.03125 -3.351562 12.554688 -3.265625 13.109375 -3.265625 C 13.898438 -3.265625 14.648438 -3.390625 15.359375 -3.640625 C 16.066406 -3.898438 16.738281 -4.207031 17.375 -4.5625 L 18.578125 -1.109375 C 17.929688 -0.722656 17.066406 -0.347656 15.984375 0.015625 C 14.898438 0.390625 13.765625 0.578125 12.578125 0.578125 C 10.171875 0.578125 8.269531 -0.203125 6.875 -1.765625 C 5.488281 -3.335938 4.796875 -5.613281 4.796875 -8.59375 L 4.796875 -20.296875 L 0.484375 -20.296875 L 0.484375 -24.046875 L 4.890625 -24.046875 Z M 5.8125 -31.921875 "/></g></g></g><g fill="#ffffff" fill-opacity="1"><g transform="translate(287.036598, 213.28686)"><g><path d="M 22.375 -12.484375 C 22.375 -13.734375 22.171875 -14.914062 21.765625 -16.03125 C 21.367188 -17.15625 20.8125 -18.128906 20.09375 -18.953125 C 19.375 -19.785156 18.523438 -20.453125 17.546875 -20.953125 C 16.566406 -21.453125 15.503906 -21.703125 14.359375 -21.703125 C 11.828125 -21.703125 9.859375 -20.867188 8.453125 -19.203125 C 7.046875 -17.535156 6.34375 -15.328125 6.34375 -12.578125 C 6.34375 -11.328125 6.539062 -10.132812 6.9375 -9 C 7.332031 -7.863281 7.890625 -6.867188 8.609375 -6.015625 C 9.335938 -5.171875 10.1875 -4.5 11.15625 -4 C 12.132812 -3.507812 13.203125 -3.265625 14.359375 -3.265625 C 15.597656 -3.265625 16.710938 -3.488281 17.703125 -3.9375 C 18.703125 -4.382812 19.546875 -5.015625 20.234375 -5.828125 C 20.921875 -6.648438 21.445312 -7.617188 21.8125 -8.734375 C 22.1875 -9.859375 22.375 -11.109375 22.375 -12.484375 Z M 1.921875 -12.484375 C 1.921875 -14.492188 2.238281 -16.304688 2.875 -17.921875 C 3.519531 -19.546875 4.394531 -20.914062 5.5 -22.03125 C 6.601562 -23.15625 7.914062 -24.019531 9.4375 -24.625 C 10.957031 -25.226562 12.597656 -25.53125 14.359375 -25.53125 C 16.078125 -25.53125 17.695312 -25.226562 19.21875 -24.625 C 20.738281 -24.019531 22.054688 -23.15625 23.171875 -22.03125 C 24.296875 -20.914062 25.175781 -19.554688 25.8125 -17.953125 C 26.457031 -16.347656 26.78125 -14.554688 26.78125 -12.578125 C 26.78125 -10.585938 26.46875 -8.785156 25.84375 -7.171875 C 25.21875 -5.554688 24.34375 -4.171875 23.21875 -3.015625 C 22.101562 -1.867188 20.785156 -0.984375 19.265625 -0.359375 C 17.742188 0.265625 16.109375 0.578125 14.359375 0.578125 C 12.554688 0.578125 10.894531 0.257812 9.375 -0.375 C 7.863281 -1.019531 6.554688 -1.914062 5.453125 -3.0625 C 4.347656 -4.21875 3.484375 -5.59375 2.859375 -7.1875 C 2.234375 -8.789062 1.921875 -10.554688 1.921875 -12.484375 Z M 1.921875 -12.484375 "/></g></g></g><g fill="#ffffff" fill-opacity="1"><g transform="translate(315.740553, 213.28686)"><g><path d="M 3.984375 -2.640625 C 3.984375 -3.628906 4.257812 -4.410156 4.8125 -4.984375 C 5.375 -5.566406 6.171875 -5.859375 7.203125 -5.859375 C 8.035156 -5.859375 8.78125 -5.535156 9.4375 -4.890625 C 10.09375 -4.253906 10.421875 -3.503906 10.421875 -2.640625 C 10.421875 -1.679688 10.113281 -0.90625 9.5 -0.3125 C 8.894531 0.28125 8.128906 0.578125 7.203125 0.578125 C 6.335938 0.578125 5.582031 0.257812 4.9375 -0.375 C 4.300781 -1.019531 3.984375 -1.773438 3.984375 -2.640625 Z M 3.984375 -2.640625 "/></g></g></g></svg>